<svg width="652" height="703" viewBox="0 0 652 703" fill="none" xmlns="http://www.w3.org/2000/svg">
<g clip-path="url(#clip0_460_26019)">
<path d="M20.0846 241.964L9.00941 245.961L28.3973 299.764L82.1916 280.352L78.2 269.275L35.4809 284.69L20.0846 241.964Z" fill="url(#paint0_linear_460_26019)"/>
<path d="M287.955 367.847L276.879 371.843L296.267 425.646L350.062 406.235L346.07 395.158L303.351 410.573L287.955 367.847Z" fill="url(#paint1_linear_460_26019)"/>
<path d="M555.825 493.73L544.749 497.726L564.138 551.529L617.932 532.117L613.94 521.04L571.221 536.456L555.825 493.73Z" fill="url(#paint2_linear_460_26019)"/>
<path d="M154.02 304.906L142.944 308.902L162.332 362.705L216.127 343.293L212.135 332.216L169.416 347.632L154.02 304.906Z" fill="url(#paint3_linear_460_26019)"/>
<path d="M421.89 430.788L410.814 434.785L430.202 488.588L483.997 469.176L480.005 458.099L437.286 473.514L421.89 430.788Z" fill="url(#paint4_linear_460_26019)"/>
<path d="M490.709 632.292L479.633 636.289L499.022 690.092L552.816 670.68L548.824 659.603L506.105 675.018L490.709 632.292Z" fill="url(#paint5_linear_460_26019)"/>
<path d="M88.9037 443.468L77.8284 447.465L97.2165 501.267L151.011 481.856L147.019 470.779L104.3 486.194L88.9037 443.468Z" fill="url(#paint6_linear_460_26019)"/>
<path d="M-86.6647 643.423L-90.6563 632.346L-36.8618 612.934L-17.4741 666.737L-28.5493 670.733L-43.9454 628.008L-86.6647 643.423Z" fill="url(#paint7_linear_460_26019)"/>
<path d="M-110.147 519.089L-121.223 523.085L-101.835 576.888L-48.0404 557.477L-52.032 546.4L-94.751 561.815L-110.147 519.089Z" fill="url(#paint8_linear_460_26019)"/>
<path d="M157.723 644.972L146.647 648.968L166.035 702.771L219.83 683.359L215.838 672.282L173.119 687.698L157.723 644.972Z" fill="url(#paint9_linear_460_26019)"/>
<path d="M23.7877 582.03L12.7125 586.027L32.1005 639.83L85.8946 620.418L81.9031 609.341L39.1842 624.756L23.7877 582.03Z" fill="url(#paint10_linear_460_26019)"/>
<path d="M112.38 567.815L108.389 556.738L162.183 537.326L181.571 591.129L170.495 595.126L155.099 552.4L112.38 567.815Z" fill="url(#paint11_linear_460_26019)"/>
<path d="M43.5549 366.324L39.5633 355.247L93.3578 335.836L112.745 389.638L101.67 393.635L86.2741 350.909L43.5549 366.324Z" fill="url(#paint12_linear_460_26019)"/>
<path d="M311.425 492.207L307.433 481.13L361.228 461.718L380.615 515.521L369.54 519.518L354.144 476.792L311.425 492.207Z" fill="url(#paint13_linear_460_26019)"/>
<path d="M579.295 618.09L575.303 607.013L629.098 587.601L648.485 641.404L637.41 645.401L622.014 602.675L579.295 618.09Z" fill="url(#paint14_linear_460_26019)"/>
<path d="M445.36 555.148L441.368 544.071L495.163 524.66L514.55 578.463L503.475 582.459L488.079 539.733L445.36 555.148Z" fill="url(#paint15_linear_460_26019)"/>
<path d="M108.665 227.775L104.673 216.698L158.468 197.286L177.855 251.089L166.78 255.086L151.384 212.36L108.665 227.775Z" fill="url(#paint16_linear_460_26019)"/>
<path d="M242.6 290.716L238.608 279.639L292.403 260.228L311.79 314.031L300.715 318.027L285.319 275.301L242.6 290.716Z" fill="url(#paint17_linear_460_26019)"/>
<path d="M510.47 416.599L506.478 405.522L560.273 386.111L579.66 439.913L568.585 443.91L553.189 401.184L510.47 416.599Z" fill="url(#paint18_linear_460_26019)"/>
<path d="M570.419 190.541L581.288 184.265L550.807 131.469L498.011 161.951L504.286 172.821L546.213 148.615L570.419 190.541Z" fill="url(#paint19_linear_460_26019)"/>
<path d="M552.155 64.9878L557.107 73.6042L515.349 97.8205L491.293 55.9694L499.891 50.9837L518.994 84.2184L552.155 64.9878Z" fill="url(#paint20_linear_460_26019)"/>
<path d="M486.931 105.056L489.823 109.951L465.769 123.518L451.72 99.7417L456.673 96.9486L467.829 115.83L486.931 105.056Z" fill="url(#paint21_linear_460_26019)"/>
<path d="M341.256 129.137L346.209 126.344L332.16 102.568L308.106 116.134L310.998 121.029L330.1 110.256L341.256 129.137Z" fill="url(#paint22_linear_460_26019)"/>
<path d="M614.008 144.675L620.783 140.786L601.731 107.972L568.825 126.864L572.747 133.62L598.879 118.618L614.008 144.675Z" fill="url(#paint23_linear_460_26019)"/>
<path d="M668.128 8.81691L670.089 12.1948L653.636 21.6405L644.11 5.23369L647.498 3.28897L655.062 16.3179L668.128 8.81691Z" fill="url(#paint24_linear_460_26019)"/>
</g>
<defs>
<linearGradient id="paint0_linear_460_26019" x1="1745.33" y1="717.115" x2="306.179" y2="-45.2632" gradientUnits="userSpaceOnUse">
<stop stop-color="#BDDBFF" stop-opacity="0.56"/>
<stop offset="1" stop-color="#0072DB" stop-opacity="0"/>
</linearGradient>
<linearGradient id="paint1_linear_460_26019" x1="1745.33" y1="717.115" x2="306.179" y2="-45.2632" gradientUnits="userSpaceOnUse">
<stop stop-color="#BDDBFF" stop-opacity="0.56"/>
<stop offset="1" stop-color="#0072DB" stop-opacity="0"/>
</linearGradient>
<linearGradient id="paint2_linear_460_26019" x1="1745.33" y1="717.115" x2="306.179" y2="-45.2632" gradientUnits="userSpaceOnUse">
<stop stop-color="#BDDBFF" stop-opacity="0.56"/>
<stop offset="1" stop-color="#0072DB" stop-opacity="0"/>
</linearGradient>
<linearGradient id="paint3_linear_460_26019" x1="1745.33" y1="717.115" x2="306.179" y2="-45.2632" gradientUnits="userSpaceOnUse">
<stop stop-color="#BDDBFF" stop-opacity="0.56"/>
<stop offset="1" stop-color="#0072DB" stop-opacity="0"/>
</linearGradient>
<linearGradient id="paint4_linear_460_26019" x1="1745.33" y1="717.115" x2="306.179" y2="-45.2632" gradientUnits="userSpaceOnUse">
<stop stop-color="#BDDBFF" stop-opacity="0.56"/>
<stop offset="1" stop-color="#0072DB" stop-opacity="0"/>
</linearGradient>
<linearGradient id="paint5_linear_460_26019" x1="1745.33" y1="717.115" x2="306.179" y2="-45.2632" gradientUnits="userSpaceOnUse">
<stop stop-color="#BDDBFF" stop-opacity="0.56"/>
<stop offset="1" stop-color="#0072DB" stop-opacity="0"/>
</linearGradient>
<linearGradient id="paint6_linear_460_26019" x1="1745.33" y1="717.115" x2="306.179" y2="-45.2632" gradientUnits="userSpaceOnUse">
<stop stop-color="#BDDBFF" stop-opacity="0.56"/>
<stop offset="1" stop-color="#0072DB" stop-opacity="0"/>
</linearGradient>
<linearGradient id="paint7_linear_460_26019" x1="1745.33" y1="717.115" x2="306.179" y2="-45.2632" gradientUnits="userSpaceOnUse">
<stop stop-color="#BDDBFF" stop-opacity="0.56"/>
<stop offset="1" stop-color="#0072DB" stop-opacity="0"/>
</linearGradient>
<linearGradient id="paint8_linear_460_26019" x1="1745.33" y1="717.115" x2="306.179" y2="-45.2632" gradientUnits="userSpaceOnUse">
<stop stop-color="#BDDBFF" stop-opacity="0.56"/>
<stop offset="1" stop-color="#0072DB" stop-opacity="0"/>
</linearGradient>
<linearGradient id="paint9_linear_460_26019" x1="1745.33" y1="717.115" x2="306.179" y2="-45.2632" gradientUnits="userSpaceOnUse">
<stop stop-color="#BDDBFF" stop-opacity="0.56"/>
<stop offset="1" stop-color="#0072DB" stop-opacity="0"/>
</linearGradient>
<linearGradient id="paint10_linear_460_26019" x1="1745.33" y1="717.115" x2="306.179" y2="-45.2632" gradientUnits="userSpaceOnUse">
<stop stop-color="#BDDBFF" stop-opacity="0.56"/>
<stop offset="1" stop-color="#0072DB" stop-opacity="0"/>
</linearGradient>
<linearGradient id="paint11_linear_460_26019" x1="1745.33" y1="717.115" x2="306.179" y2="-45.2632" gradientUnits="userSpaceOnUse">
<stop stop-color="#BDDBFF" stop-opacity="0.56"/>
<stop offset="1" stop-color="#0072DB" stop-opacity="0"/>
</linearGradient>
<linearGradient id="paint12_linear_460_26019" x1="1745.33" y1="717.115" x2="306.179" y2="-45.2632" gradientUnits="userSpaceOnUse">
<stop stop-color="#BDDBFF" stop-opacity="0.56"/>
<stop offset="1" stop-color="#0072DB" stop-opacity="0"/>
</linearGradient>
<linearGradient id="paint13_linear_460_26019" x1="1745.33" y1="717.115" x2="306.179" y2="-45.2632" gradientUnits="userSpaceOnUse">
<stop stop-color="#BDDBFF" stop-opacity="0.56"/>
<stop offset="1" stop-color="#0072DB" stop-opacity="0"/>
</linearGradient>
<linearGradient id="paint14_linear_460_26019" x1="1745.33" y1="717.115" x2="306.179" y2="-45.2632" gradientUnits="userSpaceOnUse">
<stop stop-color="#BDDBFF" stop-opacity="0.56"/>
<stop offset="1" stop-color="#0072DB" stop-opacity="0"/>
</linearGradient>
<linearGradient id="paint15_linear_460_26019" x1="1745.33" y1="717.115" x2="306.179" y2="-45.2632" gradientUnits="userSpaceOnUse">
<stop stop-color="#BDDBFF" stop-opacity="0.56"/>
<stop offset="1" stop-color="#0072DB" stop-opacity="0"/>
</linearGradient>
<linearGradient id="paint16_linear_460_26019" x1="1745.33" y1="717.115" x2="306.179" y2="-45.2632" gradientUnits="userSpaceOnUse">
<stop stop-color="#BDDBFF" stop-opacity="0.56"/>
<stop offset="1" stop-color="#0072DB" stop-opacity="0"/>
</linearGradient>
<linearGradient id="paint17_linear_460_26019" x1="1745.33" y1="717.115" x2="306.179" y2="-45.2632" gradientUnits="userSpaceOnUse">
<stop stop-color="#BDDBFF" stop-opacity="0.56"/>
<stop offset="1" stop-color="#0072DB" stop-opacity="0"/>
</linearGradient>
<linearGradient id="paint18_linear_460_26019" x1="1745.33" y1="717.115" x2="306.179" y2="-45.2632" gradientUnits="userSpaceOnUse">
<stop stop-color="#BDDBFF" stop-opacity="0.56"/>
<stop offset="1" stop-color="#0072DB" stop-opacity="0"/>
</linearGradient>
<linearGradient id="paint19_linear_460_26019" x1="237.896" y1="139.381" x2="573.026" y2="250.316" gradientUnits="userSpaceOnUse">
<stop stop-color="#BDDBFF" stop-opacity="0.56"/>
<stop offset="1" stop-color="#0072DB" stop-opacity="0"/>
</linearGradient>
<linearGradient id="paint20_linear_460_26019" x1="237.896" y1="139.381" x2="573.026" y2="250.316" gradientUnits="userSpaceOnUse">
<stop stop-color="#BDDBFF" stop-opacity="0.56"/>
<stop offset="1" stop-color="#0072DB" stop-opacity="0"/>
</linearGradient>
<linearGradient id="paint21_linear_460_26019" x1="237.896" y1="139.381" x2="573.026" y2="250.316" gradientUnits="userSpaceOnUse">
<stop stop-color="#BDDBFF" stop-opacity="0.56"/>
<stop offset="1" stop-color="#0072DB" stop-opacity="0"/>
</linearGradient>
<linearGradient id="paint22_linear_460_26019" x1="237.896" y1="139.381" x2="573.026" y2="250.316" gradientUnits="userSpaceOnUse">
<stop stop-color="#BDDBFF" stop-opacity="0.56"/>
<stop offset="1" stop-color="#0072DB" stop-opacity="0"/>
</linearGradient>
<linearGradient id="paint23_linear_460_26019" x1="237.896" y1="139.381" x2="573.026" y2="250.316" gradientUnits="userSpaceOnUse">
<stop stop-color="#BDDBFF" stop-opacity="0.56"/>
<stop offset="1" stop-color="#0072DB" stop-opacity="0"/>
</linearGradient>
<linearGradient id="paint24_linear_460_26019" x1="237.896" y1="139.381" x2="573.026" y2="250.316" gradientUnits="userSpaceOnUse">
<stop stop-color="#BDDBFF" stop-opacity="0.56"/>
<stop offset="1" stop-color="#0072DB" stop-opacity="0"/>
</linearGradient>
<clipPath id="clip0_460_26019">
<rect width="652" height="703" fill="white"/>
</clipPath>
</defs>
</svg>
