<svg width="1140" height="752" viewBox="0 0 1140 752" fill="none" xmlns="http://www.w3.org/2000/svg">
<g clip-path="url(#clip0_460_26016)">
<path d="M148.954 258.847L137.879 262.843L157.267 316.646L211.061 297.235L207.07 286.158L164.351 301.573L148.954 258.847Z" fill="url(#paint0_linear_460_26016)"/>
<path d="M416.824 384.73L405.749 388.726L425.137 442.529L478.931 423.117L474.94 412.04L432.221 427.456L416.824 384.73Z" fill="url(#paint1_linear_460_26016)"/>
<path d="M684.694 510.612L673.619 514.609L693.007 568.412L746.801 549L742.81 537.923L700.091 553.338L684.694 510.612Z" fill="url(#paint2_linear_460_26016)"/>
<path d="M952.564 636.495L941.489 640.492L960.877 694.295L1014.67 674.883L1010.68 663.806L967.961 679.221L952.564 636.495Z" fill="url(#paint3_linear_460_26016)"/>
<path d="M15.0192 195.905L3.94398 199.902L23.332 253.705L77.1261 234.293L73.1346 223.216L30.4157 238.631L15.0192 195.905Z" fill="url(#paint4_linear_460_26016)"/>
<path d="M282.889 321.788L271.814 325.785L291.202 379.588L344.996 360.176L341.005 349.099L298.286 364.514L282.889 321.788Z" fill="url(#paint5_linear_460_26016)"/>
<path d="M818.629 573.554L807.554 577.55L826.942 631.353L880.736 611.942L876.745 600.865L834.026 616.28L818.629 573.554Z" fill="url(#paint6_linear_460_26016)"/>
<path d="M351.708 523.292L340.633 527.289L360.021 581.092L413.815 561.68L409.824 550.603L367.105 566.018L351.708 523.292Z" fill="url(#paint7_linear_460_26016)"/>
<path d="M619.578 649.175L608.503 653.171L627.891 706.974L681.685 687.563L677.694 676.486L634.975 691.901L619.578 649.175Z" fill="url(#paint8_linear_460_26016)"/>
<path d="M485.643 586.233L474.568 590.23L493.956 644.033L547.75 624.621L543.759 613.544L501.04 628.959L485.643 586.233Z" fill="url(#paint9_linear_460_26016)"/>
<path d="M42.2049 660.305L38.2133 649.228L92.0078 629.817L111.395 683.619L100.32 687.616L84.9241 644.89L42.2049 660.305Z" fill="url(#paint10_linear_460_26016)"/>
<path d="M176.14 723.247L172.148 712.17L225.943 692.758L245.33 746.561L234.255 750.557L218.859 707.832L176.14 723.247Z" fill="url(#paint11_linear_460_26016)"/>
<path d="M18.7222 535.972L7.64703 539.968L27.0351 593.771L80.8292 574.359L76.8376 563.282L34.1187 578.698L18.7222 535.972Z" fill="url(#paint12_linear_460_26016)"/>
<path d="M152.657 598.913L141.582 602.91L160.97 656.713L214.764 637.301L210.773 626.224L168.054 641.639L152.657 598.913Z" fill="url(#paint13_linear_460_26016)"/>
<path d="M375.185 647.639L371.193 636.562L424.988 617.15L444.375 670.953L433.3 674.95L417.904 632.224L375.185 647.639Z" fill="url(#paint14_linear_460_26016)"/>
<path d="M241.25 584.698L237.258 573.621L291.053 554.209L310.44 608.012L299.365 612.008L283.969 569.282L241.25 584.698Z" fill="url(#paint15_linear_460_26016)"/>
<path d="M509.12 710.58L505.128 699.503L558.923 680.092L578.31 733.895L567.235 737.891L551.839 695.165L509.12 710.58Z" fill="url(#paint16_linear_460_26016)"/>
<path d="M172.424 383.207L168.433 372.13L222.227 352.718L241.615 406.521L230.54 410.518L215.144 367.792L172.424 383.207Z" fill="url(#paint17_linear_460_26016)"/>
<path d="M440.294 509.09L436.303 498.013L490.097 478.601L509.485 532.404L498.41 536.4L483.014 493.675L440.294 509.09Z" fill="url(#paint18_linear_460_26016)"/>
<path d="M306.359 446.148L302.368 435.071L356.162 415.66L375.55 469.463L364.475 473.459L349.079 430.733L306.359 446.148Z" fill="url(#paint19_linear_460_26016)"/>
<path d="M574.229 572.031L570.238 560.954L624.032 541.542L643.42 595.345L632.345 599.342L616.949 556.616L574.229 572.031Z" fill="url(#paint20_linear_460_26016)"/>
<path d="M842.099 697.914L838.108 686.837L891.902 667.425L911.29 721.228L900.215 725.225L884.819 682.499L842.099 697.914Z" fill="url(#paint21_linear_460_26016)"/>
<path d="M1041.14 622.306L1037.15 611.229L1090.95 591.817L1110.33 645.62L1099.26 649.617L1083.86 606.891L1041.14 622.306Z" fill="url(#paint22_linear_460_26016)"/>
<path d="M103.599 181.716L99.6076 170.639L153.402 151.228L172.79 205.031L161.715 209.027L146.318 166.301L103.599 181.716Z" fill="url(#paint23_linear_460_26016)"/>
<path d="M371.469 307.599L367.478 296.522L421.272 277.11L440.66 330.913L429.585 334.91L414.188 292.184L371.469 307.599Z" fill="url(#paint24_linear_460_26016)"/>
<path d="M639.339 433.482L635.348 422.405L689.142 402.993L708.53 456.796L697.455 460.793L682.059 418.067L639.339 433.482Z" fill="url(#paint25_linear_460_26016)"/>
<path d="M907.209 559.365L903.218 548.288L957.012 528.876L976.4 582.679L965.325 586.675L949.929 543.95L907.209 559.365Z" fill="url(#paint26_linear_460_26016)"/>
<path d="M608.333 23.9157L596.762 27.0161L611.821 83.2183L668.023 68.159L664.923 56.588L620.292 68.5468L608.333 23.9157Z" fill="url(#paint27_linear_460_26016)"/>
<path d="M594.156 144.175L591.719 135.008L636.198 122.998L648.036 167.523L638.879 169.995L629.478 134.637L594.156 144.175Z" fill="url(#paint28_linear_460_26016)"/>
<path d="M664.184 123.347L662.727 118.12L688.254 111.555L695.332 136.945L690.076 138.296L684.455 118.134L664.184 123.347Z" fill="url(#paint29_linear_460_26016)"/>
<path d="M556.818 55.4314L549.612 57.3435L559.07 92.3006L594.073 83.0132L592.126 75.8162L564.329 83.1914L556.818 55.4314Z" fill="url(#paint30_linear_460_26016)"/>
<path d="M473.365 167.31L472.391 163.712L489.893 159.068L494.622 176.547L491.019 177.503L487.263 163.623L473.365 167.31Z" fill="url(#paint31_linear_460_26016)"/>
</g>
<defs>
<linearGradient id="paint0_linear_460_26016" x1="1606.33" y1="608.115" x2="167.179" y2="-154.263" gradientUnits="userSpaceOnUse">
<stop stop-color="#BDDBFF" stop-opacity="0.56"/>
<stop offset="1" stop-color="#0072DB" stop-opacity="0"/>
</linearGradient>
<linearGradient id="paint1_linear_460_26016" x1="1606.33" y1="608.115" x2="167.179" y2="-154.263" gradientUnits="userSpaceOnUse">
<stop stop-color="#BDDBFF" stop-opacity="0.56"/>
<stop offset="1" stop-color="#0072DB" stop-opacity="0"/>
</linearGradient>
<linearGradient id="paint2_linear_460_26016" x1="1606.33" y1="608.115" x2="167.179" y2="-154.263" gradientUnits="userSpaceOnUse">
<stop stop-color="#BDDBFF" stop-opacity="0.56"/>
<stop offset="1" stop-color="#0072DB" stop-opacity="0"/>
</linearGradient>
<linearGradient id="paint3_linear_460_26016" x1="1606.33" y1="608.115" x2="167.179" y2="-154.263" gradientUnits="userSpaceOnUse">
<stop stop-color="#BDDBFF" stop-opacity="0.56"/>
<stop offset="1" stop-color="#0072DB" stop-opacity="0"/>
</linearGradient>
<linearGradient id="paint4_linear_460_26016" x1="1606.33" y1="608.115" x2="167.179" y2="-154.263" gradientUnits="userSpaceOnUse">
<stop stop-color="#BDDBFF" stop-opacity="0.56"/>
<stop offset="1" stop-color="#0072DB" stop-opacity="0"/>
</linearGradient>
<linearGradient id="paint5_linear_460_26016" x1="1606.33" y1="608.115" x2="167.179" y2="-154.263" gradientUnits="userSpaceOnUse">
<stop stop-color="#BDDBFF" stop-opacity="0.56"/>
<stop offset="1" stop-color="#0072DB" stop-opacity="0"/>
</linearGradient>
<linearGradient id="paint6_linear_460_26016" x1="1606.33" y1="608.115" x2="167.179" y2="-154.263" gradientUnits="userSpaceOnUse">
<stop stop-color="#BDDBFF" stop-opacity="0.56"/>
<stop offset="1" stop-color="#0072DB" stop-opacity="0"/>
</linearGradient>
<linearGradient id="paint7_linear_460_26016" x1="1606.33" y1="608.115" x2="167.179" y2="-154.263" gradientUnits="userSpaceOnUse">
<stop stop-color="#BDDBFF" stop-opacity="0.56"/>
<stop offset="1" stop-color="#0072DB" stop-opacity="0"/>
</linearGradient>
<linearGradient id="paint8_linear_460_26016" x1="1606.33" y1="608.115" x2="167.179" y2="-154.263" gradientUnits="userSpaceOnUse">
<stop stop-color="#BDDBFF" stop-opacity="0.56"/>
<stop offset="1" stop-color="#0072DB" stop-opacity="0"/>
</linearGradient>
<linearGradient id="paint9_linear_460_26016" x1="1606.33" y1="608.115" x2="167.179" y2="-154.263" gradientUnits="userSpaceOnUse">
<stop stop-color="#BDDBFF" stop-opacity="0.56"/>
<stop offset="1" stop-color="#0072DB" stop-opacity="0"/>
</linearGradient>
<linearGradient id="paint10_linear_460_26016" x1="1606.33" y1="608.115" x2="167.179" y2="-154.263" gradientUnits="userSpaceOnUse">
<stop stop-color="#BDDBFF" stop-opacity="0.56"/>
<stop offset="1" stop-color="#0072DB" stop-opacity="0"/>
</linearGradient>
<linearGradient id="paint11_linear_460_26016" x1="1606.33" y1="608.115" x2="167.179" y2="-154.263" gradientUnits="userSpaceOnUse">
<stop stop-color="#BDDBFF" stop-opacity="0.56"/>
<stop offset="1" stop-color="#0072DB" stop-opacity="0"/>
</linearGradient>
<linearGradient id="paint12_linear_460_26016" x1="1606.33" y1="608.115" x2="167.179" y2="-154.263" gradientUnits="userSpaceOnUse">
<stop stop-color="#BDDBFF" stop-opacity="0.56"/>
<stop offset="1" stop-color="#0072DB" stop-opacity="0"/>
</linearGradient>
<linearGradient id="paint13_linear_460_26016" x1="1606.33" y1="608.115" x2="167.179" y2="-154.263" gradientUnits="userSpaceOnUse">
<stop stop-color="#BDDBFF" stop-opacity="0.56"/>
<stop offset="1" stop-color="#0072DB" stop-opacity="0"/>
</linearGradient>
<linearGradient id="paint14_linear_460_26016" x1="1606.33" y1="608.115" x2="167.179" y2="-154.263" gradientUnits="userSpaceOnUse">
<stop stop-color="#BDDBFF" stop-opacity="0.56"/>
<stop offset="1" stop-color="#0072DB" stop-opacity="0"/>
</linearGradient>
<linearGradient id="paint15_linear_460_26016" x1="1606.33" y1="608.115" x2="167.179" y2="-154.263" gradientUnits="userSpaceOnUse">
<stop stop-color="#BDDBFF" stop-opacity="0.56"/>
<stop offset="1" stop-color="#0072DB" stop-opacity="0"/>
</linearGradient>
<linearGradient id="paint16_linear_460_26016" x1="1606.33" y1="608.115" x2="167.179" y2="-154.263" gradientUnits="userSpaceOnUse">
<stop stop-color="#BDDBFF" stop-opacity="0.56"/>
<stop offset="1" stop-color="#0072DB" stop-opacity="0"/>
</linearGradient>
<linearGradient id="paint17_linear_460_26016" x1="1606.33" y1="608.115" x2="167.179" y2="-154.263" gradientUnits="userSpaceOnUse">
<stop stop-color="#BDDBFF" stop-opacity="0.56"/>
<stop offset="1" stop-color="#0072DB" stop-opacity="0"/>
</linearGradient>
<linearGradient id="paint18_linear_460_26016" x1="1606.33" y1="608.115" x2="167.179" y2="-154.263" gradientUnits="userSpaceOnUse">
<stop stop-color="#BDDBFF" stop-opacity="0.56"/>
<stop offset="1" stop-color="#0072DB" stop-opacity="0"/>
</linearGradient>
<linearGradient id="paint19_linear_460_26016" x1="1606.33" y1="608.115" x2="167.179" y2="-154.263" gradientUnits="userSpaceOnUse">
<stop stop-color="#BDDBFF" stop-opacity="0.56"/>
<stop offset="1" stop-color="#0072DB" stop-opacity="0"/>
</linearGradient>
<linearGradient id="paint20_linear_460_26016" x1="1606.33" y1="608.115" x2="167.179" y2="-154.263" gradientUnits="userSpaceOnUse">
<stop stop-color="#BDDBFF" stop-opacity="0.56"/>
<stop offset="1" stop-color="#0072DB" stop-opacity="0"/>
</linearGradient>
<linearGradient id="paint21_linear_460_26016" x1="1606.33" y1="608.115" x2="167.179" y2="-154.263" gradientUnits="userSpaceOnUse">
<stop stop-color="#BDDBFF" stop-opacity="0.56"/>
<stop offset="1" stop-color="#0072DB" stop-opacity="0"/>
</linearGradient>
<linearGradient id="paint22_linear_460_26016" x1="1606.33" y1="608.115" x2="167.179" y2="-154.263" gradientUnits="userSpaceOnUse">
<stop stop-color="#BDDBFF" stop-opacity="0.56"/>
<stop offset="1" stop-color="#0072DB" stop-opacity="0"/>
</linearGradient>
<linearGradient id="paint23_linear_460_26016" x1="1606.33" y1="608.115" x2="167.179" y2="-154.263" gradientUnits="userSpaceOnUse">
<stop stop-color="#BDDBFF" stop-opacity="0.56"/>
<stop offset="1" stop-color="#0072DB" stop-opacity="0"/>
</linearGradient>
<linearGradient id="paint24_linear_460_26016" x1="1606.33" y1="608.115" x2="167.179" y2="-154.263" gradientUnits="userSpaceOnUse">
<stop stop-color="#BDDBFF" stop-opacity="0.56"/>
<stop offset="1" stop-color="#0072DB" stop-opacity="0"/>
</linearGradient>
<linearGradient id="paint25_linear_460_26016" x1="1606.33" y1="608.115" x2="167.179" y2="-154.263" gradientUnits="userSpaceOnUse">
<stop stop-color="#BDDBFF" stop-opacity="0.56"/>
<stop offset="1" stop-color="#0072DB" stop-opacity="0"/>
</linearGradient>
<linearGradient id="paint26_linear_460_26016" x1="1606.33" y1="608.115" x2="167.179" y2="-154.263" gradientUnits="userSpaceOnUse">
<stop stop-color="#BDDBFF" stop-opacity="0.56"/>
<stop offset="1" stop-color="#0072DB" stop-opacity="0"/>
</linearGradient>
<linearGradient id="paint27_linear_460_26016" x1="902.248" y1="153.22" x2="620.695" y2="-31.8352" gradientUnits="userSpaceOnUse">
<stop stop-color="#BDDBFF" stop-opacity="0.56"/>
<stop offset="1" stop-color="#0072DB" stop-opacity="0"/>
</linearGradient>
<linearGradient id="paint28_linear_460_26016" x1="902.248" y1="153.22" x2="620.695" y2="-31.8352" gradientUnits="userSpaceOnUse">
<stop stop-color="#BDDBFF" stop-opacity="0.56"/>
<stop offset="1" stop-color="#0072DB" stop-opacity="0"/>
</linearGradient>
<linearGradient id="paint29_linear_460_26016" x1="902.248" y1="153.22" x2="620.695" y2="-31.8352" gradientUnits="userSpaceOnUse">
<stop stop-color="#BDDBFF" stop-opacity="0.56"/>
<stop offset="1" stop-color="#0072DB" stop-opacity="0"/>
</linearGradient>
<linearGradient id="paint30_linear_460_26016" x1="902.248" y1="153.22" x2="620.695" y2="-31.8352" gradientUnits="userSpaceOnUse">
<stop stop-color="#BDDBFF" stop-opacity="0.56"/>
<stop offset="1" stop-color="#0072DB" stop-opacity="0"/>
</linearGradient>
<linearGradient id="paint31_linear_460_26016" x1="902.248" y1="153.22" x2="620.695" y2="-31.8352" gradientUnits="userSpaceOnUse">
<stop stop-color="#BDDBFF" stop-opacity="0.56"/>
<stop offset="1" stop-color="#0072DB" stop-opacity="0"/>
</linearGradient>
<clipPath id="clip0_460_26016">
<rect width="1140" height="752" fill="white"/>
</clipPath>
</defs>
</svg>
