<svg width="1919" height="728" viewBox="0 0 1919 728" fill="none" xmlns="http://www.w3.org/2000/svg">
<path d="M345.748 111.73L334.673 115.726L354.061 169.529L407.855 150.117L403.864 139.04L361.145 154.456L345.748 111.73Z" fill="url(#paint0_linear_506_9)"/>
<path d="M613.618 237.612L602.543 241.609L621.931 295.412L675.725 276L671.734 264.923L629.015 280.338L613.618 237.612Z" fill="url(#paint1_linear_506_9)"/>
<path d="M881.488 363.495L870.413 367.492L889.801 421.295L943.595 401.883L939.604 390.806L896.885 406.221L881.488 363.495Z" fill="url(#paint2_linear_506_9)"/>
<path d="M211.813 48.7882L200.738 52.7848L220.126 106.588L273.92 87.176L269.929 76.099L227.21 91.5142L211.813 48.7882Z" fill="url(#paint3_linear_506_9)"/>
<path d="M747.553 300.554L736.478 304.55L755.866 358.353L809.66 338.942L805.669 327.865L762.95 343.28L747.553 300.554Z" fill="url(#paint4_linear_506_9)"/>
<path d="M173.889 651.737L169.898 640.66L223.692 621.249L243.08 675.052L232.004 679.048L216.608 636.322L173.889 651.737Z" fill="url(#paint5_linear_506_9)"/>
<path d="M39.9541 588.796L35.9626 577.719L89.757 558.307L109.145 612.11L98.0695 616.107L82.6733 573.381L39.9541 588.796Z" fill="url(#paint6_linear_506_9)"/>
<path d="M280.632 250.292L269.557 254.289L288.945 308.092L342.739 288.68L338.748 277.603L296.029 293.018L280.632 250.292Z" fill="url(#paint7_linear_506_9)"/>
<path d="M548.502 376.175L537.427 380.171L556.815 433.974L610.609 414.563L606.618 403.486L563.899 418.901L548.502 376.175Z" fill="url(#paint8_linear_506_9)"/>
<path d="M414.567 313.233L403.492 317.23L422.88 371.033L476.674 351.621L472.683 340.544L429.964 355.959L414.567 313.233Z" fill="url(#paint9_linear_506_9)"/>
<path d="M682.437 439.116L671.362 443.113L690.75 496.916L744.544 477.504L740.553 466.427L697.834 481.842L682.437 439.116Z" fill="url(#paint10_linear_506_9)"/>
<path d="M-28.8711 387.305L-32.8627 376.228L20.9319 356.817L40.3195 410.62L29.2443 414.616L13.8482 371.89L-28.8711 387.305Z" fill="url(#paint11_linear_506_9)"/>
<path d="M238.999 513.188L235.007 502.111L288.802 482.699L308.19 536.502L297.114 540.499L281.718 497.773L238.999 513.188Z" fill="url(#paint12_linear_506_9)"/>
<path d="M506.869 639.071L502.877 627.994L556.672 608.582L576.06 662.385L564.984 666.382L549.588 623.656L506.869 639.071Z" fill="url(#paint13_linear_506_9)"/>
<path d="M105.064 450.247L101.072 439.17L154.867 419.758L174.255 473.561L163.179 477.557L147.783 434.832L105.064 450.247Z" fill="url(#paint14_linear_506_9)"/>
<path d="M483.386 514.737L472.311 518.734L491.699 572.537L545.493 553.125L541.502 542.048L498.783 557.463L483.386 514.737Z" fill="url(#paint15_linear_506_9)"/>
<path d="M81.5813 325.913L70.5061 329.91L89.8941 383.713L143.688 364.301L139.697 353.224L96.9778 368.639L81.5813 325.913Z" fill="url(#paint16_linear_506_9)"/>
<path d="M304.109 374.639L300.117 363.562L353.912 344.15L373.299 397.953L362.224 401.95L346.828 359.224L304.109 374.639Z" fill="url(#paint17_linear_506_9)"/>
<path d="M571.979 500.522L567.987 489.445L621.782 470.033L641.169 523.836L630.094 527.832L614.698 485.107L571.979 500.522Z" fill="url(#paint18_linear_506_9)"/>
<path d="M170.174 311.698L166.182 300.621L219.977 281.209L239.364 335.012L228.289 339.008L212.893 296.282L170.174 311.698Z" fill="url(#paint19_linear_506_9)"/>
<path d="M438.044 437.58L434.052 426.503L487.847 407.092L507.234 460.894L496.159 464.891L480.763 422.165L438.044 437.58Z" fill="url(#paint20_linear_506_9)"/>
<path d="M418.27 653.3L407.195 657.296L426.583 711.099L480.377 691.687L476.386 680.61L433.667 696.026L418.27 653.3Z" fill="url(#paint21_linear_506_9)"/>
<path d="M16.4653 464.475L5.39005 468.472L24.7781 522.275L78.5722 502.863L74.5807 491.786L31.8618 507.201L16.4653 464.475Z" fill="url(#paint22_linear_506_9)"/>
<path d="M284.335 590.358L273.26 594.355L292.648 648.158L346.442 628.746L342.451 617.669L299.732 633.084L284.335 590.358Z" fill="url(#paint23_linear_506_9)"/>
<path d="M101.348 110.207L97.3569 99.1299L151.151 79.7183L170.539 133.521L159.464 137.518L144.068 94.7919L101.348 110.207Z" fill="url(#paint24_linear_506_9)"/>
<path d="M369.218 236.09L365.227 225.013L419.021 205.601L438.409 259.404L427.334 263.4L411.938 220.675L369.218 236.09Z" fill="url(#paint25_linear_506_9)"/>
<path d="M235.284 173.148L231.292 162.071L285.086 142.66L304.474 196.463L293.399 200.459L278.003 157.733L235.284 173.148Z" fill="url(#paint26_linear_506_9)"/>
<path d="M503.153 299.031L499.162 287.954L552.956 268.542L572.344 322.345L561.269 326.342L545.873 283.616L503.153 299.031Z" fill="url(#paint27_linear_506_9)"/>
<path d="M771.023 424.914L767.032 413.837L820.826 394.425L840.214 448.228L829.139 452.225L813.743 409.499L771.023 424.914Z" fill="url(#paint28_linear_506_9)"/>
<path d="M1038.89 550.797L1034.9 539.72L1088.7 520.308L1108.08 574.111L1097.01 578.107L1081.61 535.382L1038.89 550.797Z" fill="url(#paint29_linear_506_9)"/>
<path d="M85.2843 665.979L74.2091 669.976L93.5971 723.779L147.391 704.367L143.4 693.29L100.681 708.705L85.2843 665.979Z" fill="url(#paint30_linear_506_9)"/>
<path d="M970.068 349.306L966.077 338.229L1019.87 318.817L1039.26 372.62L1028.18 376.617L1012.79 333.891L970.068 349.306Z" fill="url(#paint31_linear_506_9)"/>
<path d="M300.393 34.5992L296.402 23.5221L350.196 4.11047L369.584 57.9133L358.509 61.9099L343.113 19.1841L300.393 34.5992Z" fill="url(#paint32_linear_506_9)"/>
<path d="M568.263 160.482L564.272 149.405L618.066 129.993L637.454 183.796L626.379 187.793L610.983 145.067L568.263 160.482Z" fill="url(#paint33_linear_506_9)"/>
<path d="M836.133 286.365L832.142 275.288L885.936 255.876L905.324 309.679L894.249 313.675L878.853 270.95L836.133 286.365Z" fill="url(#paint34_linear_506_9)"/>
<path d="M1600.88 64.8469L1589.8 68.8434L1609.19 122.646L1662.99 103.235L1658.99 92.1576L1616.27 107.573L1600.88 64.8469Z" fill="url(#paint35_linear_506_9)"/>
<path d="M1868.75 190.73L1857.67 194.726L1877.06 248.529L1930.86 229.117L1926.86 218.04L1884.14 233.456L1868.75 190.73Z" fill="url(#paint36_linear_506_9)"/>
<path d="M1466.94 1.9055L1455.87 5.90205L1475.26 59.7051L1529.05 40.2933L1525.06 29.2162L1482.34 44.6315L1466.94 1.9055Z" fill="url(#paint37_linear_506_9)"/>
<path d="M1734.81 127.788L1723.74 131.785L1743.13 185.588L1796.92 166.176L1792.93 155.099L1750.21 170.514L1734.81 127.788Z" fill="url(#paint38_linear_506_9)"/>
<path d="M1429.02 604.855L1425.03 593.778L1478.82 574.366L1498.21 628.169L1487.13 632.165L1471.74 589.44L1429.02 604.855Z" fill="url(#paint39_linear_506_9)"/>
<path d="M1803.63 329.292L1792.56 333.289L1811.95 387.092L1865.74 367.68L1861.75 356.603L1819.03 372.018L1803.63 329.292Z" fill="url(#paint40_linear_506_9)"/>
<path d="M1401.83 140.468L1390.75 144.464L1410.14 198.267L1463.93 178.856L1459.94 167.779L1417.22 183.194L1401.83 140.468Z" fill="url(#paint41_linear_506_9)"/>
<path d="M1226.26 340.423L1222.27 329.346L1276.06 309.934L1295.45 363.737L1284.37 367.733L1268.98 325.008L1226.26 340.423Z" fill="url(#paint42_linear_506_9)"/>
<path d="M1494.13 466.305L1490.14 455.228L1543.93 435.817L1563.32 489.62L1552.24 493.616L1536.85 450.89L1494.13 466.305Z" fill="url(#paint43_linear_506_9)"/>
<path d="M1762 592.188L1758.01 581.111L1811.8 561.7L1831.19 615.502L1820.11 619.499L1804.72 576.773L1762 592.188Z" fill="url(#paint44_linear_506_9)"/>
<path d="M1360.19 403.364L1356.2 392.287L1410 372.875L1429.38 426.678L1418.31 430.675L1402.91 387.949L1360.19 403.364Z" fill="url(#paint45_linear_506_9)"/>
<path d="M1628.06 529.247L1624.07 518.17L1677.87 498.758L1697.25 552.561L1686.18 556.558L1670.78 513.832L1628.06 529.247Z" fill="url(#paint46_linear_506_9)"/>
<path d="M1202.78 216.089L1191.7 220.085L1211.09 273.888L1264.88 254.477L1260.89 243.4L1218.17 258.815L1202.78 216.089Z" fill="url(#paint47_linear_506_9)"/>
<path d="M1470.65 341.972L1459.57 345.968L1478.96 399.771L1532.75 380.359L1528.76 369.282L1486.04 384.698L1470.65 341.972Z" fill="url(#paint48_linear_506_9)"/>
<path d="M1336.71 279.03L1325.64 283.027L1345.02 336.83L1398.82 317.418L1394.83 306.341L1352.11 321.756L1336.71 279.03Z" fill="url(#paint49_linear_506_9)"/>
<path d="M1604.58 404.913L1593.51 408.91L1612.89 462.713L1666.69 443.301L1662.7 432.224L1619.98 447.639L1604.58 404.913Z" fill="url(#paint50_linear_506_9)"/>
<path d="M1827.11 453.639L1823.12 442.562L1876.91 423.15L1896.3 476.953L1885.22 480.95L1869.83 438.224L1827.11 453.639Z" fill="url(#paint51_linear_506_9)"/>
<path d="M1425.3 264.815L1421.31 253.738L1475.11 234.326L1494.49 288.129L1483.42 292.126L1468.02 249.4L1425.3 264.815Z" fill="url(#paint52_linear_506_9)"/>
<path d="M1693.17 390.698L1689.18 379.621L1742.98 360.209L1762.36 414.012L1751.29 418.008L1735.89 375.283L1693.17 390.698Z" fill="url(#paint53_linear_506_9)"/>
<path d="M1405.53 480.534L1394.46 484.531L1413.84 538.334L1467.64 518.922L1463.65 507.845L1420.93 523.26L1405.53 480.534Z" fill="url(#paint54_linear_506_9)"/>
<path d="M1539.47 543.475L1528.39 547.472L1547.78 601.275L1601.57 581.863L1597.58 570.786L1554.86 586.201L1539.47 543.475Z" fill="url(#paint55_linear_506_9)"/>
<path d="M1356.48 63.3242L1352.49 52.2472L1406.28 32.8356L1425.67 86.6384L1414.59 90.6349L1399.2 47.9091L1356.48 63.3242Z" fill="url(#paint56_linear_506_9)"/>
<path d="M1624.35 189.207L1620.36 178.13L1674.15 158.718L1693.54 212.521L1682.46 216.518L1667.07 173.792L1624.35 189.207Z" fill="url(#paint57_linear_506_9)"/>
<path d="M1892.22 315.09L1888.23 304.013L1942.02 284.601L1961.41 338.404L1950.33 342.4L1934.94 299.675L1892.22 315.09Z" fill="url(#paint58_linear_506_9)"/>
<path d="M1758.28 252.148L1754.29 241.071L1808.09 221.66L1827.47 275.463L1816.4 279.459L1801 236.733L1758.28 252.148Z" fill="url(#paint59_linear_506_9)"/>
<path d="M1072.54 493.214L1061.47 497.21L1080.86 551.013L1134.65 531.602L1130.66 520.524L1087.94 535.94L1072.54 493.214Z" fill="url(#paint60_linear_506_9)"/>
<path d="M1206.48 556.155L1195.4 560.152L1214.79 613.955L1268.59 594.543L1264.59 583.466L1221.88 598.881L1206.48 556.155Z" fill="url(#paint61_linear_506_9)"/>
<path d="M1823.39 113.599L1819.4 102.522L1873.2 83.1105L1892.58 136.913L1881.51 140.91L1866.11 98.1841L1823.39 113.599Z" fill="url(#paint62_linear_506_9)"/>
<defs>
<linearGradient id="paint0_linear_506_9" x1="1535.26" y1="335.115" x2="96.1026" y2="-427.263" gradientUnits="userSpaceOnUse">
<stop stop-color="#BDDBFF" stop-opacity="0.1"/>
<stop offset="1" stop-color="#0072DB" stop-opacity="0"/>
</linearGradient>
<linearGradient id="paint1_linear_506_9" x1="1535.26" y1="335.115" x2="96.1026" y2="-427.263" gradientUnits="userSpaceOnUse">
<stop stop-color="#BDDBFF" stop-opacity="0.1"/>
<stop offset="1" stop-color="#0072DB" stop-opacity="0"/>
</linearGradient>
<linearGradient id="paint2_linear_506_9" x1="1535.26" y1="335.115" x2="96.1026" y2="-427.263" gradientUnits="userSpaceOnUse">
<stop stop-color="#BDDBFF" stop-opacity="0.1"/>
<stop offset="1" stop-color="#0072DB" stop-opacity="0"/>
</linearGradient>
<linearGradient id="paint3_linear_506_9" x1="1535.26" y1="335.115" x2="96.1026" y2="-427.263" gradientUnits="userSpaceOnUse">
<stop stop-color="#BDDBFF" stop-opacity="0.1"/>
<stop offset="1" stop-color="#0072DB" stop-opacity="0"/>
</linearGradient>
<linearGradient id="paint4_linear_506_9" x1="1535.26" y1="335.115" x2="96.1026" y2="-427.263" gradientUnits="userSpaceOnUse">
<stop stop-color="#BDDBFF" stop-opacity="0.1"/>
<stop offset="1" stop-color="#0072DB" stop-opacity="0"/>
</linearGradient>
<linearGradient id="paint5_linear_506_9" x1="1535.26" y1="335.115" x2="96.1026" y2="-427.263" gradientUnits="userSpaceOnUse">
<stop stop-color="#BDDBFF" stop-opacity="0.1"/>
<stop offset="1" stop-color="#0072DB" stop-opacity="0"/>
</linearGradient>
<linearGradient id="paint6_linear_506_9" x1="1535.26" y1="335.115" x2="96.1026" y2="-427.263" gradientUnits="userSpaceOnUse">
<stop stop-color="#BDDBFF" stop-opacity="0.1"/>
<stop offset="1" stop-color="#0072DB" stop-opacity="0"/>
</linearGradient>
<linearGradient id="paint7_linear_506_9" x1="1535.26" y1="335.115" x2="96.1026" y2="-427.263" gradientUnits="userSpaceOnUse">
<stop stop-color="#BDDBFF" stop-opacity="0.1"/>
<stop offset="1" stop-color="#0072DB" stop-opacity="0"/>
</linearGradient>
<linearGradient id="paint8_linear_506_9" x1="1535.26" y1="335.115" x2="96.1026" y2="-427.263" gradientUnits="userSpaceOnUse">
<stop stop-color="#BDDBFF" stop-opacity="0.1"/>
<stop offset="1" stop-color="#0072DB" stop-opacity="0"/>
</linearGradient>
<linearGradient id="paint9_linear_506_9" x1="1535.26" y1="335.115" x2="96.1026" y2="-427.263" gradientUnits="userSpaceOnUse">
<stop stop-color="#BDDBFF" stop-opacity="0.1"/>
<stop offset="1" stop-color="#0072DB" stop-opacity="0"/>
</linearGradient>
<linearGradient id="paint10_linear_506_9" x1="1535.26" y1="335.115" x2="96.1026" y2="-427.263" gradientUnits="userSpaceOnUse">
<stop stop-color="#BDDBFF" stop-opacity="0.1"/>
<stop offset="1" stop-color="#0072DB" stop-opacity="0"/>
</linearGradient>
<linearGradient id="paint11_linear_506_9" x1="1535.26" y1="335.115" x2="96.1026" y2="-427.263" gradientUnits="userSpaceOnUse">
<stop stop-color="#BDDBFF" stop-opacity="0.1"/>
<stop offset="1" stop-color="#0072DB" stop-opacity="0"/>
</linearGradient>
<linearGradient id="paint12_linear_506_9" x1="1535.26" y1="335.115" x2="96.1026" y2="-427.263" gradientUnits="userSpaceOnUse">
<stop stop-color="#BDDBFF" stop-opacity="0.1"/>
<stop offset="1" stop-color="#0072DB" stop-opacity="0"/>
</linearGradient>
<linearGradient id="paint13_linear_506_9" x1="1535.26" y1="335.115" x2="96.1026" y2="-427.263" gradientUnits="userSpaceOnUse">
<stop stop-color="#BDDBFF" stop-opacity="0.1"/>
<stop offset="1" stop-color="#0072DB" stop-opacity="0"/>
</linearGradient>
<linearGradient id="paint14_linear_506_9" x1="1535.26" y1="335.115" x2="96.1026" y2="-427.263" gradientUnits="userSpaceOnUse">
<stop stop-color="#BDDBFF" stop-opacity="0.1"/>
<stop offset="1" stop-color="#0072DB" stop-opacity="0"/>
</linearGradient>
<linearGradient id="paint15_linear_506_9" x1="1535.26" y1="335.115" x2="96.1026" y2="-427.263" gradientUnits="userSpaceOnUse">
<stop stop-color="#BDDBFF" stop-opacity="0.1"/>
<stop offset="1" stop-color="#0072DB" stop-opacity="0"/>
</linearGradient>
<linearGradient id="paint16_linear_506_9" x1="1535.26" y1="335.115" x2="96.1026" y2="-427.263" gradientUnits="userSpaceOnUse">
<stop stop-color="#BDDBFF" stop-opacity="0.1"/>
<stop offset="1" stop-color="#0072DB" stop-opacity="0"/>
</linearGradient>
<linearGradient id="paint17_linear_506_9" x1="1535.26" y1="335.115" x2="96.1026" y2="-427.263" gradientUnits="userSpaceOnUse">
<stop stop-color="#BDDBFF" stop-opacity="0.1"/>
<stop offset="1" stop-color="#0072DB" stop-opacity="0"/>
</linearGradient>
<linearGradient id="paint18_linear_506_9" x1="1535.26" y1="335.115" x2="96.1026" y2="-427.263" gradientUnits="userSpaceOnUse">
<stop stop-color="#BDDBFF" stop-opacity="0.1"/>
<stop offset="1" stop-color="#0072DB" stop-opacity="0"/>
</linearGradient>
<linearGradient id="paint19_linear_506_9" x1="1535.26" y1="335.115" x2="96.1026" y2="-427.263" gradientUnits="userSpaceOnUse">
<stop stop-color="#BDDBFF" stop-opacity="0.1"/>
<stop offset="1" stop-color="#0072DB" stop-opacity="0"/>
</linearGradient>
<linearGradient id="paint20_linear_506_9" x1="1535.26" y1="335.115" x2="96.1026" y2="-427.263" gradientUnits="userSpaceOnUse">
<stop stop-color="#BDDBFF" stop-opacity="0.1"/>
<stop offset="1" stop-color="#0072DB" stop-opacity="0"/>
</linearGradient>
<linearGradient id="paint21_linear_506_9" x1="1535.26" y1="335.115" x2="96.1026" y2="-427.263" gradientUnits="userSpaceOnUse">
<stop stop-color="#BDDBFF" stop-opacity="0.1"/>
<stop offset="1" stop-color="#0072DB" stop-opacity="0"/>
</linearGradient>
<linearGradient id="paint22_linear_506_9" x1="1535.26" y1="335.115" x2="96.1026" y2="-427.263" gradientUnits="userSpaceOnUse">
<stop stop-color="#BDDBFF" stop-opacity="0.1"/>
<stop offset="1" stop-color="#0072DB" stop-opacity="0"/>
</linearGradient>
<linearGradient id="paint23_linear_506_9" x1="1535.26" y1="335.115" x2="96.1026" y2="-427.263" gradientUnits="userSpaceOnUse">
<stop stop-color="#BDDBFF" stop-opacity="0.1"/>
<stop offset="1" stop-color="#0072DB" stop-opacity="0"/>
</linearGradient>
<linearGradient id="paint24_linear_506_9" x1="1535.26" y1="335.115" x2="96.1026" y2="-427.263" gradientUnits="userSpaceOnUse">
<stop stop-color="#BDDBFF" stop-opacity="0.1"/>
<stop offset="1" stop-color="#0072DB" stop-opacity="0"/>
</linearGradient>
<linearGradient id="paint25_linear_506_9" x1="1535.26" y1="335.115" x2="96.1026" y2="-427.263" gradientUnits="userSpaceOnUse">
<stop stop-color="#BDDBFF" stop-opacity="0.1"/>
<stop offset="1" stop-color="#0072DB" stop-opacity="0"/>
</linearGradient>
<linearGradient id="paint26_linear_506_9" x1="1535.26" y1="335.115" x2="96.1026" y2="-427.263" gradientUnits="userSpaceOnUse">
<stop stop-color="#BDDBFF" stop-opacity="0.1"/>
<stop offset="1" stop-color="#0072DB" stop-opacity="0"/>
</linearGradient>
<linearGradient id="paint27_linear_506_9" x1="1535.26" y1="335.115" x2="96.1026" y2="-427.263" gradientUnits="userSpaceOnUse">
<stop stop-color="#BDDBFF" stop-opacity="0.1"/>
<stop offset="1" stop-color="#0072DB" stop-opacity="0"/>
</linearGradient>
<linearGradient id="paint28_linear_506_9" x1="1535.26" y1="335.115" x2="96.1026" y2="-427.263" gradientUnits="userSpaceOnUse">
<stop stop-color="#BDDBFF" stop-opacity="0.1"/>
<stop offset="1" stop-color="#0072DB" stop-opacity="0"/>
</linearGradient>
<linearGradient id="paint29_linear_506_9" x1="1535.26" y1="335.115" x2="96.1026" y2="-427.263" gradientUnits="userSpaceOnUse">
<stop stop-color="#BDDBFF" stop-opacity="0.1"/>
<stop offset="1" stop-color="#0072DB" stop-opacity="0"/>
</linearGradient>
<linearGradient id="paint30_linear_506_9" x1="1535.26" y1="335.115" x2="96.1026" y2="-427.263" gradientUnits="userSpaceOnUse">
<stop stop-color="#BDDBFF" stop-opacity="0.1"/>
<stop offset="1" stop-color="#0072DB" stop-opacity="0"/>
</linearGradient>
<linearGradient id="paint31_linear_506_9" x1="1535.26" y1="335.115" x2="96.1026" y2="-427.263" gradientUnits="userSpaceOnUse">
<stop stop-color="#BDDBFF" stop-opacity="0.1"/>
<stop offset="1" stop-color="#0072DB" stop-opacity="0"/>
</linearGradient>
<linearGradient id="paint32_linear_506_9" x1="1535.26" y1="335.115" x2="96.1026" y2="-427.263" gradientUnits="userSpaceOnUse">
<stop stop-color="#BDDBFF" stop-opacity="0.1"/>
<stop offset="1" stop-color="#0072DB" stop-opacity="0"/>
</linearGradient>
<linearGradient id="paint33_linear_506_9" x1="1535.26" y1="335.115" x2="96.1026" y2="-427.263" gradientUnits="userSpaceOnUse">
<stop stop-color="#BDDBFF" stop-opacity="0.1"/>
<stop offset="1" stop-color="#0072DB" stop-opacity="0"/>
</linearGradient>
<linearGradient id="paint34_linear_506_9" x1="1535.26" y1="335.115" x2="96.1026" y2="-427.263" gradientUnits="userSpaceOnUse">
<stop stop-color="#BDDBFF" stop-opacity="0.1"/>
<stop offset="1" stop-color="#0072DB" stop-opacity="0"/>
</linearGradient>
<linearGradient id="paint35_linear_506_9" x1="3058.26" y1="414.115" x2="1619.1" y2="-348.263" gradientUnits="userSpaceOnUse">
<stop stop-color="#BDDBFF" stop-opacity="0.1"/>
<stop offset="1" stop-color="#0072DB" stop-opacity="0"/>
</linearGradient>
<linearGradient id="paint36_linear_506_9" x1="3058.26" y1="414.115" x2="1619.1" y2="-348.263" gradientUnits="userSpaceOnUse">
<stop stop-color="#BDDBFF" stop-opacity="0.1"/>
<stop offset="1" stop-color="#0072DB" stop-opacity="0"/>
</linearGradient>
<linearGradient id="paint37_linear_506_9" x1="3058.26" y1="414.115" x2="1619.1" y2="-348.263" gradientUnits="userSpaceOnUse">
<stop stop-color="#BDDBFF" stop-opacity="0.1"/>
<stop offset="1" stop-color="#0072DB" stop-opacity="0"/>
</linearGradient>
<linearGradient id="paint38_linear_506_9" x1="3058.26" y1="414.115" x2="1619.1" y2="-348.263" gradientUnits="userSpaceOnUse">
<stop stop-color="#BDDBFF" stop-opacity="0.1"/>
<stop offset="1" stop-color="#0072DB" stop-opacity="0"/>
</linearGradient>
<linearGradient id="paint39_linear_506_9" x1="3058.26" y1="414.115" x2="1619.1" y2="-348.263" gradientUnits="userSpaceOnUse">
<stop stop-color="#BDDBFF" stop-opacity="0.1"/>
<stop offset="1" stop-color="#0072DB" stop-opacity="0"/>
</linearGradient>
<linearGradient id="paint40_linear_506_9" x1="3058.26" y1="414.115" x2="1619.1" y2="-348.263" gradientUnits="userSpaceOnUse">
<stop stop-color="#BDDBFF" stop-opacity="0.1"/>
<stop offset="1" stop-color="#0072DB" stop-opacity="0"/>
</linearGradient>
<linearGradient id="paint41_linear_506_9" x1="3058.26" y1="414.115" x2="1619.1" y2="-348.263" gradientUnits="userSpaceOnUse">
<stop stop-color="#BDDBFF" stop-opacity="0.1"/>
<stop offset="1" stop-color="#0072DB" stop-opacity="0"/>
</linearGradient>
<linearGradient id="paint42_linear_506_9" x1="3058.26" y1="414.115" x2="1619.1" y2="-348.263" gradientUnits="userSpaceOnUse">
<stop stop-color="#BDDBFF" stop-opacity="0.1"/>
<stop offset="1" stop-color="#0072DB" stop-opacity="0"/>
</linearGradient>
<linearGradient id="paint43_linear_506_9" x1="3058.26" y1="414.115" x2="1619.1" y2="-348.263" gradientUnits="userSpaceOnUse">
<stop stop-color="#BDDBFF" stop-opacity="0.1"/>
<stop offset="1" stop-color="#0072DB" stop-opacity="0"/>
</linearGradient>
<linearGradient id="paint44_linear_506_9" x1="3058.26" y1="414.115" x2="1619.1" y2="-348.263" gradientUnits="userSpaceOnUse">
<stop stop-color="#BDDBFF" stop-opacity="0.1"/>
<stop offset="1" stop-color="#0072DB" stop-opacity="0"/>
</linearGradient>
<linearGradient id="paint45_linear_506_9" x1="3058.26" y1="414.115" x2="1619.1" y2="-348.263" gradientUnits="userSpaceOnUse">
<stop stop-color="#BDDBFF" stop-opacity="0.1"/>
<stop offset="1" stop-color="#0072DB" stop-opacity="0"/>
</linearGradient>
<linearGradient id="paint46_linear_506_9" x1="3058.26" y1="414.115" x2="1619.1" y2="-348.263" gradientUnits="userSpaceOnUse">
<stop stop-color="#BDDBFF" stop-opacity="0.1"/>
<stop offset="1" stop-color="#0072DB" stop-opacity="0"/>
</linearGradient>
<linearGradient id="paint47_linear_506_9" x1="3058.26" y1="414.115" x2="1619.1" y2="-348.263" gradientUnits="userSpaceOnUse">
<stop stop-color="#BDDBFF" stop-opacity="0.1"/>
<stop offset="1" stop-color="#0072DB" stop-opacity="0"/>
</linearGradient>
<linearGradient id="paint48_linear_506_9" x1="3058.26" y1="414.115" x2="1619.1" y2="-348.263" gradientUnits="userSpaceOnUse">
<stop stop-color="#BDDBFF" stop-opacity="0.1"/>
<stop offset="1" stop-color="#0072DB" stop-opacity="0"/>
</linearGradient>
<linearGradient id="paint49_linear_506_9" x1="3058.26" y1="414.115" x2="1619.1" y2="-348.263" gradientUnits="userSpaceOnUse">
<stop stop-color="#BDDBFF" stop-opacity="0.1"/>
<stop offset="1" stop-color="#0072DB" stop-opacity="0"/>
</linearGradient>
<linearGradient id="paint50_linear_506_9" x1="3058.26" y1="414.115" x2="1619.1" y2="-348.263" gradientUnits="userSpaceOnUse">
<stop stop-color="#BDDBFF" stop-opacity="0.1"/>
<stop offset="1" stop-color="#0072DB" stop-opacity="0"/>
</linearGradient>
<linearGradient id="paint51_linear_506_9" x1="3058.26" y1="414.115" x2="1619.1" y2="-348.263" gradientUnits="userSpaceOnUse">
<stop stop-color="#BDDBFF" stop-opacity="0.1"/>
<stop offset="1" stop-color="#0072DB" stop-opacity="0"/>
</linearGradient>
<linearGradient id="paint52_linear_506_9" x1="3058.26" y1="414.115" x2="1619.1" y2="-348.263" gradientUnits="userSpaceOnUse">
<stop stop-color="#BDDBFF" stop-opacity="0.1"/>
<stop offset="1" stop-color="#0072DB" stop-opacity="0"/>
</linearGradient>
<linearGradient id="paint53_linear_506_9" x1="3058.26" y1="414.115" x2="1619.1" y2="-348.263" gradientUnits="userSpaceOnUse">
<stop stop-color="#BDDBFF" stop-opacity="0.1"/>
<stop offset="1" stop-color="#0072DB" stop-opacity="0"/>
</linearGradient>
<linearGradient id="paint54_linear_506_9" x1="3058.26" y1="414.115" x2="1619.1" y2="-348.263" gradientUnits="userSpaceOnUse">
<stop stop-color="#BDDBFF" stop-opacity="0.1"/>
<stop offset="1" stop-color="#0072DB" stop-opacity="0"/>
</linearGradient>
<linearGradient id="paint55_linear_506_9" x1="3058.26" y1="414.115" x2="1619.1" y2="-348.263" gradientUnits="userSpaceOnUse">
<stop stop-color="#BDDBFF" stop-opacity="0.1"/>
<stop offset="1" stop-color="#0072DB" stop-opacity="0"/>
</linearGradient>
<linearGradient id="paint56_linear_506_9" x1="3058.26" y1="414.115" x2="1619.1" y2="-348.263" gradientUnits="userSpaceOnUse">
<stop stop-color="#BDDBFF" stop-opacity="0.1"/>
<stop offset="1" stop-color="#0072DB" stop-opacity="0"/>
</linearGradient>
<linearGradient id="paint57_linear_506_9" x1="3058.26" y1="414.115" x2="1619.1" y2="-348.263" gradientUnits="userSpaceOnUse">
<stop stop-color="#BDDBFF" stop-opacity="0.1"/>
<stop offset="1" stop-color="#0072DB" stop-opacity="0"/>
</linearGradient>
<linearGradient id="paint58_linear_506_9" x1="3058.26" y1="414.115" x2="1619.1" y2="-348.263" gradientUnits="userSpaceOnUse">
<stop stop-color="#BDDBFF" stop-opacity="0.1"/>
<stop offset="1" stop-color="#0072DB" stop-opacity="0"/>
</linearGradient>
<linearGradient id="paint59_linear_506_9" x1="3058.26" y1="414.115" x2="1619.1" y2="-348.263" gradientUnits="userSpaceOnUse">
<stop stop-color="#BDDBFF" stop-opacity="0.1"/>
<stop offset="1" stop-color="#0072DB" stop-opacity="0"/>
</linearGradient>
<linearGradient id="paint60_linear_506_9" x1="3058.26" y1="414.115" x2="1619.1" y2="-348.263" gradientUnits="userSpaceOnUse">
<stop stop-color="#BDDBFF" stop-opacity="0.1"/>
<stop offset="1" stop-color="#0072DB" stop-opacity="0"/>
</linearGradient>
<linearGradient id="paint61_linear_506_9" x1="3058.26" y1="414.115" x2="1619.1" y2="-348.263" gradientUnits="userSpaceOnUse">
<stop stop-color="#BDDBFF" stop-opacity="0.1"/>
<stop offset="1" stop-color="#0072DB" stop-opacity="0"/>
</linearGradient>
<linearGradient id="paint62_linear_506_9" x1="3058.26" y1="414.115" x2="1619.1" y2="-348.263" gradientUnits="userSpaceOnUse">
<stop stop-color="#BDDBFF" stop-opacity="0.1"/>
<stop offset="1" stop-color="#0072DB" stop-opacity="0"/>
</linearGradient>
</defs>
</svg>
