<svg width="54" height="51" viewBox="0 0 54 51" fill="none" xmlns="http://www.w3.org/2000/svg">
<path d="M33.1858 14.8406L39.3706 8.88115L30.8262 7.65339L27.0011 0L23.1805 7.65339L14.6361 8.88115L20.8209 14.8406L19.3599 23.2534L27.0011 19.2834L34.6445 23.2534L33.1858 14.8406Z" fill="white"/>
<path d="M16.1857 35.3977L12.3628 27.7399L8.54436 35.3977L0 36.6255L6.17807 42.5827L4.72149 51L12.365 47.0321L20.0063 51L18.5475 42.5827L24.7344 36.6255L16.1857 35.3977Z" fill="white"/>
<path d="M54 36.6255L45.4556 35.3977L41.6328 27.7399L37.8055 35.3977L29.2656 36.6255L35.4503 42.5827L33.9849 51L41.6306 47.0321L49.2762 51L47.8131 42.5827L54 36.6255Z" fill="white"/>
</svg>
