<svg width="56" height="57" viewBox="0 0 56 57" fill="none" xmlns="http://www.w3.org/2000/svg">
<g clip-path="url(#clip0_196_561)">
<path d="M54.6384 44.4492L47.5969 43.4481L44.4904 37.3039L41.3843 43.4481L36.2877 44.1727L31.1915 43.4481L28.085 37.3039L24.9785 43.4481L19.8819 44.1727L14.7857 43.4481L11.6792 37.3039L8.57269 43.4481L1.53125 44.4492L6.62915 49.3005L5.43542 55.9263L11.6792 52.8894L17.9225 55.9245L16.7288 49.3005L19.8819 46.3004L23.035 49.3005L21.8412 55.9263L28.0846 52.8894L34.3284 55.9245L33.1346 49.3005L36.2877 46.3004L39.4408 49.3005L38.2471 55.9263L44.4904 52.8894L50.7342 55.9245L49.5405 49.3005L54.6384 44.4492Z" fill="white"/>
<path d="M39.5699 27.816C39.5699 21.4842 34.4173 16.332 28.0855 16.332C21.7542 16.332 16.6016 21.4842 16.6016 27.816V36.0191H39.5699V27.816Z" fill="white"/>
<path d="M36.2887 8.12897C36.2887 3.60614 32.6084 -0.0737305 28.0855 -0.0737305C23.5627 -0.0737305 19.8828 3.60614 19.8828 8.12897C19.8828 12.6518 23.5627 16.3321 28.0855 16.3321C32.6084 16.3321 36.2887 12.6518 36.2887 8.12897Z" fill="white"/>
</g>
<defs>
<clipPath id="clip0_196_561">
<rect width="56" height="56" fill="white" transform="translate(0 0.0356445)"/>
</clipPath>
</defs>
</svg>
