<svg width="1104" height="750" viewBox="0 0 1104 750" fill="none" xmlns="http://www.w3.org/2000/svg">
<g clip-path="url(#clip0_535_21)">
<path d="M125.882 258.847L114.806 262.843L134.194 316.646L187.989 297.235L183.997 286.158L141.278 301.573L125.882 258.847Z" fill="url(#paint0_linear_535_21)"/>
<path d="M393.752 384.73L382.676 388.726L402.064 442.529L455.859 423.117L451.867 412.04L409.148 427.456L393.752 384.73Z" fill="url(#paint1_linear_535_21)"/>
<path d="M661.622 510.612L650.546 514.609L669.935 568.412L723.729 549L719.737 537.923L677.018 553.338L661.622 510.612Z" fill="url(#paint2_linear_535_21)"/>
<path d="M929.492 636.495L918.416 640.492L937.804 694.295L991.599 674.883L987.607 663.806L944.888 679.221L929.492 636.495Z" fill="url(#paint3_linear_535_21)"/>
<path d="M259.817 321.788L248.741 325.785L268.129 379.588L321.924 360.176L317.932 349.099L275.213 364.514L259.817 321.788Z" fill="url(#paint4_linear_535_21)"/>
<path d="M795.557 573.554L784.481 577.55L803.869 631.353L857.664 611.942L853.672 600.865L810.953 616.28L795.557 573.554Z" fill="url(#paint5_linear_535_21)"/>
<path d="M328.636 523.292L317.56 527.289L336.948 581.092L390.743 561.68L386.751 550.603L344.032 566.018L328.636 523.292Z" fill="url(#paint6_linear_535_21)"/>
<path d="M596.506 649.175L585.43 653.171L604.819 706.974L658.613 687.563L654.621 676.486L611.902 691.901L596.506 649.175Z" fill="url(#paint7_linear_535_21)"/>
<path d="M462.571 586.233L451.495 590.23L470.884 644.033L524.678 624.621L520.686 613.544L477.967 628.959L462.571 586.233Z" fill="url(#paint8_linear_535_21)"/>
<path d="M19.1323 660.305L15.1407 649.228L68.9352 629.817L88.3229 683.619L77.2476 687.616L61.8515 644.89L19.1323 660.305Z" fill="url(#paint9_linear_535_21)"/>
<path d="M129.585 598.913L118.509 602.91L137.897 656.713L191.692 637.301L187.7 626.224L144.981 641.639L129.585 598.913Z" fill="url(#paint10_linear_535_21)"/>
<path d="M352.112 647.639L348.121 636.562L401.915 617.15L421.303 670.953L410.227 674.95L394.831 632.224L352.112 647.639Z" fill="url(#paint11_linear_535_21)"/>
<path d="M218.177 584.698L214.186 573.621L267.98 554.209L287.368 608.012L276.292 612.008L260.896 569.282L218.177 584.698Z" fill="url(#paint12_linear_535_21)"/>
<path d="M149.352 383.207L145.36 372.13L199.155 352.718L218.542 406.521L207.467 410.518L192.071 367.792L149.352 383.207Z" fill="url(#paint13_linear_535_21)"/>
<path d="M417.222 509.09L413.23 498.013L467.025 478.601L486.412 532.404L475.337 536.4L459.941 493.675L417.222 509.09Z" fill="url(#paint14_linear_535_21)"/>
<path d="M283.287 446.148L279.295 435.071L333.09 415.66L352.477 469.463L341.402 473.459L326.006 430.733L283.287 446.148Z" fill="url(#paint15_linear_535_21)"/>
<path d="M551.157 572.031L547.165 560.954L600.96 541.542L620.347 595.345L609.272 599.342L593.876 556.616L551.157 572.031Z" fill="url(#paint16_linear_535_21)"/>
<path d="M819.027 697.914L815.035 686.837L868.83 667.425L888.218 721.228L877.142 725.225L861.746 682.499L819.027 697.914Z" fill="url(#paint17_linear_535_21)"/>
<path d="M1018.07 622.306L1014.08 611.229L1067.87 591.817L1087.26 645.62L1076.19 649.617L1060.79 606.891L1018.07 622.306Z" fill="url(#paint18_linear_535_21)"/>
<path d="M80.5266 181.716L76.535 170.639L130.33 151.228L149.717 205.031L138.642 209.027L123.246 166.301L80.5266 181.716Z" fill="url(#paint19_linear_535_21)"/>
<path d="M348.397 307.599L344.405 296.522L398.2 277.11L417.587 330.913L406.512 334.91L391.116 292.184L348.397 307.599Z" fill="url(#paint20_linear_535_21)"/>
<path d="M616.267 433.482L612.275 422.405L666.07 402.993L685.457 456.796L674.382 460.793L658.986 418.067L616.267 433.482Z" fill="url(#paint21_linear_535_21)"/>
<path d="M884.137 559.365L880.145 548.288L933.94 528.876L953.327 582.679L942.252 586.675L926.856 543.95L884.137 559.365Z" fill="url(#paint22_linear_535_21)"/>
<path d="M585.251 23.9157L573.68 27.0161L588.739 83.2183L644.941 68.159L641.841 56.588L597.21 68.5468L585.251 23.9157Z" fill="url(#paint23_linear_535_21)"/>
<path d="M571.074 144.175L568.637 135.008L613.116 122.998L624.954 167.523L615.797 169.995L606.396 134.637L571.074 144.175Z" fill="url(#paint24_linear_535_21)"/>
<path d="M641.102 123.347L639.645 118.12L665.171 111.555L672.25 136.945L666.994 138.296L661.373 118.134L641.102 123.347Z" fill="url(#paint25_linear_535_21)"/>
<path d="M533.736 55.4314L526.529 57.3435L535.988 92.3006L570.991 83.0132L569.043 75.8162L541.247 83.1914L533.736 55.4314Z" fill="url(#paint26_linear_535_21)"/>
<path d="M450.283 167.31L449.309 163.712L466.811 159.068L471.54 176.547L467.937 177.503L464.181 163.623L450.283 167.31Z" fill="url(#paint27_linear_535_21)"/>
</g>
<defs>
<linearGradient id="paint0_linear_535_21" x1="1583.26" y1="608.115" x2="144.105" y2="-154.263" gradientUnits="userSpaceOnUse">
<stop stop-color="#BDDBFF" stop-opacity="0.1"/>
<stop offset="1" stop-color="#0072DB" stop-opacity="0"/>
</linearGradient>
<linearGradient id="paint1_linear_535_21" x1="1583.26" y1="608.115" x2="144.105" y2="-154.263" gradientUnits="userSpaceOnUse">
<stop stop-color="#BDDBFF" stop-opacity="0.1"/>
<stop offset="1" stop-color="#0072DB" stop-opacity="0"/>
</linearGradient>
<linearGradient id="paint2_linear_535_21" x1="1583.26" y1="608.115" x2="144.105" y2="-154.263" gradientUnits="userSpaceOnUse">
<stop stop-color="#BDDBFF" stop-opacity="0.1"/>
<stop offset="1" stop-color="#0072DB" stop-opacity="0"/>
</linearGradient>
<linearGradient id="paint3_linear_535_21" x1="1583.26" y1="608.115" x2="144.105" y2="-154.263" gradientUnits="userSpaceOnUse">
<stop stop-color="#BDDBFF" stop-opacity="0.1"/>
<stop offset="1" stop-color="#0072DB" stop-opacity="0"/>
</linearGradient>
<linearGradient id="paint4_linear_535_21" x1="1583.26" y1="608.115" x2="144.105" y2="-154.263" gradientUnits="userSpaceOnUse">
<stop stop-color="#BDDBFF" stop-opacity="0.1"/>
<stop offset="1" stop-color="#0072DB" stop-opacity="0"/>
</linearGradient>
<linearGradient id="paint5_linear_535_21" x1="1583.26" y1="608.115" x2="144.105" y2="-154.263" gradientUnits="userSpaceOnUse">
<stop stop-color="#BDDBFF" stop-opacity="0.1"/>
<stop offset="1" stop-color="#0072DB" stop-opacity="0"/>
</linearGradient>
<linearGradient id="paint6_linear_535_21" x1="1583.26" y1="608.115" x2="144.105" y2="-154.263" gradientUnits="userSpaceOnUse">
<stop stop-color="#BDDBFF" stop-opacity="0.1"/>
<stop offset="1" stop-color="#0072DB" stop-opacity="0"/>
</linearGradient>
<linearGradient id="paint7_linear_535_21" x1="1583.26" y1="608.115" x2="144.105" y2="-154.263" gradientUnits="userSpaceOnUse">
<stop stop-color="#BDDBFF" stop-opacity="0.1"/>
<stop offset="1" stop-color="#0072DB" stop-opacity="0"/>
</linearGradient>
<linearGradient id="paint8_linear_535_21" x1="1583.26" y1="608.115" x2="144.105" y2="-154.263" gradientUnits="userSpaceOnUse">
<stop stop-color="#BDDBFF" stop-opacity="0.1"/>
<stop offset="1" stop-color="#0072DB" stop-opacity="0"/>
</linearGradient>
<linearGradient id="paint9_linear_535_21" x1="1583.26" y1="608.115" x2="144.105" y2="-154.263" gradientUnits="userSpaceOnUse">
<stop stop-color="#BDDBFF" stop-opacity="0.1"/>
<stop offset="1" stop-color="#0072DB" stop-opacity="0"/>
</linearGradient>
<linearGradient id="paint10_linear_535_21" x1="1583.26" y1="608.115" x2="144.105" y2="-154.263" gradientUnits="userSpaceOnUse">
<stop stop-color="#BDDBFF" stop-opacity="0.1"/>
<stop offset="1" stop-color="#0072DB" stop-opacity="0"/>
</linearGradient>
<linearGradient id="paint11_linear_535_21" x1="1583.26" y1="608.115" x2="144.105" y2="-154.263" gradientUnits="userSpaceOnUse">
<stop stop-color="#BDDBFF" stop-opacity="0.1"/>
<stop offset="1" stop-color="#0072DB" stop-opacity="0"/>
</linearGradient>
<linearGradient id="paint12_linear_535_21" x1="1583.26" y1="608.115" x2="144.105" y2="-154.263" gradientUnits="userSpaceOnUse">
<stop stop-color="#BDDBFF" stop-opacity="0.1"/>
<stop offset="1" stop-color="#0072DB" stop-opacity="0"/>
</linearGradient>
<linearGradient id="paint13_linear_535_21" x1="1583.26" y1="608.115" x2="144.105" y2="-154.263" gradientUnits="userSpaceOnUse">
<stop stop-color="#BDDBFF" stop-opacity="0.1"/>
<stop offset="1" stop-color="#0072DB" stop-opacity="0"/>
</linearGradient>
<linearGradient id="paint14_linear_535_21" x1="1583.26" y1="608.115" x2="144.105" y2="-154.263" gradientUnits="userSpaceOnUse">
<stop stop-color="#BDDBFF" stop-opacity="0.1"/>
<stop offset="1" stop-color="#0072DB" stop-opacity="0"/>
</linearGradient>
<linearGradient id="paint15_linear_535_21" x1="1583.26" y1="608.115" x2="144.105" y2="-154.263" gradientUnits="userSpaceOnUse">
<stop stop-color="#BDDBFF" stop-opacity="0.1"/>
<stop offset="1" stop-color="#0072DB" stop-opacity="0"/>
</linearGradient>
<linearGradient id="paint16_linear_535_21" x1="1583.26" y1="608.115" x2="144.105" y2="-154.263" gradientUnits="userSpaceOnUse">
<stop stop-color="#BDDBFF" stop-opacity="0.1"/>
<stop offset="1" stop-color="#0072DB" stop-opacity="0"/>
</linearGradient>
<linearGradient id="paint17_linear_535_21" x1="1583.26" y1="608.115" x2="144.105" y2="-154.263" gradientUnits="userSpaceOnUse">
<stop stop-color="#BDDBFF" stop-opacity="0.1"/>
<stop offset="1" stop-color="#0072DB" stop-opacity="0"/>
</linearGradient>
<linearGradient id="paint18_linear_535_21" x1="1583.26" y1="608.115" x2="144.105" y2="-154.263" gradientUnits="userSpaceOnUse">
<stop stop-color="#BDDBFF" stop-opacity="0.1"/>
<stop offset="1" stop-color="#0072DB" stop-opacity="0"/>
</linearGradient>
<linearGradient id="paint19_linear_535_21" x1="1583.26" y1="608.115" x2="144.105" y2="-154.263" gradientUnits="userSpaceOnUse">
<stop stop-color="#BDDBFF" stop-opacity="0.1"/>
<stop offset="1" stop-color="#0072DB" stop-opacity="0"/>
</linearGradient>
<linearGradient id="paint20_linear_535_21" x1="1583.26" y1="608.115" x2="144.105" y2="-154.263" gradientUnits="userSpaceOnUse">
<stop stop-color="#BDDBFF" stop-opacity="0.1"/>
<stop offset="1" stop-color="#0072DB" stop-opacity="0"/>
</linearGradient>
<linearGradient id="paint21_linear_535_21" x1="1583.26" y1="608.115" x2="144.105" y2="-154.263" gradientUnits="userSpaceOnUse">
<stop stop-color="#BDDBFF" stop-opacity="0.1"/>
<stop offset="1" stop-color="#0072DB" stop-opacity="0"/>
</linearGradient>
<linearGradient id="paint22_linear_535_21" x1="1583.26" y1="608.115" x2="144.105" y2="-154.263" gradientUnits="userSpaceOnUse">
<stop stop-color="#BDDBFF" stop-opacity="0.1"/>
<stop offset="1" stop-color="#0072DB" stop-opacity="0"/>
</linearGradient>
<linearGradient id="paint23_linear_535_21" x1="879.166" y1="153.22" x2="597.613" y2="-31.8352" gradientUnits="userSpaceOnUse">
<stop stop-color="#BDDBFF" stop-opacity="0.56"/>
<stop offset="1" stop-color="#0072DB" stop-opacity="0"/>
</linearGradient>
<linearGradient id="paint24_linear_535_21" x1="879.166" y1="153.22" x2="597.613" y2="-31.8352" gradientUnits="userSpaceOnUse">
<stop stop-color="#BDDBFF" stop-opacity="0.56"/>
<stop offset="1" stop-color="#0072DB" stop-opacity="0"/>
</linearGradient>
<linearGradient id="paint25_linear_535_21" x1="879.166" y1="153.22" x2="597.613" y2="-31.8352" gradientUnits="userSpaceOnUse">
<stop stop-color="#BDDBFF" stop-opacity="0.56"/>
<stop offset="1" stop-color="#0072DB" stop-opacity="0"/>
</linearGradient>
<linearGradient id="paint26_linear_535_21" x1="879.166" y1="153.22" x2="597.613" y2="-31.8352" gradientUnits="userSpaceOnUse">
<stop stop-color="#BDDBFF" stop-opacity="0.56"/>
<stop offset="1" stop-color="#0072DB" stop-opacity="0"/>
</linearGradient>
<linearGradient id="paint27_linear_535_21" x1="879.166" y1="153.22" x2="597.613" y2="-31.8352" gradientUnits="userSpaceOnUse">
<stop stop-color="#BDDBFF" stop-opacity="0.56"/>
<stop offset="1" stop-color="#0072DB" stop-opacity="0"/>
</linearGradient>
<clipPath id="clip0_535_21">
<rect width="1104" height="750" fill="white"/>
</clipPath>
</defs>
</svg>
