<svg width="1824" height="1869" viewBox="0 0 1824 1869" fill="none" xmlns="http://www.w3.org/2000/svg">
<path d="M75.8215 1271.62L71.83 1260.54L125.624 1241.13L145.012 1294.93L133.937 1298.93L118.541 1256.2L75.8215 1271.62Z" fill="url(#paint0_linear_536_31)"/>
<path d="M879.432 1649.27L875.44 1638.19L929.235 1618.78L948.622 1672.58L937.547 1676.58L922.151 1633.85L879.432 1649.27Z" fill="url(#paint1_linear_536_31)"/>
<path d="M1147.3 1775.15L1143.31 1764.07L1197.1 1744.66L1216.49 1798.46L1205.42 1802.46L1190.02 1759.74L1147.3 1775.15Z" fill="url(#paint2_linear_536_31)"/>
<path d="M209.757 1334.56L205.765 1323.48L259.559 1304.07L278.947 1357.88L267.872 1361.87L252.476 1319.15L209.757 1334.56Z" fill="url(#paint3_linear_536_31)"/>
<path d="M477.627 1460.44L473.635 1449.37L527.43 1429.96L546.817 1483.76L535.742 1487.75L520.346 1445.03L477.627 1460.44Z" fill="url(#paint4_linear_536_31)"/>
<path d="M1013.37 1712.21L1009.38 1701.13L1063.17 1681.72L1082.56 1735.52L1071.48 1739.52L1056.09 1696.79L1013.37 1712.21Z" fill="url(#paint5_linear_536_31)"/>
<path d="M140.931 1133.07L136.94 1121.99L190.734 1102.58L210.122 1156.38L199.047 1160.38L183.651 1117.66L140.931 1133.07Z" fill="url(#paint6_linear_536_31)"/>
<path d="M408.801 1258.95L404.81 1247.88L458.604 1228.46L477.992 1282.27L466.917 1286.26L451.521 1243.54L408.801 1258.95Z" fill="url(#paint7_linear_536_31)"/>
<path d="M944.541 1510.72L940.55 1499.64L994.344 1480.23L1013.73 1534.03L1002.66 1538.03L987.261 1495.3L944.541 1510.72Z" fill="url(#paint8_linear_536_31)"/>
<path d="M1212.41 1636.6L1208.42 1625.52L1262.21 1606.11L1281.6 1659.92L1270.53 1663.91L1255.13 1621.19L1212.41 1636.6Z" fill="url(#paint9_linear_536_31)"/>
<path d="M1078.48 1573.66L1074.48 1562.58L1128.28 1543.17L1147.67 1596.97L1136.59 1600.97L1121.2 1558.24L1078.48 1573.66Z" fill="url(#paint10_linear_536_31)"/>
<path d="M1346.35 1699.54L1342.35 1688.47L1396.15 1669.05L1415.54 1722.86L1404.46 1726.85L1389.07 1684.13L1346.35 1699.54Z" fill="url(#paint11_linear_536_31)"/>
<path d="M473.911 1120.4L469.92 1109.33L523.714 1089.92L543.102 1143.72L532.027 1147.71L516.63 1104.99L473.911 1120.4Z" fill="url(#paint12_linear_536_31)"/>
<path d="M741.781 1246.29L737.79 1235.21L791.584 1215.8L810.972 1269.6L799.897 1273.6L784.5 1230.87L741.781 1246.29Z" fill="url(#paint13_linear_536_31)"/>
<path d="M1009.65 1372.17L1005.66 1361.09L1059.45 1341.68L1078.84 1395.48L1067.77 1399.48L1052.37 1356.75L1009.65 1372.17Z" fill="url(#paint14_linear_536_31)"/>
<path d="M1277.52 1498.05L1273.53 1486.98L1327.32 1467.56L1346.71 1521.37L1335.64 1525.36L1320.24 1482.64L1277.52 1498.05Z" fill="url(#paint15_linear_536_31)"/>
<path d="M339.976 1057.46L335.985 1046.39L389.779 1026.97L409.167 1080.78L398.092 1084.77L382.695 1042.05L339.976 1057.46Z" fill="url(#paint16_linear_536_31)"/>
<path d="M607.846 1183.35L603.855 1172.27L657.649 1152.86L677.037 1206.66L665.962 1210.66L650.565 1167.93L607.846 1183.35Z" fill="url(#paint17_linear_536_31)"/>
<path d="M875.716 1309.23L871.725 1298.15L925.519 1278.74L944.907 1332.54L933.832 1336.54L918.435 1293.81L875.716 1309.23Z" fill="url(#paint18_linear_536_31)"/>
<path d="M443.01 315.964L431.935 319.96L451.323 373.763L505.117 354.352L501.126 343.275L458.406 358.69L443.01 315.964Z" fill="url(#paint19_linear_536_31)"/>
<path d="M710.88 441.847L699.805 445.843L719.193 499.646L772.987 480.234L768.996 469.157L726.277 484.573L710.88 441.847Z" fill="url(#paint20_linear_536_31)"/>
<path d="M978.75 567.729L967.675 571.726L987.063 625.529L1040.86 606.117L1036.87 595.04L994.147 610.455L978.75 567.729Z" fill="url(#paint21_linear_536_31)"/>
<path d="M1246.62 693.612L1235.54 697.609L1254.93 751.412L1308.73 732L1304.74 720.923L1262.02 736.338L1246.62 693.612Z" fill="url(#paint22_linear_536_31)"/>
<path d="M1514.49 819.495L1503.41 823.492L1522.8 877.295L1576.6 857.883L1572.61 846.806L1529.89 862.221L1514.49 819.495Z" fill="url(#paint23_linear_536_31)"/>
<path d="M576.945 378.905L565.87 382.902L585.258 436.705L639.052 417.293L635.061 406.216L592.342 421.631L576.945 378.905Z" fill="url(#paint24_linear_536_31)"/>
<path d="M844.815 504.788L833.74 508.785L853.128 562.588L906.922 543.176L902.931 532.099L860.212 547.514L844.815 504.788Z" fill="url(#paint25_linear_536_31)"/>
<path d="M1380.56 756.554L1369.48 760.55L1388.87 814.353L1442.66 794.941L1438.67 783.864L1395.95 799.28L1380.56 756.554Z" fill="url(#paint26_linear_536_31)"/>
<path d="M539.021 981.854L535.029 970.777L588.824 951.366L608.212 1005.17L597.136 1009.17L581.74 966.439L539.021 981.854Z" fill="url(#paint27_linear_536_31)"/>
<path d="M806.891 1107.74L802.899 1096.66L856.694 1077.25L876.082 1131.05L865.006 1135.05L849.61 1092.32L806.891 1107.74Z" fill="url(#paint28_linear_536_31)"/>
<path d="M672.956 1044.8L668.964 1033.72L722.759 1014.31L742.147 1068.11L731.071 1072.11L715.675 1029.38L672.956 1044.8Z" fill="url(#paint29_linear_536_31)"/>
<path d="M940.826 1170.68L936.834 1159.6L990.629 1140.19L1010.02 1193.99L998.941 1197.99L983.545 1155.26L940.826 1170.68Z" fill="url(#paint30_linear_536_31)"/>
<path d="M1208.7 1296.56L1204.7 1285.48L1258.5 1266.07L1277.89 1319.88L1266.81 1323.87L1251.42 1281.15L1208.7 1296.56Z" fill="url(#paint31_linear_536_31)"/>
<path d="M1476.57 1422.44L1472.57 1411.37L1526.37 1391.96L1545.76 1445.76L1534.68 1449.75L1519.29 1407.03L1476.57 1422.44Z" fill="url(#paint32_linear_536_31)"/>
<path d="M913.634 706.292L902.559 710.288L921.947 764.091L975.741 744.68L971.75 733.603L929.031 749.018L913.634 706.292Z" fill="url(#paint33_linear_536_31)"/>
<path d="M1181.5 832.175L1170.43 836.171L1189.82 889.974L1243.61 870.562L1239.62 859.485L1196.9 874.901L1181.5 832.175Z" fill="url(#paint34_linear_536_31)"/>
<path d="M511.829 517.468L500.754 521.464L520.142 575.267L573.936 555.855L569.945 544.778L527.226 560.194L511.829 517.468Z" fill="url(#paint35_linear_536_31)"/>
<path d="M1047.57 769.233L1036.49 773.23L1055.88 827.033L1109.68 807.621L1105.68 796.544L1062.97 811.959L1047.57 769.233Z" fill="url(#paint36_linear_536_31)"/>
<path d="M1315.44 895.116L1304.36 899.113L1323.75 952.916L1377.55 933.504L1373.55 922.427L1330.84 937.842L1315.44 895.116Z" fill="url(#paint37_linear_536_31)"/>
<path d="M336.261 717.422L332.269 706.345L386.064 686.934L405.451 740.737L394.376 744.733L378.98 702.007L336.261 717.422Z" fill="url(#paint38_linear_536_31)"/>
<path d="M604.131 843.305L600.139 832.228L653.934 812.816L673.321 866.619L662.246 870.616L646.85 827.89L604.131 843.305Z" fill="url(#paint39_linear_536_31)"/>
<path d="M872.001 969.188L868.009 958.111L921.804 938.699L941.191 992.502L930.116 996.499L914.72 953.773L872.001 969.188Z" fill="url(#paint40_linear_536_31)"/>
<path d="M1139.87 1095.07L1135.88 1083.99L1189.67 1064.58L1209.06 1118.38L1197.99 1122.38L1182.59 1079.66L1139.87 1095.07Z" fill="url(#paint41_linear_536_31)"/>
<path d="M1407.74 1220.95L1403.75 1209.88L1457.54 1190.46L1476.93 1244.27L1465.86 1248.26L1450.46 1205.54L1407.74 1220.95Z" fill="url(#paint42_linear_536_31)"/>
<path d="M470.196 780.364L466.204 769.287L519.999 749.875L539.386 803.678L528.311 807.675L512.915 764.949L470.196 780.364Z" fill="url(#paint43_linear_536_31)"/>
<path d="M738.066 906.247L734.074 895.169L787.869 875.758L807.256 929.561L796.181 933.557L780.785 890.831L738.066 906.247Z" fill="url(#paint44_linear_536_31)"/>
<path d="M1273.81 1158.01L1269.81 1146.94L1323.61 1127.52L1343 1181.33L1331.92 1185.32L1316.53 1142.6L1273.81 1158.01Z" fill="url(#paint45_linear_536_31)"/>
<path d="M1541.68 1283.89L1537.68 1272.82L1591.48 1253.41L1610.87 1307.21L1599.79 1311.21L1584.4 1268.48L1541.68 1283.89Z" fill="url(#paint46_linear_536_31)"/>
<path d="M312.778 593.089L301.703 597.085L321.091 650.888L374.885 631.476L370.894 620.399L328.175 635.815L312.778 593.089Z" fill="url(#paint47_linear_536_31)"/>
<path d="M580.648 718.971L569.573 722.968L588.961 776.771L642.755 757.359L638.764 746.282L596.045 761.697L580.648 718.971Z" fill="url(#paint48_linear_536_31)"/>
<path d="M1116.39 970.737L1105.31 974.734L1124.7 1028.54L1178.5 1009.12L1174.5 998.048L1131.78 1013.46L1116.39 970.737Z" fill="url(#paint49_linear_536_31)"/>
<path d="M446.713 656.03L435.638 660.027L455.026 713.83L508.82 694.418L504.829 683.341L462.11 698.756L446.713 656.03Z" fill="url(#paint50_linear_536_31)"/>
<path d="M714.583 781.913L703.508 785.909L722.896 839.712L776.69 820.301L772.699 809.224L729.98 824.639L714.583 781.913Z" fill="url(#paint51_linear_536_31)"/>
<path d="M937.111 830.639L933.119 819.562L986.914 800.15L1006.3 853.953L995.226 857.949L979.83 815.224L937.111 830.639Z" fill="url(#paint52_linear_536_31)"/>
<path d="M1204.98 956.522L1200.99 945.444L1254.78 926.033L1274.17 979.836L1263.1 983.832L1247.7 941.106L1204.98 956.522Z" fill="url(#paint53_linear_536_31)"/>
<path d="M535.306 641.815L531.314 630.738L585.109 611.326L604.496 665.129L593.421 669.125L578.025 626.399L535.306 641.815Z" fill="url(#paint54_linear_536_31)"/>
<path d="M803.176 767.697L799.184 756.62L852.979 737.209L872.366 791.012L861.291 795.008L845.895 752.282L803.176 767.697Z" fill="url(#paint55_linear_536_31)"/>
<path d="M1071.05 893.58L1067.05 882.503L1120.85 863.091L1140.24 916.894L1129.16 920.891L1113.76 878.165L1071.05 893.58Z" fill="url(#paint56_linear_536_31)"/>
<path d="M515.532 857.534L504.457 861.53L523.845 915.333L577.639 895.922L573.648 884.845L530.929 900.26L515.532 857.534Z" fill="url(#paint57_linear_536_31)"/>
<path d="M1051.27 1109.3L1040.2 1113.3L1059.59 1167.1L1113.38 1147.69L1109.39 1136.61L1066.67 1152.03L1051.27 1109.3Z" fill="url(#paint58_linear_536_31)"/>
<path d="M1319.14 1235.18L1308.07 1239.18L1327.46 1292.98L1381.25 1273.57L1377.26 1262.49L1334.54 1277.91L1319.14 1235.18Z" fill="url(#paint59_linear_536_31)"/>
<path d="M649.467 920.475L638.392 924.472L657.78 978.275L711.574 958.863L707.583 947.786L664.864 963.201L649.467 920.475Z" fill="url(#paint60_linear_536_31)"/>
<path d="M917.337 1046.36L906.262 1050.35L925.65 1104.16L979.444 1084.75L975.453 1073.67L932.734 1089.08L917.337 1046.36Z" fill="url(#paint61_linear_536_31)"/>
<path d="M1185.21 1172.24L1174.13 1176.24L1193.52 1230.04L1247.31 1210.63L1243.32 1199.55L1200.6 1214.97L1185.21 1172.24Z" fill="url(#paint62_linear_536_31)"/>
<path d="M1453.08 1298.12L1442 1302.12L1461.39 1355.92L1515.18 1336.51L1511.19 1325.43L1468.47 1340.85L1453.08 1298.12Z" fill="url(#paint63_linear_536_31)"/>
<path d="M466.48 440.324L462.489 429.247L516.283 409.835L535.671 463.638L524.596 467.635L509.2 424.909L466.48 440.324Z" fill="url(#paint64_linear_536_31)"/>
<path d="M734.35 566.207L730.359 555.13L784.153 535.718L803.541 589.521L792.466 593.517L777.07 550.792L734.35 566.207Z" fill="url(#paint65_linear_536_31)"/>
<path d="M1002.22 692.09L998.229 681.013L1052.02 661.601L1071.41 715.404L1060.34 719.4L1044.94 676.674L1002.22 692.09Z" fill="url(#paint66_linear_536_31)"/>
<path d="M868.285 629.148L864.294 618.071L918.088 598.66L937.476 652.462L926.401 656.459L911.005 613.733L868.285 629.148Z" fill="url(#paint67_linear_536_31)"/>
<path d="M1136.16 755.031L1132.16 743.954L1185.96 724.542L1205.35 778.345L1194.27 782.342L1178.87 739.616L1136.16 755.031Z" fill="url(#paint68_linear_536_31)"/>
<path d="M1404.03 880.914L1400.03 869.837L1453.83 850.425L1473.22 904.228L1462.14 908.224L1446.74 865.499L1404.03 880.914Z" fill="url(#paint69_linear_536_31)"/>
<path d="M1671.9 1006.8L1667.9 995.719L1721.7 976.308L1741.09 1030.11L1730.01 1034.11L1714.61 991.381L1671.9 1006.8Z" fill="url(#paint70_linear_536_31)"/>
<path d="M182.546 870.213L171.471 874.21L190.859 928.013L244.653 908.601L240.662 897.524L197.943 912.939L182.546 870.213Z" fill="url(#paint71_linear_536_31)"/>
<path d="M450.416 996.096L439.341 1000.09L458.729 1053.9L512.523 1034.48L508.532 1023.41L465.813 1038.82L450.416 996.096Z" fill="url(#paint72_linear_536_31)"/>
<path d="M718.286 1121.98L707.211 1125.98L726.599 1179.78L780.393 1160.37L776.402 1149.29L733.683 1164.7L718.286 1121.98Z" fill="url(#paint73_linear_536_31)"/>
<path d="M316.481 933.155L305.406 937.151L324.794 990.954L378.588 971.543L374.597 960.466L331.878 975.881L316.481 933.155Z" fill="url(#paint74_linear_536_31)"/>
<path d="M1120.09 1310.8L1109.02 1314.8L1128.4 1368.6L1182.2 1349.19L1178.21 1338.11L1135.49 1353.53L1120.09 1310.8Z" fill="url(#paint75_linear_536_31)"/>
<path d="M1387.96 1436.69L1376.89 1440.68L1396.27 1494.49L1450.07 1475.07L1446.08 1464L1403.36 1479.41L1387.96 1436.69Z" fill="url(#paint76_linear_536_31)"/>
<path d="M531.59 301.775L527.599 290.698L581.393 271.286L600.781 325.089L589.706 329.086L574.309 286.36L531.59 301.775Z" fill="url(#paint77_linear_536_31)"/>
<path d="M1603.07 805.306L1599.08 794.229L1652.87 774.817L1672.26 828.62L1661.19 832.617L1645.79 789.891L1603.07 805.306Z" fill="url(#paint78_linear_536_31)"/>
<path d="M665.525 364.716L661.534 353.639L715.328 334.228L734.716 388.03L723.641 392.027L708.244 349.301L665.525 364.716Z" fill="url(#paint79_linear_536_31)"/>
<path d="M933.395 490.599L929.404 479.522L983.198 460.11L1002.59 513.913L991.511 517.91L976.114 475.184L933.395 490.599Z" fill="url(#paint80_linear_536_31)"/>
<path d="M1201.27 616.482L1197.27 605.405L1251.07 585.993L1270.46 639.796L1259.38 643.792L1243.98 601.067L1201.27 616.482Z" fill="url(#paint81_linear_536_31)"/>
<path d="M1469.14 742.365L1465.14 731.287L1518.94 711.876L1538.33 765.679L1527.25 769.675L1511.85 726.949L1469.14 742.365Z" fill="url(#paint82_linear_536_31)"/>
<path d="M653.17 1260.54L642.095 1264.54L661.483 1318.34L715.277 1298.93L711.286 1287.85L668.567 1303.27L653.17 1260.54Z" fill="url(#paint83_linear_536_31)"/>
<path d="M921.04 1386.42L909.965 1390.42L929.353 1444.22L983.147 1424.81L979.156 1413.73L936.437 1429.15L921.04 1386.42Z" fill="url(#paint84_linear_536_31)"/>
<path d="M251.365 1071.72L240.29 1075.71L259.678 1129.52L313.472 1110.11L309.481 1099.03L266.762 1114.44L251.365 1071.72Z" fill="url(#paint85_linear_536_31)"/>
<path d="M519.235 1197.6L508.16 1201.6L527.548 1255.4L581.342 1235.99L577.351 1224.91L534.632 1240.33L519.235 1197.6Z" fill="url(#paint86_linear_536_31)"/>
<path d="M1054.98 1449.37L1043.9 1453.36L1063.29 1507.17L1117.08 1487.75L1113.09 1476.68L1070.37 1492.09L1054.98 1449.37Z" fill="url(#paint87_linear_536_31)"/>
<path d="M1322.85 1575.25L1311.77 1579.24L1331.16 1633.05L1384.95 1613.64L1380.96 1602.56L1338.24 1617.97L1322.85 1575.25Z" fill="url(#paint88_linear_536_31)"/>
<path d="M52.3143 1147.34L41.239 1151.33L60.6269 1205.14L114.421 1185.73L110.43 1174.65L67.7106 1190.06L52.3143 1147.34Z" fill="url(#paint89_linear_536_31)"/>
<path d="M320.184 1273.22L309.109 1277.22L328.497 1331.02L382.291 1311.61L378.3 1300.53L335.581 1315.95L320.184 1273.22Z" fill="url(#paint90_linear_536_31)"/>
<path d="M855.924 1524.99L844.849 1528.98L864.237 1582.79L918.031 1563.37L914.04 1552.3L871.321 1567.71L855.924 1524.99Z" fill="url(#paint91_linear_536_31)"/>
<path d="M1123.79 1650.87L1112.72 1654.87L1132.11 1708.67L1185.9 1689.26L1181.91 1678.18L1139.19 1693.6L1123.79 1650.87Z" fill="url(#paint92_linear_536_31)"/>
<path d="M454.119 1336.16L443.044 1340.16L462.432 1393.96L516.226 1374.55L512.235 1363.47L469.516 1378.89L454.119 1336.16Z" fill="url(#paint93_linear_536_31)"/>
<path d="M993.343 264.54L1004.21 258.265L973.731 205.469L920.935 235.951L927.21 246.82L969.136 222.614L993.343 264.54Z" fill="url(#paint94_linear_536_31)"/>
<path d="M975.079 138.988L980.031 147.604L938.273 171.82L914.217 129.969L922.815 124.983L941.918 158.218L975.079 138.988Z" fill="url(#paint95_linear_536_31)"/>
<path d="M909.855 179.056L912.747 183.951L888.693 197.517L874.644 173.741L879.597 170.948L890.753 189.829L909.855 179.056Z" fill="url(#paint96_linear_536_31)"/>
<path d="M764.18 203.137L769.133 200.344L755.084 176.568L731.03 190.134L733.922 195.029L753.024 184.256L764.18 203.137Z" fill="url(#paint97_linear_536_31)"/>
<path d="M1036.93 218.675L1043.71 214.786L1024.65 181.972L991.749 200.864L995.671 207.619L1021.8 192.617L1036.93 218.675Z" fill="url(#paint98_linear_536_31)"/>
<path d="M1091.05 82.8167L1093.01 86.1946L1076.56 95.6402L1067.03 79.2334L1070.42 77.2887L1077.99 90.3177L1091.05 82.8167Z" fill="url(#paint99_linear_536_31)"/>
<defs>
<linearGradient id="paint0_linear_536_31" x1="2168.26" y1="791.115" x2="729.105" y2="28.7364" gradientUnits="userSpaceOnUse">
<stop stop-color="#BDDBFF" stop-opacity="0.1"/>
<stop offset="1" stop-color="#0072DB" stop-opacity="0"/>
</linearGradient>
<linearGradient id="paint1_linear_536_31" x1="2168.26" y1="791.115" x2="729.105" y2="28.7364" gradientUnits="userSpaceOnUse">
<stop stop-color="#BDDBFF" stop-opacity="0.1"/>
<stop offset="1" stop-color="#0072DB" stop-opacity="0"/>
</linearGradient>
<linearGradient id="paint2_linear_536_31" x1="2168.26" y1="791.115" x2="729.105" y2="28.7364" gradientUnits="userSpaceOnUse">
<stop stop-color="#BDDBFF" stop-opacity="0.1"/>
<stop offset="1" stop-color="#0072DB" stop-opacity="0"/>
</linearGradient>
<linearGradient id="paint3_linear_536_31" x1="2168.26" y1="791.115" x2="729.105" y2="28.7364" gradientUnits="userSpaceOnUse">
<stop stop-color="#BDDBFF" stop-opacity="0.1"/>
<stop offset="1" stop-color="#0072DB" stop-opacity="0"/>
</linearGradient>
<linearGradient id="paint4_linear_536_31" x1="2168.26" y1="791.115" x2="729.105" y2="28.7364" gradientUnits="userSpaceOnUse">
<stop stop-color="#BDDBFF" stop-opacity="0.1"/>
<stop offset="1" stop-color="#0072DB" stop-opacity="0"/>
</linearGradient>
<linearGradient id="paint5_linear_536_31" x1="2168.26" y1="791.115" x2="729.105" y2="28.7364" gradientUnits="userSpaceOnUse">
<stop stop-color="#BDDBFF" stop-opacity="0.1"/>
<stop offset="1" stop-color="#0072DB" stop-opacity="0"/>
</linearGradient>
<linearGradient id="paint6_linear_536_31" x1="2168.26" y1="791.115" x2="729.105" y2="28.7364" gradientUnits="userSpaceOnUse">
<stop stop-color="#BDDBFF" stop-opacity="0.1"/>
<stop offset="1" stop-color="#0072DB" stop-opacity="0"/>
</linearGradient>
<linearGradient id="paint7_linear_536_31" x1="2168.26" y1="791.115" x2="729.105" y2="28.7364" gradientUnits="userSpaceOnUse">
<stop stop-color="#BDDBFF" stop-opacity="0.1"/>
<stop offset="1" stop-color="#0072DB" stop-opacity="0"/>
</linearGradient>
<linearGradient id="paint8_linear_536_31" x1="2168.26" y1="791.115" x2="729.105" y2="28.7364" gradientUnits="userSpaceOnUse">
<stop stop-color="#BDDBFF" stop-opacity="0.1"/>
<stop offset="1" stop-color="#0072DB" stop-opacity="0"/>
</linearGradient>
<linearGradient id="paint9_linear_536_31" x1="2168.26" y1="791.115" x2="729.105" y2="28.7364" gradientUnits="userSpaceOnUse">
<stop stop-color="#BDDBFF" stop-opacity="0.1"/>
<stop offset="1" stop-color="#0072DB" stop-opacity="0"/>
</linearGradient>
<linearGradient id="paint10_linear_536_31" x1="2168.26" y1="791.115" x2="729.105" y2="28.7364" gradientUnits="userSpaceOnUse">
<stop stop-color="#BDDBFF" stop-opacity="0.1"/>
<stop offset="1" stop-color="#0072DB" stop-opacity="0"/>
</linearGradient>
<linearGradient id="paint11_linear_536_31" x1="2168.26" y1="791.115" x2="729.105" y2="28.7364" gradientUnits="userSpaceOnUse">
<stop stop-color="#BDDBFF" stop-opacity="0.1"/>
<stop offset="1" stop-color="#0072DB" stop-opacity="0"/>
</linearGradient>
<linearGradient id="paint12_linear_536_31" x1="2168.26" y1="791.115" x2="729.105" y2="28.7364" gradientUnits="userSpaceOnUse">
<stop stop-color="#BDDBFF" stop-opacity="0.1"/>
<stop offset="1" stop-color="#0072DB" stop-opacity="0"/>
</linearGradient>
<linearGradient id="paint13_linear_536_31" x1="2168.26" y1="791.115" x2="729.105" y2="28.7364" gradientUnits="userSpaceOnUse">
<stop stop-color="#BDDBFF" stop-opacity="0.1"/>
<stop offset="1" stop-color="#0072DB" stop-opacity="0"/>
</linearGradient>
<linearGradient id="paint14_linear_536_31" x1="2168.26" y1="791.115" x2="729.105" y2="28.7364" gradientUnits="userSpaceOnUse">
<stop stop-color="#BDDBFF" stop-opacity="0.1"/>
<stop offset="1" stop-color="#0072DB" stop-opacity="0"/>
</linearGradient>
<linearGradient id="paint15_linear_536_31" x1="2168.26" y1="791.115" x2="729.105" y2="28.7364" gradientUnits="userSpaceOnUse">
<stop stop-color="#BDDBFF" stop-opacity="0.1"/>
<stop offset="1" stop-color="#0072DB" stop-opacity="0"/>
</linearGradient>
<linearGradient id="paint16_linear_536_31" x1="2168.26" y1="791.115" x2="729.105" y2="28.7364" gradientUnits="userSpaceOnUse">
<stop stop-color="#BDDBFF" stop-opacity="0.1"/>
<stop offset="1" stop-color="#0072DB" stop-opacity="0"/>
</linearGradient>
<linearGradient id="paint17_linear_536_31" x1="2168.26" y1="791.115" x2="729.105" y2="28.7364" gradientUnits="userSpaceOnUse">
<stop stop-color="#BDDBFF" stop-opacity="0.1"/>
<stop offset="1" stop-color="#0072DB" stop-opacity="0"/>
</linearGradient>
<linearGradient id="paint18_linear_536_31" x1="2168.26" y1="791.115" x2="729.105" y2="28.7364" gradientUnits="userSpaceOnUse">
<stop stop-color="#BDDBFF" stop-opacity="0.1"/>
<stop offset="1" stop-color="#0072DB" stop-opacity="0"/>
</linearGradient>
<linearGradient id="paint19_linear_536_31" x1="2168.26" y1="791.115" x2="729.105" y2="28.7364" gradientUnits="userSpaceOnUse">
<stop stop-color="#BDDBFF" stop-opacity="0.1"/>
<stop offset="1" stop-color="#0072DB" stop-opacity="0"/>
</linearGradient>
<linearGradient id="paint20_linear_536_31" x1="2168.26" y1="791.115" x2="729.105" y2="28.7364" gradientUnits="userSpaceOnUse">
<stop stop-color="#BDDBFF" stop-opacity="0.1"/>
<stop offset="1" stop-color="#0072DB" stop-opacity="0"/>
</linearGradient>
<linearGradient id="paint21_linear_536_31" x1="2168.26" y1="791.115" x2="729.105" y2="28.7364" gradientUnits="userSpaceOnUse">
<stop stop-color="#BDDBFF" stop-opacity="0.1"/>
<stop offset="1" stop-color="#0072DB" stop-opacity="0"/>
</linearGradient>
<linearGradient id="paint22_linear_536_31" x1="2168.26" y1="791.115" x2="729.105" y2="28.7364" gradientUnits="userSpaceOnUse">
<stop stop-color="#BDDBFF" stop-opacity="0.1"/>
<stop offset="1" stop-color="#0072DB" stop-opacity="0"/>
</linearGradient>
<linearGradient id="paint23_linear_536_31" x1="2168.26" y1="791.115" x2="729.105" y2="28.7364" gradientUnits="userSpaceOnUse">
<stop stop-color="#BDDBFF" stop-opacity="0.1"/>
<stop offset="1" stop-color="#0072DB" stop-opacity="0"/>
</linearGradient>
<linearGradient id="paint24_linear_536_31" x1="2168.26" y1="791.115" x2="729.105" y2="28.7364" gradientUnits="userSpaceOnUse">
<stop stop-color="#BDDBFF" stop-opacity="0.1"/>
<stop offset="1" stop-color="#0072DB" stop-opacity="0"/>
</linearGradient>
<linearGradient id="paint25_linear_536_31" x1="2168.26" y1="791.115" x2="729.105" y2="28.7364" gradientUnits="userSpaceOnUse">
<stop stop-color="#BDDBFF" stop-opacity="0.1"/>
<stop offset="1" stop-color="#0072DB" stop-opacity="0"/>
</linearGradient>
<linearGradient id="paint26_linear_536_31" x1="2168.26" y1="791.115" x2="729.105" y2="28.7364" gradientUnits="userSpaceOnUse">
<stop stop-color="#BDDBFF" stop-opacity="0.1"/>
<stop offset="1" stop-color="#0072DB" stop-opacity="0"/>
</linearGradient>
<linearGradient id="paint27_linear_536_31" x1="2168.26" y1="791.115" x2="729.105" y2="28.7364" gradientUnits="userSpaceOnUse">
<stop stop-color="#BDDBFF" stop-opacity="0.1"/>
<stop offset="1" stop-color="#0072DB" stop-opacity="0"/>
</linearGradient>
<linearGradient id="paint28_linear_536_31" x1="2168.26" y1="791.115" x2="729.105" y2="28.7364" gradientUnits="userSpaceOnUse">
<stop stop-color="#BDDBFF" stop-opacity="0.1"/>
<stop offset="1" stop-color="#0072DB" stop-opacity="0"/>
</linearGradient>
<linearGradient id="paint29_linear_536_31" x1="2168.26" y1="791.115" x2="729.105" y2="28.7364" gradientUnits="userSpaceOnUse">
<stop stop-color="#BDDBFF" stop-opacity="0.1"/>
<stop offset="1" stop-color="#0072DB" stop-opacity="0"/>
</linearGradient>
<linearGradient id="paint30_linear_536_31" x1="2168.26" y1="791.115" x2="729.105" y2="28.7364" gradientUnits="userSpaceOnUse">
<stop stop-color="#BDDBFF" stop-opacity="0.1"/>
<stop offset="1" stop-color="#0072DB" stop-opacity="0"/>
</linearGradient>
<linearGradient id="paint31_linear_536_31" x1="2168.26" y1="791.115" x2="729.105" y2="28.7364" gradientUnits="userSpaceOnUse">
<stop stop-color="#BDDBFF" stop-opacity="0.1"/>
<stop offset="1" stop-color="#0072DB" stop-opacity="0"/>
</linearGradient>
<linearGradient id="paint32_linear_536_31" x1="2168.26" y1="791.115" x2="729.105" y2="28.7364" gradientUnits="userSpaceOnUse">
<stop stop-color="#BDDBFF" stop-opacity="0.1"/>
<stop offset="1" stop-color="#0072DB" stop-opacity="0"/>
</linearGradient>
<linearGradient id="paint33_linear_536_31" x1="2168.26" y1="791.115" x2="729.105" y2="28.7364" gradientUnits="userSpaceOnUse">
<stop stop-color="#BDDBFF" stop-opacity="0.1"/>
<stop offset="1" stop-color="#0072DB" stop-opacity="0"/>
</linearGradient>
<linearGradient id="paint34_linear_536_31" x1="2168.26" y1="791.115" x2="729.105" y2="28.7364" gradientUnits="userSpaceOnUse">
<stop stop-color="#BDDBFF" stop-opacity="0.1"/>
<stop offset="1" stop-color="#0072DB" stop-opacity="0"/>
</linearGradient>
<linearGradient id="paint35_linear_536_31" x1="2168.26" y1="791.115" x2="729.105" y2="28.7364" gradientUnits="userSpaceOnUse">
<stop stop-color="#BDDBFF" stop-opacity="0.1"/>
<stop offset="1" stop-color="#0072DB" stop-opacity="0"/>
</linearGradient>
<linearGradient id="paint36_linear_536_31" x1="2168.26" y1="791.115" x2="729.105" y2="28.7364" gradientUnits="userSpaceOnUse">
<stop stop-color="#BDDBFF" stop-opacity="0.1"/>
<stop offset="1" stop-color="#0072DB" stop-opacity="0"/>
</linearGradient>
<linearGradient id="paint37_linear_536_31" x1="2168.26" y1="791.115" x2="729.105" y2="28.7364" gradientUnits="userSpaceOnUse">
<stop stop-color="#BDDBFF" stop-opacity="0.1"/>
<stop offset="1" stop-color="#0072DB" stop-opacity="0"/>
</linearGradient>
<linearGradient id="paint38_linear_536_31" x1="2168.26" y1="791.115" x2="729.105" y2="28.7364" gradientUnits="userSpaceOnUse">
<stop stop-color="#BDDBFF" stop-opacity="0.1"/>
<stop offset="1" stop-color="#0072DB" stop-opacity="0"/>
</linearGradient>
<linearGradient id="paint39_linear_536_31" x1="2168.26" y1="791.115" x2="729.105" y2="28.7364" gradientUnits="userSpaceOnUse">
<stop stop-color="#BDDBFF" stop-opacity="0.1"/>
<stop offset="1" stop-color="#0072DB" stop-opacity="0"/>
</linearGradient>
<linearGradient id="paint40_linear_536_31" x1="2168.26" y1="791.115" x2="729.105" y2="28.7364" gradientUnits="userSpaceOnUse">
<stop stop-color="#BDDBFF" stop-opacity="0.1"/>
<stop offset="1" stop-color="#0072DB" stop-opacity="0"/>
</linearGradient>
<linearGradient id="paint41_linear_536_31" x1="2168.26" y1="791.115" x2="729.105" y2="28.7364" gradientUnits="userSpaceOnUse">
<stop stop-color="#BDDBFF" stop-opacity="0.1"/>
<stop offset="1" stop-color="#0072DB" stop-opacity="0"/>
</linearGradient>
<linearGradient id="paint42_linear_536_31" x1="2168.26" y1="791.115" x2="729.105" y2="28.7364" gradientUnits="userSpaceOnUse">
<stop stop-color="#BDDBFF" stop-opacity="0.1"/>
<stop offset="1" stop-color="#0072DB" stop-opacity="0"/>
</linearGradient>
<linearGradient id="paint43_linear_536_31" x1="2168.26" y1="791.115" x2="729.105" y2="28.7364" gradientUnits="userSpaceOnUse">
<stop stop-color="#BDDBFF" stop-opacity="0.1"/>
<stop offset="1" stop-color="#0072DB" stop-opacity="0"/>
</linearGradient>
<linearGradient id="paint44_linear_536_31" x1="2168.26" y1="791.115" x2="729.105" y2="28.7364" gradientUnits="userSpaceOnUse">
<stop stop-color="#BDDBFF" stop-opacity="0.1"/>
<stop offset="1" stop-color="#0072DB" stop-opacity="0"/>
</linearGradient>
<linearGradient id="paint45_linear_536_31" x1="2168.26" y1="791.115" x2="729.105" y2="28.7364" gradientUnits="userSpaceOnUse">
<stop stop-color="#BDDBFF" stop-opacity="0.1"/>
<stop offset="1" stop-color="#0072DB" stop-opacity="0"/>
</linearGradient>
<linearGradient id="paint46_linear_536_31" x1="2168.26" y1="791.115" x2="729.105" y2="28.7364" gradientUnits="userSpaceOnUse">
<stop stop-color="#BDDBFF" stop-opacity="0.1"/>
<stop offset="1" stop-color="#0072DB" stop-opacity="0"/>
</linearGradient>
<linearGradient id="paint47_linear_536_31" x1="2168.26" y1="791.115" x2="729.105" y2="28.7364" gradientUnits="userSpaceOnUse">
<stop stop-color="#BDDBFF" stop-opacity="0.1"/>
<stop offset="1" stop-color="#0072DB" stop-opacity="0"/>
</linearGradient>
<linearGradient id="paint48_linear_536_31" x1="2168.26" y1="791.115" x2="729.105" y2="28.7364" gradientUnits="userSpaceOnUse">
<stop stop-color="#BDDBFF" stop-opacity="0.1"/>
<stop offset="1" stop-color="#0072DB" stop-opacity="0"/>
</linearGradient>
<linearGradient id="paint49_linear_536_31" x1="2168.26" y1="791.115" x2="729.105" y2="28.7364" gradientUnits="userSpaceOnUse">
<stop stop-color="#BDDBFF" stop-opacity="0.1"/>
<stop offset="1" stop-color="#0072DB" stop-opacity="0"/>
</linearGradient>
<linearGradient id="paint50_linear_536_31" x1="2168.26" y1="791.115" x2="729.105" y2="28.7364" gradientUnits="userSpaceOnUse">
<stop stop-color="#BDDBFF" stop-opacity="0.1"/>
<stop offset="1" stop-color="#0072DB" stop-opacity="0"/>
</linearGradient>
<linearGradient id="paint51_linear_536_31" x1="2168.26" y1="791.115" x2="729.105" y2="28.7364" gradientUnits="userSpaceOnUse">
<stop stop-color="#BDDBFF" stop-opacity="0.1"/>
<stop offset="1" stop-color="#0072DB" stop-opacity="0"/>
</linearGradient>
<linearGradient id="paint52_linear_536_31" x1="2168.26" y1="791.115" x2="729.105" y2="28.7364" gradientUnits="userSpaceOnUse">
<stop stop-color="#BDDBFF" stop-opacity="0.1"/>
<stop offset="1" stop-color="#0072DB" stop-opacity="0"/>
</linearGradient>
<linearGradient id="paint53_linear_536_31" x1="2168.26" y1="791.115" x2="729.105" y2="28.7364" gradientUnits="userSpaceOnUse">
<stop stop-color="#BDDBFF" stop-opacity="0.1"/>
<stop offset="1" stop-color="#0072DB" stop-opacity="0"/>
</linearGradient>
<linearGradient id="paint54_linear_536_31" x1="2168.26" y1="791.115" x2="729.105" y2="28.7364" gradientUnits="userSpaceOnUse">
<stop stop-color="#BDDBFF" stop-opacity="0.1"/>
<stop offset="1" stop-color="#0072DB" stop-opacity="0"/>
</linearGradient>
<linearGradient id="paint55_linear_536_31" x1="2168.26" y1="791.115" x2="729.105" y2="28.7364" gradientUnits="userSpaceOnUse">
<stop stop-color="#BDDBFF" stop-opacity="0.1"/>
<stop offset="1" stop-color="#0072DB" stop-opacity="0"/>
</linearGradient>
<linearGradient id="paint56_linear_536_31" x1="2168.26" y1="791.115" x2="729.105" y2="28.7364" gradientUnits="userSpaceOnUse">
<stop stop-color="#BDDBFF" stop-opacity="0.1"/>
<stop offset="1" stop-color="#0072DB" stop-opacity="0"/>
</linearGradient>
<linearGradient id="paint57_linear_536_31" x1="2168.26" y1="791.115" x2="729.105" y2="28.7364" gradientUnits="userSpaceOnUse">
<stop stop-color="#BDDBFF" stop-opacity="0.1"/>
<stop offset="1" stop-color="#0072DB" stop-opacity="0"/>
</linearGradient>
<linearGradient id="paint58_linear_536_31" x1="2168.26" y1="791.115" x2="729.105" y2="28.7364" gradientUnits="userSpaceOnUse">
<stop stop-color="#BDDBFF" stop-opacity="0.1"/>
<stop offset="1" stop-color="#0072DB" stop-opacity="0"/>
</linearGradient>
<linearGradient id="paint59_linear_536_31" x1="2168.26" y1="791.115" x2="729.105" y2="28.7364" gradientUnits="userSpaceOnUse">
<stop stop-color="#BDDBFF" stop-opacity="0.1"/>
<stop offset="1" stop-color="#0072DB" stop-opacity="0"/>
</linearGradient>
<linearGradient id="paint60_linear_536_31" x1="2168.26" y1="791.115" x2="729.105" y2="28.7364" gradientUnits="userSpaceOnUse">
<stop stop-color="#BDDBFF" stop-opacity="0.1"/>
<stop offset="1" stop-color="#0072DB" stop-opacity="0"/>
</linearGradient>
<linearGradient id="paint61_linear_536_31" x1="2168.26" y1="791.115" x2="729.105" y2="28.7364" gradientUnits="userSpaceOnUse">
<stop stop-color="#BDDBFF" stop-opacity="0.1"/>
<stop offset="1" stop-color="#0072DB" stop-opacity="0"/>
</linearGradient>
<linearGradient id="paint62_linear_536_31" x1="2168.26" y1="791.115" x2="729.105" y2="28.7364" gradientUnits="userSpaceOnUse">
<stop stop-color="#BDDBFF" stop-opacity="0.1"/>
<stop offset="1" stop-color="#0072DB" stop-opacity="0"/>
</linearGradient>
<linearGradient id="paint63_linear_536_31" x1="2168.26" y1="791.115" x2="729.105" y2="28.7364" gradientUnits="userSpaceOnUse">
<stop stop-color="#BDDBFF" stop-opacity="0.1"/>
<stop offset="1" stop-color="#0072DB" stop-opacity="0"/>
</linearGradient>
<linearGradient id="paint64_linear_536_31" x1="2168.26" y1="791.115" x2="729.105" y2="28.7364" gradientUnits="userSpaceOnUse">
<stop stop-color="#BDDBFF" stop-opacity="0.1"/>
<stop offset="1" stop-color="#0072DB" stop-opacity="0"/>
</linearGradient>
<linearGradient id="paint65_linear_536_31" x1="2168.26" y1="791.115" x2="729.105" y2="28.7364" gradientUnits="userSpaceOnUse">
<stop stop-color="#BDDBFF" stop-opacity="0.1"/>
<stop offset="1" stop-color="#0072DB" stop-opacity="0"/>
</linearGradient>
<linearGradient id="paint66_linear_536_31" x1="2168.26" y1="791.115" x2="729.105" y2="28.7364" gradientUnits="userSpaceOnUse">
<stop stop-color="#BDDBFF" stop-opacity="0.1"/>
<stop offset="1" stop-color="#0072DB" stop-opacity="0"/>
</linearGradient>
<linearGradient id="paint67_linear_536_31" x1="2168.26" y1="791.115" x2="729.105" y2="28.7364" gradientUnits="userSpaceOnUse">
<stop stop-color="#BDDBFF" stop-opacity="0.1"/>
<stop offset="1" stop-color="#0072DB" stop-opacity="0"/>
</linearGradient>
<linearGradient id="paint68_linear_536_31" x1="2168.26" y1="791.115" x2="729.105" y2="28.7364" gradientUnits="userSpaceOnUse">
<stop stop-color="#BDDBFF" stop-opacity="0.1"/>
<stop offset="1" stop-color="#0072DB" stop-opacity="0"/>
</linearGradient>
<linearGradient id="paint69_linear_536_31" x1="2168.26" y1="791.115" x2="729.105" y2="28.7364" gradientUnits="userSpaceOnUse">
<stop stop-color="#BDDBFF" stop-opacity="0.1"/>
<stop offset="1" stop-color="#0072DB" stop-opacity="0"/>
</linearGradient>
<linearGradient id="paint70_linear_536_31" x1="2168.26" y1="791.115" x2="729.105" y2="28.7364" gradientUnits="userSpaceOnUse">
<stop stop-color="#BDDBFF" stop-opacity="0.1"/>
<stop offset="1" stop-color="#0072DB" stop-opacity="0"/>
</linearGradient>
<linearGradient id="paint71_linear_536_31" x1="2168.26" y1="791.115" x2="729.105" y2="28.7364" gradientUnits="userSpaceOnUse">
<stop stop-color="#BDDBFF" stop-opacity="0.1"/>
<stop offset="1" stop-color="#0072DB" stop-opacity="0"/>
</linearGradient>
<linearGradient id="paint72_linear_536_31" x1="2168.26" y1="791.115" x2="729.105" y2="28.7364" gradientUnits="userSpaceOnUse">
<stop stop-color="#BDDBFF" stop-opacity="0.1"/>
<stop offset="1" stop-color="#0072DB" stop-opacity="0"/>
</linearGradient>
<linearGradient id="paint73_linear_536_31" x1="2168.26" y1="791.115" x2="729.105" y2="28.7364" gradientUnits="userSpaceOnUse">
<stop stop-color="#BDDBFF" stop-opacity="0.1"/>
<stop offset="1" stop-color="#0072DB" stop-opacity="0"/>
</linearGradient>
<linearGradient id="paint74_linear_536_31" x1="2168.26" y1="791.115" x2="729.105" y2="28.7364" gradientUnits="userSpaceOnUse">
<stop stop-color="#BDDBFF" stop-opacity="0.1"/>
<stop offset="1" stop-color="#0072DB" stop-opacity="0"/>
</linearGradient>
<linearGradient id="paint75_linear_536_31" x1="2168.26" y1="791.115" x2="729.105" y2="28.7364" gradientUnits="userSpaceOnUse">
<stop stop-color="#BDDBFF" stop-opacity="0.1"/>
<stop offset="1" stop-color="#0072DB" stop-opacity="0"/>
</linearGradient>
<linearGradient id="paint76_linear_536_31" x1="2168.26" y1="791.115" x2="729.105" y2="28.7364" gradientUnits="userSpaceOnUse">
<stop stop-color="#BDDBFF" stop-opacity="0.1"/>
<stop offset="1" stop-color="#0072DB" stop-opacity="0"/>
</linearGradient>
<linearGradient id="paint77_linear_536_31" x1="2168.26" y1="791.115" x2="729.105" y2="28.7364" gradientUnits="userSpaceOnUse">
<stop stop-color="#BDDBFF" stop-opacity="0.1"/>
<stop offset="1" stop-color="#0072DB" stop-opacity="0"/>
</linearGradient>
<linearGradient id="paint78_linear_536_31" x1="2168.26" y1="791.115" x2="729.105" y2="28.7364" gradientUnits="userSpaceOnUse">
<stop stop-color="#BDDBFF" stop-opacity="0.1"/>
<stop offset="1" stop-color="#0072DB" stop-opacity="0"/>
</linearGradient>
<linearGradient id="paint79_linear_536_31" x1="2168.26" y1="791.115" x2="729.105" y2="28.7364" gradientUnits="userSpaceOnUse">
<stop stop-color="#BDDBFF" stop-opacity="0.1"/>
<stop offset="1" stop-color="#0072DB" stop-opacity="0"/>
</linearGradient>
<linearGradient id="paint80_linear_536_31" x1="2168.26" y1="791.115" x2="729.105" y2="28.7364" gradientUnits="userSpaceOnUse">
<stop stop-color="#BDDBFF" stop-opacity="0.1"/>
<stop offset="1" stop-color="#0072DB" stop-opacity="0"/>
</linearGradient>
<linearGradient id="paint81_linear_536_31" x1="2168.26" y1="791.115" x2="729.105" y2="28.7364" gradientUnits="userSpaceOnUse">
<stop stop-color="#BDDBFF" stop-opacity="0.1"/>
<stop offset="1" stop-color="#0072DB" stop-opacity="0"/>
</linearGradient>
<linearGradient id="paint82_linear_536_31" x1="2168.26" y1="791.115" x2="729.105" y2="28.7364" gradientUnits="userSpaceOnUse">
<stop stop-color="#BDDBFF" stop-opacity="0.1"/>
<stop offset="1" stop-color="#0072DB" stop-opacity="0"/>
</linearGradient>
<linearGradient id="paint83_linear_536_31" x1="2168.26" y1="791.115" x2="729.105" y2="28.7364" gradientUnits="userSpaceOnUse">
<stop stop-color="#BDDBFF" stop-opacity="0.1"/>
<stop offset="1" stop-color="#0072DB" stop-opacity="0"/>
</linearGradient>
<linearGradient id="paint84_linear_536_31" x1="2168.26" y1="791.115" x2="729.105" y2="28.7364" gradientUnits="userSpaceOnUse">
<stop stop-color="#BDDBFF" stop-opacity="0.1"/>
<stop offset="1" stop-color="#0072DB" stop-opacity="0"/>
</linearGradient>
<linearGradient id="paint85_linear_536_31" x1="2168.26" y1="791.115" x2="729.105" y2="28.7364" gradientUnits="userSpaceOnUse">
<stop stop-color="#BDDBFF" stop-opacity="0.1"/>
<stop offset="1" stop-color="#0072DB" stop-opacity="0"/>
</linearGradient>
<linearGradient id="paint86_linear_536_31" x1="2168.26" y1="791.115" x2="729.105" y2="28.7364" gradientUnits="userSpaceOnUse">
<stop stop-color="#BDDBFF" stop-opacity="0.1"/>
<stop offset="1" stop-color="#0072DB" stop-opacity="0"/>
</linearGradient>
<linearGradient id="paint87_linear_536_31" x1="2168.26" y1="791.115" x2="729.105" y2="28.7364" gradientUnits="userSpaceOnUse">
<stop stop-color="#BDDBFF" stop-opacity="0.1"/>
<stop offset="1" stop-color="#0072DB" stop-opacity="0"/>
</linearGradient>
<linearGradient id="paint88_linear_536_31" x1="2168.26" y1="791.115" x2="729.105" y2="28.7364" gradientUnits="userSpaceOnUse">
<stop stop-color="#BDDBFF" stop-opacity="0.1"/>
<stop offset="1" stop-color="#0072DB" stop-opacity="0"/>
</linearGradient>
<linearGradient id="paint89_linear_536_31" x1="2168.26" y1="791.115" x2="729.105" y2="28.7364" gradientUnits="userSpaceOnUse">
<stop stop-color="#BDDBFF" stop-opacity="0.1"/>
<stop offset="1" stop-color="#0072DB" stop-opacity="0"/>
</linearGradient>
<linearGradient id="paint90_linear_536_31" x1="2168.26" y1="791.115" x2="729.105" y2="28.7364" gradientUnits="userSpaceOnUse">
<stop stop-color="#BDDBFF" stop-opacity="0.1"/>
<stop offset="1" stop-color="#0072DB" stop-opacity="0"/>
</linearGradient>
<linearGradient id="paint91_linear_536_31" x1="2168.26" y1="791.115" x2="729.105" y2="28.7364" gradientUnits="userSpaceOnUse">
<stop stop-color="#BDDBFF" stop-opacity="0.1"/>
<stop offset="1" stop-color="#0072DB" stop-opacity="0"/>
</linearGradient>
<linearGradient id="paint92_linear_536_31" x1="2168.26" y1="791.115" x2="729.105" y2="28.7364" gradientUnits="userSpaceOnUse">
<stop stop-color="#BDDBFF" stop-opacity="0.1"/>
<stop offset="1" stop-color="#0072DB" stop-opacity="0"/>
</linearGradient>
<linearGradient id="paint93_linear_536_31" x1="2168.26" y1="791.115" x2="729.105" y2="28.7364" gradientUnits="userSpaceOnUse">
<stop stop-color="#BDDBFF" stop-opacity="0.1"/>
<stop offset="1" stop-color="#0072DB" stop-opacity="0"/>
</linearGradient>
<linearGradient id="paint94_linear_536_31" x1="660.82" y1="213.381" x2="995.95" y2="324.316" gradientUnits="userSpaceOnUse">
<stop stop-color="#BDDBFF" stop-opacity="0.56"/>
<stop offset="1" stop-color="#0072DB" stop-opacity="0"/>
</linearGradient>
<linearGradient id="paint95_linear_536_31" x1="660.82" y1="213.381" x2="995.95" y2="324.316" gradientUnits="userSpaceOnUse">
<stop stop-color="#BDDBFF" stop-opacity="0.56"/>
<stop offset="1" stop-color="#0072DB" stop-opacity="0"/>
</linearGradient>
<linearGradient id="paint96_linear_536_31" x1="660.82" y1="213.381" x2="995.95" y2="324.316" gradientUnits="userSpaceOnUse">
<stop stop-color="#BDDBFF" stop-opacity="0.56"/>
<stop offset="1" stop-color="#0072DB" stop-opacity="0"/>
</linearGradient>
<linearGradient id="paint97_linear_536_31" x1="660.82" y1="213.381" x2="995.95" y2="324.316" gradientUnits="userSpaceOnUse">
<stop stop-color="#BDDBFF" stop-opacity="0.56"/>
<stop offset="1" stop-color="#0072DB" stop-opacity="0"/>
</linearGradient>
<linearGradient id="paint98_linear_536_31" x1="660.82" y1="213.381" x2="995.95" y2="324.316" gradientUnits="userSpaceOnUse">
<stop stop-color="#BDDBFF" stop-opacity="0.56"/>
<stop offset="1" stop-color="#0072DB" stop-opacity="0"/>
</linearGradient>
<linearGradient id="paint99_linear_536_31" x1="660.82" y1="213.381" x2="995.95" y2="324.316" gradientUnits="userSpaceOnUse">
<stop stop-color="#BDDBFF" stop-opacity="0.56"/>
<stop offset="1" stop-color="#0072DB" stop-opacity="0"/>
</linearGradient>
</defs>
</svg>
