<svg width="271" height="164" viewBox="0 0 271 164" fill="none" xmlns="http://www.w3.org/2000/svg">
<g clip-path="url(#clip0_502_2)">
<path d="M100.087 163.254L89.1504 160.321L103.375 107.193L156.498 121.438L153.569 132.376L111.383 121.064L100.087 163.254Z" fill="url(#paint0_linear_502_2)"/>
<path d="M1.68402 99.6839L-0.618239 108.349L41.4235 119.71L52.6059 77.6204L43.9503 75.2814L35.0701 108.705L1.68402 99.6839Z" fill="url(#paint1_linear_502_2)"/>
<path d="M105.525 39.9006L104.148 44.8419L128.277 51.0521L134.962 27.0514L129.995 25.7728L124.686 44.8322L105.525 39.9006Z" fill="url(#paint2_linear_502_2)"/>
<path d="M238.078 26.8914L233.11 25.6129L239.796 1.61221L263.924 7.82242L262.548 12.7637L243.387 7.83209L238.078 26.8914Z" fill="url(#paint3_linear_502_2)"/>
<path d="M69.5569 43.4405L62.7452 41.6317L71.6794 8.58667L104.764 17.372L102.925 24.1754L76.6516 17.1988L69.5569 43.4405Z" fill="url(#paint4_linear_502_2)"/>
<path d="M-74.837 -1.69041L-75.7567 1.71129L-59.2142 6.10397L-54.7471 -10.4186L-58.1529 -11.3229L-61.7003 1.79792L-74.837 -1.69041Z" fill="url(#paint5_linear_502_2)"/>
</g>
<defs>
<linearGradient id="paint0_linear_502_2" x1="330.529" y1="11.6986" x2="64.4369" y2="186.583" gradientUnits="userSpaceOnUse">
<stop stop-color="#DDEDFF" stop-opacity="0.56"/>
<stop offset="1" stop-color="#CBE6FF" stop-opacity="0"/>
</linearGradient>
<linearGradient id="paint1_linear_502_2" x1="330.529" y1="11.6986" x2="64.4369" y2="186.583" gradientUnits="userSpaceOnUse">
<stop stop-color="#DDEDFF" stop-opacity="0.56"/>
<stop offset="1" stop-color="#CBE6FF" stop-opacity="0"/>
</linearGradient>
<linearGradient id="paint2_linear_502_2" x1="330.529" y1="11.6986" x2="64.4369" y2="186.583" gradientUnits="userSpaceOnUse">
<stop stop-color="#DDEDFF" stop-opacity="0.56"/>
<stop offset="1" stop-color="#CBE6FF" stop-opacity="0"/>
</linearGradient>
<linearGradient id="paint3_linear_502_2" x1="330.529" y1="11.6986" x2="64.4369" y2="186.583" gradientUnits="userSpaceOnUse">
<stop stop-color="#DDEDFF" stop-opacity="0.56"/>
<stop offset="1" stop-color="#CBE6FF" stop-opacity="0"/>
</linearGradient>
<linearGradient id="paint4_linear_502_2" x1="330.529" y1="11.6986" x2="64.4369" y2="186.583" gradientUnits="userSpaceOnUse">
<stop stop-color="#DDEDFF" stop-opacity="0.56"/>
<stop offset="1" stop-color="#CBE6FF" stop-opacity="0"/>
</linearGradient>
<linearGradient id="paint5_linear_502_2" x1="330.529" y1="11.6986" x2="64.4369" y2="186.583" gradientUnits="userSpaceOnUse">
<stop stop-color="#DDEDFF" stop-opacity="0.56"/>
<stop offset="1" stop-color="#CBE6FF" stop-opacity="0"/>
</linearGradient>
<clipPath id="clip0_502_2">
<rect width="271" height="164" fill="white"/>
</clipPath>
</defs>
</svg>
