<svg width="1824" height="1686" viewBox="0 0 1824 1686" fill="none" xmlns="http://www.w3.org/2000/svg">
<path d="M75.8215 1088.62L71.83 1077.54L125.624 1058.13L145.012 1111.93L133.937 1115.93L118.541 1073.2L75.8215 1088.62Z" fill="url(#paint0_linear_533_3)"/>
<path d="M879.432 1466.27L875.44 1455.19L929.235 1435.78L948.622 1489.58L937.547 1493.58L922.151 1450.85L879.432 1466.27Z" fill="url(#paint1_linear_533_3)"/>
<path d="M1147.3 1592.15L1143.31 1581.07L1197.1 1561.66L1216.49 1615.46L1205.42 1619.46L1190.02 1576.74L1147.3 1592.15Z" fill="url(#paint2_linear_533_3)"/>
<path d="M209.757 1151.56L205.765 1140.48L259.559 1121.07L278.947 1174.88L267.872 1178.87L252.476 1136.15L209.757 1151.56Z" fill="url(#paint3_linear_533_3)"/>
<path d="M477.627 1277.44L473.635 1266.37L527.43 1246.96L546.817 1300.76L535.742 1304.75L520.346 1262.03L477.627 1277.44Z" fill="url(#paint4_linear_533_3)"/>
<path d="M1013.37 1529.21L1009.38 1518.13L1063.17 1498.72L1082.56 1552.52L1071.48 1556.52L1056.09 1513.79L1013.37 1529.21Z" fill="url(#paint5_linear_533_3)"/>
<path d="M140.931 950.07L136.94 938.993L190.734 919.582L210.122 973.384L199.047 977.381L183.651 934.655L140.931 950.07Z" fill="url(#paint6_linear_533_3)"/>
<path d="M408.801 1075.95L404.81 1064.88L458.604 1045.46L477.992 1099.27L466.917 1103.26L451.521 1060.54L408.801 1075.95Z" fill="url(#paint7_linear_533_3)"/>
<path d="M944.541 1327.72L940.55 1316.64L994.344 1297.23L1013.73 1351.03L1002.66 1355.03L987.261 1312.3L944.541 1327.72Z" fill="url(#paint8_linear_533_3)"/>
<path d="M1212.41 1453.6L1208.42 1442.52L1262.21 1423.11L1281.6 1476.92L1270.53 1480.91L1255.13 1438.19L1212.41 1453.6Z" fill="url(#paint9_linear_533_3)"/>
<path d="M1078.48 1390.66L1074.48 1379.58L1128.28 1360.17L1147.67 1413.97L1136.59 1417.97L1121.2 1375.24L1078.48 1390.66Z" fill="url(#paint10_linear_533_3)"/>
<path d="M1346.35 1516.54L1342.35 1505.47L1396.15 1486.05L1415.54 1539.86L1404.46 1543.85L1389.07 1501.13L1346.35 1516.54Z" fill="url(#paint11_linear_533_3)"/>
<path d="M473.911 937.404L469.92 926.327L523.714 906.915L543.102 960.718L532.027 964.714L516.63 921.989L473.911 937.404Z" fill="url(#paint12_linear_533_3)"/>
<path d="M741.781 1063.29L737.79 1052.21L791.584 1032.8L810.972 1086.6L799.897 1090.6L784.5 1047.87L741.781 1063.29Z" fill="url(#paint13_linear_533_3)"/>
<path d="M1009.65 1189.17L1005.66 1178.09L1059.45 1158.68L1078.84 1212.48L1067.77 1216.48L1052.37 1173.75L1009.65 1189.17Z" fill="url(#paint14_linear_533_3)"/>
<path d="M1277.52 1315.05L1273.53 1303.98L1327.32 1284.56L1346.71 1338.37L1335.64 1342.36L1320.24 1299.64L1277.52 1315.05Z" fill="url(#paint15_linear_533_3)"/>
<path d="M339.976 874.462L335.985 863.385L389.779 843.974L409.167 897.776L398.092 901.773L382.695 859.047L339.976 874.462Z" fill="url(#paint16_linear_533_3)"/>
<path d="M607.846 1000.35L603.855 989.268L657.649 969.856L677.037 1023.66L665.962 1027.66L650.565 984.93L607.846 1000.35Z" fill="url(#paint17_linear_533_3)"/>
<path d="M875.716 1126.23L871.725 1115.15L925.519 1095.74L944.907 1149.54L933.832 1153.54L918.435 1110.81L875.716 1126.23Z" fill="url(#paint18_linear_533_3)"/>
<path d="M443.01 132.964L431.935 136.96L451.323 190.763L505.117 171.352L501.126 160.275L458.406 175.69L443.01 132.964Z" fill="url(#paint19_linear_533_3)"/>
<path d="M710.88 258.847L699.805 262.843L719.193 316.646L772.987 297.234L768.996 286.157L726.277 301.573L710.88 258.847Z" fill="url(#paint20_linear_533_3)"/>
<path d="M978.75 384.729L967.675 388.726L987.063 442.529L1040.86 423.117L1036.87 412.04L994.147 427.455L978.75 384.729Z" fill="url(#paint21_linear_533_3)"/>
<path d="M1246.62 510.612L1235.54 514.609L1254.93 568.412L1308.73 549L1304.74 537.923L1262.02 553.338L1246.62 510.612Z" fill="url(#paint22_linear_533_3)"/>
<path d="M1514.49 636.495L1503.41 640.492L1522.8 694.295L1576.6 674.883L1572.61 663.806L1529.89 679.221L1514.49 636.495Z" fill="url(#paint23_linear_533_3)"/>
<path d="M576.945 195.905L565.87 199.902L585.258 253.705L639.052 234.293L635.061 223.216L592.342 238.631L576.945 195.905Z" fill="url(#paint24_linear_533_3)"/>
<path d="M844.815 321.788L833.74 325.785L853.128 379.588L906.922 360.176L902.931 349.099L860.212 364.514L844.815 321.788Z" fill="url(#paint25_linear_533_3)"/>
<path d="M1380.56 573.554L1369.48 577.55L1388.87 631.353L1442.66 611.941L1438.67 600.864L1395.95 616.28L1380.56 573.554Z" fill="url(#paint26_linear_533_3)"/>
<path d="M539.021 798.854L535.029 787.777L588.824 768.366L608.212 822.169L597.136 826.165L581.74 783.439L539.021 798.854Z" fill="url(#paint27_linear_533_3)"/>
<path d="M806.891 924.737L802.899 913.66L856.694 894.249L876.082 948.051L865.006 952.048L849.61 909.322L806.891 924.737Z" fill="url(#paint28_linear_533_3)"/>
<path d="M672.956 861.796L668.964 850.719L722.759 831.307L742.147 885.11L731.071 889.107L715.675 846.381L672.956 861.796Z" fill="url(#paint29_linear_533_3)"/>
<path d="M940.826 987.679L936.834 976.602L990.629 957.19L1010.02 1010.99L998.941 1014.99L983.545 972.264L940.826 987.679Z" fill="url(#paint30_linear_533_3)"/>
<path d="M1208.7 1113.56L1204.7 1102.48L1258.5 1083.07L1277.89 1136.88L1266.81 1140.87L1251.42 1098.15L1208.7 1113.56Z" fill="url(#paint31_linear_533_3)"/>
<path d="M1476.57 1239.44L1472.57 1228.37L1526.37 1208.96L1545.76 1262.76L1534.68 1266.75L1519.29 1224.03L1476.57 1239.44Z" fill="url(#paint32_linear_533_3)"/>
<path d="M913.634 523.292L902.559 527.288L921.947 581.091L975.741 561.68L971.75 550.603L929.031 566.018L913.634 523.292Z" fill="url(#paint33_linear_533_3)"/>
<path d="M1181.5 649.175L1170.43 653.171L1189.82 706.974L1243.61 687.562L1239.62 676.485L1196.9 691.901L1181.5 649.175Z" fill="url(#paint34_linear_533_3)"/>
<path d="M511.829 334.468L500.754 338.464L520.142 392.267L573.936 372.855L569.945 361.778L527.226 377.194L511.829 334.468Z" fill="url(#paint35_linear_533_3)"/>
<path d="M1047.57 586.233L1036.49 590.23L1055.88 644.033L1109.68 624.621L1105.68 613.544L1062.97 628.959L1047.57 586.233Z" fill="url(#paint36_linear_533_3)"/>
<path d="M1315.44 712.116L1304.36 716.113L1323.75 769.916L1377.55 750.504L1373.55 739.427L1330.84 754.842L1315.44 712.116Z" fill="url(#paint37_linear_533_3)"/>
<path d="M336.261 534.422L332.269 523.345L386.064 503.934L405.451 557.737L394.376 561.733L378.98 519.007L336.261 534.422Z" fill="url(#paint38_linear_533_3)"/>
<path d="M604.131 660.305L600.139 649.228L653.934 629.816L673.321 683.619L662.246 687.616L646.85 644.89L604.131 660.305Z" fill="url(#paint39_linear_533_3)"/>
<path d="M872.001 786.188L868.009 775.111L921.804 755.699L941.191 809.502L930.116 813.499L914.72 770.773L872.001 786.188Z" fill="url(#paint40_linear_533_3)"/>
<path d="M1139.87 912.071L1135.88 900.994L1189.67 881.582L1209.06 935.385L1197.99 939.381L1182.59 896.656L1139.87 912.071Z" fill="url(#paint41_linear_533_3)"/>
<path d="M1407.74 1037.95L1403.75 1026.88L1457.54 1007.46L1476.93 1061.27L1465.86 1065.26L1450.46 1022.54L1407.74 1037.95Z" fill="url(#paint42_linear_533_3)"/>
<path d="M470.196 597.364L466.204 586.287L519.999 566.875L539.386 620.678L528.311 624.675L512.915 581.949L470.196 597.364Z" fill="url(#paint43_linear_533_3)"/>
<path d="M738.066 723.247L734.074 712.169L787.869 692.758L807.256 746.561L796.181 750.557L780.785 707.831L738.066 723.247Z" fill="url(#paint44_linear_533_3)"/>
<path d="M1273.81 975.012L1269.81 963.935L1323.61 944.523L1343 998.326L1331.92 1002.32L1316.53 959.597L1273.81 975.012Z" fill="url(#paint45_linear_533_3)"/>
<path d="M1541.68 1100.89L1537.68 1089.82L1591.48 1070.41L1610.87 1124.21L1599.79 1128.21L1584.4 1085.48L1541.68 1100.89Z" fill="url(#paint46_linear_533_3)"/>
<path d="M312.778 410.089L301.703 414.085L321.091 467.888L374.885 448.476L370.894 437.399L328.175 452.815L312.778 410.089Z" fill="url(#paint47_linear_533_3)"/>
<path d="M580.648 535.971L569.573 539.968L588.961 593.771L642.755 574.359L638.764 563.282L596.045 578.697L580.648 535.971Z" fill="url(#paint48_linear_533_3)"/>
<path d="M1116.39 787.737L1105.31 791.734L1124.7 845.537L1178.5 826.125L1174.5 815.048L1131.78 830.463L1116.39 787.737Z" fill="url(#paint49_linear_533_3)"/>
<path d="M446.713 473.03L435.638 477.027L455.026 530.83L508.82 511.418L504.829 500.341L462.11 515.756L446.713 473.03Z" fill="url(#paint50_linear_533_3)"/>
<path d="M714.583 598.913L703.508 602.909L722.896 656.712L776.69 637.301L772.699 626.224L729.98 641.639L714.583 598.913Z" fill="url(#paint51_linear_533_3)"/>
<path d="M937.111 647.639L933.119 636.562L986.914 617.15L1006.3 670.953L995.226 674.949L979.83 632.224L937.111 647.639Z" fill="url(#paint52_linear_533_3)"/>
<path d="M1204.98 773.522L1200.99 762.444L1254.78 743.033L1274.17 796.836L1263.1 800.832L1247.7 758.106L1204.98 773.522Z" fill="url(#paint53_linear_533_3)"/>
<path d="M535.306 458.815L531.314 447.738L585.109 428.326L604.496 482.129L593.421 486.125L578.025 443.399L535.306 458.815Z" fill="url(#paint54_linear_533_3)"/>
<path d="M803.176 584.697L799.184 573.62L852.979 554.209L872.366 608.012L861.291 612.008L845.895 569.282L803.176 584.697Z" fill="url(#paint55_linear_533_3)"/>
<path d="M1071.05 710.58L1067.05 699.503L1120.85 680.091L1140.24 733.894L1129.16 737.891L1113.76 695.165L1071.05 710.58Z" fill="url(#paint56_linear_533_3)"/>
<path d="M515.532 674.534L504.457 678.53L523.845 732.333L577.639 712.922L573.648 701.845L530.929 717.26L515.532 674.534Z" fill="url(#paint57_linear_533_3)"/>
<path d="M1051.27 926.299L1040.2 930.296L1059.59 984.099L1113.38 964.687L1109.39 953.61L1066.67 969.025L1051.27 926.299Z" fill="url(#paint58_linear_533_3)"/>
<path d="M1319.14 1052.18L1308.07 1056.18L1327.46 1109.98L1381.25 1090.57L1377.26 1079.49L1334.54 1094.91L1319.14 1052.18Z" fill="url(#paint59_linear_533_3)"/>
<path d="M649.467 737.475L638.392 741.472L657.78 795.275L711.574 775.863L707.583 764.786L664.864 780.201L649.467 737.475Z" fill="url(#paint60_linear_533_3)"/>
<path d="M917.337 863.358L906.262 867.355L925.65 921.158L979.444 901.746L975.453 890.669L932.734 906.084L917.337 863.358Z" fill="url(#paint61_linear_533_3)"/>
<path d="M1185.21 989.241L1174.13 993.237L1193.52 1047.04L1247.31 1027.63L1243.32 1016.55L1200.6 1031.97L1185.21 989.241Z" fill="url(#paint62_linear_533_3)"/>
<path d="M1453.08 1115.12L1442 1119.12L1461.39 1172.92L1515.18 1153.51L1511.19 1142.43L1468.47 1157.85L1453.08 1115.12Z" fill="url(#paint63_linear_533_3)"/>
<path d="M466.48 257.324L462.489 246.247L516.283 226.835L535.671 280.638L524.596 284.635L509.2 241.909L466.48 257.324Z" fill="url(#paint64_linear_533_3)"/>
<path d="M734.35 383.207L730.359 372.13L784.153 352.718L803.541 406.521L792.466 410.517L777.07 367.792L734.35 383.207Z" fill="url(#paint65_linear_533_3)"/>
<path d="M1002.22 509.09L998.229 498.013L1052.02 478.601L1071.41 532.404L1060.34 536.4L1044.94 493.674L1002.22 509.09Z" fill="url(#paint66_linear_533_3)"/>
<path d="M868.285 446.148L864.294 435.071L918.088 415.66L937.476 469.462L926.401 473.459L911.005 430.733L868.285 446.148Z" fill="url(#paint67_linear_533_3)"/>
<path d="M1136.16 572.031L1132.16 560.954L1185.96 541.542L1205.35 595.345L1194.27 599.342L1178.87 556.616L1136.16 572.031Z" fill="url(#paint68_linear_533_3)"/>
<path d="M1404.03 697.914L1400.03 686.837L1453.83 667.425L1473.22 721.228L1462.14 725.224L1446.74 682.499L1404.03 697.914Z" fill="url(#paint69_linear_533_3)"/>
<path d="M1671.9 823.796L1667.9 812.719L1721.7 793.308L1741.09 847.111L1730.01 851.107L1714.61 808.381L1671.9 823.796Z" fill="url(#paint70_linear_533_3)"/>
<path d="M182.546 687.213L171.471 691.21L190.859 745.013L244.653 725.601L240.662 714.524L197.943 729.939L182.546 687.213Z" fill="url(#paint71_linear_533_3)"/>
<path d="M450.416 813.096L439.341 817.093L458.729 870.896L512.523 851.484L508.532 840.407L465.813 855.822L450.416 813.096Z" fill="url(#paint72_linear_533_3)"/>
<path d="M718.286 938.979L707.211 942.976L726.599 996.779L780.393 977.367L776.402 966.29L733.683 981.705L718.286 938.979Z" fill="url(#paint73_linear_533_3)"/>
<path d="M316.481 750.155L305.406 754.151L324.794 807.954L378.588 788.543L374.597 777.466L331.878 792.881L316.481 750.155Z" fill="url(#paint74_linear_533_3)"/>
<path d="M1120.09 1127.8L1109.02 1131.8L1128.4 1185.6L1182.2 1166.19L1178.21 1155.11L1135.49 1170.53L1120.09 1127.8Z" fill="url(#paint75_linear_533_3)"/>
<path d="M1387.96 1253.69L1376.89 1257.68L1396.27 1311.49L1450.07 1292.07L1446.08 1281L1403.36 1296.41L1387.96 1253.69Z" fill="url(#paint76_linear_533_3)"/>
<path d="M531.59 118.775L527.599 107.698L581.393 88.2861L600.781 142.089L589.706 146.086L574.309 103.36L531.59 118.775Z" fill="url(#paint77_linear_533_3)"/>
<path d="M1603.07 622.306L1599.08 611.229L1652.87 591.817L1672.26 645.62L1661.19 649.617L1645.79 606.891L1603.07 622.306Z" fill="url(#paint78_linear_533_3)"/>
<path d="M665.525 181.716L661.534 170.639L715.328 151.228L734.716 205.03L723.641 209.027L708.244 166.301L665.525 181.716Z" fill="url(#paint79_linear_533_3)"/>
<path d="M933.395 307.599L929.404 296.522L983.198 277.11L1002.59 330.913L991.511 334.91L976.114 292.184L933.395 307.599Z" fill="url(#paint80_linear_533_3)"/>
<path d="M1201.27 433.482L1197.27 422.405L1251.07 402.993L1270.46 456.796L1259.38 460.792L1243.98 418.067L1201.27 433.482Z" fill="url(#paint81_linear_533_3)"/>
<path d="M1469.14 559.365L1465.14 548.287L1518.94 528.876L1538.33 582.679L1527.25 586.675L1511.85 543.949L1469.14 559.365Z" fill="url(#paint82_linear_533_3)"/>
<path d="M653.17 1077.54L642.095 1081.54L661.483 1135.34L715.277 1115.93L711.286 1104.85L668.567 1120.27L653.17 1077.54Z" fill="url(#paint83_linear_533_3)"/>
<path d="M921.04 1203.42L909.965 1207.42L929.353 1261.22L983.147 1241.81L979.156 1230.73L936.437 1246.15L921.04 1203.42Z" fill="url(#paint84_linear_533_3)"/>
<path d="M251.365 888.717L240.29 892.714L259.678 946.517L313.472 927.105L309.481 916.028L266.762 931.443L251.365 888.717Z" fill="url(#paint85_linear_533_3)"/>
<path d="M519.235 1014.6L508.16 1018.6L527.548 1072.4L581.342 1052.99L577.351 1041.91L534.632 1057.33L519.235 1014.6Z" fill="url(#paint86_linear_533_3)"/>
<path d="M1054.98 1266.37L1043.9 1270.36L1063.29 1324.17L1117.08 1304.75L1113.09 1293.68L1070.37 1309.09L1054.98 1266.37Z" fill="url(#paint87_linear_533_3)"/>
<path d="M1322.85 1392.25L1311.77 1396.24L1331.16 1450.05L1384.95 1430.64L1380.96 1419.56L1338.24 1434.97L1322.85 1392.25Z" fill="url(#paint88_linear_533_3)"/>
<path d="M52.3143 964.338L41.239 968.335L60.6269 1022.14L114.421 1002.73L110.43 991.649L67.7106 1007.06L52.3143 964.338Z" fill="url(#paint89_linear_533_3)"/>
<path d="M320.184 1090.22L309.109 1094.22L328.497 1148.02L382.291 1128.61L378.3 1117.53L335.581 1132.95L320.184 1090.22Z" fill="url(#paint90_linear_533_3)"/>
<path d="M855.924 1341.99L844.849 1345.98L864.237 1399.79L918.031 1380.37L914.04 1369.3L871.321 1384.71L855.924 1341.99Z" fill="url(#paint91_linear_533_3)"/>
<path d="M1123.79 1467.87L1112.72 1471.87L1132.11 1525.67L1185.9 1506.26L1181.91 1495.18L1139.19 1510.6L1123.79 1467.87Z" fill="url(#paint92_linear_533_3)"/>
<path d="M454.119 1153.16L443.044 1157.16L462.432 1210.96L516.226 1191.55L512.235 1180.47L469.516 1195.89L454.119 1153.16Z" fill="url(#paint93_linear_533_3)"/>
<path d="M1170.25 23.9155L1158.68 27.0159L1173.74 83.2181L1229.94 68.1588L1226.84 56.5877L1182.21 68.5466L1170.25 23.9155Z" fill="url(#paint94_linear_533_3)"/>
<path d="M1156.07 144.174L1153.64 135.007L1198.12 122.998L1209.95 167.522L1200.8 169.995L1191.4 134.637L1156.07 144.174Z" fill="url(#paint95_linear_533_3)"/>
<path d="M1226.1 123.347L1224.64 118.12L1250.17 111.555L1257.25 136.944L1251.99 138.296L1246.37 118.134L1226.1 123.347Z" fill="url(#paint96_linear_533_3)"/>
<path d="M1118.74 55.4311L1111.53 57.3432L1120.99 92.3003L1155.99 83.013L1154.04 75.8159L1126.25 83.1912L1118.74 55.4311Z" fill="url(#paint97_linear_533_3)"/>
<path d="M1035.28 167.31L1034.31 163.712L1051.81 159.068L1056.54 176.547L1052.94 177.503L1049.18 163.623L1035.28 167.31Z" fill="url(#paint98_linear_533_3)"/>
<defs>
<linearGradient id="paint0_linear_533_3" x1="2168.26" y1="608.115" x2="729.105" y2="-154.264" gradientUnits="userSpaceOnUse">
<stop stop-color="#BDDBFF" stop-opacity="0.1"/>
<stop offset="1" stop-color="#0072DB" stop-opacity="0"/>
</linearGradient>
<linearGradient id="paint1_linear_533_3" x1="2168.26" y1="608.115" x2="729.105" y2="-154.264" gradientUnits="userSpaceOnUse">
<stop stop-color="#BDDBFF" stop-opacity="0.1"/>
<stop offset="1" stop-color="#0072DB" stop-opacity="0"/>
</linearGradient>
<linearGradient id="paint2_linear_533_3" x1="2168.26" y1="608.115" x2="729.105" y2="-154.264" gradientUnits="userSpaceOnUse">
<stop stop-color="#BDDBFF" stop-opacity="0.1"/>
<stop offset="1" stop-color="#0072DB" stop-opacity="0"/>
</linearGradient>
<linearGradient id="paint3_linear_533_3" x1="2168.26" y1="608.115" x2="729.105" y2="-154.264" gradientUnits="userSpaceOnUse">
<stop stop-color="#BDDBFF" stop-opacity="0.1"/>
<stop offset="1" stop-color="#0072DB" stop-opacity="0"/>
</linearGradient>
<linearGradient id="paint4_linear_533_3" x1="2168.26" y1="608.115" x2="729.105" y2="-154.264" gradientUnits="userSpaceOnUse">
<stop stop-color="#BDDBFF" stop-opacity="0.1"/>
<stop offset="1" stop-color="#0072DB" stop-opacity="0"/>
</linearGradient>
<linearGradient id="paint5_linear_533_3" x1="2168.26" y1="608.115" x2="729.105" y2="-154.264" gradientUnits="userSpaceOnUse">
<stop stop-color="#BDDBFF" stop-opacity="0.1"/>
<stop offset="1" stop-color="#0072DB" stop-opacity="0"/>
</linearGradient>
<linearGradient id="paint6_linear_533_3" x1="2168.26" y1="608.115" x2="729.105" y2="-154.264" gradientUnits="userSpaceOnUse">
<stop stop-color="#BDDBFF" stop-opacity="0.1"/>
<stop offset="1" stop-color="#0072DB" stop-opacity="0"/>
</linearGradient>
<linearGradient id="paint7_linear_533_3" x1="2168.26" y1="608.115" x2="729.105" y2="-154.264" gradientUnits="userSpaceOnUse">
<stop stop-color="#BDDBFF" stop-opacity="0.1"/>
<stop offset="1" stop-color="#0072DB" stop-opacity="0"/>
</linearGradient>
<linearGradient id="paint8_linear_533_3" x1="2168.26" y1="608.115" x2="729.105" y2="-154.264" gradientUnits="userSpaceOnUse">
<stop stop-color="#BDDBFF" stop-opacity="0.1"/>
<stop offset="1" stop-color="#0072DB" stop-opacity="0"/>
</linearGradient>
<linearGradient id="paint9_linear_533_3" x1="2168.26" y1="608.115" x2="729.105" y2="-154.264" gradientUnits="userSpaceOnUse">
<stop stop-color="#BDDBFF" stop-opacity="0.1"/>
<stop offset="1" stop-color="#0072DB" stop-opacity="0"/>
</linearGradient>
<linearGradient id="paint10_linear_533_3" x1="2168.26" y1="608.115" x2="729.105" y2="-154.264" gradientUnits="userSpaceOnUse">
<stop stop-color="#BDDBFF" stop-opacity="0.1"/>
<stop offset="1" stop-color="#0072DB" stop-opacity="0"/>
</linearGradient>
<linearGradient id="paint11_linear_533_3" x1="2168.26" y1="608.115" x2="729.105" y2="-154.264" gradientUnits="userSpaceOnUse">
<stop stop-color="#BDDBFF" stop-opacity="0.1"/>
<stop offset="1" stop-color="#0072DB" stop-opacity="0"/>
</linearGradient>
<linearGradient id="paint12_linear_533_3" x1="2168.26" y1="608.115" x2="729.105" y2="-154.264" gradientUnits="userSpaceOnUse">
<stop stop-color="#BDDBFF" stop-opacity="0.1"/>
<stop offset="1" stop-color="#0072DB" stop-opacity="0"/>
</linearGradient>
<linearGradient id="paint13_linear_533_3" x1="2168.26" y1="608.115" x2="729.105" y2="-154.264" gradientUnits="userSpaceOnUse">
<stop stop-color="#BDDBFF" stop-opacity="0.1"/>
<stop offset="1" stop-color="#0072DB" stop-opacity="0"/>
</linearGradient>
<linearGradient id="paint14_linear_533_3" x1="2168.26" y1="608.115" x2="729.105" y2="-154.264" gradientUnits="userSpaceOnUse">
<stop stop-color="#BDDBFF" stop-opacity="0.1"/>
<stop offset="1" stop-color="#0072DB" stop-opacity="0"/>
</linearGradient>
<linearGradient id="paint15_linear_533_3" x1="2168.26" y1="608.115" x2="729.105" y2="-154.264" gradientUnits="userSpaceOnUse">
<stop stop-color="#BDDBFF" stop-opacity="0.1"/>
<stop offset="1" stop-color="#0072DB" stop-opacity="0"/>
</linearGradient>
<linearGradient id="paint16_linear_533_3" x1="2168.26" y1="608.115" x2="729.105" y2="-154.264" gradientUnits="userSpaceOnUse">
<stop stop-color="#BDDBFF" stop-opacity="0.1"/>
<stop offset="1" stop-color="#0072DB" stop-opacity="0"/>
</linearGradient>
<linearGradient id="paint17_linear_533_3" x1="2168.26" y1="608.115" x2="729.105" y2="-154.264" gradientUnits="userSpaceOnUse">
<stop stop-color="#BDDBFF" stop-opacity="0.1"/>
<stop offset="1" stop-color="#0072DB" stop-opacity="0"/>
</linearGradient>
<linearGradient id="paint18_linear_533_3" x1="2168.26" y1="608.115" x2="729.105" y2="-154.264" gradientUnits="userSpaceOnUse">
<stop stop-color="#BDDBFF" stop-opacity="0.1"/>
<stop offset="1" stop-color="#0072DB" stop-opacity="0"/>
</linearGradient>
<linearGradient id="paint19_linear_533_3" x1="2168.26" y1="608.115" x2="729.105" y2="-154.264" gradientUnits="userSpaceOnUse">
<stop stop-color="#BDDBFF" stop-opacity="0.1"/>
<stop offset="1" stop-color="#0072DB" stop-opacity="0"/>
</linearGradient>
<linearGradient id="paint20_linear_533_3" x1="2168.26" y1="608.115" x2="729.105" y2="-154.264" gradientUnits="userSpaceOnUse">
<stop stop-color="#BDDBFF" stop-opacity="0.1"/>
<stop offset="1" stop-color="#0072DB" stop-opacity="0"/>
</linearGradient>
<linearGradient id="paint21_linear_533_3" x1="2168.26" y1="608.115" x2="729.105" y2="-154.264" gradientUnits="userSpaceOnUse">
<stop stop-color="#BDDBFF" stop-opacity="0.1"/>
<stop offset="1" stop-color="#0072DB" stop-opacity="0"/>
</linearGradient>
<linearGradient id="paint22_linear_533_3" x1="2168.26" y1="608.115" x2="729.105" y2="-154.264" gradientUnits="userSpaceOnUse">
<stop stop-color="#BDDBFF" stop-opacity="0.1"/>
<stop offset="1" stop-color="#0072DB" stop-opacity="0"/>
</linearGradient>
<linearGradient id="paint23_linear_533_3" x1="2168.26" y1="608.115" x2="729.105" y2="-154.264" gradientUnits="userSpaceOnUse">
<stop stop-color="#BDDBFF" stop-opacity="0.1"/>
<stop offset="1" stop-color="#0072DB" stop-opacity="0"/>
</linearGradient>
<linearGradient id="paint24_linear_533_3" x1="2168.26" y1="608.115" x2="729.105" y2="-154.264" gradientUnits="userSpaceOnUse">
<stop stop-color="#BDDBFF" stop-opacity="0.1"/>
<stop offset="1" stop-color="#0072DB" stop-opacity="0"/>
</linearGradient>
<linearGradient id="paint25_linear_533_3" x1="2168.26" y1="608.115" x2="729.105" y2="-154.264" gradientUnits="userSpaceOnUse">
<stop stop-color="#BDDBFF" stop-opacity="0.1"/>
<stop offset="1" stop-color="#0072DB" stop-opacity="0"/>
</linearGradient>
<linearGradient id="paint26_linear_533_3" x1="2168.26" y1="608.115" x2="729.105" y2="-154.264" gradientUnits="userSpaceOnUse">
<stop stop-color="#BDDBFF" stop-opacity="0.1"/>
<stop offset="1" stop-color="#0072DB" stop-opacity="0"/>
</linearGradient>
<linearGradient id="paint27_linear_533_3" x1="2168.26" y1="608.115" x2="729.105" y2="-154.264" gradientUnits="userSpaceOnUse">
<stop stop-color="#BDDBFF" stop-opacity="0.1"/>
<stop offset="1" stop-color="#0072DB" stop-opacity="0"/>
</linearGradient>
<linearGradient id="paint28_linear_533_3" x1="2168.26" y1="608.115" x2="729.105" y2="-154.264" gradientUnits="userSpaceOnUse">
<stop stop-color="#BDDBFF" stop-opacity="0.1"/>
<stop offset="1" stop-color="#0072DB" stop-opacity="0"/>
</linearGradient>
<linearGradient id="paint29_linear_533_3" x1="2168.26" y1="608.115" x2="729.105" y2="-154.264" gradientUnits="userSpaceOnUse">
<stop stop-color="#BDDBFF" stop-opacity="0.1"/>
<stop offset="1" stop-color="#0072DB" stop-opacity="0"/>
</linearGradient>
<linearGradient id="paint30_linear_533_3" x1="2168.26" y1="608.115" x2="729.105" y2="-154.264" gradientUnits="userSpaceOnUse">
<stop stop-color="#BDDBFF" stop-opacity="0.1"/>
<stop offset="1" stop-color="#0072DB" stop-opacity="0"/>
</linearGradient>
<linearGradient id="paint31_linear_533_3" x1="2168.26" y1="608.115" x2="729.105" y2="-154.264" gradientUnits="userSpaceOnUse">
<stop stop-color="#BDDBFF" stop-opacity="0.1"/>
<stop offset="1" stop-color="#0072DB" stop-opacity="0"/>
</linearGradient>
<linearGradient id="paint32_linear_533_3" x1="2168.26" y1="608.115" x2="729.105" y2="-154.264" gradientUnits="userSpaceOnUse">
<stop stop-color="#BDDBFF" stop-opacity="0.1"/>
<stop offset="1" stop-color="#0072DB" stop-opacity="0"/>
</linearGradient>
<linearGradient id="paint33_linear_533_3" x1="2168.26" y1="608.115" x2="729.105" y2="-154.264" gradientUnits="userSpaceOnUse">
<stop stop-color="#BDDBFF" stop-opacity="0.1"/>
<stop offset="1" stop-color="#0072DB" stop-opacity="0"/>
</linearGradient>
<linearGradient id="paint34_linear_533_3" x1="2168.26" y1="608.115" x2="729.105" y2="-154.264" gradientUnits="userSpaceOnUse">
<stop stop-color="#BDDBFF" stop-opacity="0.1"/>
<stop offset="1" stop-color="#0072DB" stop-opacity="0"/>
</linearGradient>
<linearGradient id="paint35_linear_533_3" x1="2168.26" y1="608.115" x2="729.105" y2="-154.264" gradientUnits="userSpaceOnUse">
<stop stop-color="#BDDBFF" stop-opacity="0.1"/>
<stop offset="1" stop-color="#0072DB" stop-opacity="0"/>
</linearGradient>
<linearGradient id="paint36_linear_533_3" x1="2168.26" y1="608.115" x2="729.105" y2="-154.264" gradientUnits="userSpaceOnUse">
<stop stop-color="#BDDBFF" stop-opacity="0.1"/>
<stop offset="1" stop-color="#0072DB" stop-opacity="0"/>
</linearGradient>
<linearGradient id="paint37_linear_533_3" x1="2168.26" y1="608.115" x2="729.105" y2="-154.264" gradientUnits="userSpaceOnUse">
<stop stop-color="#BDDBFF" stop-opacity="0.1"/>
<stop offset="1" stop-color="#0072DB" stop-opacity="0"/>
</linearGradient>
<linearGradient id="paint38_linear_533_3" x1="2168.26" y1="608.115" x2="729.105" y2="-154.264" gradientUnits="userSpaceOnUse">
<stop stop-color="#BDDBFF" stop-opacity="0.1"/>
<stop offset="1" stop-color="#0072DB" stop-opacity="0"/>
</linearGradient>
<linearGradient id="paint39_linear_533_3" x1="2168.26" y1="608.115" x2="729.105" y2="-154.264" gradientUnits="userSpaceOnUse">
<stop stop-color="#BDDBFF" stop-opacity="0.1"/>
<stop offset="1" stop-color="#0072DB" stop-opacity="0"/>
</linearGradient>
<linearGradient id="paint40_linear_533_3" x1="2168.26" y1="608.115" x2="729.105" y2="-154.264" gradientUnits="userSpaceOnUse">
<stop stop-color="#BDDBFF" stop-opacity="0.1"/>
<stop offset="1" stop-color="#0072DB" stop-opacity="0"/>
</linearGradient>
<linearGradient id="paint41_linear_533_3" x1="2168.26" y1="608.115" x2="729.105" y2="-154.264" gradientUnits="userSpaceOnUse">
<stop stop-color="#BDDBFF" stop-opacity="0.1"/>
<stop offset="1" stop-color="#0072DB" stop-opacity="0"/>
</linearGradient>
<linearGradient id="paint42_linear_533_3" x1="2168.26" y1="608.115" x2="729.105" y2="-154.264" gradientUnits="userSpaceOnUse">
<stop stop-color="#BDDBFF" stop-opacity="0.1"/>
<stop offset="1" stop-color="#0072DB" stop-opacity="0"/>
</linearGradient>
<linearGradient id="paint43_linear_533_3" x1="2168.26" y1="608.115" x2="729.105" y2="-154.264" gradientUnits="userSpaceOnUse">
<stop stop-color="#BDDBFF" stop-opacity="0.1"/>
<stop offset="1" stop-color="#0072DB" stop-opacity="0"/>
</linearGradient>
<linearGradient id="paint44_linear_533_3" x1="2168.26" y1="608.115" x2="729.105" y2="-154.264" gradientUnits="userSpaceOnUse">
<stop stop-color="#BDDBFF" stop-opacity="0.1"/>
<stop offset="1" stop-color="#0072DB" stop-opacity="0"/>
</linearGradient>
<linearGradient id="paint45_linear_533_3" x1="2168.26" y1="608.115" x2="729.105" y2="-154.264" gradientUnits="userSpaceOnUse">
<stop stop-color="#BDDBFF" stop-opacity="0.1"/>
<stop offset="1" stop-color="#0072DB" stop-opacity="0"/>
</linearGradient>
<linearGradient id="paint46_linear_533_3" x1="2168.26" y1="608.115" x2="729.105" y2="-154.264" gradientUnits="userSpaceOnUse">
<stop stop-color="#BDDBFF" stop-opacity="0.1"/>
<stop offset="1" stop-color="#0072DB" stop-opacity="0"/>
</linearGradient>
<linearGradient id="paint47_linear_533_3" x1="2168.26" y1="608.115" x2="729.105" y2="-154.264" gradientUnits="userSpaceOnUse">
<stop stop-color="#BDDBFF" stop-opacity="0.1"/>
<stop offset="1" stop-color="#0072DB" stop-opacity="0"/>
</linearGradient>
<linearGradient id="paint48_linear_533_3" x1="2168.26" y1="608.115" x2="729.105" y2="-154.264" gradientUnits="userSpaceOnUse">
<stop stop-color="#BDDBFF" stop-opacity="0.1"/>
<stop offset="1" stop-color="#0072DB" stop-opacity="0"/>
</linearGradient>
<linearGradient id="paint49_linear_533_3" x1="2168.26" y1="608.115" x2="729.105" y2="-154.264" gradientUnits="userSpaceOnUse">
<stop stop-color="#BDDBFF" stop-opacity="0.1"/>
<stop offset="1" stop-color="#0072DB" stop-opacity="0"/>
</linearGradient>
<linearGradient id="paint50_linear_533_3" x1="2168.26" y1="608.115" x2="729.105" y2="-154.264" gradientUnits="userSpaceOnUse">
<stop stop-color="#BDDBFF" stop-opacity="0.1"/>
<stop offset="1" stop-color="#0072DB" stop-opacity="0"/>
</linearGradient>
<linearGradient id="paint51_linear_533_3" x1="2168.26" y1="608.115" x2="729.105" y2="-154.264" gradientUnits="userSpaceOnUse">
<stop stop-color="#BDDBFF" stop-opacity="0.1"/>
<stop offset="1" stop-color="#0072DB" stop-opacity="0"/>
</linearGradient>
<linearGradient id="paint52_linear_533_3" x1="2168.26" y1="608.115" x2="729.105" y2="-154.264" gradientUnits="userSpaceOnUse">
<stop stop-color="#BDDBFF" stop-opacity="0.1"/>
<stop offset="1" stop-color="#0072DB" stop-opacity="0"/>
</linearGradient>
<linearGradient id="paint53_linear_533_3" x1="2168.26" y1="608.115" x2="729.105" y2="-154.264" gradientUnits="userSpaceOnUse">
<stop stop-color="#BDDBFF" stop-opacity="0.1"/>
<stop offset="1" stop-color="#0072DB" stop-opacity="0"/>
</linearGradient>
<linearGradient id="paint54_linear_533_3" x1="2168.26" y1="608.115" x2="729.105" y2="-154.264" gradientUnits="userSpaceOnUse">
<stop stop-color="#BDDBFF" stop-opacity="0.1"/>
<stop offset="1" stop-color="#0072DB" stop-opacity="0"/>
</linearGradient>
<linearGradient id="paint55_linear_533_3" x1="2168.26" y1="608.115" x2="729.105" y2="-154.264" gradientUnits="userSpaceOnUse">
<stop stop-color="#BDDBFF" stop-opacity="0.1"/>
<stop offset="1" stop-color="#0072DB" stop-opacity="0"/>
</linearGradient>
<linearGradient id="paint56_linear_533_3" x1="2168.26" y1="608.115" x2="729.105" y2="-154.264" gradientUnits="userSpaceOnUse">
<stop stop-color="#BDDBFF" stop-opacity="0.1"/>
<stop offset="1" stop-color="#0072DB" stop-opacity="0"/>
</linearGradient>
<linearGradient id="paint57_linear_533_3" x1="2168.26" y1="608.115" x2="729.105" y2="-154.264" gradientUnits="userSpaceOnUse">
<stop stop-color="#BDDBFF" stop-opacity="0.1"/>
<stop offset="1" stop-color="#0072DB" stop-opacity="0"/>
</linearGradient>
<linearGradient id="paint58_linear_533_3" x1="2168.26" y1="608.115" x2="729.105" y2="-154.264" gradientUnits="userSpaceOnUse">
<stop stop-color="#BDDBFF" stop-opacity="0.1"/>
<stop offset="1" stop-color="#0072DB" stop-opacity="0"/>
</linearGradient>
<linearGradient id="paint59_linear_533_3" x1="2168.26" y1="608.115" x2="729.105" y2="-154.264" gradientUnits="userSpaceOnUse">
<stop stop-color="#BDDBFF" stop-opacity="0.1"/>
<stop offset="1" stop-color="#0072DB" stop-opacity="0"/>
</linearGradient>
<linearGradient id="paint60_linear_533_3" x1="2168.26" y1="608.115" x2="729.105" y2="-154.264" gradientUnits="userSpaceOnUse">
<stop stop-color="#BDDBFF" stop-opacity="0.1"/>
<stop offset="1" stop-color="#0072DB" stop-opacity="0"/>
</linearGradient>
<linearGradient id="paint61_linear_533_3" x1="2168.26" y1="608.115" x2="729.105" y2="-154.264" gradientUnits="userSpaceOnUse">
<stop stop-color="#BDDBFF" stop-opacity="0.1"/>
<stop offset="1" stop-color="#0072DB" stop-opacity="0"/>
</linearGradient>
<linearGradient id="paint62_linear_533_3" x1="2168.26" y1="608.115" x2="729.105" y2="-154.264" gradientUnits="userSpaceOnUse">
<stop stop-color="#BDDBFF" stop-opacity="0.1"/>
<stop offset="1" stop-color="#0072DB" stop-opacity="0"/>
</linearGradient>
<linearGradient id="paint63_linear_533_3" x1="2168.26" y1="608.115" x2="729.105" y2="-154.264" gradientUnits="userSpaceOnUse">
<stop stop-color="#BDDBFF" stop-opacity="0.1"/>
<stop offset="1" stop-color="#0072DB" stop-opacity="0"/>
</linearGradient>
<linearGradient id="paint64_linear_533_3" x1="2168.26" y1="608.115" x2="729.105" y2="-154.264" gradientUnits="userSpaceOnUse">
<stop stop-color="#BDDBFF" stop-opacity="0.1"/>
<stop offset="1" stop-color="#0072DB" stop-opacity="0"/>
</linearGradient>
<linearGradient id="paint65_linear_533_3" x1="2168.26" y1="608.115" x2="729.105" y2="-154.264" gradientUnits="userSpaceOnUse">
<stop stop-color="#BDDBFF" stop-opacity="0.1"/>
<stop offset="1" stop-color="#0072DB" stop-opacity="0"/>
</linearGradient>
<linearGradient id="paint66_linear_533_3" x1="2168.26" y1="608.115" x2="729.105" y2="-154.264" gradientUnits="userSpaceOnUse">
<stop stop-color="#BDDBFF" stop-opacity="0.1"/>
<stop offset="1" stop-color="#0072DB" stop-opacity="0"/>
</linearGradient>
<linearGradient id="paint67_linear_533_3" x1="2168.26" y1="608.115" x2="729.105" y2="-154.264" gradientUnits="userSpaceOnUse">
<stop stop-color="#BDDBFF" stop-opacity="0.1"/>
<stop offset="1" stop-color="#0072DB" stop-opacity="0"/>
</linearGradient>
<linearGradient id="paint68_linear_533_3" x1="2168.26" y1="608.115" x2="729.105" y2="-154.264" gradientUnits="userSpaceOnUse">
<stop stop-color="#BDDBFF" stop-opacity="0.1"/>
<stop offset="1" stop-color="#0072DB" stop-opacity="0"/>
</linearGradient>
<linearGradient id="paint69_linear_533_3" x1="2168.26" y1="608.115" x2="729.105" y2="-154.264" gradientUnits="userSpaceOnUse">
<stop stop-color="#BDDBFF" stop-opacity="0.1"/>
<stop offset="1" stop-color="#0072DB" stop-opacity="0"/>
</linearGradient>
<linearGradient id="paint70_linear_533_3" x1="2168.26" y1="608.115" x2="729.105" y2="-154.264" gradientUnits="userSpaceOnUse">
<stop stop-color="#BDDBFF" stop-opacity="0.1"/>
<stop offset="1" stop-color="#0072DB" stop-opacity="0"/>
</linearGradient>
<linearGradient id="paint71_linear_533_3" x1="2168.26" y1="608.115" x2="729.105" y2="-154.264" gradientUnits="userSpaceOnUse">
<stop stop-color="#BDDBFF" stop-opacity="0.1"/>
<stop offset="1" stop-color="#0072DB" stop-opacity="0"/>
</linearGradient>
<linearGradient id="paint72_linear_533_3" x1="2168.26" y1="608.115" x2="729.105" y2="-154.264" gradientUnits="userSpaceOnUse">
<stop stop-color="#BDDBFF" stop-opacity="0.1"/>
<stop offset="1" stop-color="#0072DB" stop-opacity="0"/>
</linearGradient>
<linearGradient id="paint73_linear_533_3" x1="2168.26" y1="608.115" x2="729.105" y2="-154.264" gradientUnits="userSpaceOnUse">
<stop stop-color="#BDDBFF" stop-opacity="0.1"/>
<stop offset="1" stop-color="#0072DB" stop-opacity="0"/>
</linearGradient>
<linearGradient id="paint74_linear_533_3" x1="2168.26" y1="608.115" x2="729.105" y2="-154.264" gradientUnits="userSpaceOnUse">
<stop stop-color="#BDDBFF" stop-opacity="0.1"/>
<stop offset="1" stop-color="#0072DB" stop-opacity="0"/>
</linearGradient>
<linearGradient id="paint75_linear_533_3" x1="2168.26" y1="608.115" x2="729.105" y2="-154.264" gradientUnits="userSpaceOnUse">
<stop stop-color="#BDDBFF" stop-opacity="0.1"/>
<stop offset="1" stop-color="#0072DB" stop-opacity="0"/>
</linearGradient>
<linearGradient id="paint76_linear_533_3" x1="2168.26" y1="608.115" x2="729.105" y2="-154.264" gradientUnits="userSpaceOnUse">
<stop stop-color="#BDDBFF" stop-opacity="0.1"/>
<stop offset="1" stop-color="#0072DB" stop-opacity="0"/>
</linearGradient>
<linearGradient id="paint77_linear_533_3" x1="2168.26" y1="608.115" x2="729.105" y2="-154.264" gradientUnits="userSpaceOnUse">
<stop stop-color="#BDDBFF" stop-opacity="0.1"/>
<stop offset="1" stop-color="#0072DB" stop-opacity="0"/>
</linearGradient>
<linearGradient id="paint78_linear_533_3" x1="2168.26" y1="608.115" x2="729.105" y2="-154.264" gradientUnits="userSpaceOnUse">
<stop stop-color="#BDDBFF" stop-opacity="0.1"/>
<stop offset="1" stop-color="#0072DB" stop-opacity="0"/>
</linearGradient>
<linearGradient id="paint79_linear_533_3" x1="2168.26" y1="608.115" x2="729.105" y2="-154.264" gradientUnits="userSpaceOnUse">
<stop stop-color="#BDDBFF" stop-opacity="0.1"/>
<stop offset="1" stop-color="#0072DB" stop-opacity="0"/>
</linearGradient>
<linearGradient id="paint80_linear_533_3" x1="2168.26" y1="608.115" x2="729.105" y2="-154.264" gradientUnits="userSpaceOnUse">
<stop stop-color="#BDDBFF" stop-opacity="0.1"/>
<stop offset="1" stop-color="#0072DB" stop-opacity="0"/>
</linearGradient>
<linearGradient id="paint81_linear_533_3" x1="2168.26" y1="608.115" x2="729.105" y2="-154.264" gradientUnits="userSpaceOnUse">
<stop stop-color="#BDDBFF" stop-opacity="0.1"/>
<stop offset="1" stop-color="#0072DB" stop-opacity="0"/>
</linearGradient>
<linearGradient id="paint82_linear_533_3" x1="2168.26" y1="608.115" x2="729.105" y2="-154.264" gradientUnits="userSpaceOnUse">
<stop stop-color="#BDDBFF" stop-opacity="0.1"/>
<stop offset="1" stop-color="#0072DB" stop-opacity="0"/>
</linearGradient>
<linearGradient id="paint83_linear_533_3" x1="2168.26" y1="608.115" x2="729.105" y2="-154.264" gradientUnits="userSpaceOnUse">
<stop stop-color="#BDDBFF" stop-opacity="0.1"/>
<stop offset="1" stop-color="#0072DB" stop-opacity="0"/>
</linearGradient>
<linearGradient id="paint84_linear_533_3" x1="2168.26" y1="608.115" x2="729.105" y2="-154.264" gradientUnits="userSpaceOnUse">
<stop stop-color="#BDDBFF" stop-opacity="0.1"/>
<stop offset="1" stop-color="#0072DB" stop-opacity="0"/>
</linearGradient>
<linearGradient id="paint85_linear_533_3" x1="2168.26" y1="608.115" x2="729.105" y2="-154.264" gradientUnits="userSpaceOnUse">
<stop stop-color="#BDDBFF" stop-opacity="0.1"/>
<stop offset="1" stop-color="#0072DB" stop-opacity="0"/>
</linearGradient>
<linearGradient id="paint86_linear_533_3" x1="2168.26" y1="608.115" x2="729.105" y2="-154.264" gradientUnits="userSpaceOnUse">
<stop stop-color="#BDDBFF" stop-opacity="0.1"/>
<stop offset="1" stop-color="#0072DB" stop-opacity="0"/>
</linearGradient>
<linearGradient id="paint87_linear_533_3" x1="2168.26" y1="608.115" x2="729.105" y2="-154.264" gradientUnits="userSpaceOnUse">
<stop stop-color="#BDDBFF" stop-opacity="0.1"/>
<stop offset="1" stop-color="#0072DB" stop-opacity="0"/>
</linearGradient>
<linearGradient id="paint88_linear_533_3" x1="2168.26" y1="608.115" x2="729.105" y2="-154.264" gradientUnits="userSpaceOnUse">
<stop stop-color="#BDDBFF" stop-opacity="0.1"/>
<stop offset="1" stop-color="#0072DB" stop-opacity="0"/>
</linearGradient>
<linearGradient id="paint89_linear_533_3" x1="2168.26" y1="608.115" x2="729.105" y2="-154.264" gradientUnits="userSpaceOnUse">
<stop stop-color="#BDDBFF" stop-opacity="0.1"/>
<stop offset="1" stop-color="#0072DB" stop-opacity="0"/>
</linearGradient>
<linearGradient id="paint90_linear_533_3" x1="2168.26" y1="608.115" x2="729.105" y2="-154.264" gradientUnits="userSpaceOnUse">
<stop stop-color="#BDDBFF" stop-opacity="0.1"/>
<stop offset="1" stop-color="#0072DB" stop-opacity="0"/>
</linearGradient>
<linearGradient id="paint91_linear_533_3" x1="2168.26" y1="608.115" x2="729.105" y2="-154.264" gradientUnits="userSpaceOnUse">
<stop stop-color="#BDDBFF" stop-opacity="0.1"/>
<stop offset="1" stop-color="#0072DB" stop-opacity="0"/>
</linearGradient>
<linearGradient id="paint92_linear_533_3" x1="2168.26" y1="608.115" x2="729.105" y2="-154.264" gradientUnits="userSpaceOnUse">
<stop stop-color="#BDDBFF" stop-opacity="0.1"/>
<stop offset="1" stop-color="#0072DB" stop-opacity="0"/>
</linearGradient>
<linearGradient id="paint93_linear_533_3" x1="2168.26" y1="608.115" x2="729.105" y2="-154.264" gradientUnits="userSpaceOnUse">
<stop stop-color="#BDDBFF" stop-opacity="0.1"/>
<stop offset="1" stop-color="#0072DB" stop-opacity="0"/>
</linearGradient>
<linearGradient id="paint94_linear_533_3" x1="1464.17" y1="153.22" x2="1182.61" y2="-31.8354" gradientUnits="userSpaceOnUse">
<stop stop-color="#BDDBFF" stop-opacity="0.56"/>
<stop offset="1" stop-color="#0072DB" stop-opacity="0"/>
</linearGradient>
<linearGradient id="paint95_linear_533_3" x1="1464.17" y1="153.22" x2="1182.61" y2="-31.8354" gradientUnits="userSpaceOnUse">
<stop stop-color="#BDDBFF" stop-opacity="0.56"/>
<stop offset="1" stop-color="#0072DB" stop-opacity="0"/>
</linearGradient>
<linearGradient id="paint96_linear_533_3" x1="1464.17" y1="153.22" x2="1182.61" y2="-31.8354" gradientUnits="userSpaceOnUse">
<stop stop-color="#BDDBFF" stop-opacity="0.56"/>
<stop offset="1" stop-color="#0072DB" stop-opacity="0"/>
</linearGradient>
<linearGradient id="paint97_linear_533_3" x1="1464.17" y1="153.22" x2="1182.61" y2="-31.8354" gradientUnits="userSpaceOnUse">
<stop stop-color="#BDDBFF" stop-opacity="0.56"/>
<stop offset="1" stop-color="#0072DB" stop-opacity="0"/>
</linearGradient>
<linearGradient id="paint98_linear_533_3" x1="1464.17" y1="153.22" x2="1182.61" y2="-31.8354" gradientUnits="userSpaceOnUse">
<stop stop-color="#BDDBFF" stop-opacity="0.56"/>
<stop offset="1" stop-color="#0072DB" stop-opacity="0"/>
</linearGradient>
</defs>
</svg>
