<svg width="54" height="54" viewBox="0 0 54 54" fill="none" xmlns="http://www.w3.org/2000/svg">
<path d="M17.6972 16.2736C18.2864 19.0718 19.9064 24.84 20.5691 27.491H14.9236C15.9055 23.7846 17.2064 19.0718 17.6972 16.2736ZM54 0V54H0V0H54ZM28.1257 38.7818L20.3244 12.5182H14.9236C14.9166 13.3717 14.8578 14.1556 14.6782 14.7763L7.78032 38.7819H11.9102L13.8928 31.4183H21.5754L23.6209 38.7819H28.1257V38.7818ZM45.2928 37.5729C45.2143 36.1353 45.1146 35.2383 45.1146 34.9282V19.391H40.9664V34.9772C37.7122 36.0977 34.9445 35.2136 35.0754 31.8354V19.391H30.6819V32.351C30.5735 40.1641 37.9523 40.5678 45.293 37.5729H45.2928Z" fill="#21BCFD"/>
</svg>
