<svg width="54" height="54" viewBox="0 0 54 54" fill="none" xmlns="http://www.w3.org/2000/svg">
<path fill-rule="evenodd" clip-rule="evenodd" d="M54 0H0V54H54V0ZM32.8182 37.4857C33.9411 39.1619 35.4546 40 37.3586 40C38.2862 40 39.1284 39.7587 39.8851 39.2762C40.6418 38.7683 41.2521 38.0317 41.7159 37.0667H41.899L42.3384 39.5429H46V12H41.6061V21.5619H41.423C41.0812 20.7492 40.5198 20.127 39.7386 19.6952C38.9819 19.2635 38.1154 19.0476 37.1389 19.0476C36.016 19.0476 35.003 19.4159 34.0998 20.1524C33.1966 20.8635 32.4765 21.9937 31.9395 23.5429C31.4268 25.0667 31.1705 27.0476 31.1705 29.4857C31.1705 33.1175 31.7198 35.7841 32.8182 37.4857ZM40.947 34.4C40.5076 35.3651 39.7509 35.8476 38.6768 35.8476C37.6271 35.8476 36.8704 35.3651 36.4066 34.4C35.9672 33.4349 35.7475 32.0508 35.7475 30.2476V28.8C35.7475 26.9968 35.9672 25.6127 36.4066 24.6476C36.8704 23.6825 37.6271 23.2 38.6768 23.2C39.7509 23.2 40.5076 23.6952 40.947 24.6857C41.3864 25.6762 41.6061 27.073 41.6061 28.8762V30.2476C41.6061 32.0508 41.3864 33.4349 40.947 34.4ZM16.0921 13.4095L8 39.5429H12.5404L14.0417 34.4H23.3055L24.8434 39.5429H29.6401L21.5479 13.4095H16.0921ZM22.0239 30.0571H15.3232L17.8863 21.3333C18.0084 20.927 18.1182 20.4444 18.2159 19.8857C18.3379 19.327 18.4356 18.8444 18.5088 18.4381L18.6187 17.7905H18.7651L18.8383 18.4C18.9116 18.781 19.0092 19.2508 19.1313 19.8095C19.2533 20.3683 19.3754 20.8762 19.4974 21.3333L22.0239 30.0571Z" fill="#21BCFD"/>
</svg>
