<svg width="54" height="54" viewBox="0 0 54 54" fill="none" xmlns="http://www.w3.org/2000/svg">
<path d="M25.4046 30.8046C25.3815 33.5088 23.4737 35.3912 17.4272 35.0018V26.73C23.2136 26.4611 25.329 27.6032 25.4046 30.8046ZM54 0V54H0V0H54ZM26.19 24.4964C30.6161 20.8443 29.5566 11.8672 20.029 12.2236C17.6236 12.2236 14.359 12.2972 13.2546 12.3464V38.6836C14.5064 38.7082 17.1327 38.7572 19.7346 38.7572C30.9686 39.1474 32.4958 27.6428 26.19 24.4964ZM42.6846 18.8285C38.8947 18.8285 35.3414 19.887 33.4909 20.6127C33.6273 22.0804 33.6272 22.8652 33.6272 23.171V38.7818H38.021V23.2937C38.843 22.9552 41.1837 22.7585 42.6846 22.823V18.8286V18.8285ZM22.95 23.1219C23.7846 22.4101 24.4472 21.3547 24.4472 19.6365C24.2732 16.8518 22.8137 15.5851 17.4272 16.0283V23.0729C17.4272 23.0729 22.1092 22.9887 22.95 23.1219Z" fill="#21BCFD"/>
</svg>
