<svg width="1408" height="500" viewBox="0 0 1408 500" fill="none" xmlns="http://www.w3.org/2000/svg">
<g clip-path="url(#clip0_460_26078)">
<path d="M759.564 49.2495L762.609 60.6232L707.371 75.4372L692.582 20.1931L703.954 17.1431L715.698 61.0134L759.564 49.2495Z" fill="url(#paint0_linear_460_26078)"/>
<path d="M1400.37 419.217L1403.41 430.591L1348.17 445.405L1333.38 390.161L1344.76 387.111L1356.5 430.981L1400.37 419.217Z" fill="url(#paint1_linear_460_26078)"/>
<path d="M1144.05 271.23L1147.09 282.604L1091.85 297.418L1077.06 242.174L1088.44 239.124L1100.18 282.994L1144.05 271.23Z" fill="url(#paint2_linear_460_26078)"/>
<path d="M1195.66 477.8L1198.71 489.174L1143.47 503.987L1128.68 448.743L1140.05 445.693L1151.8 489.564L1195.66 477.8Z" fill="url(#paint3_linear_460_26078)"/>
<path d="M683.021 181.825L686.066 193.199L630.828 208.013L616.039 152.769L627.411 149.719L639.156 193.589L683.021 181.825Z" fill="url(#paint4_linear_460_26078)"/>
<path d="M426.7 33.8383L429.745 45.2121L374.507 60.026L359.718 4.78196L371.09 1.73193L382.834 45.6022L426.7 33.8383Z" fill="url(#paint5_linear_460_26078)"/>
<path d="M554.86 107.832L557.905 119.206L502.667 134.02L487.878 78.7755L499.251 75.7255L510.995 119.596L554.86 107.832Z" fill="url(#paint6_linear_460_26078)"/>
<path d="M862.8 462.389L865.844 473.762L810.607 488.576L795.817 433.332L807.19 430.282L818.934 474.153L862.8 462.389Z" fill="url(#paint7_linear_460_26078)"/>
<path d="M606.478 314.401L609.523 325.775L554.285 340.589L539.496 285.345L550.868 282.295L562.613 326.165L606.478 314.401Z" fill="url(#paint8_linear_460_26078)"/>
<path d="M350.157 166.414L353.202 177.788L297.964 192.602L283.175 137.358L294.547 134.308L306.292 178.178L350.157 166.414Z" fill="url(#paint9_linear_460_26078)"/>
<path d="M734.639 388.395L737.684 399.769L682.446 414.583L667.657 359.339L679.029 356.289L690.774 400.159L734.639 388.395Z" fill="url(#paint10_linear_460_26078)"/>
<path d="M658.096 520.971L661.141 532.345L605.903 547.159L591.114 491.915L602.486 488.865L614.231 532.735L658.096 520.971Z" fill="url(#paint11_linear_460_26078)"/>
<path d="M401.775 372.984L404.82 384.358L349.582 399.172L334.793 343.928L346.165 340.877L357.909 384.748L401.775 372.984Z" fill="url(#paint12_linear_460_26078)"/>
<path d="M145.454 224.997L148.498 236.371L93.2606 251.184L78.4713 195.94L89.8437 192.89L101.588 236.761L145.454 224.997Z" fill="url(#paint13_linear_460_26078)"/>
<path d="M197.071 431.566L200.116 442.94L144.878 457.754L130.089 402.51L141.461 399.46L153.206 443.33L197.071 431.566Z" fill="url(#paint14_linear_460_26078)"/>
<path d="M325.232 505.56L328.277 516.934L273.039 531.748L258.25 476.504L269.622 473.454L281.367 517.324L325.232 505.56Z" fill="url(#paint15_linear_460_26078)"/>
<path d="M68.9107 357.573L71.9556 368.947L16.7178 383.76L1.92847 328.516L13.3009 325.466L25.0453 369.337L68.9107 357.573Z" fill="url(#paint16_linear_460_26078)"/>
<path d="M286.553 424.847L297.926 421.797L283.136 366.553L227.899 381.367L230.943 392.741L274.808 380.977L286.553 424.847Z" fill="url(#paint17_linear_460_26078)"/>
<path d="M414.714 498.841L426.086 495.791L411.297 440.546L356.059 455.361L359.104 466.734L402.969 454.97L414.714 498.841Z" fill="url(#paint18_linear_460_26078)"/>
<path d="M158.393 350.853L169.765 347.803L154.975 292.559L99.738 307.373L102.783 318.747L146.648 306.983L158.393 350.853Z" fill="url(#paint19_linear_460_26078)"/>
<path d="M491.264 366.252L502.636 363.202L487.847 307.958L432.609 322.772L435.654 334.146L479.519 322.382L491.264 366.252Z" fill="url(#paint20_linear_460_26078)"/>
<path d="M234.943 218.265L246.315 215.215L231.525 159.971L176.288 174.785L179.333 186.159L223.198 174.394L234.943 218.265Z" fill="url(#paint21_linear_460_26078)"/>
<path d="M952.296 455.644L963.668 452.594L948.879 397.35L893.641 412.164L896.686 423.538L940.551 411.774L952.296 455.644Z" fill="url(#paint22_linear_460_26078)"/>
<path d="M695.975 307.657L707.347 304.607L692.557 249.363L637.32 264.177L640.365 275.551L684.23 263.787L695.975 307.657Z" fill="url(#paint23_linear_460_26078)"/>
<path d="M1080.46 529.638L1091.83 526.588L1077.04 471.344L1021.8 486.158L1024.85 497.532L1068.71 485.767L1080.46 529.638Z" fill="url(#paint24_linear_460_26078)"/>
<path d="M567.814 233.664L579.186 230.614L564.397 175.369L509.159 190.183L512.204 201.557L556.069 189.793L567.814 233.664Z" fill="url(#paint25_linear_460_26078)"/>
<path d="M311.493 85.6764L322.865 82.6264L308.075 27.3822L252.838 42.1962L255.883 53.57L299.748 41.8059L311.493 85.6764Z" fill="url(#paint26_linear_460_26078)"/>
<path d="M1285.17 471.043L1296.54 467.993L1281.75 412.749L1226.51 427.563L1229.56 438.937L1273.42 427.172L1285.17 471.043Z" fill="url(#paint27_linear_460_26078)"/>
<path d="M772.525 175.069L783.897 172.019L769.107 116.774L713.87 131.588L716.915 142.962L760.78 131.198L772.525 175.069Z" fill="url(#paint28_linear_460_26078)"/>
<path d="M1157.01 397.049L1168.38 393.999L1153.59 338.755L1098.35 353.569L1101.4 364.943L1145.26 353.179L1157.01 397.049Z" fill="url(#paint29_linear_460_26078)"/>
</g>
<defs>
<linearGradient id="paint0_linear_460_26078" x1="698.506" y1="58.4092" x2="481.395" y2="1268.45" gradientUnits="userSpaceOnUse">
<stop stop-color="#0072DB" stop-opacity="0"/>
<stop offset="1" stop-color="#BDDBFF" stop-opacity="0.56"/>
</linearGradient>
<linearGradient id="paint1_linear_460_26078" x1="698.506" y1="58.4092" x2="481.395" y2="1268.45" gradientUnits="userSpaceOnUse">
<stop stop-color="#0072DB" stop-opacity="0"/>
<stop offset="1" stop-color="#BDDBFF" stop-opacity="0.56"/>
</linearGradient>
<linearGradient id="paint2_linear_460_26078" x1="698.506" y1="58.4092" x2="481.395" y2="1268.45" gradientUnits="userSpaceOnUse">
<stop stop-color="#0072DB" stop-opacity="0"/>
<stop offset="1" stop-color="#BDDBFF" stop-opacity="0.56"/>
</linearGradient>
<linearGradient id="paint3_linear_460_26078" x1="698.506" y1="58.4092" x2="481.395" y2="1268.45" gradientUnits="userSpaceOnUse">
<stop stop-color="#0072DB" stop-opacity="0"/>
<stop offset="1" stop-color="#BDDBFF" stop-opacity="0.56"/>
</linearGradient>
<linearGradient id="paint4_linear_460_26078" x1="698.506" y1="58.4092" x2="481.395" y2="1268.45" gradientUnits="userSpaceOnUse">
<stop stop-color="#0072DB" stop-opacity="0"/>
<stop offset="1" stop-color="#BDDBFF" stop-opacity="0.56"/>
</linearGradient>
<linearGradient id="paint5_linear_460_26078" x1="698.506" y1="58.4092" x2="481.395" y2="1268.45" gradientUnits="userSpaceOnUse">
<stop stop-color="#0072DB" stop-opacity="0"/>
<stop offset="1" stop-color="#BDDBFF" stop-opacity="0.56"/>
</linearGradient>
<linearGradient id="paint6_linear_460_26078" x1="698.506" y1="58.4092" x2="481.395" y2="1268.45" gradientUnits="userSpaceOnUse">
<stop stop-color="#0072DB" stop-opacity="0"/>
<stop offset="1" stop-color="#BDDBFF" stop-opacity="0.56"/>
</linearGradient>
<linearGradient id="paint7_linear_460_26078" x1="698.506" y1="58.4092" x2="481.395" y2="1268.45" gradientUnits="userSpaceOnUse">
<stop stop-color="#0072DB" stop-opacity="0"/>
<stop offset="1" stop-color="#BDDBFF" stop-opacity="0.56"/>
</linearGradient>
<linearGradient id="paint8_linear_460_26078" x1="698.506" y1="58.4092" x2="481.395" y2="1268.45" gradientUnits="userSpaceOnUse">
<stop stop-color="#0072DB" stop-opacity="0"/>
<stop offset="1" stop-color="#BDDBFF" stop-opacity="0.56"/>
</linearGradient>
<linearGradient id="paint9_linear_460_26078" x1="698.506" y1="58.4092" x2="481.395" y2="1268.45" gradientUnits="userSpaceOnUse">
<stop stop-color="#0072DB" stop-opacity="0"/>
<stop offset="1" stop-color="#BDDBFF" stop-opacity="0.56"/>
</linearGradient>
<linearGradient id="paint10_linear_460_26078" x1="698.506" y1="58.4092" x2="481.395" y2="1268.45" gradientUnits="userSpaceOnUse">
<stop stop-color="#0072DB" stop-opacity="0"/>
<stop offset="1" stop-color="#BDDBFF" stop-opacity="0.56"/>
</linearGradient>
<linearGradient id="paint11_linear_460_26078" x1="698.506" y1="58.4092" x2="481.395" y2="1268.45" gradientUnits="userSpaceOnUse">
<stop stop-color="#0072DB" stop-opacity="0"/>
<stop offset="1" stop-color="#BDDBFF" stop-opacity="0.56"/>
</linearGradient>
<linearGradient id="paint12_linear_460_26078" x1="698.506" y1="58.4092" x2="481.395" y2="1268.45" gradientUnits="userSpaceOnUse">
<stop stop-color="#0072DB" stop-opacity="0"/>
<stop offset="1" stop-color="#BDDBFF" stop-opacity="0.56"/>
</linearGradient>
<linearGradient id="paint13_linear_460_26078" x1="698.506" y1="58.4092" x2="481.395" y2="1268.45" gradientUnits="userSpaceOnUse">
<stop stop-color="#0072DB" stop-opacity="0"/>
<stop offset="1" stop-color="#BDDBFF" stop-opacity="0.56"/>
</linearGradient>
<linearGradient id="paint14_linear_460_26078" x1="698.506" y1="58.4092" x2="481.395" y2="1268.45" gradientUnits="userSpaceOnUse">
<stop stop-color="#0072DB" stop-opacity="0"/>
<stop offset="1" stop-color="#BDDBFF" stop-opacity="0.56"/>
</linearGradient>
<linearGradient id="paint15_linear_460_26078" x1="698.506" y1="58.4092" x2="481.395" y2="1268.45" gradientUnits="userSpaceOnUse">
<stop stop-color="#0072DB" stop-opacity="0"/>
<stop offset="1" stop-color="#BDDBFF" stop-opacity="0.56"/>
</linearGradient>
<linearGradient id="paint16_linear_460_26078" x1="698.506" y1="58.4092" x2="481.395" y2="1268.45" gradientUnits="userSpaceOnUse">
<stop stop-color="#0072DB" stop-opacity="0"/>
<stop offset="1" stop-color="#BDDBFF" stop-opacity="0.56"/>
</linearGradient>
<linearGradient id="paint17_linear_460_26078" x1="698.506" y1="58.4092" x2="481.395" y2="1268.45" gradientUnits="userSpaceOnUse">
<stop stop-color="#0072DB" stop-opacity="0"/>
<stop offset="1" stop-color="#BDDBFF" stop-opacity="0.56"/>
</linearGradient>
<linearGradient id="paint18_linear_460_26078" x1="698.506" y1="58.4092" x2="481.395" y2="1268.45" gradientUnits="userSpaceOnUse">
<stop stop-color="#0072DB" stop-opacity="0"/>
<stop offset="1" stop-color="#BDDBFF" stop-opacity="0.56"/>
</linearGradient>
<linearGradient id="paint19_linear_460_26078" x1="698.506" y1="58.4092" x2="481.395" y2="1268.45" gradientUnits="userSpaceOnUse">
<stop stop-color="#0072DB" stop-opacity="0"/>
<stop offset="1" stop-color="#BDDBFF" stop-opacity="0.56"/>
</linearGradient>
<linearGradient id="paint20_linear_460_26078" x1="698.506" y1="58.4092" x2="481.395" y2="1268.45" gradientUnits="userSpaceOnUse">
<stop stop-color="#0072DB" stop-opacity="0"/>
<stop offset="1" stop-color="#BDDBFF" stop-opacity="0.56"/>
</linearGradient>
<linearGradient id="paint21_linear_460_26078" x1="698.506" y1="58.4092" x2="481.395" y2="1268.45" gradientUnits="userSpaceOnUse">
<stop stop-color="#0072DB" stop-opacity="0"/>
<stop offset="1" stop-color="#BDDBFF" stop-opacity="0.56"/>
</linearGradient>
<linearGradient id="paint22_linear_460_26078" x1="698.506" y1="58.4092" x2="481.395" y2="1268.45" gradientUnits="userSpaceOnUse">
<stop stop-color="#0072DB" stop-opacity="0"/>
<stop offset="1" stop-color="#BDDBFF" stop-opacity="0.56"/>
</linearGradient>
<linearGradient id="paint23_linear_460_26078" x1="698.506" y1="58.4092" x2="481.395" y2="1268.45" gradientUnits="userSpaceOnUse">
<stop stop-color="#0072DB" stop-opacity="0"/>
<stop offset="1" stop-color="#BDDBFF" stop-opacity="0.56"/>
</linearGradient>
<linearGradient id="paint24_linear_460_26078" x1="698.506" y1="58.4092" x2="481.395" y2="1268.45" gradientUnits="userSpaceOnUse">
<stop stop-color="#0072DB" stop-opacity="0"/>
<stop offset="1" stop-color="#BDDBFF" stop-opacity="0.56"/>
</linearGradient>
<linearGradient id="paint25_linear_460_26078" x1="698.506" y1="58.4092" x2="481.395" y2="1268.45" gradientUnits="userSpaceOnUse">
<stop stop-color="#0072DB" stop-opacity="0"/>
<stop offset="1" stop-color="#BDDBFF" stop-opacity="0.56"/>
</linearGradient>
<linearGradient id="paint26_linear_460_26078" x1="698.506" y1="58.4092" x2="481.395" y2="1268.45" gradientUnits="userSpaceOnUse">
<stop stop-color="#0072DB" stop-opacity="0"/>
<stop offset="1" stop-color="#BDDBFF" stop-opacity="0.56"/>
</linearGradient>
<linearGradient id="paint27_linear_460_26078" x1="698.506" y1="58.4092" x2="481.395" y2="1268.45" gradientUnits="userSpaceOnUse">
<stop stop-color="#0072DB" stop-opacity="0"/>
<stop offset="1" stop-color="#BDDBFF" stop-opacity="0.56"/>
</linearGradient>
<linearGradient id="paint28_linear_460_26078" x1="698.506" y1="58.4092" x2="481.395" y2="1268.45" gradientUnits="userSpaceOnUse">
<stop stop-color="#0072DB" stop-opacity="0"/>
<stop offset="1" stop-color="#BDDBFF" stop-opacity="0.56"/>
</linearGradient>
<linearGradient id="paint29_linear_460_26078" x1="698.506" y1="58.4092" x2="481.395" y2="1268.45" gradientUnits="userSpaceOnUse">
<stop stop-color="#0072DB" stop-opacity="0"/>
<stop offset="1" stop-color="#BDDBFF" stop-opacity="0.56"/>
</linearGradient>
<clipPath id="clip0_460_26078">
<rect width="1408" height="500" fill="white"/>
</clipPath>
</defs>
</svg>
