<svg width="762" height="424" viewBox="0 0 762 424" fill="none" xmlns="http://www.w3.org/2000/svg">
<g clip-path="url(#clip0_460_26066)">
<path d="M507.22 44.076L513.105 54.2741L463.584 82.8798L435 33.3459L445.196 27.4565L467.894 66.7922L507.22 44.076Z" fill="url(#paint0_linear_460_26066)"/>
<path d="M650.165 82.3779L656.05 92.576L606.528 121.182L577.945 71.6478L588.14 65.7584L610.839 105.094L650.165 82.3779Z" fill="url(#paint1_linear_460_26066)"/>
<path d="M753.488 268.549L759.373 278.747L709.851 307.353L681.268 257.819L691.463 251.93L714.162 291.265L753.488 268.549Z" fill="url(#paint2_linear_460_26066)"/>
<path d="M467.599 191.945L473.484 202.143L423.962 230.749L395.379 181.215L405.574 175.326L428.273 214.661L467.599 191.945Z" fill="url(#paint3_linear_460_26066)"/>
<path d="M610.543 230.247L616.428 240.445L566.907 269.051L538.323 219.517L548.519 213.628L571.218 252.963L610.543 230.247Z" fill="url(#paint4_linear_460_26066)"/>
<path d="M324.654 153.643L330.539 163.842L281.018 192.447L252.434 142.913L262.63 137.024L285.328 176.36L324.654 153.643Z" fill="url(#paint5_linear_460_26066)"/>
<path d="M427.977 339.815L433.862 350.013L384.341 378.618L355.757 329.085L365.953 323.195L388.651 362.531L427.977 339.815Z" fill="url(#paint6_linear_460_26066)"/>
<path d="M330.109 419.718L340.304 413.829L311.72 364.295L262.199 392.9L268.084 403.099L307.41 380.382L330.109 419.718Z" fill="url(#paint7_linear_460_26066)"/>
<path d="M655.623 348.439L665.819 342.549L637.235 293.015L587.714 321.621L593.599 331.819L632.924 309.103L655.623 348.439Z" fill="url(#paint8_linear_460_26066)"/>
<path d="M369.734 271.835L379.93 265.945L351.346 216.411L301.825 245.017L307.709 255.215L347.035 232.499L369.734 271.835Z" fill="url(#paint9_linear_460_26066)"/>
<path d="M552.304 162.253L562.499 156.364L533.915 106.83L484.394 135.436L490.279 145.634L529.605 122.918L552.304 162.253Z" fill="url(#paint10_linear_460_26066)"/>
<path d="M6.00933 118.21L3.08074 107.272L56.2033 93.0268L70.4279 146.155L59.4909 149.088L48.1949 106.898L6.00933 118.21Z" fill="url(#paint11_linear_460_26066)"/>
<path d="M11.8607 1.20544L3.20509 3.54436L14.3875 45.6338L56.4292 34.2733L54.127 25.6079L20.7409 34.6294L11.8607 1.20544Z" fill="url(#paint12_linear_460_26066)"/>
<path d="M115.555 61.2427L110.588 62.5213L117.273 86.5219L141.402 80.3117L140.025 75.3704L120.864 80.302L115.555 61.2427Z" fill="url(#paint13_linear_460_26066)"/>
<path d="M193.098 169.532L191.721 164.591L215.849 158.381L222.535 182.381L217.568 183.66L212.258 164.601L193.098 169.532Z" fill="url(#paint14_linear_460_26066)"/>
<path d="M94.5054 31.8633L92.666 25.0599L125.751 16.2746L134.685 49.3197L127.873 51.1284L120.779 24.8867L94.5054 31.8633Z" fill="url(#paint15_linear_460_26066)"/>
<path d="M61.3929 -115.751L57.9871 -114.846L62.4542 -98.3239L78.9967 -102.717L78.077 -106.118L64.9403 -102.63L61.3929 -115.751Z" fill="url(#paint16_linear_460_26066)"/>
</g>
<defs>
<linearGradient id="paint0_linear_460_26066" x1="1187.14" y1="190.973" x2="912.163" y2="1264.56" gradientUnits="userSpaceOnUse">
<stop offset="0.0833333" stop-color="#0072DB" stop-opacity="0"/>
<stop offset="1" stop-color="#BDDBFF" stop-opacity="0.56"/>
</linearGradient>
<linearGradient id="paint1_linear_460_26066" x1="1187.14" y1="190.973" x2="912.163" y2="1264.56" gradientUnits="userSpaceOnUse">
<stop offset="0.0833333" stop-color="#0072DB" stop-opacity="0"/>
<stop offset="1" stop-color="#BDDBFF" stop-opacity="0.56"/>
</linearGradient>
<linearGradient id="paint2_linear_460_26066" x1="1187.14" y1="190.973" x2="912.163" y2="1264.56" gradientUnits="userSpaceOnUse">
<stop offset="0.0833333" stop-color="#0072DB" stop-opacity="0"/>
<stop offset="1" stop-color="#BDDBFF" stop-opacity="0.56"/>
</linearGradient>
<linearGradient id="paint3_linear_460_26066" x1="1187.14" y1="190.973" x2="912.163" y2="1264.56" gradientUnits="userSpaceOnUse">
<stop offset="0.0833333" stop-color="#0072DB" stop-opacity="0"/>
<stop offset="1" stop-color="#BDDBFF" stop-opacity="0.56"/>
</linearGradient>
<linearGradient id="paint4_linear_460_26066" x1="1187.14" y1="190.973" x2="912.163" y2="1264.56" gradientUnits="userSpaceOnUse">
<stop offset="0.0833333" stop-color="#0072DB" stop-opacity="0"/>
<stop offset="1" stop-color="#BDDBFF" stop-opacity="0.56"/>
</linearGradient>
<linearGradient id="paint5_linear_460_26066" x1="1187.14" y1="190.973" x2="912.163" y2="1264.56" gradientUnits="userSpaceOnUse">
<stop offset="0.0833333" stop-color="#0072DB" stop-opacity="0"/>
<stop offset="1" stop-color="#BDDBFF" stop-opacity="0.56"/>
</linearGradient>
<linearGradient id="paint6_linear_460_26066" x1="1187.14" y1="190.973" x2="912.163" y2="1264.56" gradientUnits="userSpaceOnUse">
<stop offset="0.0833333" stop-color="#0072DB" stop-opacity="0"/>
<stop offset="1" stop-color="#BDDBFF" stop-opacity="0.56"/>
</linearGradient>
<linearGradient id="paint7_linear_460_26066" x1="1187.14" y1="190.973" x2="912.163" y2="1264.56" gradientUnits="userSpaceOnUse">
<stop offset="0.0833333" stop-color="#0072DB" stop-opacity="0"/>
<stop offset="1" stop-color="#BDDBFF" stop-opacity="0.56"/>
</linearGradient>
<linearGradient id="paint8_linear_460_26066" x1="1187.14" y1="190.973" x2="912.163" y2="1264.56" gradientUnits="userSpaceOnUse">
<stop offset="0.0833333" stop-color="#0072DB" stop-opacity="0"/>
<stop offset="1" stop-color="#BDDBFF" stop-opacity="0.56"/>
</linearGradient>
<linearGradient id="paint9_linear_460_26066" x1="1187.14" y1="190.973" x2="912.163" y2="1264.56" gradientUnits="userSpaceOnUse">
<stop offset="0.0833333" stop-color="#0072DB" stop-opacity="0"/>
<stop offset="1" stop-color="#BDDBFF" stop-opacity="0.56"/>
</linearGradient>
<linearGradient id="paint10_linear_460_26066" x1="1187.14" y1="190.973" x2="912.163" y2="1264.56" gradientUnits="userSpaceOnUse">
<stop offset="0.0833333" stop-color="#0072DB" stop-opacity="0"/>
<stop offset="1" stop-color="#BDDBFF" stop-opacity="0.56"/>
</linearGradient>
<linearGradient id="paint11_linear_460_26066" x1="252.48" y1="242" x2="-32.0195" y2="99.0005" gradientUnits="userSpaceOnUse">
<stop stop-color="#84BCFF" stop-opacity="0.56"/>
<stop offset="1" stop-color="#79BFFF" stop-opacity="0"/>
</linearGradient>
<linearGradient id="paint12_linear_460_26066" x1="252.48" y1="242" x2="-32.0195" y2="99.0005" gradientUnits="userSpaceOnUse">
<stop stop-color="#84BCFF" stop-opacity="0.56"/>
<stop offset="1" stop-color="#79BFFF" stop-opacity="0"/>
</linearGradient>
<linearGradient id="paint13_linear_460_26066" x1="252.48" y1="242" x2="-32.0195" y2="99.0005" gradientUnits="userSpaceOnUse">
<stop stop-color="#84BCFF" stop-opacity="0.56"/>
<stop offset="1" stop-color="#79BFFF" stop-opacity="0"/>
</linearGradient>
<linearGradient id="paint14_linear_460_26066" x1="252.48" y1="242" x2="-32.0195" y2="99.0005" gradientUnits="userSpaceOnUse">
<stop stop-color="#84BCFF" stop-opacity="0.56"/>
<stop offset="1" stop-color="#79BFFF" stop-opacity="0"/>
</linearGradient>
<linearGradient id="paint15_linear_460_26066" x1="252.48" y1="242" x2="-32.0195" y2="99.0005" gradientUnits="userSpaceOnUse">
<stop stop-color="#84BCFF" stop-opacity="0.56"/>
<stop offset="1" stop-color="#79BFFF" stop-opacity="0"/>
</linearGradient>
<linearGradient id="paint16_linear_460_26066" x1="252.48" y1="242" x2="-32.0195" y2="99.0005" gradientUnits="userSpaceOnUse">
<stop stop-color="#84BCFF" stop-opacity="0.56"/>
<stop offset="1" stop-color="#79BFFF" stop-opacity="0"/>
</linearGradient>
<clipPath id="clip0_460_26066">
<rect width="762" height="424" fill="white"/>
</clipPath>
</defs>
</svg>
