<svg width="53" height="52" viewBox="0 0 53 52" fill="none" xmlns="http://www.w3.org/2000/svg">
<path d="M23.7978 21.4256H28.9667V33.6503H23.7978V21.4256Z" fill="#21BCFD"/>
<path d="M32.068 33.6503H37.2368V18.3694C35.775 18.3694 33.6555 18.3694 32.068 18.3694V33.6503Z" fill="#21BCFD"/>
<path d="M15.5277 24.4817H20.6965V33.6503H15.5277V24.4817Z" fill="#21BCFD"/>
<path d="M12.446 35.7033L4.31592 40.3289C5.00296 41.0892 7.4686 45.2078 13.0976 48.451C18.8759 51.78 23.8485 51.7986 24.8316 52V42.7489C19.7174 42.2946 15.2543 39.6171 12.446 35.7033Z" fill="#21BCFD"/>
<path d="M50.0027 14.3353L41.8709 18.962C46.8967 29.2771 39.4299 41.906 27.9329 42.7488V51.9998L29.6754 51.7857C48.4912 49.5141 57.7446 29.1889 50.0027 14.3353Z" fill="#21BCFD"/>
<path d="M9.32505 26.0098C9.36557 9.59355 30.8853 3.09784 40.3185 16.3162L48.4486 11.6907C29.2941 -14.6779 -10.8518 7.72153 2.76175 37.6841L10.8936 33.0577C9.88742 30.9139 9.32505 28.5267 9.32505 26.0098Z" fill="#21BCFD"/>
</svg>
