<svg width="1227" height="1279" viewBox="0 0 1227 1279" fill="none" xmlns="http://www.w3.org/2000/svg">
<path d="M182.974 1038.46L178.983 1027.39L232.777 1007.97L252.165 1061.78L241.09 1065.77L225.693 1023.05L182.974 1038.46Z" fill="url(#paint0_linear_506_22)"/>
<path d="M286.008 296.964L274.933 300.96L294.321 354.763L348.115 335.352L344.124 324.275L301.405 339.69L286.008 296.964Z" fill="url(#paint1_linear_506_22)"/>
<path d="M553.878 422.847L542.803 426.843L562.191 480.646L615.985 461.234L611.994 450.157L569.275 465.573L553.878 422.847Z" fill="url(#paint2_linear_506_22)"/>
<path d="M821.748 548.729L810.673 552.726L830.061 606.529L883.855 587.117L879.864 576.04L837.145 591.455L821.748 548.729Z" fill="url(#paint3_linear_506_22)"/>
<path d="M1089.62 674.612L1078.54 678.609L1097.93 732.412L1151.73 713L1147.73 701.923L1105.01 717.338L1089.62 674.612Z" fill="url(#paint4_linear_506_22)"/>
<path d="M419.943 359.905L408.868 363.902L428.256 417.705L482.05 398.293L478.059 387.216L435.34 402.631L419.943 359.905Z" fill="url(#paint5_linear_506_22)"/>
<path d="M687.813 485.788L676.738 489.785L696.126 543.588L749.92 524.176L745.929 513.099L703.21 528.514L687.813 485.788Z" fill="url(#paint6_linear_506_22)"/>
<path d="M382.019 962.854L378.027 951.777L431.822 932.366L451.21 986.169L440.134 990.165L424.738 947.439L382.019 962.854Z" fill="url(#paint7_linear_506_22)"/>
<path d="M649.889 1088.74L645.898 1077.66L699.692 1058.25L719.08 1112.05L708.004 1116.05L692.608 1073.32L649.889 1088.74Z" fill="url(#paint8_linear_506_22)"/>
<path d="M515.954 1025.8L511.963 1014.72L565.757 995.307L585.145 1049.11L574.069 1053.11L558.673 1010.38L515.954 1025.8Z" fill="url(#paint9_linear_506_22)"/>
<path d="M783.824 1151.68L779.833 1140.6L833.627 1121.19L853.015 1174.99L841.939 1178.99L826.543 1136.26L783.824 1151.68Z" fill="url(#paint10_linear_506_22)"/>
<path d="M756.632 687.292L745.557 691.288L764.945 745.091L818.739 725.68L814.748 714.603L772.029 730.018L756.632 687.292Z" fill="url(#paint11_linear_506_22)"/>
<path d="M1024.5 813.175L1013.43 817.171L1032.82 870.974L1086.61 851.562L1082.62 840.485L1039.9 855.901L1024.5 813.175Z" fill="url(#paint12_linear_506_22)"/>
<path d="M354.827 498.468L343.752 502.464L363.14 556.267L416.934 536.855L412.943 525.778L370.224 541.194L354.827 498.468Z" fill="url(#paint13_linear_506_22)"/>
<path d="M890.567 750.233L879.492 754.23L898.88 808.033L952.674 788.621L948.683 777.544L905.964 792.959L890.567 750.233Z" fill="url(#paint14_linear_506_22)"/>
<path d="M1158.44 876.116L1147.36 880.113L1166.75 933.916L1220.54 914.504L1216.55 903.427L1173.83 918.842L1158.44 876.116Z" fill="url(#paint15_linear_506_22)"/>
<path d="M179.259 698.422L175.267 687.345L229.062 667.934L248.449 721.737L237.374 725.733L221.978 683.007L179.259 698.422Z" fill="url(#paint16_linear_506_22)"/>
<path d="M447.129 824.305L443.137 813.228L496.932 793.816L516.32 847.619L505.244 851.616L489.848 808.89L447.129 824.305Z" fill="url(#paint17_linear_506_22)"/>
<path d="M714.999 950.188L711.007 939.111L764.802 919.699L784.19 973.502L773.114 977.499L757.718 934.773L714.999 950.188Z" fill="url(#paint18_linear_506_22)"/>
<path d="M982.869 1076.07L978.877 1064.99L1032.67 1045.58L1052.06 1099.38L1040.98 1103.38L1025.59 1060.66L982.869 1076.07Z" fill="url(#paint19_linear_506_22)"/>
<path d="M313.194 761.364L309.202 750.287L362.997 730.875L382.384 784.678L371.309 788.675L355.913 745.949L313.194 761.364Z" fill="url(#paint20_linear_506_22)"/>
<path d="M581.064 887.247L577.072 876.169L630.867 856.758L650.254 910.561L639.179 914.557L623.783 871.831L581.064 887.247Z" fill="url(#paint21_linear_506_22)"/>
<path d="M1116.8 1139.01L1112.81 1127.94L1166.61 1108.52L1185.99 1162.33L1174.92 1166.32L1159.52 1123.6L1116.8 1139.01Z" fill="url(#paint22_linear_506_22)"/>
<path d="M155.776 574.089L144.701 578.085L164.089 631.888L217.883 612.476L213.892 601.399L171.173 616.815L155.776 574.089Z" fill="url(#paint23_linear_506_22)"/>
<path d="M423.646 699.971L412.571 703.968L431.959 757.771L485.753 738.359L481.762 727.282L439.043 742.697L423.646 699.971Z" fill="url(#paint24_linear_506_22)"/>
<path d="M959.386 951.737L948.311 955.734L967.699 1009.54L1021.49 990.125L1017.5 979.048L974.783 994.463L959.386 951.737Z" fill="url(#paint25_linear_506_22)"/>
<path d="M289.711 637.03L278.636 641.027L298.024 694.83L351.818 675.418L347.827 664.341L305.108 679.756L289.711 637.03Z" fill="url(#paint26_linear_506_22)"/>
<path d="M557.581 762.913L546.506 766.909L565.894 820.712L619.688 801.301L615.697 790.224L572.978 805.639L557.581 762.913Z" fill="url(#paint27_linear_506_22)"/>
<path d="M780.109 811.639L776.117 800.562L829.912 781.15L849.299 834.953L838.224 838.949L822.828 796.224L780.109 811.639Z" fill="url(#paint28_linear_506_22)"/>
<path d="M1047.98 937.521L1043.99 926.444L1097.78 907.033L1117.17 960.836L1106.09 964.832L1090.7 922.106L1047.98 937.521Z" fill="url(#paint29_linear_506_22)"/>
<path d="M378.304 622.815L374.312 611.738L428.107 592.326L447.494 646.129L436.419 650.125L421.023 607.399L378.304 622.815Z" fill="url(#paint30_linear_506_22)"/>
<path d="M646.174 748.697L642.182 737.62L695.977 718.209L715.364 772.012L704.289 776.008L688.893 733.282L646.174 748.697Z" fill="url(#paint31_linear_506_22)"/>
<path d="M914.044 874.58L910.052 863.503L963.847 844.091L983.234 897.894L972.159 901.891L956.763 859.165L914.044 874.58Z" fill="url(#paint32_linear_506_22)"/>
<path d="M358.53 838.534L347.455 842.53L366.843 896.333L420.637 876.922L416.646 865.845L373.927 881.26L358.53 838.534Z" fill="url(#paint33_linear_506_22)"/>
<path d="M894.27 1090.3L883.195 1094.3L902.583 1148.1L956.377 1128.69L952.386 1117.61L909.667 1133.03L894.27 1090.3Z" fill="url(#paint34_linear_506_22)"/>
<path d="M1162.14 1216.18L1151.07 1220.18L1170.45 1273.98L1224.25 1254.57L1220.26 1243.49L1177.54 1258.91L1162.14 1216.18Z" fill="url(#paint35_linear_506_22)"/>
<path d="M492.465 901.475L481.39 905.472L500.778 959.275L554.572 939.863L550.581 928.786L507.862 944.201L492.465 901.475Z" fill="url(#paint36_linear_506_22)"/>
<path d="M760.335 1027.36L749.26 1031.35L768.648 1085.16L822.442 1065.75L818.451 1054.67L775.732 1070.08L760.335 1027.36Z" fill="url(#paint37_linear_506_22)"/>
<path d="M1028.21 1153.24L1017.13 1157.24L1036.52 1211.04L1090.31 1191.63L1086.32 1180.55L1043.6 1195.97L1028.21 1153.24Z" fill="url(#paint38_linear_506_22)"/>
<path d="M309.478 421.324L305.487 410.247L359.281 390.835L378.669 444.638L367.594 448.635L352.198 405.909L309.478 421.324Z" fill="url(#paint39_linear_506_22)"/>
<path d="M577.348 547.207L573.357 536.13L627.151 516.718L646.539 570.521L635.464 574.517L620.068 531.792L577.348 547.207Z" fill="url(#paint40_linear_506_22)"/>
<path d="M845.218 673.09L841.227 662.013L895.021 642.601L914.409 696.404L903.334 700.4L887.938 657.674L845.218 673.09Z" fill="url(#paint41_linear_506_22)"/>
<path d="M711.283 610.148L707.292 599.071L761.086 579.659L780.474 633.462L769.399 637.459L754.003 594.733L711.283 610.148Z" fill="url(#paint42_linear_506_22)"/>
<path d="M979.153 736.031L975.162 724.954L1028.96 705.542L1048.34 759.345L1037.27 763.342L1021.87 720.616L979.153 736.031Z" fill="url(#paint43_linear_506_22)"/>
<path d="M25.5443 851.213L14.469 855.21L33.8569 909.013L87.6512 889.601L83.6596 878.524L40.9406 893.939L25.5443 851.213Z" fill="url(#paint44_linear_506_22)"/>
<path d="M293.414 977.096L282.339 981.093L301.727 1034.9L355.521 1015.48L351.53 1004.41L308.811 1019.82L293.414 977.096Z" fill="url(#paint45_linear_506_22)"/>
<path d="M159.479 914.155L148.404 918.151L167.792 971.954L221.586 952.543L217.595 941.466L174.876 956.881L159.479 914.155Z" fill="url(#paint46_linear_506_22)"/>
<path d="M374.588 282.775L370.597 271.698L424.391 252.286L443.779 306.089L432.704 310.086L417.307 267.36L374.588 282.775Z" fill="url(#paint47_linear_506_22)"/>
<path d="M508.523 345.716L504.532 334.639L558.326 315.228L577.714 369.03L566.639 373.027L551.242 330.301L508.523 345.716Z" fill="url(#paint48_linear_506_22)"/>
<path d="M776.393 471.599L772.402 460.522L826.196 441.11L845.584 494.913L834.509 498.91L819.112 456.184L776.393 471.599Z" fill="url(#paint49_linear_506_22)"/>
<path d="M1044.26 597.482L1040.27 586.405L1094.07 566.993L1113.45 620.796L1102.38 624.792L1086.98 582.067L1044.26 597.482Z" fill="url(#paint50_linear_506_22)"/>
<path d="M896.933 234.21L894.005 223.272L947.127 209.026L961.352 262.155L950.415 265.087L939.119 222.897L896.933 234.21Z" fill="url(#paint51_linear_506_22)"/>
<path d="M902.785 117.205L894.129 119.544L905.311 161.633L947.353 150.273L945.051 141.607L911.665 150.629L902.785 117.205Z" fill="url(#paint52_linear_506_22)"/>
<path d="M1006.48 177.242L1001.51 178.521L1008.2 202.521L1032.33 196.311L1030.95 191.37L1011.79 196.302L1006.48 177.242Z" fill="url(#paint53_linear_506_22)"/>
<path d="M1084.02 285.532L1082.65 280.59L1106.77 274.38L1113.46 298.381L1108.49 299.659L1103.18 280.6L1084.02 285.532Z" fill="url(#paint54_linear_506_22)"/>
<path d="M985.429 147.863L983.59 141.059L1016.67 132.274L1025.61 165.319L1018.8 167.128L1011.7 140.886L985.429 147.863Z" fill="url(#paint55_linear_506_22)"/>
<path d="M952.317 0.248685L948.911 1.15306L953.378 17.6756L969.921 13.2829L969.001 9.88122L955.864 13.3696L952.317 0.248685Z" fill="url(#paint56_linear_506_22)"/>
<defs>
<linearGradient id="paint0_linear_506_22" x1="2011.26" y1="772.114" x2="572.103" y2="9.73644" gradientUnits="userSpaceOnUse">
<stop stop-color="#BDDBFF" stop-opacity="0.2"/>
<stop offset="1" stop-color="#0072DB" stop-opacity="0"/>
</linearGradient>
<linearGradient id="paint1_linear_506_22" x1="2011.26" y1="772.114" x2="572.103" y2="9.73644" gradientUnits="userSpaceOnUse">
<stop stop-color="#BDDBFF" stop-opacity="0.2"/>
<stop offset="1" stop-color="#0072DB" stop-opacity="0"/>
</linearGradient>
<linearGradient id="paint2_linear_506_22" x1="2011.26" y1="772.114" x2="572.103" y2="9.73644" gradientUnits="userSpaceOnUse">
<stop stop-color="#BDDBFF" stop-opacity="0.2"/>
<stop offset="1" stop-color="#0072DB" stop-opacity="0"/>
</linearGradient>
<linearGradient id="paint3_linear_506_22" x1="2011.26" y1="772.114" x2="572.103" y2="9.73644" gradientUnits="userSpaceOnUse">
<stop stop-color="#BDDBFF" stop-opacity="0.2"/>
<stop offset="1" stop-color="#0072DB" stop-opacity="0"/>
</linearGradient>
<linearGradient id="paint4_linear_506_22" x1="2011.26" y1="772.114" x2="572.103" y2="9.73644" gradientUnits="userSpaceOnUse">
<stop stop-color="#BDDBFF" stop-opacity="0.2"/>
<stop offset="1" stop-color="#0072DB" stop-opacity="0"/>
</linearGradient>
<linearGradient id="paint5_linear_506_22" x1="2011.26" y1="772.114" x2="572.103" y2="9.73644" gradientUnits="userSpaceOnUse">
<stop stop-color="#BDDBFF" stop-opacity="0.2"/>
<stop offset="1" stop-color="#0072DB" stop-opacity="0"/>
</linearGradient>
<linearGradient id="paint6_linear_506_22" x1="2011.26" y1="772.114" x2="572.103" y2="9.73644" gradientUnits="userSpaceOnUse">
<stop stop-color="#BDDBFF" stop-opacity="0.2"/>
<stop offset="1" stop-color="#0072DB" stop-opacity="0"/>
</linearGradient>
<linearGradient id="paint7_linear_506_22" x1="2011.26" y1="772.114" x2="572.103" y2="9.73644" gradientUnits="userSpaceOnUse">
<stop stop-color="#BDDBFF" stop-opacity="0.2"/>
<stop offset="1" stop-color="#0072DB" stop-opacity="0"/>
</linearGradient>
<linearGradient id="paint8_linear_506_22" x1="2011.26" y1="772.114" x2="572.103" y2="9.73644" gradientUnits="userSpaceOnUse">
<stop stop-color="#BDDBFF" stop-opacity="0.2"/>
<stop offset="1" stop-color="#0072DB" stop-opacity="0"/>
</linearGradient>
<linearGradient id="paint9_linear_506_22" x1="2011.26" y1="772.114" x2="572.103" y2="9.73644" gradientUnits="userSpaceOnUse">
<stop stop-color="#BDDBFF" stop-opacity="0.2"/>
<stop offset="1" stop-color="#0072DB" stop-opacity="0"/>
</linearGradient>
<linearGradient id="paint10_linear_506_22" x1="2011.26" y1="772.114" x2="572.103" y2="9.73644" gradientUnits="userSpaceOnUse">
<stop stop-color="#BDDBFF" stop-opacity="0.2"/>
<stop offset="1" stop-color="#0072DB" stop-opacity="0"/>
</linearGradient>
<linearGradient id="paint11_linear_506_22" x1="2011.26" y1="772.114" x2="572.103" y2="9.73644" gradientUnits="userSpaceOnUse">
<stop stop-color="#BDDBFF" stop-opacity="0.2"/>
<stop offset="1" stop-color="#0072DB" stop-opacity="0"/>
</linearGradient>
<linearGradient id="paint12_linear_506_22" x1="2011.26" y1="772.114" x2="572.103" y2="9.73644" gradientUnits="userSpaceOnUse">
<stop stop-color="#BDDBFF" stop-opacity="0.2"/>
<stop offset="1" stop-color="#0072DB" stop-opacity="0"/>
</linearGradient>
<linearGradient id="paint13_linear_506_22" x1="2011.26" y1="772.114" x2="572.103" y2="9.73644" gradientUnits="userSpaceOnUse">
<stop stop-color="#BDDBFF" stop-opacity="0.2"/>
<stop offset="1" stop-color="#0072DB" stop-opacity="0"/>
</linearGradient>
<linearGradient id="paint14_linear_506_22" x1="2011.26" y1="772.114" x2="572.103" y2="9.73644" gradientUnits="userSpaceOnUse">
<stop stop-color="#BDDBFF" stop-opacity="0.2"/>
<stop offset="1" stop-color="#0072DB" stop-opacity="0"/>
</linearGradient>
<linearGradient id="paint15_linear_506_22" x1="2011.26" y1="772.114" x2="572.103" y2="9.73644" gradientUnits="userSpaceOnUse">
<stop stop-color="#BDDBFF" stop-opacity="0.2"/>
<stop offset="1" stop-color="#0072DB" stop-opacity="0"/>
</linearGradient>
<linearGradient id="paint16_linear_506_22" x1="2011.26" y1="772.114" x2="572.103" y2="9.73644" gradientUnits="userSpaceOnUse">
<stop stop-color="#BDDBFF" stop-opacity="0.2"/>
<stop offset="1" stop-color="#0072DB" stop-opacity="0"/>
</linearGradient>
<linearGradient id="paint17_linear_506_22" x1="2011.26" y1="772.114" x2="572.103" y2="9.73644" gradientUnits="userSpaceOnUse">
<stop stop-color="#BDDBFF" stop-opacity="0.2"/>
<stop offset="1" stop-color="#0072DB" stop-opacity="0"/>
</linearGradient>
<linearGradient id="paint18_linear_506_22" x1="2011.26" y1="772.114" x2="572.103" y2="9.73644" gradientUnits="userSpaceOnUse">
<stop stop-color="#BDDBFF" stop-opacity="0.2"/>
<stop offset="1" stop-color="#0072DB" stop-opacity="0"/>
</linearGradient>
<linearGradient id="paint19_linear_506_22" x1="2011.26" y1="772.114" x2="572.103" y2="9.73644" gradientUnits="userSpaceOnUse">
<stop stop-color="#BDDBFF" stop-opacity="0.2"/>
<stop offset="1" stop-color="#0072DB" stop-opacity="0"/>
</linearGradient>
<linearGradient id="paint20_linear_506_22" x1="2011.26" y1="772.114" x2="572.103" y2="9.73644" gradientUnits="userSpaceOnUse">
<stop stop-color="#BDDBFF" stop-opacity="0.2"/>
<stop offset="1" stop-color="#0072DB" stop-opacity="0"/>
</linearGradient>
<linearGradient id="paint21_linear_506_22" x1="2011.26" y1="772.114" x2="572.103" y2="9.73644" gradientUnits="userSpaceOnUse">
<stop stop-color="#BDDBFF" stop-opacity="0.2"/>
<stop offset="1" stop-color="#0072DB" stop-opacity="0"/>
</linearGradient>
<linearGradient id="paint22_linear_506_22" x1="2011.26" y1="772.114" x2="572.103" y2="9.73644" gradientUnits="userSpaceOnUse">
<stop stop-color="#BDDBFF" stop-opacity="0.2"/>
<stop offset="1" stop-color="#0072DB" stop-opacity="0"/>
</linearGradient>
<linearGradient id="paint23_linear_506_22" x1="2011.26" y1="772.114" x2="572.103" y2="9.73644" gradientUnits="userSpaceOnUse">
<stop stop-color="#BDDBFF" stop-opacity="0.2"/>
<stop offset="1" stop-color="#0072DB" stop-opacity="0"/>
</linearGradient>
<linearGradient id="paint24_linear_506_22" x1="2011.26" y1="772.114" x2="572.103" y2="9.73644" gradientUnits="userSpaceOnUse">
<stop stop-color="#BDDBFF" stop-opacity="0.2"/>
<stop offset="1" stop-color="#0072DB" stop-opacity="0"/>
</linearGradient>
<linearGradient id="paint25_linear_506_22" x1="2011.26" y1="772.114" x2="572.103" y2="9.73644" gradientUnits="userSpaceOnUse">
<stop stop-color="#BDDBFF" stop-opacity="0.2"/>
<stop offset="1" stop-color="#0072DB" stop-opacity="0"/>
</linearGradient>
<linearGradient id="paint26_linear_506_22" x1="2011.26" y1="772.114" x2="572.103" y2="9.73644" gradientUnits="userSpaceOnUse">
<stop stop-color="#BDDBFF" stop-opacity="0.2"/>
<stop offset="1" stop-color="#0072DB" stop-opacity="0"/>
</linearGradient>
<linearGradient id="paint27_linear_506_22" x1="2011.26" y1="772.114" x2="572.103" y2="9.73644" gradientUnits="userSpaceOnUse">
<stop stop-color="#BDDBFF" stop-opacity="0.2"/>
<stop offset="1" stop-color="#0072DB" stop-opacity="0"/>
</linearGradient>
<linearGradient id="paint28_linear_506_22" x1="2011.26" y1="772.114" x2="572.103" y2="9.73644" gradientUnits="userSpaceOnUse">
<stop stop-color="#BDDBFF" stop-opacity="0.2"/>
<stop offset="1" stop-color="#0072DB" stop-opacity="0"/>
</linearGradient>
<linearGradient id="paint29_linear_506_22" x1="2011.26" y1="772.114" x2="572.103" y2="9.73644" gradientUnits="userSpaceOnUse">
<stop stop-color="#BDDBFF" stop-opacity="0.2"/>
<stop offset="1" stop-color="#0072DB" stop-opacity="0"/>
</linearGradient>
<linearGradient id="paint30_linear_506_22" x1="2011.26" y1="772.114" x2="572.103" y2="9.73644" gradientUnits="userSpaceOnUse">
<stop stop-color="#BDDBFF" stop-opacity="0.2"/>
<stop offset="1" stop-color="#0072DB" stop-opacity="0"/>
</linearGradient>
<linearGradient id="paint31_linear_506_22" x1="2011.26" y1="772.114" x2="572.103" y2="9.73644" gradientUnits="userSpaceOnUse">
<stop stop-color="#BDDBFF" stop-opacity="0.2"/>
<stop offset="1" stop-color="#0072DB" stop-opacity="0"/>
</linearGradient>
<linearGradient id="paint32_linear_506_22" x1="2011.26" y1="772.114" x2="572.103" y2="9.73644" gradientUnits="userSpaceOnUse">
<stop stop-color="#BDDBFF" stop-opacity="0.2"/>
<stop offset="1" stop-color="#0072DB" stop-opacity="0"/>
</linearGradient>
<linearGradient id="paint33_linear_506_22" x1="2011.26" y1="772.114" x2="572.103" y2="9.73644" gradientUnits="userSpaceOnUse">
<stop stop-color="#BDDBFF" stop-opacity="0.2"/>
<stop offset="1" stop-color="#0072DB" stop-opacity="0"/>
</linearGradient>
<linearGradient id="paint34_linear_506_22" x1="2011.26" y1="772.114" x2="572.103" y2="9.73644" gradientUnits="userSpaceOnUse">
<stop stop-color="#BDDBFF" stop-opacity="0.2"/>
<stop offset="1" stop-color="#0072DB" stop-opacity="0"/>
</linearGradient>
<linearGradient id="paint35_linear_506_22" x1="2011.26" y1="772.114" x2="572.103" y2="9.73644" gradientUnits="userSpaceOnUse">
<stop stop-color="#BDDBFF" stop-opacity="0.2"/>
<stop offset="1" stop-color="#0072DB" stop-opacity="0"/>
</linearGradient>
<linearGradient id="paint36_linear_506_22" x1="2011.26" y1="772.114" x2="572.103" y2="9.73644" gradientUnits="userSpaceOnUse">
<stop stop-color="#BDDBFF" stop-opacity="0.2"/>
<stop offset="1" stop-color="#0072DB" stop-opacity="0"/>
</linearGradient>
<linearGradient id="paint37_linear_506_22" x1="2011.26" y1="772.114" x2="572.103" y2="9.73644" gradientUnits="userSpaceOnUse">
<stop stop-color="#BDDBFF" stop-opacity="0.2"/>
<stop offset="1" stop-color="#0072DB" stop-opacity="0"/>
</linearGradient>
<linearGradient id="paint38_linear_506_22" x1="2011.26" y1="772.114" x2="572.103" y2="9.73644" gradientUnits="userSpaceOnUse">
<stop stop-color="#BDDBFF" stop-opacity="0.2"/>
<stop offset="1" stop-color="#0072DB" stop-opacity="0"/>
</linearGradient>
<linearGradient id="paint39_linear_506_22" x1="2011.26" y1="772.114" x2="572.103" y2="9.73644" gradientUnits="userSpaceOnUse">
<stop stop-color="#BDDBFF" stop-opacity="0.2"/>
<stop offset="1" stop-color="#0072DB" stop-opacity="0"/>
</linearGradient>
<linearGradient id="paint40_linear_506_22" x1="2011.26" y1="772.114" x2="572.103" y2="9.73644" gradientUnits="userSpaceOnUse">
<stop stop-color="#BDDBFF" stop-opacity="0.2"/>
<stop offset="1" stop-color="#0072DB" stop-opacity="0"/>
</linearGradient>
<linearGradient id="paint41_linear_506_22" x1="2011.26" y1="772.114" x2="572.103" y2="9.73644" gradientUnits="userSpaceOnUse">
<stop stop-color="#BDDBFF" stop-opacity="0.2"/>
<stop offset="1" stop-color="#0072DB" stop-opacity="0"/>
</linearGradient>
<linearGradient id="paint42_linear_506_22" x1="2011.26" y1="772.114" x2="572.103" y2="9.73644" gradientUnits="userSpaceOnUse">
<stop stop-color="#BDDBFF" stop-opacity="0.2"/>
<stop offset="1" stop-color="#0072DB" stop-opacity="0"/>
</linearGradient>
<linearGradient id="paint43_linear_506_22" x1="2011.26" y1="772.114" x2="572.103" y2="9.73644" gradientUnits="userSpaceOnUse">
<stop stop-color="#BDDBFF" stop-opacity="0.2"/>
<stop offset="1" stop-color="#0072DB" stop-opacity="0"/>
</linearGradient>
<linearGradient id="paint44_linear_506_22" x1="2011.26" y1="772.114" x2="572.103" y2="9.73644" gradientUnits="userSpaceOnUse">
<stop stop-color="#BDDBFF" stop-opacity="0.2"/>
<stop offset="1" stop-color="#0072DB" stop-opacity="0"/>
</linearGradient>
<linearGradient id="paint45_linear_506_22" x1="2011.26" y1="772.114" x2="572.103" y2="9.73644" gradientUnits="userSpaceOnUse">
<stop stop-color="#BDDBFF" stop-opacity="0.2"/>
<stop offset="1" stop-color="#0072DB" stop-opacity="0"/>
</linearGradient>
<linearGradient id="paint46_linear_506_22" x1="2011.26" y1="772.114" x2="572.103" y2="9.73644" gradientUnits="userSpaceOnUse">
<stop stop-color="#BDDBFF" stop-opacity="0.2"/>
<stop offset="1" stop-color="#0072DB" stop-opacity="0"/>
</linearGradient>
<linearGradient id="paint47_linear_506_22" x1="2011.26" y1="772.114" x2="572.103" y2="9.73644" gradientUnits="userSpaceOnUse">
<stop stop-color="#BDDBFF" stop-opacity="0.2"/>
<stop offset="1" stop-color="#0072DB" stop-opacity="0"/>
</linearGradient>
<linearGradient id="paint48_linear_506_22" x1="2011.26" y1="772.114" x2="572.103" y2="9.73644" gradientUnits="userSpaceOnUse">
<stop stop-color="#BDDBFF" stop-opacity="0.2"/>
<stop offset="1" stop-color="#0072DB" stop-opacity="0"/>
</linearGradient>
<linearGradient id="paint49_linear_506_22" x1="2011.26" y1="772.114" x2="572.103" y2="9.73644" gradientUnits="userSpaceOnUse">
<stop stop-color="#BDDBFF" stop-opacity="0.2"/>
<stop offset="1" stop-color="#0072DB" stop-opacity="0"/>
</linearGradient>
<linearGradient id="paint50_linear_506_22" x1="2011.26" y1="772.114" x2="572.103" y2="9.73644" gradientUnits="userSpaceOnUse">
<stop stop-color="#BDDBFF" stop-opacity="0.2"/>
<stop offset="1" stop-color="#0072DB" stop-opacity="0"/>
</linearGradient>
<linearGradient id="paint51_linear_506_22" x1="1143.4" y1="358" x2="858.904" y2="215" gradientUnits="userSpaceOnUse">
<stop stop-color="#84BCFF" stop-opacity="0.56"/>
<stop offset="1" stop-color="#79BFFF" stop-opacity="0"/>
</linearGradient>
<linearGradient id="paint52_linear_506_22" x1="1143.4" y1="358" x2="858.904" y2="215" gradientUnits="userSpaceOnUse">
<stop stop-color="#84BCFF" stop-opacity="0.56"/>
<stop offset="1" stop-color="#79BFFF" stop-opacity="0"/>
</linearGradient>
<linearGradient id="paint53_linear_506_22" x1="1143.4" y1="358" x2="858.904" y2="215" gradientUnits="userSpaceOnUse">
<stop stop-color="#84BCFF" stop-opacity="0.56"/>
<stop offset="1" stop-color="#79BFFF" stop-opacity="0"/>
</linearGradient>
<linearGradient id="paint54_linear_506_22" x1="1143.4" y1="358" x2="858.904" y2="215" gradientUnits="userSpaceOnUse">
<stop stop-color="#84BCFF" stop-opacity="0.56"/>
<stop offset="1" stop-color="#79BFFF" stop-opacity="0"/>
</linearGradient>
<linearGradient id="paint55_linear_506_22" x1="1143.4" y1="358" x2="858.904" y2="215" gradientUnits="userSpaceOnUse">
<stop stop-color="#84BCFF" stop-opacity="0.56"/>
<stop offset="1" stop-color="#79BFFF" stop-opacity="0"/>
</linearGradient>
<linearGradient id="paint56_linear_506_22" x1="1143.4" y1="358" x2="858.904" y2="215" gradientUnits="userSpaceOnUse">
<stop stop-color="#84BCFF" stop-opacity="0.56"/>
<stop offset="1" stop-color="#79BFFF" stop-opacity="0"/>
</linearGradient>
</defs>
</svg>
