<svg width="584" height="433" viewBox="0 0 584 433" fill="none" xmlns="http://www.w3.org/2000/svg">
<g clip-path="url(#clip0_506_13)">
<path d="M253.748 108.729L242.673 112.726L262.061 166.529L315.855 147.117L311.864 136.04L269.145 151.455L253.748 108.729Z" fill="url(#paint0_linear_506_13)"/>
<path d="M521.618 234.612L510.543 238.609L529.931 292.412L583.725 273L579.734 261.923L537.015 277.338L521.618 234.612Z" fill="url(#paint1_linear_506_13)"/>
<path d="M119.813 45.788L108.738 49.7846L128.126 103.588L181.92 84.1758L177.929 73.0988L135.21 88.514L119.813 45.788Z" fill="url(#paint2_linear_506_13)"/>
<path d="M188.632 247.292L177.557 251.288L196.945 305.091L250.739 285.68L246.748 274.603L204.029 290.018L188.632 247.292Z" fill="url(#paint3_linear_506_13)"/>
<path d="M456.502 373.175L445.427 377.171L464.815 430.974L518.609 411.562L514.618 400.485L471.899 415.901L456.502 373.175Z" fill="url(#paint4_linear_506_13)"/>
<path d="M322.567 310.233L311.492 314.23L330.88 368.033L384.674 348.621L380.683 337.544L337.964 352.959L322.567 310.233Z" fill="url(#paint5_linear_506_13)"/>
<path d="M212.109 371.639L208.117 360.562L261.912 341.15L281.299 394.953L270.224 398.949L254.828 356.224L212.109 371.639Z" fill="url(#paint6_linear_506_13)"/>
<path d="M78.1737 308.697L74.1822 297.62L127.977 278.209L147.364 332.012L136.289 336.008L120.893 293.282L78.1737 308.697Z" fill="url(#paint7_linear_506_13)"/>
<path d="M9.34847 107.207L5.3569 96.1297L59.1514 76.7181L78.5391 130.521L67.4638 134.517L52.0677 91.7917L9.34847 107.207Z" fill="url(#paint8_linear_506_13)"/>
<path d="M277.218 233.09L273.227 222.013L327.021 202.601L346.409 256.404L335.334 260.4L319.938 217.674L277.218 233.09Z" fill="url(#paint9_linear_506_13)"/>
<path d="M143.284 170.148L139.292 159.071L193.086 139.66L212.474 193.462L201.399 197.459L186.003 154.733L143.284 170.148Z" fill="url(#paint10_linear_506_13)"/>
<path d="M411.153 296.031L407.162 284.954L460.956 265.542L480.344 319.345L469.269 323.342L453.873 280.616L411.153 296.031Z" fill="url(#paint11_linear_506_13)"/>
<path d="M208.393 31.599L204.402 20.5219L258.196 1.11028L277.584 54.9131L266.509 58.9097L251.113 16.1839L208.393 31.599Z" fill="url(#paint12_linear_506_13)"/>
<path d="M476.263 157.482L472.272 146.405L526.066 126.993L545.454 180.796L534.379 184.792L518.983 142.067L476.263 157.482Z" fill="url(#paint13_linear_506_13)"/>
</g>
<defs>
<linearGradient id="paint0_linear_506_13" x1="-221" y1="1051.5" x2="239.236" y2="43.3364" gradientUnits="userSpaceOnUse">
<stop stop-color="#BDDBFF" stop-opacity="0.56"/>
<stop offset="1" stop-color="#0072DB" stop-opacity="0"/>
</linearGradient>
<linearGradient id="paint1_linear_506_13" x1="-221" y1="1051.5" x2="239.236" y2="43.3364" gradientUnits="userSpaceOnUse">
<stop stop-color="#BDDBFF" stop-opacity="0.56"/>
<stop offset="1" stop-color="#0072DB" stop-opacity="0"/>
</linearGradient>
<linearGradient id="paint2_linear_506_13" x1="-221" y1="1051.5" x2="239.236" y2="43.3364" gradientUnits="userSpaceOnUse">
<stop stop-color="#BDDBFF" stop-opacity="0.56"/>
<stop offset="1" stop-color="#0072DB" stop-opacity="0"/>
</linearGradient>
<linearGradient id="paint3_linear_506_13" x1="-221" y1="1051.5" x2="239.236" y2="43.3364" gradientUnits="userSpaceOnUse">
<stop stop-color="#BDDBFF" stop-opacity="0.56"/>
<stop offset="1" stop-color="#0072DB" stop-opacity="0"/>
</linearGradient>
<linearGradient id="paint4_linear_506_13" x1="-221" y1="1051.5" x2="239.236" y2="43.3364" gradientUnits="userSpaceOnUse">
<stop stop-color="#BDDBFF" stop-opacity="0.56"/>
<stop offset="1" stop-color="#0072DB" stop-opacity="0"/>
</linearGradient>
<linearGradient id="paint5_linear_506_13" x1="-221" y1="1051.5" x2="239.236" y2="43.3364" gradientUnits="userSpaceOnUse">
<stop stop-color="#BDDBFF" stop-opacity="0.56"/>
<stop offset="1" stop-color="#0072DB" stop-opacity="0"/>
</linearGradient>
<linearGradient id="paint6_linear_506_13" x1="-221" y1="1051.5" x2="239.236" y2="43.3364" gradientUnits="userSpaceOnUse">
<stop stop-color="#BDDBFF" stop-opacity="0.56"/>
<stop offset="1" stop-color="#0072DB" stop-opacity="0"/>
</linearGradient>
<linearGradient id="paint7_linear_506_13" x1="-221" y1="1051.5" x2="239.236" y2="43.3364" gradientUnits="userSpaceOnUse">
<stop stop-color="#BDDBFF" stop-opacity="0.56"/>
<stop offset="1" stop-color="#0072DB" stop-opacity="0"/>
</linearGradient>
<linearGradient id="paint8_linear_506_13" x1="-221" y1="1051.5" x2="239.236" y2="43.3364" gradientUnits="userSpaceOnUse">
<stop stop-color="#BDDBFF" stop-opacity="0.56"/>
<stop offset="1" stop-color="#0072DB" stop-opacity="0"/>
</linearGradient>
<linearGradient id="paint9_linear_506_13" x1="-221" y1="1051.5" x2="239.236" y2="43.3364" gradientUnits="userSpaceOnUse">
<stop stop-color="#BDDBFF" stop-opacity="0.56"/>
<stop offset="1" stop-color="#0072DB" stop-opacity="0"/>
</linearGradient>
<linearGradient id="paint10_linear_506_13" x1="-221" y1="1051.5" x2="239.236" y2="43.3364" gradientUnits="userSpaceOnUse">
<stop stop-color="#BDDBFF" stop-opacity="0.56"/>
<stop offset="1" stop-color="#0072DB" stop-opacity="0"/>
</linearGradient>
<linearGradient id="paint11_linear_506_13" x1="-221" y1="1051.5" x2="239.236" y2="43.3364" gradientUnits="userSpaceOnUse">
<stop stop-color="#BDDBFF" stop-opacity="0.56"/>
<stop offset="1" stop-color="#0072DB" stop-opacity="0"/>
</linearGradient>
<linearGradient id="paint12_linear_506_13" x1="-221" y1="1051.5" x2="239.236" y2="43.3364" gradientUnits="userSpaceOnUse">
<stop stop-color="#BDDBFF" stop-opacity="0.56"/>
<stop offset="1" stop-color="#0072DB" stop-opacity="0"/>
</linearGradient>
<linearGradient id="paint13_linear_506_13" x1="-221" y1="1051.5" x2="239.236" y2="43.3364" gradientUnits="userSpaceOnUse">
<stop stop-color="#BDDBFF" stop-opacity="0.56"/>
<stop offset="1" stop-color="#0072DB" stop-opacity="0"/>
</linearGradient>
<clipPath id="clip0_506_13">
<rect width="584" height="433" fill="white"/>
</clipPath>
</defs>
</svg>
