<svg width="37" height="32" viewBox="0 0 37 32" fill="none" xmlns="http://www.w3.org/2000/svg">
<path d="M31.6589 17.2759H28.7975C29.0891 18.0901 29.2485 18.9687 29.2485 19.8845V30.9105C29.2485 31.2923 29.1833 31.6588 29.0647 31.9996H33.7953C35.5624 31.9996 37 30.5338 37 28.7323V22.7215C37.0001 19.7188 34.604 17.2759 31.6589 17.2759Z" fill="#1267E4"/>
<path d="M7.75159 19.8845C7.75159 18.9687 7.91093 18.0902 8.2026 17.276H5.34116C2.39604 17.276 0 19.7189 0 22.7216V28.7324C0 30.534 1.43758 31.9998 3.2047 31.9998H7.93536C7.81677 31.6588 7.75159 31.2924 7.75159 30.9106V19.8845Z" fill="#1267E4"/>
<path d="M21.7709 14.4389H15.2292C12.2841 14.4389 9.88805 16.8818 9.88805 19.8845V30.9106C9.88805 31.512 10.3663 31.9997 10.9563 31.9997H26.0438C26.6338 31.9997 27.112 31.5121 27.112 30.9106V19.8845C27.112 16.8818 24.716 14.4389 21.7709 14.4389Z" fill="#1267E4"/>
<path d="M18.5 -0.000244141C14.9581 -0.000244141 12.0766 2.93762 12.0766 6.54884C12.0766 8.99829 13.4026 11.1375 15.3609 12.2607C16.2897 12.7934 17.3605 13.0978 18.5 13.0978C19.6395 13.0978 20.7104 12.7934 21.6392 12.2607C23.5975 11.1375 24.9235 8.99821 24.9235 6.54884C24.9235 2.93769 22.0419 -0.000244141 18.5 -0.000244141Z" fill="#1267E4"/>
<path d="M7.22065 6.10397C4.57175 6.10397 2.41678 8.30107 2.41678 11.0018C2.41678 13.7025 4.57175 15.8996 7.22065 15.8996C7.89258 15.8996 8.53242 15.7576 9.11365 15.5026C10.1186 15.0615 10.9472 14.2806 11.4599 13.3025C11.8198 12.6161 12.0245 11.8329 12.0245 11.0018C12.0245 8.30114 9.86955 6.10397 7.22065 6.10397Z" fill="#1267E4"/>
<path d="M29.7794 6.10397C27.1305 6.10397 24.9756 8.30107 24.9756 11.0018C24.9756 11.833 25.1803 12.6161 25.5402 13.3025C26.0529 14.2807 26.8815 15.0615 27.8864 15.5026C28.4677 15.7576 29.1075 15.8996 29.7794 15.8996C32.4283 15.8996 34.5833 13.7025 34.5833 11.0018C34.5833 8.30107 32.4283 6.10397 29.7794 6.10397Z" fill="#1267E4"/>
</svg>
