<svg width="35" height="30" viewBox="0 0 35 30" fill="none" xmlns="http://www.w3.org/2000/svg">
<path d="M23.984 10.2952C24.1756 9.65386 23.6952 9.00899 23.0258 9.00899H11.9742C11.3048 9.00899 10.8244 9.65386 11.016 10.2952L16.5418 28.7924C16.8261 29.7441 18.1739 29.7441 18.4582 28.7924L23.984 10.2952Z" fill="#1267E4"/>
<path d="M11.4183 24.7011C12.08 25.6105 13.507 24.9041 13.185 23.8265L8.97177 9.72276C8.84524 9.29921 8.45565 9.00899 8.01361 9.00899H1.96436C1.14696 9.00899 0.674837 9.93642 1.15577 10.5974L11.4183 24.7011Z" fill="#1267E4"/>
<path d="M22.5066 7.2072C23.2493 7.2072 23.7328 6.42635 23.4019 5.76155L20.8099 0.554916C20.6409 0.215269 20.2941 0.000560351 19.9147 0.000560351H15.0852C14.7058 0.000560351 14.3591 0.215234 14.19 0.554836L11.5975 5.76147C11.2665 6.42627 11.7501 7.2072 12.4927 7.2072H22.5066Z" fill="#1267E4"/>
<path d="M26.9856 9.00899C26.5436 9.00899 26.154 9.29923 26.0274 9.72279L21.8146 23.827C21.4927 24.9046 22.9196 25.611 23.5813 24.7016L33.8442 10.5974C34.3252 9.93642 33.853 9.00899 33.0356 9.00899H26.9856Z" fill="#1267E4"/>
<path d="M8.25253 7.20716C8.63193 7.20718 8.97866 6.9925 9.14777 6.65287L11.7405 1.44547C12.0715 0.780665 11.588 -0.000244141 10.8454 -0.000244141H5.83805C5.55553 -0.000244141 5.28957 0.133301 5.12028 0.360168L1.20042 5.60838C0.707876 6.26784 1.17846 7.20673 2.00156 7.20678L8.25253 7.20716Z" fill="#1267E4"/>
<path d="M25.8525 6.65291C26.0216 6.99252 26.3683 7.2072 26.7477 7.2072H32.9986C33.8217 7.2072 34.2923 6.26828 33.7998 5.60879L29.88 0.360704C29.7104 0.133838 29.4442 0.000560403 29.1617 0.000292187H24.1552C23.4125 0.000292187 22.929 0.781201 23.26 1.446L25.8525 6.65291Z" fill="#1267E4"/>
</svg>
