<svg width="1465" height="177" viewBox="0 0 1465 177" fill="none" xmlns="http://www.w3.org/2000/svg">
<g clip-path="url(#clip0_506_18)">
<path d="M1411.34 157.541L1422.21 151.265L1391.73 98.4692L1338.93 128.951L1345.21 139.821L1387.14 115.615L1411.34 157.541Z" fill="url(#paint0_linear_506_18)"/>
<path d="M1393.08 31.9878L1398.03 40.6042L1356.27 64.8205L1332.22 22.9694L1340.81 17.9837L1359.92 51.2184L1393.08 31.9878Z" fill="url(#paint1_linear_506_18)"/>
<path d="M1327.85 72.0562L1330.75 76.9513L1306.69 90.5177L1292.64 66.7417L1297.6 63.9486L1308.75 82.8295L1327.85 72.0562Z" fill="url(#paint2_linear_506_18)"/>
<path d="M1182.18 96.1369L1187.13 93.3438L1173.08 69.5677L1149.03 83.1342L1151.92 88.0292L1171.02 77.2559L1182.18 96.1369Z" fill="url(#paint3_linear_506_18)"/>
<path d="M1454.93 111.675L1461.71 107.786L1442.65 74.9724L1409.75 93.8638L1413.67 100.62L1439.8 85.6175L1454.93 111.675Z" fill="url(#paint4_linear_506_18)"/>
<path d="M1509.05 -24.1831L1511.01 -20.8052L1494.56 -11.3595L1485.03 -27.7663L1488.42 -29.711L1495.99 -16.6821L1509.05 -24.1831Z" fill="url(#paint5_linear_506_18)"/>
<g clip-path="url(#clip1_506_18)">
<path d="M65.2568 20.9157L53.6857 24.0161L68.745 80.2183L124.947 65.159L121.847 53.588L77.2156 65.5468L65.2568 20.9157Z" fill="url(#paint6_linear_506_18)"/>
<path d="M51.0799 141.175L48.6425 132.008L93.1215 119.998L104.96 164.523L95.8028 166.995L86.4014 131.637L51.0799 141.175Z" fill="url(#paint7_linear_506_18)"/>
<path d="M121.108 120.347L119.65 115.12L145.177 108.555L152.255 133.945L147 135.296L141.379 115.134L121.108 120.347Z" fill="url(#paint8_linear_506_18)"/>
<path d="M13.7418 52.4314L6.53533 54.3435L15.9937 89.3006L50.9967 80.0132L49.0494 72.8162L21.2529 80.1914L13.7418 52.4314Z" fill="url(#paint9_linear_506_18)"/>
<path d="M-69.7114 164.31L-70.685 160.712L-53.1836 156.068L-48.4544 173.547L-52.0576 174.503L-55.8131 160.623L-69.7114 164.31Z" fill="url(#paint10_linear_506_18)"/>
</g>
</g>
<defs>
<linearGradient id="paint0_linear_506_18" x1="1078.82" y1="106.381" x2="1413.95" y2="217.316" gradientUnits="userSpaceOnUse">
<stop stop-color="#BDDBFF" stop-opacity="0.56"/>
<stop offset="1" stop-color="#0072DB" stop-opacity="0"/>
</linearGradient>
<linearGradient id="paint1_linear_506_18" x1="1078.82" y1="106.381" x2="1413.95" y2="217.316" gradientUnits="userSpaceOnUse">
<stop stop-color="#BDDBFF" stop-opacity="0.56"/>
<stop offset="1" stop-color="#0072DB" stop-opacity="0"/>
</linearGradient>
<linearGradient id="paint2_linear_506_18" x1="1078.82" y1="106.381" x2="1413.95" y2="217.316" gradientUnits="userSpaceOnUse">
<stop stop-color="#BDDBFF" stop-opacity="0.56"/>
<stop offset="1" stop-color="#0072DB" stop-opacity="0"/>
</linearGradient>
<linearGradient id="paint3_linear_506_18" x1="1078.82" y1="106.381" x2="1413.95" y2="217.316" gradientUnits="userSpaceOnUse">
<stop stop-color="#BDDBFF" stop-opacity="0.56"/>
<stop offset="1" stop-color="#0072DB" stop-opacity="0"/>
</linearGradient>
<linearGradient id="paint4_linear_506_18" x1="1078.82" y1="106.381" x2="1413.95" y2="217.316" gradientUnits="userSpaceOnUse">
<stop stop-color="#BDDBFF" stop-opacity="0.56"/>
<stop offset="1" stop-color="#0072DB" stop-opacity="0"/>
</linearGradient>
<linearGradient id="paint5_linear_506_18" x1="1078.82" y1="106.381" x2="1413.95" y2="217.316" gradientUnits="userSpaceOnUse">
<stop stop-color="#BDDBFF" stop-opacity="0.56"/>
<stop offset="1" stop-color="#0072DB" stop-opacity="0"/>
</linearGradient>
<linearGradient id="paint6_linear_506_18" x1="359.172" y1="150.22" x2="77.6185" y2="-34.8352" gradientUnits="userSpaceOnUse">
<stop stop-color="#BDDBFF" stop-opacity="0.56"/>
<stop offset="1" stop-color="#0072DB" stop-opacity="0"/>
</linearGradient>
<linearGradient id="paint7_linear_506_18" x1="359.172" y1="150.22" x2="77.6185" y2="-34.8352" gradientUnits="userSpaceOnUse">
<stop stop-color="#BDDBFF" stop-opacity="0.56"/>
<stop offset="1" stop-color="#0072DB" stop-opacity="0"/>
</linearGradient>
<linearGradient id="paint8_linear_506_18" x1="359.172" y1="150.22" x2="77.6185" y2="-34.8352" gradientUnits="userSpaceOnUse">
<stop stop-color="#BDDBFF" stop-opacity="0.56"/>
<stop offset="1" stop-color="#0072DB" stop-opacity="0"/>
</linearGradient>
<linearGradient id="paint9_linear_506_18" x1="359.172" y1="150.22" x2="77.6185" y2="-34.8352" gradientUnits="userSpaceOnUse">
<stop stop-color="#BDDBFF" stop-opacity="0.56"/>
<stop offset="1" stop-color="#0072DB" stop-opacity="0"/>
</linearGradient>
<linearGradient id="paint10_linear_506_18" x1="359.172" y1="150.22" x2="77.6185" y2="-34.8352" gradientUnits="userSpaceOnUse">
<stop stop-color="#BDDBFF" stop-opacity="0.56"/>
<stop offset="1" stop-color="#0072DB" stop-opacity="0"/>
</linearGradient>
<clipPath id="clip0_506_18">
<rect width="1465" height="177" fill="white"/>
</clipPath>
<clipPath id="clip1_506_18">
<rect width="158" height="162" fill="white" transform="translate(0 15)"/>
</clipPath>
</defs>
</svg>
