<svg width="54" height="40" viewBox="0 0 54 40" fill="none" xmlns="http://www.w3.org/2000/svg">
<path d="M53.538 18.5966L37.3389 0.597567C36.9933 0.215988 36.511 0 35.9998 0H25.2004C24.4912 0 23.8468 0.417577 23.5553 1.06554C23.2673 1.71711 23.3861 2.47667 23.8612 3.00224L38.9768 19.7989L23.8612 36.592C23.3861 37.1212 23.2637 37.8807 23.5553 38.5287C23.8468 39.1803 24.4912 39.5979 25.2004 39.5979H35.9998C36.511 39.5979 36.9933 39.3783 37.3389 39.0039L53.538 21.0049C54.1536 20.3209 54.1536 19.277 53.538 18.5966Z" fill="white"/>
<path d="M30.1396 18.5966L13.9405 0.597567C13.5949 0.215988 13.1125 0 12.6013 0H1.80193C1.09277 0 0.4484 0.417577 0.156816 1.06554C-0.131169 1.71711 -0.0123752 2.47667 0.462799 3.00224L15.5784 19.7989L0.462799 36.592C-0.0123752 37.1212 -0.134769 37.8807 0.156816 38.5287C0.4484 39.1803 1.09277 39.5979 1.80193 39.5979H12.6013C13.1125 39.5979 13.5949 39.3783 13.9405 39.0039L30.1396 21.0049C30.7552 20.3209 30.7552 19.277 30.1396 18.5966Z" fill="white"/>
</svg>
