<svg width="52" height="45" viewBox="0 0 52 45" fill="none" xmlns="http://www.w3.org/2000/svg">
<path d="M44.4936 24.2946H40.4721C40.882 25.4395 41.106 26.6751 41.106 27.9629V43.4682C41.106 44.0051 41.0144 44.5205 40.8477 44.9998H47.4961C49.9796 44.9998 52 42.9386 52 40.4051V31.9524C52.0001 27.73 48.6327 24.2946 44.4936 24.2946Z" fill="white"/>
<path d="M10.8941 27.963C10.8941 26.6751 11.1181 25.4396 11.528 24.2947H7.5065C3.36741 24.2947 0 27.7301 0 31.9526V40.4053C0 42.9388 2.02039 45 4.5039 45H11.1524C10.9857 44.5205 10.8941 44.0052 10.8941 43.4683V27.963Z" fill="white"/>
<path d="M30.5969 20.3051H21.4032C17.2641 20.3051 13.8967 23.7404 13.8967 27.963V43.4683C13.8967 44.3141 14.5689 44.9999 15.398 44.9999H36.6021C37.4312 44.9999 38.1034 44.3142 38.1034 43.4683V27.963C38.1034 23.7404 34.736 20.3051 30.5969 20.3051Z" fill="white"/>
<path d="M26.0001 0C21.0223 0 16.9725 4.13137 16.9725 9.20965C16.9725 12.6542 18.8361 15.6625 21.5883 17.242C22.8937 17.9911 24.3986 18.4192 26.0001 18.4192C27.6015 18.4192 29.1064 17.9911 30.4118 17.242C33.1641 15.6625 35.0276 12.6541 35.0276 9.20965C35.0276 4.13148 30.9778 0 26.0001 0Z" fill="white"/>
<path d="M10.1479 8.58404C6.42516 8.58404 3.39656 11.6737 3.39656 15.4716C3.39656 19.2694 6.42516 22.3591 10.1479 22.3591C11.0923 22.3591 11.9915 22.1595 12.8084 21.8008C14.2207 21.1805 15.3852 20.0825 16.1058 18.707C16.6116 17.7417 16.8993 16.6404 16.8993 15.4716C16.8993 11.6738 13.8707 8.58404 10.1479 8.58404Z" fill="white"/>
<path d="M41.8522 8.58404C38.1294 8.58404 35.1008 11.6737 35.1008 15.4716C35.1008 16.6405 35.3885 17.7418 35.8943 18.707C36.6149 20.0826 37.7794 21.1806 39.1917 21.8008C40.0086 22.1595 40.9078 22.3591 41.8522 22.3591C45.5749 22.3591 48.6035 19.2694 48.6035 15.4716C48.6035 11.6737 45.5749 8.58404 41.8522 8.58404Z" fill="white"/>
</svg>
