<svg width="39" height="60" viewBox="0 0 39 60" fill="none" xmlns="http://www.w3.org/2000/svg">
<path fill-rule="evenodd" clip-rule="evenodd" d="M19.5012 0C8.74905 0 0 8.80575 0 19.6287C0 24.5504 1.81782 29.2579 5.12035 32.884C7.94729 35.9895 9.38014 39.699 9.38014 43.9105V44.2162H29.6207V43.9105C29.6207 39.6988 31.0551 35.9886 33.8812 32.884C37.1822 29.2579 39 24.5504 39 19.6287C39.0001 8.80575 30.2533 0 19.5012 0ZM25.6206 55.2598H13.3824C14.1119 58.007 16.6234 60 19.5012 60C22.4094 60 24.8974 58.017 25.6206 55.2598ZM29.6207 46.6478H9.38014V50.8794C9.38014 51.9541 10.2485 52.8282 11.3155 52.8282H27.6847C28.7525 52.8282 29.6208 51.9543 29.6208 50.8794V46.6478H29.6207Z" fill="white"/>
</svg>
