<svg width="52" height="52" viewBox="0 0 52 52" fill="none" xmlns="http://www.w3.org/2000/svg">
<path d="M35.2422 18.4844C26.0019 18.4844 18.4844 26.0019 18.4844 35.2422C18.4844 44.4824 26.0019 52 35.2422 52C44.4824 52 52 44.4824 52 35.2422C52 26.0019 44.4824 18.4844 35.2422 18.4844ZM35.2422 33.7188C37.7624 33.7188 39.8125 35.7689 39.8125 38.2891C39.8125 40.2726 38.535 41.9478 36.7656 42.5788V45.9062H33.7188V42.5788C31.9493 41.9478 30.6719 40.2726 30.6719 38.2891H33.7188C33.7188 39.1296 34.4017 39.8125 35.2422 39.8125C36.0827 39.8125 36.7656 39.1296 36.7656 38.2891C36.7656 37.4485 36.0827 36.7656 35.2422 36.7656C32.722 36.7656 30.6719 34.7155 30.6719 32.1953C30.6719 30.2118 31.9493 28.5366 33.7188 27.9056V24.5781H36.7656V27.9056C38.535 28.5366 39.8125 30.2118 39.8125 32.1953H36.7656C36.7656 31.3548 36.0827 30.6719 35.2422 30.6719C34.4017 30.6719 33.7188 31.3548 33.7188 32.1953C33.7188 33.0358 34.4017 33.7188 35.2422 33.7188Z" fill="white"/>
<path d="M16.9609 18.4844C26.3575 18.4844 33.7188 14.469 33.7188 9.34375C33.7188 4.2185 26.3575 0 16.9609 0C7.56438 0 0 4.2185 0 9.34375C0 14.469 7.56438 18.4844 16.9609 18.4844Z" fill="white"/>
<path d="M0 34.2833V36.7656C0 41.8909 7.56438 45.9062 16.9609 45.9062C17.4939 45.9062 18.0104 45.8572 18.5352 45.8315C17.3666 43.9941 16.4951 41.9554 15.9819 39.7758C9.18684 39.5883 3.28677 37.5002 0 34.2833Z" fill="white"/>
<path d="M15.5107 36.688C15.4758 36.2089 15.4375 35.7302 15.4375 35.2422C15.4375 33.6541 15.6456 32.117 16.0005 30.636C9.19699 30.4517 3.28971 28.3625 0 25.1427V27.625C0 32.4784 6.8313 36.2925 15.5107 36.688Z" fill="white"/>
<path d="M16.9609 27.625C16.9626 27.625 16.9639 27.6248 16.9656 27.6248C17.9704 25.2235 19.4309 23.0588 21.2447 21.245C19.8689 21.4189 18.447 21.5312 16.9609 21.5312C9.72796 21.5312 3.44561 19.3744 0 16.0021V18.4844C0 23.6096 7.56437 27.625 16.9609 27.625Z" fill="white"/>
</svg>
