<svg width="873" height="596" viewBox="0 0 873 596" fill="none" xmlns="http://www.w3.org/2000/svg">
<g clip-path="url(#clip0_460_26052)">
<path d="M1536.53 -182.789L1539.57 -171.416L1484.34 -156.602L1469.55 -211.846L1480.92 -214.896L1492.66 -171.025L1536.53 -182.789Z" fill="url(#paint0_linear_460_26052)"/>
<path d="M767.564 -626.751L770.609 -615.377L715.371 -600.563L700.582 -655.807L711.954 -658.857L723.699 -614.987L767.564 -626.751Z" fill="url(#paint1_linear_460_26052)"/>
<path d="M511.243 -774.738L514.288 -763.364L459.05 -748.55L444.261 -803.794L455.633 -806.844L467.377 -762.974L511.243 -774.738Z" fill="url(#paint2_linear_460_26052)"/>
<path d="M1408.37 -256.783L1411.41 -245.409L1356.17 -230.595L1341.39 -285.839L1352.76 -288.889L1364.5 -245.019L1408.37 -256.783Z" fill="url(#paint3_linear_460_26052)"/>
<path d="M1152.05 -404.77L1155.09 -393.396L1099.85 -378.582L1085.06 -433.826L1096.44 -436.876L1108.18 -393.006L1152.05 -404.77Z" fill="url(#paint4_linear_460_26052)"/>
<path d="M639.403 -700.744L642.448 -689.371L587.21 -674.557L572.421 -729.801L583.794 -732.851L595.538 -688.981L639.403 -700.744Z" fill="url(#paint5_linear_460_26052)"/>
<path d="M1459.99 -50.2133L1463.03 -38.8395L1407.79 -24.0256L1393 -79.2697L1404.38 -82.3197L1416.12 -38.4494L1459.99 -50.2133Z" fill="url(#paint6_linear_460_26052)"/>
<path d="M1203.66 -198.2L1206.71 -186.827L1151.47 -172.013L1136.68 -227.257L1148.05 -230.307L1159.8 -186.437L1203.66 -198.2Z" fill="url(#paint7_linear_460_26052)"/>
<path d="M691.021 -494.175L694.066 -482.801L638.828 -467.987L624.039 -523.231L635.411 -526.281L647.156 -482.411L691.021 -494.175Z" fill="url(#paint8_linear_460_26052)"/>
<path d="M434.7 -642.162L437.745 -630.788L382.507 -615.974L367.718 -671.218L379.09 -674.268L390.835 -630.398L434.7 -642.162Z" fill="url(#paint9_linear_460_26052)"/>
<path d="M562.861 -568.168L565.905 -556.795L510.668 -541.981L495.878 -597.225L507.251 -600.275L518.995 -556.405L562.861 -568.168Z" fill="url(#paint10_linear_460_26052)"/>
<path d="M306.539 -716.156L309.584 -704.782L254.346 -689.968L239.557 -745.212L250.93 -748.262L262.674 -704.392L306.539 -716.156Z" fill="url(#paint11_linear_460_26052)"/>
<path d="M1127.12 -65.6245L1130.17 -54.2507L1074.93 -39.4368L1060.14 -94.6808L1071.51 -97.7308L1083.26 -53.8606L1127.12 -65.6245Z" fill="url(#paint12_linear_460_26052)"/>
<path d="M870.8 -213.612L873.845 -202.238L818.607 -187.424L803.818 -242.668L815.19 -245.718L826.934 -201.848L870.8 -213.612Z" fill="url(#paint13_linear_460_26052)"/>
<path d="M614.478 -361.599L617.523 -350.225L562.286 -335.411L547.496 -390.655L558.869 -393.705L570.613 -349.835L614.478 -361.599Z" fill="url(#paint14_linear_460_26052)"/>
<path d="M358.157 -509.586L361.202 -498.212L305.964 -483.398L291.175 -538.642L302.547 -541.692L314.292 -497.822L358.157 -509.586Z" fill="url(#paint15_linear_460_26052)"/>
<path d="M1255.28 8.36911L1258.33 19.7429L1203.09 34.5568L1188.3 -20.6872L1199.67 -23.7373L1211.42 20.133L1255.28 8.36911Z" fill="url(#paint16_linear_460_26052)"/>
<path d="M998.96 -139.618L1002.01 -128.244L946.768 -113.43L931.978 -168.674L943.351 -171.724L955.095 -127.854L998.96 -139.618Z" fill="url(#paint17_linear_460_26052)"/>
<path d="M742.639 -287.605L745.684 -276.231L690.446 -261.418L675.657 -316.662L687.029 -319.712L698.774 -275.841L742.639 -287.605Z" fill="url(#paint18_linear_460_26052)"/>
<path d="M1090.19 738.561L1101.56 735.511L1086.77 680.267L1031.53 695.081L1034.58 706.455L1078.44 694.691L1090.19 738.561Z" fill="url(#paint19_linear_460_26052)"/>
<path d="M833.867 590.574L845.24 587.524L830.45 532.28L775.213 547.094L778.258 558.468L822.123 546.703L833.867 590.574Z" fill="url(#paint20_linear_460_26052)"/>
<path d="M577.546 442.587L588.918 439.537L574.129 384.293L518.891 399.107L521.936 410.48L565.801 398.716L577.546 442.587Z" fill="url(#paint21_linear_460_26052)"/>
<path d="M321.225 294.6L332.597 291.55L317.807 236.305L262.57 251.119L265.615 262.493L309.48 250.729L321.225 294.6Z" fill="url(#paint22_linear_460_26052)"/>
<path d="M64.9035 146.612L76.2758 143.562L61.4862 88.3182L6.2488 103.132L9.2936 114.506L53.1587 102.742L64.9035 146.612Z" fill="url(#paint23_linear_460_26052)"/>
<path d="M705.707 516.58L717.079 513.53L702.289 458.286L647.052 473.1L650.097 484.474L693.962 472.71L705.707 516.58Z" fill="url(#paint24_linear_460_26052)"/>
<path d="M193.064 220.606L204.436 217.556L189.647 162.312L134.409 177.126L137.454 188.5L181.319 176.735L193.064 220.606Z" fill="url(#paint25_linear_460_26052)"/>
<path d="M1050.58 66.9515L1053.62 78.3253L998.385 93.1392L983.596 37.8952L994.968 34.8452L1006.71 78.7154L1050.58 66.9515Z" fill="url(#paint26_linear_460_26052)"/>
<path d="M409.775 -303.016L412.82 -291.643L357.582 -276.829L342.793 -332.073L354.165 -335.123L365.91 -291.253L409.775 -303.016Z" fill="url(#paint27_linear_460_26052)"/>
<path d="M153.454 -451.004L156.499 -439.63L101.261 -424.816L86.4715 -480.06L97.844 -483.11L109.588 -439.24L153.454 -451.004Z" fill="url(#paint28_linear_460_26052)"/>
<path d="M654.096 309.998L665.468 306.948L650.679 251.704L595.441 266.518L598.486 277.892L642.351 266.128L654.096 309.998Z" fill="url(#paint29_linear_460_26052)"/>
<path d="M397.775 162.011L409.147 158.961L394.357 103.717L339.12 118.531L342.165 129.905L386.03 118.141L397.775 162.011Z" fill="url(#paint30_linear_460_26052)"/>
<path d="M1038.58 531.979L1049.95 528.929L1035.16 473.685L979.923 488.499L982.968 499.873L1026.83 488.108L1038.58 531.979Z" fill="url(#paint31_linear_460_26052)"/>
<path d="M525.935 236.005L537.308 232.955L522.518 177.71L467.281 192.524L470.326 203.898L514.191 192.134L525.935 236.005Z" fill="url(#paint32_linear_460_26052)"/>
<path d="M269.614 88.0175L280.986 84.9675L266.197 29.7233L210.959 44.5373L214.004 55.9111L257.869 44.147L269.614 88.0175Z" fill="url(#paint33_linear_460_26052)"/>
<path d="M1230.36 347.515L1233.4 358.888L1178.16 373.702L1163.37 318.458L1174.75 315.408L1186.49 359.279L1230.36 347.515Z" fill="url(#paint34_linear_460_26052)"/>
<path d="M717.714 51.5404L720.759 62.9141L665.521 77.728L650.732 22.484L662.104 19.434L673.849 63.3043L717.714 51.5404Z" fill="url(#paint35_linear_460_26052)"/>
<path d="M205.072 -244.434L208.116 -233.06L152.879 -218.246L138.089 -273.49L149.462 -276.54L161.206 -232.67L205.072 -244.434Z" fill="url(#paint36_linear_460_26052)"/>
<path d="M1102.2 273.521L1105.24 284.895L1050 299.709L1035.21 244.465L1046.59 241.415L1058.33 285.285L1102.2 273.521Z" fill="url(#paint37_linear_460_26052)"/>
<path d="M845.875 125.534L848.92 136.908L793.682 151.722L778.893 96.4776L790.265 93.4276L802.009 137.298L845.875 125.534Z" fill="url(#paint38_linear_460_26052)"/>
<path d="M76.9109 -318.428L79.9558 -307.054L24.718 -292.24L9.9287 -347.484L21.3012 -350.534L33.0455 -306.664L76.9109 -318.428Z" fill="url(#paint39_linear_460_26052)"/>
<path d="M1243.29 473.384L1254.66 470.334L1239.87 415.09L1184.63 429.904L1187.68 441.278L1231.54 429.514L1243.29 473.384Z" fill="url(#paint40_linear_460_26052)"/>
<path d="M986.967 325.397L998.34 322.347L983.55 267.103L928.313 281.917L931.358 293.29L975.223 281.526L986.967 325.397Z" fill="url(#paint41_linear_460_26052)"/>
<path d="M1115.13 399.39L1126.5 396.34L1111.71 341.096L1056.47 355.91L1059.52 367.284L1103.38 355.52L1115.13 399.39Z" fill="url(#paint42_linear_460_26052)"/>
<path d="M858.807 251.403L870.179 248.353L855.389 193.109L800.152 207.923L803.197 219.297L847.062 207.533L858.807 251.403Z" fill="url(#paint43_linear_460_26052)"/>
<path d="M641.171 184.116L644.216 195.49L588.979 210.304L574.189 155.06L585.562 152.01L597.306 195.88L641.171 184.116Z" fill="url(#paint44_linear_460_26052)"/>
<path d="M384.85 36.1291L387.895 47.5029L332.657 62.3167L317.868 7.07274L329.24 4.02276L340.985 47.893L384.85 36.1291Z" fill="url(#paint45_linear_460_26052)"/>
<path d="M1025.65 406.097L1028.7 417.471L973.461 432.285L958.671 377.041L970.044 373.991L981.788 417.861L1025.65 406.097Z" fill="url(#paint46_linear_460_26052)"/>
<path d="M769.332 258.11L772.377 269.484L717.139 284.298L702.35 229.053L713.722 226.004L725.467 269.874L769.332 258.11Z" fill="url(#paint47_linear_460_26052)"/>
<path d="M513.011 110.123L516.056 121.496L460.818 136.31L446.029 81.0663L457.401 78.0164L469.145 121.887L513.011 110.123Z" fill="url(#paint48_linear_460_26052)"/>
<path d="M1063.52 192.808L1074.89 189.758L1060.1 134.514L1004.86 149.328L1007.91 160.702L1051.77 148.938L1063.52 192.808Z" fill="url(#paint49_linear_460_26052)"/>
<path d="M294.554 -251.153L305.926 -254.203L291.136 -309.447L235.899 -294.633L238.944 -283.26L282.809 -295.024L294.554 -251.153Z" fill="url(#paint50_linear_460_26052)"/>
<path d="M166.393 -325.147L177.765 -328.197L162.976 -383.441L107.738 -368.627L110.783 -357.253L154.648 -369.017L166.393 -325.147Z" fill="url(#paint51_linear_460_26052)"/>
<path d="M1077.27 612.667L1080.32 624.04L1025.08 638.854L1010.29 583.61L1021.66 580.56L1033.41 624.43L1077.27 612.667Z" fill="url(#paint52_linear_460_26052)"/>
<path d="M820.95 464.679L823.995 476.053L768.757 490.867L753.968 435.623L765.34 432.573L777.085 476.443L820.95 464.679Z" fill="url(#paint53_linear_460_26052)"/>
<path d="M564.629 316.692L567.674 328.066L512.436 342.88L497.647 287.636L509.019 284.586L520.763 328.456L564.629 316.692Z" fill="url(#paint54_linear_460_26052)"/>
<path d="M692.789 390.686L695.834 402.06L640.597 416.873L625.807 361.629L637.18 358.579L648.924 402.45L692.789 390.686Z" fill="url(#paint55_linear_460_26052)"/>
<path d="M436.468 242.699L439.513 254.072L384.275 268.886L369.486 213.642L380.858 210.592L392.603 254.463L436.468 242.699Z" fill="url(#paint56_linear_460_26052)"/>
<path d="M180.147 94.7115L183.192 106.085L127.954 120.899L113.165 65.6551L124.537 62.6051L136.281 106.475L180.147 94.7115Z" fill="url(#paint57_linear_460_26052)"/>
<path d="M-76.1745 -53.2757L-73.1296 -41.9019L-128.367 -27.0881L-143.157 -82.3321L-131.784 -85.382L-120.04 -41.5118L-76.1745 -53.2757Z" fill="url(#paint58_linear_460_26052)"/>
<path d="M1396.39 208.207L1407.76 205.157L1392.97 149.913L1337.73 164.727L1340.78 176.101L1384.64 164.337L1396.39 208.207Z" fill="url(#paint59_linear_460_26052)"/>
<path d="M1140.07 60.2197L1151.44 57.1697L1136.65 1.92548L1081.41 16.7396L1084.46 28.1133L1128.32 16.3493L1140.07 60.2197Z" fill="url(#paint60_linear_460_26052)"/>
<path d="M1268.23 134.213L1279.6 131.163L1264.81 75.9191L1209.57 90.7331L1212.62 102.107L1256.48 90.3428L1268.23 134.213Z" fill="url(#paint61_linear_460_26052)"/>
<path d="M499.264 -309.748L510.637 -312.798L495.847 -368.042L440.61 -353.228L443.654 -341.855L487.519 -353.619L499.264 -309.748Z" fill="url(#paint62_linear_460_26052)"/>
<path d="M242.943 -457.735L254.315 -460.785L239.526 -516.03L184.288 -501.216L187.333 -489.842L231.198 -501.606L242.943 -457.735Z" fill="url(#paint63_linear_460_26052)"/>
<path d="M1000.73 745.242L1003.77 756.616L948.536 771.43L933.746 716.186L945.119 713.136L956.863 757.006L1000.73 745.242Z" fill="url(#paint64_linear_460_26052)"/>
<path d="M-24.5566 153.294L-21.5118 164.668L-76.7495 179.481L-91.5388 124.237L-80.1665 121.187L-68.422 165.058L-24.5566 153.294Z" fill="url(#paint65_linear_460_26052)"/>
<path d="M616.247 523.262L619.291 534.635L564.054 549.449L549.264 494.205L560.637 491.155L572.381 535.026L616.247 523.262Z" fill="url(#paint66_linear_460_26052)"/>
<path d="M359.925 375.275L362.97 386.648L307.732 401.462L292.943 346.218L304.316 343.168L316.06 387.038L359.925 375.275Z" fill="url(#paint67_linear_460_26052)"/>
<path d="M103.604 227.287L106.649 238.661L51.4111 253.475L36.6218 198.231L47.9942 195.181L59.7387 239.051L103.604 227.287Z" fill="url(#paint68_linear_460_26052)"/>
<path d="M960.296 -220.356L971.669 -223.406L956.879 -278.65L901.642 -263.836L904.686 -252.462L948.551 -264.226L960.296 -220.356Z" fill="url(#paint69_linear_460_26052)"/>
<path d="M703.975 -368.343L715.347 -371.393L700.558 -426.637L645.32 -411.823L648.365 -400.45L692.23 -412.214L703.975 -368.343Z" fill="url(#paint70_linear_460_26052)"/>
<path d="M1344.78 1.62476L1356.15 -1.42525L1341.36 -56.6695L1286.12 -41.8554L1289.17 -30.4816L1333.03 -42.2457L1344.78 1.62476Z" fill="url(#paint71_linear_460_26052)"/>
<path d="M1088.46 -146.362L1099.83 -149.412L1085.04 -204.657L1029.8 -189.843L1032.85 -178.469L1076.71 -190.233L1088.46 -146.362Z" fill="url(#paint72_linear_460_26052)"/>
<path d="M575.814 -442.337L587.187 -445.387L572.397 -500.631L517.16 -485.817L520.204 -474.443L564.069 -486.207L575.814 -442.337Z" fill="url(#paint73_linear_460_26052)"/>
<path d="M319.493 -590.324L330.865 -593.374L316.076 -648.618L260.838 -633.804L263.883 -622.43L307.748 -634.194L319.493 -590.324Z" fill="url(#paint74_linear_460_26052)"/>
<path d="M1549.49 -56.9702L1560.86 -60.0202L1546.07 -115.264L1490.83 -100.45L1493.88 -89.0765L1537.74 -100.841L1549.49 -56.9702Z" fill="url(#paint75_linear_460_26052)"/>
<path d="M1293.17 -204.957L1304.54 -208.007L1289.75 -263.252L1234.51 -248.437L1237.56 -237.064L1281.42 -248.828L1293.17 -204.957Z" fill="url(#paint76_linear_460_26052)"/>
<path d="M780.525 -500.932L791.897 -503.982L777.108 -559.226L721.87 -544.412L724.915 -533.038L768.78 -544.802L780.525 -500.932Z" fill="url(#paint77_linear_460_26052)"/>
<path d="M524.204 -648.919L535.576 -651.969L520.786 -707.213L465.549 -692.399L468.594 -681.025L512.459 -692.789L524.204 -648.919Z" fill="url(#paint78_linear_460_26052)"/>
<path d="M1165.01 -278.951L1176.38 -282.001L1161.59 -337.245L1106.35 -322.431L1109.4 -311.057L1153.26 -322.821L1165.01 -278.951Z" fill="url(#paint79_linear_460_26052)"/>
</g>
<defs>
<linearGradient id="paint0_linear_460_26052" x1="1129.98" y1="-456.869" x2="586.501" y2="508.969" gradientUnits="userSpaceOnUse">
<stop stop-color="#BDDBFF" stop-opacity="0.56"/>
<stop offset="1" stop-color="#0072DB" stop-opacity="0"/>
</linearGradient>
<linearGradient id="paint1_linear_460_26052" x1="1129.98" y1="-456.869" x2="586.501" y2="508.969" gradientUnits="userSpaceOnUse">
<stop stop-color="#BDDBFF" stop-opacity="0.56"/>
<stop offset="1" stop-color="#0072DB" stop-opacity="0"/>
</linearGradient>
<linearGradient id="paint2_linear_460_26052" x1="1129.98" y1="-456.869" x2="586.501" y2="508.969" gradientUnits="userSpaceOnUse">
<stop stop-color="#BDDBFF" stop-opacity="0.56"/>
<stop offset="1" stop-color="#0072DB" stop-opacity="0"/>
</linearGradient>
<linearGradient id="paint3_linear_460_26052" x1="1129.98" y1="-456.869" x2="586.501" y2="508.969" gradientUnits="userSpaceOnUse">
<stop stop-color="#BDDBFF" stop-opacity="0.56"/>
<stop offset="1" stop-color="#0072DB" stop-opacity="0"/>
</linearGradient>
<linearGradient id="paint4_linear_460_26052" x1="1129.98" y1="-456.869" x2="586.501" y2="508.969" gradientUnits="userSpaceOnUse">
<stop stop-color="#BDDBFF" stop-opacity="0.56"/>
<stop offset="1" stop-color="#0072DB" stop-opacity="0"/>
</linearGradient>
<linearGradient id="paint5_linear_460_26052" x1="1129.98" y1="-456.869" x2="586.501" y2="508.969" gradientUnits="userSpaceOnUse">
<stop stop-color="#BDDBFF" stop-opacity="0.56"/>
<stop offset="1" stop-color="#0072DB" stop-opacity="0"/>
</linearGradient>
<linearGradient id="paint6_linear_460_26052" x1="1129.98" y1="-456.869" x2="586.501" y2="508.969" gradientUnits="userSpaceOnUse">
<stop stop-color="#BDDBFF" stop-opacity="0.56"/>
<stop offset="1" stop-color="#0072DB" stop-opacity="0"/>
</linearGradient>
<linearGradient id="paint7_linear_460_26052" x1="1129.98" y1="-456.869" x2="586.501" y2="508.969" gradientUnits="userSpaceOnUse">
<stop stop-color="#BDDBFF" stop-opacity="0.56"/>
<stop offset="1" stop-color="#0072DB" stop-opacity="0"/>
</linearGradient>
<linearGradient id="paint8_linear_460_26052" x1="1129.98" y1="-456.869" x2="586.501" y2="508.969" gradientUnits="userSpaceOnUse">
<stop stop-color="#BDDBFF" stop-opacity="0.56"/>
<stop offset="1" stop-color="#0072DB" stop-opacity="0"/>
</linearGradient>
<linearGradient id="paint9_linear_460_26052" x1="1129.98" y1="-456.869" x2="586.501" y2="508.969" gradientUnits="userSpaceOnUse">
<stop stop-color="#BDDBFF" stop-opacity="0.56"/>
<stop offset="1" stop-color="#0072DB" stop-opacity="0"/>
</linearGradient>
<linearGradient id="paint10_linear_460_26052" x1="1129.98" y1="-456.869" x2="586.501" y2="508.969" gradientUnits="userSpaceOnUse">
<stop stop-color="#BDDBFF" stop-opacity="0.56"/>
<stop offset="1" stop-color="#0072DB" stop-opacity="0"/>
</linearGradient>
<linearGradient id="paint11_linear_460_26052" x1="1129.98" y1="-456.869" x2="586.501" y2="508.969" gradientUnits="userSpaceOnUse">
<stop stop-color="#BDDBFF" stop-opacity="0.56"/>
<stop offset="1" stop-color="#0072DB" stop-opacity="0"/>
</linearGradient>
<linearGradient id="paint12_linear_460_26052" x1="1129.98" y1="-456.869" x2="586.501" y2="508.969" gradientUnits="userSpaceOnUse">
<stop stop-color="#BDDBFF" stop-opacity="0.56"/>
<stop offset="1" stop-color="#0072DB" stop-opacity="0"/>
</linearGradient>
<linearGradient id="paint13_linear_460_26052" x1="1129.98" y1="-456.869" x2="586.501" y2="508.969" gradientUnits="userSpaceOnUse">
<stop stop-color="#BDDBFF" stop-opacity="0.56"/>
<stop offset="1" stop-color="#0072DB" stop-opacity="0"/>
</linearGradient>
<linearGradient id="paint14_linear_460_26052" x1="1129.98" y1="-456.869" x2="586.501" y2="508.969" gradientUnits="userSpaceOnUse">
<stop stop-color="#BDDBFF" stop-opacity="0.56"/>
<stop offset="1" stop-color="#0072DB" stop-opacity="0"/>
</linearGradient>
<linearGradient id="paint15_linear_460_26052" x1="1129.98" y1="-456.869" x2="586.501" y2="508.969" gradientUnits="userSpaceOnUse">
<stop stop-color="#BDDBFF" stop-opacity="0.56"/>
<stop offset="1" stop-color="#0072DB" stop-opacity="0"/>
</linearGradient>
<linearGradient id="paint16_linear_460_26052" x1="1129.98" y1="-456.869" x2="586.501" y2="508.969" gradientUnits="userSpaceOnUse">
<stop stop-color="#BDDBFF" stop-opacity="0.56"/>
<stop offset="1" stop-color="#0072DB" stop-opacity="0"/>
</linearGradient>
<linearGradient id="paint17_linear_460_26052" x1="1129.98" y1="-456.869" x2="586.501" y2="508.969" gradientUnits="userSpaceOnUse">
<stop stop-color="#BDDBFF" stop-opacity="0.56"/>
<stop offset="1" stop-color="#0072DB" stop-opacity="0"/>
</linearGradient>
<linearGradient id="paint18_linear_460_26052" x1="1129.98" y1="-456.869" x2="586.501" y2="508.969" gradientUnits="userSpaceOnUse">
<stop stop-color="#BDDBFF" stop-opacity="0.56"/>
<stop offset="1" stop-color="#0072DB" stop-opacity="0"/>
</linearGradient>
<linearGradient id="paint19_linear_460_26052" x1="1129.98" y1="-456.869" x2="586.501" y2="508.969" gradientUnits="userSpaceOnUse">
<stop stop-color="#BDDBFF" stop-opacity="0.56"/>
<stop offset="1" stop-color="#0072DB" stop-opacity="0"/>
</linearGradient>
<linearGradient id="paint20_linear_460_26052" x1="1129.98" y1="-456.869" x2="586.501" y2="508.969" gradientUnits="userSpaceOnUse">
<stop stop-color="#BDDBFF" stop-opacity="0.56"/>
<stop offset="1" stop-color="#0072DB" stop-opacity="0"/>
</linearGradient>
<linearGradient id="paint21_linear_460_26052" x1="1129.98" y1="-456.869" x2="586.501" y2="508.969" gradientUnits="userSpaceOnUse">
<stop stop-color="#BDDBFF" stop-opacity="0.56"/>
<stop offset="1" stop-color="#0072DB" stop-opacity="0"/>
</linearGradient>
<linearGradient id="paint22_linear_460_26052" x1="1129.98" y1="-456.869" x2="586.501" y2="508.969" gradientUnits="userSpaceOnUse">
<stop stop-color="#BDDBFF" stop-opacity="0.56"/>
<stop offset="1" stop-color="#0072DB" stop-opacity="0"/>
</linearGradient>
<linearGradient id="paint23_linear_460_26052" x1="1129.98" y1="-456.869" x2="586.501" y2="508.969" gradientUnits="userSpaceOnUse">
<stop stop-color="#BDDBFF" stop-opacity="0.56"/>
<stop offset="1" stop-color="#0072DB" stop-opacity="0"/>
</linearGradient>
<linearGradient id="paint24_linear_460_26052" x1="1129.98" y1="-456.869" x2="586.501" y2="508.969" gradientUnits="userSpaceOnUse">
<stop stop-color="#BDDBFF" stop-opacity="0.56"/>
<stop offset="1" stop-color="#0072DB" stop-opacity="0"/>
</linearGradient>
<linearGradient id="paint25_linear_460_26052" x1="1129.98" y1="-456.869" x2="586.501" y2="508.969" gradientUnits="userSpaceOnUse">
<stop stop-color="#BDDBFF" stop-opacity="0.56"/>
<stop offset="1" stop-color="#0072DB" stop-opacity="0"/>
</linearGradient>
<linearGradient id="paint26_linear_460_26052" x1="1129.98" y1="-456.869" x2="586.501" y2="508.969" gradientUnits="userSpaceOnUse">
<stop stop-color="#BDDBFF" stop-opacity="0.56"/>
<stop offset="1" stop-color="#0072DB" stop-opacity="0"/>
</linearGradient>
<linearGradient id="paint27_linear_460_26052" x1="1129.98" y1="-456.869" x2="586.501" y2="508.969" gradientUnits="userSpaceOnUse">
<stop stop-color="#BDDBFF" stop-opacity="0.56"/>
<stop offset="1" stop-color="#0072DB" stop-opacity="0"/>
</linearGradient>
<linearGradient id="paint28_linear_460_26052" x1="1129.98" y1="-456.869" x2="586.501" y2="508.969" gradientUnits="userSpaceOnUse">
<stop stop-color="#BDDBFF" stop-opacity="0.56"/>
<stop offset="1" stop-color="#0072DB" stop-opacity="0"/>
</linearGradient>
<linearGradient id="paint29_linear_460_26052" x1="1129.98" y1="-456.869" x2="586.501" y2="508.969" gradientUnits="userSpaceOnUse">
<stop stop-color="#BDDBFF" stop-opacity="0.56"/>
<stop offset="1" stop-color="#0072DB" stop-opacity="0"/>
</linearGradient>
<linearGradient id="paint30_linear_460_26052" x1="1129.98" y1="-456.869" x2="586.501" y2="508.969" gradientUnits="userSpaceOnUse">
<stop stop-color="#BDDBFF" stop-opacity="0.56"/>
<stop offset="1" stop-color="#0072DB" stop-opacity="0"/>
</linearGradient>
<linearGradient id="paint31_linear_460_26052" x1="1129.98" y1="-456.869" x2="586.501" y2="508.969" gradientUnits="userSpaceOnUse">
<stop stop-color="#BDDBFF" stop-opacity="0.56"/>
<stop offset="1" stop-color="#0072DB" stop-opacity="0"/>
</linearGradient>
<linearGradient id="paint32_linear_460_26052" x1="1129.98" y1="-456.869" x2="586.501" y2="508.969" gradientUnits="userSpaceOnUse">
<stop stop-color="#BDDBFF" stop-opacity="0.56"/>
<stop offset="1" stop-color="#0072DB" stop-opacity="0"/>
</linearGradient>
<linearGradient id="paint33_linear_460_26052" x1="1129.98" y1="-456.869" x2="586.501" y2="508.969" gradientUnits="userSpaceOnUse">
<stop stop-color="#BDDBFF" stop-opacity="0.56"/>
<stop offset="1" stop-color="#0072DB" stop-opacity="0"/>
</linearGradient>
<linearGradient id="paint34_linear_460_26052" x1="1129.98" y1="-456.869" x2="586.501" y2="508.969" gradientUnits="userSpaceOnUse">
<stop stop-color="#BDDBFF" stop-opacity="0.56"/>
<stop offset="1" stop-color="#0072DB" stop-opacity="0"/>
</linearGradient>
<linearGradient id="paint35_linear_460_26052" x1="1129.98" y1="-456.869" x2="586.501" y2="508.969" gradientUnits="userSpaceOnUse">
<stop stop-color="#BDDBFF" stop-opacity="0.56"/>
<stop offset="1" stop-color="#0072DB" stop-opacity="0"/>
</linearGradient>
<linearGradient id="paint36_linear_460_26052" x1="1129.98" y1="-456.869" x2="586.501" y2="508.969" gradientUnits="userSpaceOnUse">
<stop stop-color="#BDDBFF" stop-opacity="0.56"/>
<stop offset="1" stop-color="#0072DB" stop-opacity="0"/>
</linearGradient>
<linearGradient id="paint37_linear_460_26052" x1="1129.98" y1="-456.869" x2="586.501" y2="508.969" gradientUnits="userSpaceOnUse">
<stop stop-color="#BDDBFF" stop-opacity="0.56"/>
<stop offset="1" stop-color="#0072DB" stop-opacity="0"/>
</linearGradient>
<linearGradient id="paint38_linear_460_26052" x1="1129.98" y1="-456.869" x2="586.501" y2="508.969" gradientUnits="userSpaceOnUse">
<stop stop-color="#BDDBFF" stop-opacity="0.56"/>
<stop offset="1" stop-color="#0072DB" stop-opacity="0"/>
</linearGradient>
<linearGradient id="paint39_linear_460_26052" x1="1129.98" y1="-456.869" x2="586.501" y2="508.969" gradientUnits="userSpaceOnUse">
<stop stop-color="#BDDBFF" stop-opacity="0.56"/>
<stop offset="1" stop-color="#0072DB" stop-opacity="0"/>
</linearGradient>
<linearGradient id="paint40_linear_460_26052" x1="1129.98" y1="-456.869" x2="586.501" y2="508.969" gradientUnits="userSpaceOnUse">
<stop stop-color="#BDDBFF" stop-opacity="0.56"/>
<stop offset="1" stop-color="#0072DB" stop-opacity="0"/>
</linearGradient>
<linearGradient id="paint41_linear_460_26052" x1="1129.98" y1="-456.869" x2="586.501" y2="508.969" gradientUnits="userSpaceOnUse">
<stop stop-color="#BDDBFF" stop-opacity="0.56"/>
<stop offset="1" stop-color="#0072DB" stop-opacity="0"/>
</linearGradient>
<linearGradient id="paint42_linear_460_26052" x1="1129.98" y1="-456.869" x2="586.501" y2="508.969" gradientUnits="userSpaceOnUse">
<stop stop-color="#BDDBFF" stop-opacity="0.56"/>
<stop offset="1" stop-color="#0072DB" stop-opacity="0"/>
</linearGradient>
<linearGradient id="paint43_linear_460_26052" x1="1129.98" y1="-456.869" x2="586.501" y2="508.969" gradientUnits="userSpaceOnUse">
<stop stop-color="#BDDBFF" stop-opacity="0.56"/>
<stop offset="1" stop-color="#0072DB" stop-opacity="0"/>
</linearGradient>
<linearGradient id="paint44_linear_460_26052" x1="1129.98" y1="-456.869" x2="586.501" y2="508.969" gradientUnits="userSpaceOnUse">
<stop stop-color="#BDDBFF" stop-opacity="0.56"/>
<stop offset="1" stop-color="#0072DB" stop-opacity="0"/>
</linearGradient>
<linearGradient id="paint45_linear_460_26052" x1="1129.98" y1="-456.869" x2="586.501" y2="508.969" gradientUnits="userSpaceOnUse">
<stop stop-color="#BDDBFF" stop-opacity="0.56"/>
<stop offset="1" stop-color="#0072DB" stop-opacity="0"/>
</linearGradient>
<linearGradient id="paint46_linear_460_26052" x1="1129.98" y1="-456.869" x2="586.501" y2="508.969" gradientUnits="userSpaceOnUse">
<stop stop-color="#BDDBFF" stop-opacity="0.56"/>
<stop offset="1" stop-color="#0072DB" stop-opacity="0"/>
</linearGradient>
<linearGradient id="paint47_linear_460_26052" x1="1129.98" y1="-456.869" x2="586.501" y2="508.969" gradientUnits="userSpaceOnUse">
<stop stop-color="#BDDBFF" stop-opacity="0.56"/>
<stop offset="1" stop-color="#0072DB" stop-opacity="0"/>
</linearGradient>
<linearGradient id="paint48_linear_460_26052" x1="1129.98" y1="-456.869" x2="586.501" y2="508.969" gradientUnits="userSpaceOnUse">
<stop stop-color="#BDDBFF" stop-opacity="0.56"/>
<stop offset="1" stop-color="#0072DB" stop-opacity="0"/>
</linearGradient>
<linearGradient id="paint49_linear_460_26052" x1="1129.98" y1="-456.869" x2="586.501" y2="508.969" gradientUnits="userSpaceOnUse">
<stop stop-color="#BDDBFF" stop-opacity="0.56"/>
<stop offset="1" stop-color="#0072DB" stop-opacity="0"/>
</linearGradient>
<linearGradient id="paint50_linear_460_26052" x1="1129.98" y1="-456.869" x2="586.501" y2="508.969" gradientUnits="userSpaceOnUse">
<stop stop-color="#BDDBFF" stop-opacity="0.56"/>
<stop offset="1" stop-color="#0072DB" stop-opacity="0"/>
</linearGradient>
<linearGradient id="paint51_linear_460_26052" x1="1129.98" y1="-456.869" x2="586.501" y2="508.969" gradientUnits="userSpaceOnUse">
<stop stop-color="#BDDBFF" stop-opacity="0.56"/>
<stop offset="1" stop-color="#0072DB" stop-opacity="0"/>
</linearGradient>
<linearGradient id="paint52_linear_460_26052" x1="1129.98" y1="-456.869" x2="586.501" y2="508.969" gradientUnits="userSpaceOnUse">
<stop stop-color="#BDDBFF" stop-opacity="0.56"/>
<stop offset="1" stop-color="#0072DB" stop-opacity="0"/>
</linearGradient>
<linearGradient id="paint53_linear_460_26052" x1="1129.98" y1="-456.869" x2="586.501" y2="508.969" gradientUnits="userSpaceOnUse">
<stop stop-color="#BDDBFF" stop-opacity="0.56"/>
<stop offset="1" stop-color="#0072DB" stop-opacity="0"/>
</linearGradient>
<linearGradient id="paint54_linear_460_26052" x1="1129.98" y1="-456.869" x2="586.501" y2="508.969" gradientUnits="userSpaceOnUse">
<stop stop-color="#BDDBFF" stop-opacity="0.56"/>
<stop offset="1" stop-color="#0072DB" stop-opacity="0"/>
</linearGradient>
<linearGradient id="paint55_linear_460_26052" x1="1129.98" y1="-456.869" x2="586.501" y2="508.969" gradientUnits="userSpaceOnUse">
<stop stop-color="#BDDBFF" stop-opacity="0.56"/>
<stop offset="1" stop-color="#0072DB" stop-opacity="0"/>
</linearGradient>
<linearGradient id="paint56_linear_460_26052" x1="1129.98" y1="-456.869" x2="586.501" y2="508.969" gradientUnits="userSpaceOnUse">
<stop stop-color="#BDDBFF" stop-opacity="0.56"/>
<stop offset="1" stop-color="#0072DB" stop-opacity="0"/>
</linearGradient>
<linearGradient id="paint57_linear_460_26052" x1="1129.98" y1="-456.869" x2="586.501" y2="508.969" gradientUnits="userSpaceOnUse">
<stop stop-color="#BDDBFF" stop-opacity="0.56"/>
<stop offset="1" stop-color="#0072DB" stop-opacity="0"/>
</linearGradient>
<linearGradient id="paint58_linear_460_26052" x1="1129.98" y1="-456.869" x2="586.501" y2="508.969" gradientUnits="userSpaceOnUse">
<stop stop-color="#BDDBFF" stop-opacity="0.56"/>
<stop offset="1" stop-color="#0072DB" stop-opacity="0"/>
</linearGradient>
<linearGradient id="paint59_linear_460_26052" x1="1129.98" y1="-456.869" x2="586.501" y2="508.969" gradientUnits="userSpaceOnUse">
<stop stop-color="#BDDBFF" stop-opacity="0.56"/>
<stop offset="1" stop-color="#0072DB" stop-opacity="0"/>
</linearGradient>
<linearGradient id="paint60_linear_460_26052" x1="1129.98" y1="-456.869" x2="586.501" y2="508.969" gradientUnits="userSpaceOnUse">
<stop stop-color="#BDDBFF" stop-opacity="0.56"/>
<stop offset="1" stop-color="#0072DB" stop-opacity="0"/>
</linearGradient>
<linearGradient id="paint61_linear_460_26052" x1="1129.98" y1="-456.869" x2="586.501" y2="508.969" gradientUnits="userSpaceOnUse">
<stop stop-color="#BDDBFF" stop-opacity="0.56"/>
<stop offset="1" stop-color="#0072DB" stop-opacity="0"/>
</linearGradient>
<linearGradient id="paint62_linear_460_26052" x1="1129.98" y1="-456.869" x2="586.501" y2="508.969" gradientUnits="userSpaceOnUse">
<stop stop-color="#BDDBFF" stop-opacity="0.56"/>
<stop offset="1" stop-color="#0072DB" stop-opacity="0"/>
</linearGradient>
<linearGradient id="paint63_linear_460_26052" x1="1129.98" y1="-456.869" x2="586.501" y2="508.969" gradientUnits="userSpaceOnUse">
<stop stop-color="#BDDBFF" stop-opacity="0.56"/>
<stop offset="1" stop-color="#0072DB" stop-opacity="0"/>
</linearGradient>
<linearGradient id="paint64_linear_460_26052" x1="1129.98" y1="-456.869" x2="586.501" y2="508.969" gradientUnits="userSpaceOnUse">
<stop stop-color="#BDDBFF" stop-opacity="0.56"/>
<stop offset="1" stop-color="#0072DB" stop-opacity="0"/>
</linearGradient>
<linearGradient id="paint65_linear_460_26052" x1="1129.98" y1="-456.869" x2="586.501" y2="508.969" gradientUnits="userSpaceOnUse">
<stop stop-color="#BDDBFF" stop-opacity="0.56"/>
<stop offset="1" stop-color="#0072DB" stop-opacity="0"/>
</linearGradient>
<linearGradient id="paint66_linear_460_26052" x1="1129.98" y1="-456.869" x2="586.501" y2="508.969" gradientUnits="userSpaceOnUse">
<stop stop-color="#BDDBFF" stop-opacity="0.56"/>
<stop offset="1" stop-color="#0072DB" stop-opacity="0"/>
</linearGradient>
<linearGradient id="paint67_linear_460_26052" x1="1129.98" y1="-456.869" x2="586.501" y2="508.969" gradientUnits="userSpaceOnUse">
<stop stop-color="#BDDBFF" stop-opacity="0.56"/>
<stop offset="1" stop-color="#0072DB" stop-opacity="0"/>
</linearGradient>
<linearGradient id="paint68_linear_460_26052" x1="1129.98" y1="-456.869" x2="586.501" y2="508.969" gradientUnits="userSpaceOnUse">
<stop stop-color="#BDDBFF" stop-opacity="0.56"/>
<stop offset="1" stop-color="#0072DB" stop-opacity="0"/>
</linearGradient>
<linearGradient id="paint69_linear_460_26052" x1="1129.98" y1="-456.869" x2="586.501" y2="508.969" gradientUnits="userSpaceOnUse">
<stop stop-color="#BDDBFF" stop-opacity="0.56"/>
<stop offset="1" stop-color="#0072DB" stop-opacity="0"/>
</linearGradient>
<linearGradient id="paint70_linear_460_26052" x1="1129.98" y1="-456.869" x2="586.501" y2="508.969" gradientUnits="userSpaceOnUse">
<stop stop-color="#BDDBFF" stop-opacity="0.56"/>
<stop offset="1" stop-color="#0072DB" stop-opacity="0"/>
</linearGradient>
<linearGradient id="paint71_linear_460_26052" x1="1129.98" y1="-456.869" x2="586.501" y2="508.969" gradientUnits="userSpaceOnUse">
<stop stop-color="#BDDBFF" stop-opacity="0.56"/>
<stop offset="1" stop-color="#0072DB" stop-opacity="0"/>
</linearGradient>
<linearGradient id="paint72_linear_460_26052" x1="1129.98" y1="-456.869" x2="586.501" y2="508.969" gradientUnits="userSpaceOnUse">
<stop stop-color="#BDDBFF" stop-opacity="0.56"/>
<stop offset="1" stop-color="#0072DB" stop-opacity="0"/>
</linearGradient>
<linearGradient id="paint73_linear_460_26052" x1="1129.98" y1="-456.869" x2="586.501" y2="508.969" gradientUnits="userSpaceOnUse">
<stop stop-color="#BDDBFF" stop-opacity="0.56"/>
<stop offset="1" stop-color="#0072DB" stop-opacity="0"/>
</linearGradient>
<linearGradient id="paint74_linear_460_26052" x1="1129.98" y1="-456.869" x2="586.501" y2="508.969" gradientUnits="userSpaceOnUse">
<stop stop-color="#BDDBFF" stop-opacity="0.56"/>
<stop offset="1" stop-color="#0072DB" stop-opacity="0"/>
</linearGradient>
<linearGradient id="paint75_linear_460_26052" x1="1129.98" y1="-456.869" x2="586.501" y2="508.969" gradientUnits="userSpaceOnUse">
<stop stop-color="#BDDBFF" stop-opacity="0.56"/>
<stop offset="1" stop-color="#0072DB" stop-opacity="0"/>
</linearGradient>
<linearGradient id="paint76_linear_460_26052" x1="1129.98" y1="-456.869" x2="586.501" y2="508.969" gradientUnits="userSpaceOnUse">
<stop stop-color="#BDDBFF" stop-opacity="0.56"/>
<stop offset="1" stop-color="#0072DB" stop-opacity="0"/>
</linearGradient>
<linearGradient id="paint77_linear_460_26052" x1="1129.98" y1="-456.869" x2="586.501" y2="508.969" gradientUnits="userSpaceOnUse">
<stop stop-color="#BDDBFF" stop-opacity="0.56"/>
<stop offset="1" stop-color="#0072DB" stop-opacity="0"/>
</linearGradient>
<linearGradient id="paint78_linear_460_26052" x1="1129.98" y1="-456.869" x2="586.501" y2="508.969" gradientUnits="userSpaceOnUse">
<stop stop-color="#BDDBFF" stop-opacity="0.56"/>
<stop offset="1" stop-color="#0072DB" stop-opacity="0"/>
</linearGradient>
<linearGradient id="paint79_linear_460_26052" x1="1129.98" y1="-456.869" x2="586.501" y2="508.969" gradientUnits="userSpaceOnUse">
<stop stop-color="#BDDBFF" stop-opacity="0.56"/>
<stop offset="1" stop-color="#0072DB" stop-opacity="0"/>
</linearGradient>
<clipPath id="clip0_460_26052">
<rect width="873" height="596" fill="white"/>
</clipPath>
</defs>
</svg>
