<svg width="870" height="536" viewBox="0 0 870 536" fill="none" xmlns="http://www.w3.org/2000/svg">
<g clip-path="url(#clip0_460_26047)">
<path d="M40.2877 0.796952L28.9154 3.84692L43.705 59.0911L98.9424 44.2771L95.8976 32.9033L52.0326 44.6674L40.2877 0.796952Z" fill="url(#paint0_linear_460_26047)"/>
<path d="M296.609 148.784L285.237 151.834L300.026 207.078L355.264 192.264L352.219 180.89L308.354 192.655L296.609 148.784Z" fill="url(#paint1_linear_460_26047)"/>
<path d="M552.93 296.771L541.558 299.821L556.348 355.065L611.585 340.251L608.54 328.878L564.675 340.642L552.93 296.771Z" fill="url(#paint2_linear_460_26047)"/>
<path d="M809.252 444.758L797.879 447.808L812.669 503.053L867.906 488.239L864.862 476.865L820.996 488.629L809.252 444.758Z" fill="url(#paint3_linear_460_26047)"/>
<path d="M168.448 74.7905L157.076 77.8405L171.866 133.085L227.103 118.271L224.058 106.897L180.193 118.661L168.448 74.7905Z" fill="url(#paint4_linear_460_26047)"/>
<path d="M681.091 370.765L669.719 373.815L684.508 429.059L739.746 414.245L736.701 402.871L692.836 414.635L681.091 370.765Z" fill="url(#paint5_linear_460_26047)"/>
<path d="M220.059 281.373L208.687 284.423L223.476 339.667L278.714 324.853L275.669 313.479L231.804 325.243L220.059 281.373Z" fill="url(#paint6_linear_460_26047)"/>
<path d="M476.38 429.36L465.008 432.41L479.798 487.654L535.035 472.84L531.99 461.466L488.125 473.23L476.38 429.36Z" fill="url(#paint7_linear_460_26047)"/>
<path d="M348.22 355.366L336.847 358.416L351.637 413.66L406.874 398.846L403.83 387.473L359.965 399.237L348.22 355.366Z" fill="url(#paint8_linear_460_26047)"/>
<path d="M28.2803 465.837L25.2354 454.463L80.4731 439.649L95.2624 494.893L83.8901 497.943L72.1456 454.073L28.2803 465.837Z" fill="url(#paint9_linear_460_26047)"/>
<path d="M15.3483 339.968L3.97595 343.018L18.7656 398.262L74.003 383.448L70.9582 372.074L27.0932 383.838L15.3483 339.968Z" fill="url(#paint10_linear_460_26047)"/>
<path d="M232.984 407.255L229.939 395.881L285.177 381.067L299.966 436.311L288.593 439.361L276.849 395.491L232.984 407.255Z" fill="url(#paint11_linear_460_26047)"/>
<path d="M104.823 333.261L101.778 321.887L157.016 307.073L171.805 362.317L160.433 365.367L148.688 321.497L104.823 333.261Z" fill="url(#paint12_linear_460_26047)"/>
<path d="M361.144 481.248L358.099 469.874L413.337 455.061L428.127 510.305L416.754 513.354L405.01 469.484L361.144 481.248Z" fill="url(#paint13_linear_460_26047)"/>
<path d="M53.2051 126.691L50.1602 115.318L105.398 100.504L120.187 155.748L108.815 158.798L97.0704 114.928L53.2051 126.691Z" fill="url(#paint14_linear_460_26047)"/>
<path d="M309.526 274.679L306.482 263.305L361.719 248.491L376.509 303.735L365.136 306.785L353.392 262.915L309.526 274.679Z" fill="url(#paint15_linear_460_26047)"/>
<path d="M181.366 200.685L178.321 189.311L233.559 174.497L248.348 229.741L236.976 232.791L225.231 188.921L181.366 200.685Z" fill="url(#paint16_linear_460_26047)"/>
<path d="M437.687 348.672L434.642 337.298L489.88 322.485L504.669 377.729L493.297 380.779L481.552 336.908L437.687 348.672Z" fill="url(#paint17_linear_460_26047)"/>
<path d="M694.008 496.659L690.964 485.286L746.201 470.472L760.991 525.716L749.618 528.766L737.874 484.896L694.008 496.659Z" fill="url(#paint18_linear_460_26047)"/>
<path d="M898.712 438.077L895.667 426.703L950.905 411.889L965.694 467.133L954.322 470.183L942.577 426.313L898.712 438.077Z" fill="url(#paint19_linear_460_26047)"/>
<path d="M257.908 68.1092L254.864 56.7354L310.101 41.9215L324.891 97.1655L313.518 100.216L301.774 56.3452L257.908 68.1092Z" fill="url(#paint20_linear_460_26047)"/>
<path d="M514.23 216.096L511.185 204.723L566.423 189.909L581.212 245.153L569.84 248.203L558.095 204.332L514.23 216.096Z" fill="url(#paint21_linear_460_26047)"/>
<path d="M770.551 364.084L767.506 352.71L822.744 337.896L837.533 393.14L826.161 396.19L814.416 352.32L770.551 364.084Z" fill="url(#paint22_linear_460_26047)"/>
</g>
<defs>
<linearGradient id="paint0_linear_460_26047" x1="-255.823" y1="1048.24" x2="287.654" y2="82.4015" gradientUnits="userSpaceOnUse">
<stop stop-color="#BDDBFF" stop-opacity="0.56"/>
<stop offset="1" stop-color="#0072DB" stop-opacity="0"/>
</linearGradient>
<linearGradient id="paint1_linear_460_26047" x1="-255.823" y1="1048.24" x2="287.654" y2="82.4015" gradientUnits="userSpaceOnUse">
<stop stop-color="#BDDBFF" stop-opacity="0.56"/>
<stop offset="1" stop-color="#0072DB" stop-opacity="0"/>
</linearGradient>
<linearGradient id="paint2_linear_460_26047" x1="-255.823" y1="1048.24" x2="287.654" y2="82.4015" gradientUnits="userSpaceOnUse">
<stop stop-color="#BDDBFF" stop-opacity="0.56"/>
<stop offset="1" stop-color="#0072DB" stop-opacity="0"/>
</linearGradient>
<linearGradient id="paint3_linear_460_26047" x1="-255.823" y1="1048.24" x2="287.654" y2="82.4015" gradientUnits="userSpaceOnUse">
<stop stop-color="#BDDBFF" stop-opacity="0.56"/>
<stop offset="1" stop-color="#0072DB" stop-opacity="0"/>
</linearGradient>
<linearGradient id="paint4_linear_460_26047" x1="-255.823" y1="1048.24" x2="287.654" y2="82.4015" gradientUnits="userSpaceOnUse">
<stop stop-color="#BDDBFF" stop-opacity="0.56"/>
<stop offset="1" stop-color="#0072DB" stop-opacity="0"/>
</linearGradient>
<linearGradient id="paint5_linear_460_26047" x1="-255.823" y1="1048.24" x2="287.654" y2="82.4015" gradientUnits="userSpaceOnUse">
<stop stop-color="#BDDBFF" stop-opacity="0.56"/>
<stop offset="1" stop-color="#0072DB" stop-opacity="0"/>
</linearGradient>
<linearGradient id="paint6_linear_460_26047" x1="-255.823" y1="1048.24" x2="287.654" y2="82.4015" gradientUnits="userSpaceOnUse">
<stop stop-color="#BDDBFF" stop-opacity="0.56"/>
<stop offset="1" stop-color="#0072DB" stop-opacity="0"/>
</linearGradient>
<linearGradient id="paint7_linear_460_26047" x1="-255.823" y1="1048.24" x2="287.654" y2="82.4015" gradientUnits="userSpaceOnUse">
<stop stop-color="#BDDBFF" stop-opacity="0.56"/>
<stop offset="1" stop-color="#0072DB" stop-opacity="0"/>
</linearGradient>
<linearGradient id="paint8_linear_460_26047" x1="-255.823" y1="1048.24" x2="287.654" y2="82.4015" gradientUnits="userSpaceOnUse">
<stop stop-color="#BDDBFF" stop-opacity="0.56"/>
<stop offset="1" stop-color="#0072DB" stop-opacity="0"/>
</linearGradient>
<linearGradient id="paint9_linear_460_26047" x1="-255.823" y1="1048.24" x2="287.654" y2="82.4015" gradientUnits="userSpaceOnUse">
<stop stop-color="#BDDBFF" stop-opacity="0.56"/>
<stop offset="1" stop-color="#0072DB" stop-opacity="0"/>
</linearGradient>
<linearGradient id="paint10_linear_460_26047" x1="-255.823" y1="1048.24" x2="287.654" y2="82.4015" gradientUnits="userSpaceOnUse">
<stop stop-color="#BDDBFF" stop-opacity="0.56"/>
<stop offset="1" stop-color="#0072DB" stop-opacity="0"/>
</linearGradient>
<linearGradient id="paint11_linear_460_26047" x1="-255.823" y1="1048.24" x2="287.654" y2="82.4015" gradientUnits="userSpaceOnUse">
<stop stop-color="#BDDBFF" stop-opacity="0.56"/>
<stop offset="1" stop-color="#0072DB" stop-opacity="0"/>
</linearGradient>
<linearGradient id="paint12_linear_460_26047" x1="-255.823" y1="1048.24" x2="287.654" y2="82.4015" gradientUnits="userSpaceOnUse">
<stop stop-color="#BDDBFF" stop-opacity="0.56"/>
<stop offset="1" stop-color="#0072DB" stop-opacity="0"/>
</linearGradient>
<linearGradient id="paint13_linear_460_26047" x1="-255.823" y1="1048.24" x2="287.654" y2="82.4015" gradientUnits="userSpaceOnUse">
<stop stop-color="#BDDBFF" stop-opacity="0.56"/>
<stop offset="1" stop-color="#0072DB" stop-opacity="0"/>
</linearGradient>
<linearGradient id="paint14_linear_460_26047" x1="-255.823" y1="1048.24" x2="287.654" y2="82.4015" gradientUnits="userSpaceOnUse">
<stop stop-color="#BDDBFF" stop-opacity="0.56"/>
<stop offset="1" stop-color="#0072DB" stop-opacity="0"/>
</linearGradient>
<linearGradient id="paint15_linear_460_26047" x1="-255.823" y1="1048.24" x2="287.654" y2="82.4015" gradientUnits="userSpaceOnUse">
<stop stop-color="#BDDBFF" stop-opacity="0.56"/>
<stop offset="1" stop-color="#0072DB" stop-opacity="0"/>
</linearGradient>
<linearGradient id="paint16_linear_460_26047" x1="-255.823" y1="1048.24" x2="287.654" y2="82.4015" gradientUnits="userSpaceOnUse">
<stop stop-color="#BDDBFF" stop-opacity="0.56"/>
<stop offset="1" stop-color="#0072DB" stop-opacity="0"/>
</linearGradient>
<linearGradient id="paint17_linear_460_26047" x1="-255.823" y1="1048.24" x2="287.654" y2="82.4015" gradientUnits="userSpaceOnUse">
<stop stop-color="#BDDBFF" stop-opacity="0.56"/>
<stop offset="1" stop-color="#0072DB" stop-opacity="0"/>
</linearGradient>
<linearGradient id="paint18_linear_460_26047" x1="-255.823" y1="1048.24" x2="287.654" y2="82.4015" gradientUnits="userSpaceOnUse">
<stop stop-color="#BDDBFF" stop-opacity="0.56"/>
<stop offset="1" stop-color="#0072DB" stop-opacity="0"/>
</linearGradient>
<linearGradient id="paint19_linear_460_26047" x1="-255.823" y1="1048.24" x2="287.654" y2="82.4015" gradientUnits="userSpaceOnUse">
<stop stop-color="#BDDBFF" stop-opacity="0.56"/>
<stop offset="1" stop-color="#0072DB" stop-opacity="0"/>
</linearGradient>
<linearGradient id="paint20_linear_460_26047" x1="-255.823" y1="1048.24" x2="287.654" y2="82.4015" gradientUnits="userSpaceOnUse">
<stop stop-color="#BDDBFF" stop-opacity="0.56"/>
<stop offset="1" stop-color="#0072DB" stop-opacity="0"/>
</linearGradient>
<linearGradient id="paint21_linear_460_26047" x1="-255.823" y1="1048.24" x2="287.654" y2="82.4015" gradientUnits="userSpaceOnUse">
<stop stop-color="#BDDBFF" stop-opacity="0.56"/>
<stop offset="1" stop-color="#0072DB" stop-opacity="0"/>
</linearGradient>
<linearGradient id="paint22_linear_460_26047" x1="-255.823" y1="1048.24" x2="287.654" y2="82.4015" gradientUnits="userSpaceOnUse">
<stop stop-color="#BDDBFF" stop-opacity="0.56"/>
<stop offset="1" stop-color="#0072DB" stop-opacity="0"/>
</linearGradient>
<clipPath id="clip0_460_26047">
<rect width="870" height="536" fill="white"/>
</clipPath>
</defs>
</svg>
