<svg width="798" height="839" viewBox="0 0 798 839" fill="none" xmlns="http://www.w3.org/2000/svg">
<g clip-path="url(#clip0_535_25)">
<path d="M147.01 252.964L135.935 256.961L155.323 310.764L209.117 291.352L205.126 280.275L162.406 295.69L147.01 252.964Z" fill="url(#paint0_linear_535_25)"/>
<path d="M414.88 378.847L403.805 382.843L423.193 436.646L476.987 417.235L472.996 406.158L430.277 421.573L414.88 378.847Z" fill="url(#paint1_linear_535_25)"/>
<path d="M682.75 504.73L671.675 508.726L691.063 562.529L744.857 543.117L740.866 532.04L698.147 547.456L682.75 504.73Z" fill="url(#paint2_linear_535_25)"/>
<path d="M280.945 315.906L269.87 319.902L289.258 373.705L343.052 354.293L339.061 343.216L296.342 358.631L280.945 315.906Z" fill="url(#paint3_linear_535_25)"/>
<path d="M548.815 441.788L537.74 445.785L557.128 499.588L610.922 480.176L606.931 469.099L564.212 484.514L548.815 441.788Z" fill="url(#paint4_linear_535_25)"/>
<path d="M617.634 643.292L606.559 647.289L625.947 701.092L679.741 681.68L675.75 670.603L633.031 686.018L617.634 643.292Z" fill="url(#paint5_linear_535_25)"/>
<path d="M215.829 454.468L204.754 458.464L224.142 512.267L277.936 492.856L273.945 481.779L231.226 497.194L215.829 454.468Z" fill="url(#paint6_linear_535_25)"/>
<path d="M40.2608 654.423L36.2693 643.346L90.0638 623.934L109.451 677.737L98.3762 681.733L82.9801 639.008L40.2608 654.423Z" fill="url(#paint7_linear_535_25)"/>
<path d="M174.196 717.364L170.204 706.287L223.999 686.875L243.386 740.678L232.311 744.675L216.915 701.949L174.196 717.364Z" fill="url(#paint8_linear_535_25)"/>
<path d="M16.7782 530.089L5.70299 534.085L25.0908 587.888L78.8852 568.477L74.8936 557.4L32.1745 572.815L16.7782 530.089Z" fill="url(#paint9_linear_535_25)"/>
<path d="M284.648 655.972L273.573 659.968L292.961 713.771L346.755 694.359L342.764 683.282L300.045 698.698L284.648 655.972Z" fill="url(#paint10_linear_535_25)"/>
<path d="M150.713 593.03L139.638 597.027L159.026 650.83L212.82 631.418L208.829 620.341L166.11 635.756L150.713 593.03Z" fill="url(#paint11_linear_535_25)"/>
<path d="M418.583 718.913L407.508 722.91L426.896 776.713L480.69 757.301L476.699 746.224L433.98 761.639L418.583 718.913Z" fill="url(#paint12_linear_535_25)"/>
<path d="M641.111 767.639L637.119 756.562L690.914 737.15L710.301 790.953L699.226 794.95L683.83 752.224L641.111 767.639Z" fill="url(#paint13_linear_535_25)"/>
<path d="M239.306 578.815L235.314 567.738L289.109 548.326L308.496 602.129L297.421 606.126L282.025 563.4L239.306 578.815Z" fill="url(#paint14_linear_535_25)"/>
<path d="M507.176 704.698L503.184 693.621L556.979 674.209L576.366 728.012L565.291 732.008L549.895 689.283L507.176 704.698Z" fill="url(#paint15_linear_535_25)"/>
<path d="M170.48 377.324L166.489 366.247L220.283 346.836L239.671 400.638L228.596 404.635L213.2 361.909L170.48 377.324Z" fill="url(#paint16_linear_535_25)"/>
<path d="M438.35 503.207L434.359 492.13L488.153 472.718L507.541 526.521L496.466 530.518L481.07 487.792L438.35 503.207Z" fill="url(#paint17_linear_535_25)"/>
<path d="M706.22 629.09L702.229 618.013L756.023 598.601L775.411 652.404L764.336 656.4L748.94 613.675L706.22 629.09Z" fill="url(#paint18_linear_535_25)"/>
<path d="M572.285 566.148L568.294 555.071L622.088 535.66L641.476 589.463L630.401 593.459L615.005 550.733L572.285 566.148Z" fill="url(#paint19_linear_535_25)"/>
<path d="M235.59 238.775L231.599 227.698L285.393 208.286L304.781 262.089L293.706 266.086L278.309 223.36L235.59 238.775Z" fill="url(#paint20_linear_535_25)"/>
<path d="M369.525 301.716L365.534 290.639L419.328 271.228L438.716 325.031L427.641 329.027L412.244 286.301L369.525 301.716Z" fill="url(#paint21_linear_535_25)"/>
<path d="M637.395 427.599L633.404 416.522L687.198 397.111L706.586 450.913L695.511 454.91L680.114 412.184L637.395 427.599Z" fill="url(#paint22_linear_535_25)"/>
<path d="M697.343 201.541L708.212 195.265L677.731 142.469L624.935 172.951L631.21 183.821L673.136 159.615L697.343 201.541Z" fill="url(#paint23_linear_535_25)"/>
<path d="M679.079 75.9878L684.031 84.6042L642.273 108.821L618.217 66.9694L626.815 61.9837L645.918 95.2184L679.079 75.9878Z" fill="url(#paint24_linear_535_25)"/>
<path d="M613.855 116.056L616.747 120.951L592.693 134.518L578.644 110.742L583.597 107.949L594.753 126.83L613.855 116.056Z" fill="url(#paint25_linear_535_25)"/>
<path d="M468.18 140.137L473.133 137.344L459.084 113.568L435.03 127.134L437.922 132.029L457.024 121.256L468.18 140.137Z" fill="url(#paint26_linear_535_25)"/>
<path d="M740.932 155.675L747.707 151.786L728.655 118.972L695.749 137.864L699.671 144.62L725.802 129.618L740.932 155.675Z" fill="url(#paint27_linear_535_25)"/>
<path d="M795.052 19.8169L797.013 23.1948L780.56 32.6405L771.034 16.2337L774.421 14.289L781.986 27.3179L795.052 19.8169Z" fill="url(#paint28_linear_535_25)"/>
</g>
<defs>
<linearGradient id="paint0_linear_535_25" x1="1872.26" y1="728.115" x2="433.105" y2="-34.2633" gradientUnits="userSpaceOnUse">
<stop stop-color="#BDDBFF" stop-opacity="0.1"/>
<stop offset="1" stop-color="#0072DB" stop-opacity="0"/>
</linearGradient>
<linearGradient id="paint1_linear_535_25" x1="1872.26" y1="728.115" x2="433.105" y2="-34.2633" gradientUnits="userSpaceOnUse">
<stop stop-color="#BDDBFF" stop-opacity="0.1"/>
<stop offset="1" stop-color="#0072DB" stop-opacity="0"/>
</linearGradient>
<linearGradient id="paint2_linear_535_25" x1="1872.26" y1="728.115" x2="433.105" y2="-34.2633" gradientUnits="userSpaceOnUse">
<stop stop-color="#BDDBFF" stop-opacity="0.1"/>
<stop offset="1" stop-color="#0072DB" stop-opacity="0"/>
</linearGradient>
<linearGradient id="paint3_linear_535_25" x1="1872.26" y1="728.115" x2="433.105" y2="-34.2633" gradientUnits="userSpaceOnUse">
<stop stop-color="#BDDBFF" stop-opacity="0.1"/>
<stop offset="1" stop-color="#0072DB" stop-opacity="0"/>
</linearGradient>
<linearGradient id="paint4_linear_535_25" x1="1872.26" y1="728.115" x2="433.105" y2="-34.2633" gradientUnits="userSpaceOnUse">
<stop stop-color="#BDDBFF" stop-opacity="0.1"/>
<stop offset="1" stop-color="#0072DB" stop-opacity="0"/>
</linearGradient>
<linearGradient id="paint5_linear_535_25" x1="1872.26" y1="728.115" x2="433.105" y2="-34.2633" gradientUnits="userSpaceOnUse">
<stop stop-color="#BDDBFF" stop-opacity="0.1"/>
<stop offset="1" stop-color="#0072DB" stop-opacity="0"/>
</linearGradient>
<linearGradient id="paint6_linear_535_25" x1="1872.26" y1="728.115" x2="433.105" y2="-34.2633" gradientUnits="userSpaceOnUse">
<stop stop-color="#BDDBFF" stop-opacity="0.1"/>
<stop offset="1" stop-color="#0072DB" stop-opacity="0"/>
</linearGradient>
<linearGradient id="paint7_linear_535_25" x1="1872.26" y1="728.115" x2="433.105" y2="-34.2633" gradientUnits="userSpaceOnUse">
<stop stop-color="#BDDBFF" stop-opacity="0.1"/>
<stop offset="1" stop-color="#0072DB" stop-opacity="0"/>
</linearGradient>
<linearGradient id="paint8_linear_535_25" x1="1872.26" y1="728.115" x2="433.105" y2="-34.2633" gradientUnits="userSpaceOnUse">
<stop stop-color="#BDDBFF" stop-opacity="0.1"/>
<stop offset="1" stop-color="#0072DB" stop-opacity="0"/>
</linearGradient>
<linearGradient id="paint9_linear_535_25" x1="1872.26" y1="728.115" x2="433.105" y2="-34.2633" gradientUnits="userSpaceOnUse">
<stop stop-color="#BDDBFF" stop-opacity="0.1"/>
<stop offset="1" stop-color="#0072DB" stop-opacity="0"/>
</linearGradient>
<linearGradient id="paint10_linear_535_25" x1="1872.26" y1="728.115" x2="433.105" y2="-34.2633" gradientUnits="userSpaceOnUse">
<stop stop-color="#BDDBFF" stop-opacity="0.1"/>
<stop offset="1" stop-color="#0072DB" stop-opacity="0"/>
</linearGradient>
<linearGradient id="paint11_linear_535_25" x1="1872.26" y1="728.115" x2="433.105" y2="-34.2633" gradientUnits="userSpaceOnUse">
<stop stop-color="#BDDBFF" stop-opacity="0.1"/>
<stop offset="1" stop-color="#0072DB" stop-opacity="0"/>
</linearGradient>
<linearGradient id="paint12_linear_535_25" x1="1872.26" y1="728.115" x2="433.105" y2="-34.2633" gradientUnits="userSpaceOnUse">
<stop stop-color="#BDDBFF" stop-opacity="0.1"/>
<stop offset="1" stop-color="#0072DB" stop-opacity="0"/>
</linearGradient>
<linearGradient id="paint13_linear_535_25" x1="1872.26" y1="728.115" x2="433.105" y2="-34.2633" gradientUnits="userSpaceOnUse">
<stop stop-color="#BDDBFF" stop-opacity="0.1"/>
<stop offset="1" stop-color="#0072DB" stop-opacity="0"/>
</linearGradient>
<linearGradient id="paint14_linear_535_25" x1="1872.26" y1="728.115" x2="433.105" y2="-34.2633" gradientUnits="userSpaceOnUse">
<stop stop-color="#BDDBFF" stop-opacity="0.1"/>
<stop offset="1" stop-color="#0072DB" stop-opacity="0"/>
</linearGradient>
<linearGradient id="paint15_linear_535_25" x1="1872.26" y1="728.115" x2="433.105" y2="-34.2633" gradientUnits="userSpaceOnUse">
<stop stop-color="#BDDBFF" stop-opacity="0.1"/>
<stop offset="1" stop-color="#0072DB" stop-opacity="0"/>
</linearGradient>
<linearGradient id="paint16_linear_535_25" x1="1872.26" y1="728.115" x2="433.105" y2="-34.2633" gradientUnits="userSpaceOnUse">
<stop stop-color="#BDDBFF" stop-opacity="0.1"/>
<stop offset="1" stop-color="#0072DB" stop-opacity="0"/>
</linearGradient>
<linearGradient id="paint17_linear_535_25" x1="1872.26" y1="728.115" x2="433.105" y2="-34.2633" gradientUnits="userSpaceOnUse">
<stop stop-color="#BDDBFF" stop-opacity="0.1"/>
<stop offset="1" stop-color="#0072DB" stop-opacity="0"/>
</linearGradient>
<linearGradient id="paint18_linear_535_25" x1="1872.26" y1="728.115" x2="433.105" y2="-34.2633" gradientUnits="userSpaceOnUse">
<stop stop-color="#BDDBFF" stop-opacity="0.1"/>
<stop offset="1" stop-color="#0072DB" stop-opacity="0"/>
</linearGradient>
<linearGradient id="paint19_linear_535_25" x1="1872.26" y1="728.115" x2="433.105" y2="-34.2633" gradientUnits="userSpaceOnUse">
<stop stop-color="#BDDBFF" stop-opacity="0.1"/>
<stop offset="1" stop-color="#0072DB" stop-opacity="0"/>
</linearGradient>
<linearGradient id="paint20_linear_535_25" x1="1872.26" y1="728.115" x2="433.105" y2="-34.2633" gradientUnits="userSpaceOnUse">
<stop stop-color="#BDDBFF" stop-opacity="0.1"/>
<stop offset="1" stop-color="#0072DB" stop-opacity="0"/>
</linearGradient>
<linearGradient id="paint21_linear_535_25" x1="1872.26" y1="728.115" x2="433.105" y2="-34.2633" gradientUnits="userSpaceOnUse">
<stop stop-color="#BDDBFF" stop-opacity="0.1"/>
<stop offset="1" stop-color="#0072DB" stop-opacity="0"/>
</linearGradient>
<linearGradient id="paint22_linear_535_25" x1="1872.26" y1="728.115" x2="433.105" y2="-34.2633" gradientUnits="userSpaceOnUse">
<stop stop-color="#BDDBFF" stop-opacity="0.1"/>
<stop offset="1" stop-color="#0072DB" stop-opacity="0"/>
</linearGradient>
<linearGradient id="paint23_linear_535_25" x1="364.82" y1="150.381" x2="699.95" y2="261.316" gradientUnits="userSpaceOnUse">
<stop stop-color="#BDDBFF" stop-opacity="0.56"/>
<stop offset="1" stop-color="#0072DB" stop-opacity="0"/>
</linearGradient>
<linearGradient id="paint24_linear_535_25" x1="364.82" y1="150.381" x2="699.95" y2="261.316" gradientUnits="userSpaceOnUse">
<stop stop-color="#BDDBFF" stop-opacity="0.56"/>
<stop offset="1" stop-color="#0072DB" stop-opacity="0"/>
</linearGradient>
<linearGradient id="paint25_linear_535_25" x1="364.82" y1="150.381" x2="699.95" y2="261.316" gradientUnits="userSpaceOnUse">
<stop stop-color="#BDDBFF" stop-opacity="0.56"/>
<stop offset="1" stop-color="#0072DB" stop-opacity="0"/>
</linearGradient>
<linearGradient id="paint26_linear_535_25" x1="364.82" y1="150.381" x2="699.95" y2="261.316" gradientUnits="userSpaceOnUse">
<stop stop-color="#BDDBFF" stop-opacity="0.56"/>
<stop offset="1" stop-color="#0072DB" stop-opacity="0"/>
</linearGradient>
<linearGradient id="paint27_linear_535_25" x1="364.82" y1="150.381" x2="699.95" y2="261.316" gradientUnits="userSpaceOnUse">
<stop stop-color="#BDDBFF" stop-opacity="0.56"/>
<stop offset="1" stop-color="#0072DB" stop-opacity="0"/>
</linearGradient>
<linearGradient id="paint28_linear_535_25" x1="364.82" y1="150.381" x2="699.95" y2="261.316" gradientUnits="userSpaceOnUse">
<stop stop-color="#BDDBFF" stop-opacity="0.56"/>
<stop offset="1" stop-color="#0072DB" stop-opacity="0"/>
</linearGradient>
<clipPath id="clip0_535_25">
<rect width="798" height="839" fill="white"/>
</clipPath>
</defs>
</svg>
