<svg width="1824" height="1647" viewBox="0 0 1824 1647" fill="none" xmlns="http://www.w3.org/2000/svg">
<path d="M75.8215 1049.62L71.83 1038.54L125.624 1019.13L145.012 1072.93L133.937 1076.93L118.541 1034.2L75.8215 1049.62Z" fill="url(#paint0_linear_533_11)"/>
<path d="M879.432 1427.27L875.44 1416.19L929.235 1396.78L948.622 1450.58L937.547 1454.58L922.151 1411.85L879.432 1427.27Z" fill="url(#paint1_linear_533_11)"/>
<path d="M1147.3 1553.15L1143.31 1542.07L1197.1 1522.66L1216.49 1576.46L1205.42 1580.46L1190.02 1537.74L1147.3 1553.15Z" fill="url(#paint2_linear_533_11)"/>
<path d="M209.757 1112.56L205.765 1101.48L259.559 1082.07L278.947 1135.88L267.872 1139.87L252.476 1097.15L209.757 1112.56Z" fill="url(#paint3_linear_533_11)"/>
<path d="M477.627 1238.44L473.635 1227.37L527.43 1207.96L546.817 1261.76L535.742 1265.75L520.346 1223.03L477.627 1238.44Z" fill="url(#paint4_linear_533_11)"/>
<path d="M1013.37 1490.21L1009.38 1479.13L1063.17 1459.72L1082.56 1513.52L1071.48 1517.52L1056.09 1474.79L1013.37 1490.21Z" fill="url(#paint5_linear_533_11)"/>
<path d="M140.931 911.07L136.94 899.993L190.734 880.582L210.122 934.384L199.047 938.381L183.651 895.655L140.931 911.07Z" fill="url(#paint6_linear_533_11)"/>
<path d="M408.801 1036.95L404.81 1025.88L458.604 1006.46L477.992 1060.27L466.917 1064.26L451.521 1021.54L408.801 1036.95Z" fill="url(#paint7_linear_533_11)"/>
<path d="M944.541 1288.72L940.55 1277.64L994.344 1258.23L1013.73 1312.03L1002.66 1316.03L987.261 1273.3L944.541 1288.72Z" fill="url(#paint8_linear_533_11)"/>
<path d="M1212.41 1414.6L1208.42 1403.52L1262.21 1384.11L1281.6 1437.92L1270.53 1441.91L1255.13 1399.19L1212.41 1414.6Z" fill="url(#paint9_linear_533_11)"/>
<path d="M1078.48 1351.66L1074.48 1340.58L1128.28 1321.17L1147.67 1374.97L1136.59 1378.97L1121.2 1336.24L1078.48 1351.66Z" fill="url(#paint10_linear_533_11)"/>
<path d="M1346.35 1477.54L1342.35 1466.47L1396.15 1447.05L1415.54 1500.86L1404.46 1504.85L1389.07 1462.13L1346.35 1477.54Z" fill="url(#paint11_linear_533_11)"/>
<path d="M473.911 898.404L469.92 887.327L523.714 867.915L543.102 921.718L532.027 925.714L516.63 882.989L473.911 898.404Z" fill="url(#paint12_linear_533_11)"/>
<path d="M741.781 1024.29L737.79 1013.21L791.584 993.798L810.972 1047.6L799.897 1051.6L784.5 1008.87L741.781 1024.29Z" fill="url(#paint13_linear_533_11)"/>
<path d="M1009.65 1150.17L1005.66 1139.09L1059.45 1119.68L1078.84 1173.48L1067.77 1177.48L1052.37 1134.75L1009.65 1150.17Z" fill="url(#paint14_linear_533_11)"/>
<path d="M1277.52 1276.05L1273.53 1264.98L1327.32 1245.56L1346.71 1299.37L1335.64 1303.36L1320.24 1260.64L1277.52 1276.05Z" fill="url(#paint15_linear_533_11)"/>
<path d="M339.976 835.462L335.985 824.385L389.779 804.974L409.167 858.776L398.092 862.773L382.695 820.047L339.976 835.462Z" fill="url(#paint16_linear_533_11)"/>
<path d="M607.846 961.345L603.855 950.268L657.649 930.856L677.037 984.659L665.962 988.656L650.565 945.93L607.846 961.345Z" fill="url(#paint17_linear_533_11)"/>
<path d="M875.716 1087.23L871.725 1076.15L925.519 1056.74L944.907 1110.54L933.832 1114.54L918.435 1071.81L875.716 1087.23Z" fill="url(#paint18_linear_533_11)"/>
<path d="M443.01 93.9639L431.935 97.9604L451.323 151.763L505.117 132.352L501.126 121.275L458.406 136.69L443.01 93.9639Z" fill="url(#paint19_linear_533_11)"/>
<path d="M710.88 219.847L699.805 223.843L719.193 277.646L772.987 258.234L768.996 247.157L726.277 262.573L710.88 219.847Z" fill="url(#paint20_linear_533_11)"/>
<path d="M978.75 345.729L967.675 349.726L987.063 403.529L1040.86 384.117L1036.87 373.04L994.147 388.455L978.75 345.729Z" fill="url(#paint21_linear_533_11)"/>
<path d="M1246.62 471.612L1235.54 475.609L1254.93 529.412L1308.73 510L1304.74 498.923L1262.02 514.338L1246.62 471.612Z" fill="url(#paint22_linear_533_11)"/>
<path d="M1514.49 597.495L1503.41 601.492L1522.8 655.295L1576.6 635.883L1572.61 624.806L1529.89 640.221L1514.49 597.495Z" fill="url(#paint23_linear_533_11)"/>
<path d="M576.945 156.905L565.87 160.902L585.258 214.705L639.052 195.293L635.061 184.216L592.342 199.631L576.945 156.905Z" fill="url(#paint24_linear_533_11)"/>
<path d="M844.815 282.788L833.74 286.785L853.128 340.588L906.922 321.176L902.931 310.099L860.212 325.514L844.815 282.788Z" fill="url(#paint25_linear_533_11)"/>
<path d="M1380.56 534.554L1369.48 538.55L1388.87 592.353L1442.66 572.941L1438.67 561.864L1395.95 577.28L1380.56 534.554Z" fill="url(#paint26_linear_533_11)"/>
<path d="M539.021 759.854L535.029 748.777L588.824 729.366L608.212 783.169L597.136 787.165L581.74 744.439L539.021 759.854Z" fill="url(#paint27_linear_533_11)"/>
<path d="M806.891 885.737L802.899 874.66L856.694 855.249L876.082 909.051L865.006 913.048L849.61 870.322L806.891 885.737Z" fill="url(#paint28_linear_533_11)"/>
<path d="M672.956 822.796L668.964 811.719L722.759 792.307L742.147 846.11L731.071 850.107L715.675 807.381L672.956 822.796Z" fill="url(#paint29_linear_533_11)"/>
<path d="M940.826 948.679L936.834 937.602L990.629 918.19L1010.02 971.993L998.941 975.989L983.545 933.264L940.826 948.679Z" fill="url(#paint30_linear_533_11)"/>
<path d="M1208.7 1074.56L1204.7 1063.48L1258.5 1044.07L1277.89 1097.88L1266.81 1101.87L1251.42 1059.15L1208.7 1074.56Z" fill="url(#paint31_linear_533_11)"/>
<path d="M1476.57 1200.44L1472.57 1189.37L1526.37 1169.96L1545.76 1223.76L1534.68 1227.75L1519.29 1185.03L1476.57 1200.44Z" fill="url(#paint32_linear_533_11)"/>
<path d="M913.634 484.292L902.559 488.288L921.947 542.091L975.741 522.68L971.75 511.603L929.031 527.018L913.634 484.292Z" fill="url(#paint33_linear_533_11)"/>
<path d="M1181.5 610.175L1170.43 614.171L1189.82 667.974L1243.61 648.562L1239.62 637.485L1196.9 652.901L1181.5 610.175Z" fill="url(#paint34_linear_533_11)"/>
<path d="M511.829 295.468L500.754 299.464L520.142 353.267L573.936 333.855L569.945 322.778L527.226 338.194L511.829 295.468Z" fill="url(#paint35_linear_533_11)"/>
<path d="M1047.57 547.233L1036.49 551.23L1055.88 605.033L1109.68 585.621L1105.68 574.544L1062.97 589.959L1047.57 547.233Z" fill="url(#paint36_linear_533_11)"/>
<path d="M1315.44 673.116L1304.36 677.113L1323.75 730.916L1377.55 711.504L1373.55 700.427L1330.84 715.842L1315.44 673.116Z" fill="url(#paint37_linear_533_11)"/>
<path d="M336.261 495.422L332.269 484.345L386.064 464.934L405.451 518.737L394.376 522.733L378.98 480.007L336.261 495.422Z" fill="url(#paint38_linear_533_11)"/>
<path d="M604.131 621.305L600.139 610.228L653.934 590.816L673.321 644.619L662.246 648.616L646.85 605.89L604.131 621.305Z" fill="url(#paint39_linear_533_11)"/>
<path d="M872.001 747.188L868.009 736.111L921.804 716.699L941.191 770.502L930.116 774.499L914.72 731.773L872.001 747.188Z" fill="url(#paint40_linear_533_11)"/>
<path d="M1139.87 873.071L1135.88 861.994L1189.67 842.582L1209.06 896.385L1197.99 900.381L1182.59 857.656L1139.87 873.071Z" fill="url(#paint41_linear_533_11)"/>
<path d="M1407.74 998.954L1403.75 987.876L1457.54 968.465L1476.93 1022.27L1465.86 1026.26L1450.46 983.538L1407.74 998.954Z" fill="url(#paint42_linear_533_11)"/>
<path d="M470.196 558.364L466.204 547.287L519.999 527.875L539.386 581.678L528.311 585.675L512.915 542.949L470.196 558.364Z" fill="url(#paint43_linear_533_11)"/>
<path d="M738.066 684.247L734.074 673.169L787.869 653.758L807.256 707.561L796.181 711.557L780.785 668.831L738.066 684.247Z" fill="url(#paint44_linear_533_11)"/>
<path d="M1273.81 936.012L1269.81 924.935L1323.61 905.523L1343 959.326L1331.92 963.323L1316.53 920.597L1273.81 936.012Z" fill="url(#paint45_linear_533_11)"/>
<path d="M1541.68 1061.89L1537.68 1050.82L1591.48 1031.41L1610.87 1085.21L1599.79 1089.21L1584.4 1046.48L1541.68 1061.89Z" fill="url(#paint46_linear_533_11)"/>
<path d="M312.778 371.089L301.703 375.085L321.091 428.888L374.885 409.476L370.894 398.399L328.175 413.815L312.778 371.089Z" fill="url(#paint47_linear_533_11)"/>
<path d="M580.648 496.971L569.573 500.968L588.961 554.771L642.755 535.359L638.764 524.282L596.045 539.697L580.648 496.971Z" fill="url(#paint48_linear_533_11)"/>
<path d="M1116.39 748.737L1105.31 752.734L1124.7 806.537L1178.5 787.125L1174.5 776.048L1131.78 791.463L1116.39 748.737Z" fill="url(#paint49_linear_533_11)"/>
<path d="M446.713 434.03L435.638 438.027L455.026 491.83L508.82 472.418L504.829 461.341L462.11 476.756L446.713 434.03Z" fill="url(#paint50_linear_533_11)"/>
<path d="M714.583 559.913L703.508 563.909L722.896 617.712L776.69 598.301L772.699 587.224L729.98 602.639L714.583 559.913Z" fill="url(#paint51_linear_533_11)"/>
<path d="M937.111 608.639L933.119 597.562L986.914 578.15L1006.3 631.953L995.226 635.949L979.83 593.224L937.111 608.639Z" fill="url(#paint52_linear_533_11)"/>
<path d="M1204.98 734.522L1200.99 723.444L1254.78 704.033L1274.17 757.836L1263.1 761.832L1247.7 719.106L1204.98 734.522Z" fill="url(#paint53_linear_533_11)"/>
<path d="M535.306 419.815L531.314 408.738L585.109 389.326L604.496 443.129L593.421 447.125L578.025 404.399L535.306 419.815Z" fill="url(#paint54_linear_533_11)"/>
<path d="M803.176 545.697L799.184 534.62L852.979 515.209L872.366 569.012L861.291 573.008L845.895 530.282L803.176 545.697Z" fill="url(#paint55_linear_533_11)"/>
<path d="M1071.05 671.58L1067.05 660.503L1120.85 641.091L1140.24 694.894L1129.16 698.891L1113.76 656.165L1071.05 671.58Z" fill="url(#paint56_linear_533_11)"/>
<path d="M515.532 635.534L504.457 639.53L523.845 693.333L577.639 673.922L573.648 662.845L530.929 678.26L515.532 635.534Z" fill="url(#paint57_linear_533_11)"/>
<path d="M1051.27 887.299L1040.2 891.296L1059.59 945.099L1113.38 925.687L1109.39 914.61L1066.67 930.025L1051.27 887.299Z" fill="url(#paint58_linear_533_11)"/>
<path d="M1319.14 1013.18L1308.07 1017.18L1327.46 1070.98L1381.25 1051.57L1377.26 1040.49L1334.54 1055.91L1319.14 1013.18Z" fill="url(#paint59_linear_533_11)"/>
<path d="M649.467 698.475L638.392 702.472L657.78 756.275L711.574 736.863L707.583 725.786L664.864 741.201L649.467 698.475Z" fill="url(#paint60_linear_533_11)"/>
<path d="M917.337 824.358L906.262 828.355L925.65 882.158L979.444 862.746L975.453 851.669L932.734 867.084L917.337 824.358Z" fill="url(#paint61_linear_533_11)"/>
<path d="M1185.21 950.241L1174.13 954.237L1193.52 1008.04L1247.31 988.629L1243.32 977.552L1200.6 992.967L1185.21 950.241Z" fill="url(#paint62_linear_533_11)"/>
<path d="M1453.08 1076.12L1442 1080.12L1461.39 1133.92L1515.18 1114.51L1511.19 1103.43L1468.47 1118.85L1453.08 1076.12Z" fill="url(#paint63_linear_533_11)"/>
<path d="M466.48 218.324L462.489 207.247L516.283 187.835L535.671 241.638L524.596 245.635L509.2 202.909L466.48 218.324Z" fill="url(#paint64_linear_533_11)"/>
<path d="M734.35 344.207L730.359 333.13L784.153 313.718L803.541 367.521L792.466 371.517L777.07 328.792L734.35 344.207Z" fill="url(#paint65_linear_533_11)"/>
<path d="M1002.22 470.09L998.229 459.013L1052.02 439.601L1071.41 493.404L1060.34 497.4L1044.94 454.674L1002.22 470.09Z" fill="url(#paint66_linear_533_11)"/>
<path d="M868.285 407.148L864.294 396.071L918.088 376.66L937.476 430.462L926.401 434.459L911.005 391.733L868.285 407.148Z" fill="url(#paint67_linear_533_11)"/>
<path d="M1136.16 533.031L1132.16 521.954L1185.96 502.542L1205.35 556.345L1194.27 560.342L1178.87 517.616L1136.16 533.031Z" fill="url(#paint68_linear_533_11)"/>
<path d="M1404.03 658.914L1400.03 647.837L1453.83 628.425L1473.22 682.228L1462.14 686.224L1446.74 643.499L1404.03 658.914Z" fill="url(#paint69_linear_533_11)"/>
<path d="M1671.9 784.796L1667.9 773.719L1721.7 754.308L1741.09 808.111L1730.01 812.107L1714.61 769.381L1671.9 784.796Z" fill="url(#paint70_linear_533_11)"/>
<path d="M182.546 648.213L171.471 652.21L190.859 706.013L244.653 686.601L240.662 675.524L197.943 690.939L182.546 648.213Z" fill="url(#paint71_linear_533_11)"/>
<path d="M450.416 774.096L439.341 778.093L458.729 831.896L512.523 812.484L508.532 801.407L465.813 816.822L450.416 774.096Z" fill="url(#paint72_linear_533_11)"/>
<path d="M718.286 899.979L707.211 903.976L726.599 957.779L780.393 938.367L776.402 927.29L733.683 942.705L718.286 899.979Z" fill="url(#paint73_linear_533_11)"/>
<path d="M316.481 711.155L305.406 715.151L324.794 768.954L378.588 749.543L374.597 738.466L331.878 753.881L316.481 711.155Z" fill="url(#paint74_linear_533_11)"/>
<path d="M1120.09 1088.8L1109.02 1092.8L1128.4 1146.6L1182.2 1127.19L1178.21 1116.11L1135.49 1131.53L1120.09 1088.8Z" fill="url(#paint75_linear_533_11)"/>
<path d="M1387.96 1214.69L1376.89 1218.68L1396.27 1272.49L1450.07 1253.07L1446.08 1242L1403.36 1257.41L1387.96 1214.69Z" fill="url(#paint76_linear_533_11)"/>
<path d="M531.59 79.7748L527.599 68.6977L581.393 49.2861L600.781 103.089L589.706 107.086L574.309 64.3597L531.59 79.7748Z" fill="url(#paint77_linear_533_11)"/>
<path d="M1603.07 583.306L1599.08 572.229L1652.87 552.817L1672.26 606.62L1661.19 610.617L1645.79 567.891L1603.07 583.306Z" fill="url(#paint78_linear_533_11)"/>
<path d="M665.525 142.716L661.534 131.639L715.328 112.228L734.716 166.03L723.641 170.027L708.244 127.301L665.525 142.716Z" fill="url(#paint79_linear_533_11)"/>
<path d="M933.395 268.599L929.404 257.522L983.198 238.11L1002.59 291.913L991.511 295.91L976.114 253.184L933.395 268.599Z" fill="url(#paint80_linear_533_11)"/>
<path d="M1201.27 394.482L1197.27 383.405L1251.07 363.993L1270.46 417.796L1259.38 421.792L1243.98 379.067L1201.27 394.482Z" fill="url(#paint81_linear_533_11)"/>
<path d="M1469.14 520.365L1465.14 509.287L1518.94 489.876L1538.33 543.679L1527.25 547.675L1511.85 504.949L1469.14 520.365Z" fill="url(#paint82_linear_533_11)"/>
<path d="M653.17 1038.54L642.095 1042.54L661.483 1096.34L715.277 1076.93L711.286 1065.85L668.567 1081.27L653.17 1038.54Z" fill="url(#paint83_linear_533_11)"/>
<path d="M921.04 1164.42L909.965 1168.42L929.353 1222.22L983.147 1202.81L979.156 1191.73L936.437 1207.15L921.04 1164.42Z" fill="url(#paint84_linear_533_11)"/>
<path d="M251.365 849.717L240.29 853.714L259.678 907.517L313.472 888.105L309.481 877.028L266.762 892.443L251.365 849.717Z" fill="url(#paint85_linear_533_11)"/>
<path d="M519.235 975.6L508.16 979.597L527.548 1033.4L581.342 1013.99L577.351 1002.91L534.632 1018.33L519.235 975.6Z" fill="url(#paint86_linear_533_11)"/>
<path d="M1054.98 1227.37L1043.9 1231.36L1063.29 1285.17L1117.08 1265.75L1113.09 1254.68L1070.37 1270.09L1054.98 1227.37Z" fill="url(#paint87_linear_533_11)"/>
<path d="M1322.85 1353.25L1311.77 1357.24L1331.16 1411.05L1384.95 1391.64L1380.96 1380.56L1338.24 1395.97L1322.85 1353.25Z" fill="url(#paint88_linear_533_11)"/>
<path d="M52.3143 925.338L41.239 929.335L60.6269 983.138L114.421 963.726L110.43 952.649L67.7106 968.064L52.3143 925.338Z" fill="url(#paint89_linear_533_11)"/>
<path d="M320.184 1051.22L309.109 1055.22L328.497 1109.02L382.291 1089.61L378.3 1078.53L335.581 1093.95L320.184 1051.22Z" fill="url(#paint90_linear_533_11)"/>
<path d="M855.924 1302.99L844.849 1306.98L864.237 1360.79L918.031 1341.37L914.04 1330.3L871.321 1345.71L855.924 1302.99Z" fill="url(#paint91_linear_533_11)"/>
<path d="M1123.79 1428.87L1112.72 1432.87L1132.11 1486.67L1185.9 1467.26L1181.91 1456.18L1139.19 1471.6L1123.79 1428.87Z" fill="url(#paint92_linear_533_11)"/>
<path d="M454.119 1114.16L443.044 1118.16L462.432 1171.96L516.226 1152.55L512.235 1141.47L469.516 1156.89L454.119 1114.16Z" fill="url(#paint93_linear_533_11)"/>
<defs>
<linearGradient id="paint0_linear_533_11" x1="2168.26" y1="569.115" x2="729.105" y2="-193.264" gradientUnits="userSpaceOnUse">
<stop stop-color="#BDDBFF" stop-opacity="0.2"/>
<stop offset="1" stop-color="#0072DB" stop-opacity="0"/>
</linearGradient>
<linearGradient id="paint1_linear_533_11" x1="2168.26" y1="569.115" x2="729.105" y2="-193.264" gradientUnits="userSpaceOnUse">
<stop stop-color="#BDDBFF" stop-opacity="0.2"/>
<stop offset="1" stop-color="#0072DB" stop-opacity="0"/>
</linearGradient>
<linearGradient id="paint2_linear_533_11" x1="2168.26" y1="569.115" x2="729.105" y2="-193.264" gradientUnits="userSpaceOnUse">
<stop stop-color="#BDDBFF" stop-opacity="0.2"/>
<stop offset="1" stop-color="#0072DB" stop-opacity="0"/>
</linearGradient>
<linearGradient id="paint3_linear_533_11" x1="2168.26" y1="569.115" x2="729.105" y2="-193.264" gradientUnits="userSpaceOnUse">
<stop stop-color="#BDDBFF" stop-opacity="0.2"/>
<stop offset="1" stop-color="#0072DB" stop-opacity="0"/>
</linearGradient>
<linearGradient id="paint4_linear_533_11" x1="2168.26" y1="569.115" x2="729.105" y2="-193.264" gradientUnits="userSpaceOnUse">
<stop stop-color="#BDDBFF" stop-opacity="0.2"/>
<stop offset="1" stop-color="#0072DB" stop-opacity="0"/>
</linearGradient>
<linearGradient id="paint5_linear_533_11" x1="2168.26" y1="569.115" x2="729.105" y2="-193.264" gradientUnits="userSpaceOnUse">
<stop stop-color="#BDDBFF" stop-opacity="0.2"/>
<stop offset="1" stop-color="#0072DB" stop-opacity="0"/>
</linearGradient>
<linearGradient id="paint6_linear_533_11" x1="2168.26" y1="569.115" x2="729.105" y2="-193.264" gradientUnits="userSpaceOnUse">
<stop stop-color="#BDDBFF" stop-opacity="0.2"/>
<stop offset="1" stop-color="#0072DB" stop-opacity="0"/>
</linearGradient>
<linearGradient id="paint7_linear_533_11" x1="2168.26" y1="569.115" x2="729.105" y2="-193.264" gradientUnits="userSpaceOnUse">
<stop stop-color="#BDDBFF" stop-opacity="0.2"/>
<stop offset="1" stop-color="#0072DB" stop-opacity="0"/>
</linearGradient>
<linearGradient id="paint8_linear_533_11" x1="2168.26" y1="569.115" x2="729.105" y2="-193.264" gradientUnits="userSpaceOnUse">
<stop stop-color="#BDDBFF" stop-opacity="0.2"/>
<stop offset="1" stop-color="#0072DB" stop-opacity="0"/>
</linearGradient>
<linearGradient id="paint9_linear_533_11" x1="2168.26" y1="569.115" x2="729.105" y2="-193.264" gradientUnits="userSpaceOnUse">
<stop stop-color="#BDDBFF" stop-opacity="0.2"/>
<stop offset="1" stop-color="#0072DB" stop-opacity="0"/>
</linearGradient>
<linearGradient id="paint10_linear_533_11" x1="2168.26" y1="569.115" x2="729.105" y2="-193.264" gradientUnits="userSpaceOnUse">
<stop stop-color="#BDDBFF" stop-opacity="0.2"/>
<stop offset="1" stop-color="#0072DB" stop-opacity="0"/>
</linearGradient>
<linearGradient id="paint11_linear_533_11" x1="2168.26" y1="569.115" x2="729.105" y2="-193.264" gradientUnits="userSpaceOnUse">
<stop stop-color="#BDDBFF" stop-opacity="0.2"/>
<stop offset="1" stop-color="#0072DB" stop-opacity="0"/>
</linearGradient>
<linearGradient id="paint12_linear_533_11" x1="2168.26" y1="569.115" x2="729.105" y2="-193.264" gradientUnits="userSpaceOnUse">
<stop stop-color="#BDDBFF" stop-opacity="0.2"/>
<stop offset="1" stop-color="#0072DB" stop-opacity="0"/>
</linearGradient>
<linearGradient id="paint13_linear_533_11" x1="2168.26" y1="569.115" x2="729.105" y2="-193.264" gradientUnits="userSpaceOnUse">
<stop stop-color="#BDDBFF" stop-opacity="0.2"/>
<stop offset="1" stop-color="#0072DB" stop-opacity="0"/>
</linearGradient>
<linearGradient id="paint14_linear_533_11" x1="2168.26" y1="569.115" x2="729.105" y2="-193.264" gradientUnits="userSpaceOnUse">
<stop stop-color="#BDDBFF" stop-opacity="0.2"/>
<stop offset="1" stop-color="#0072DB" stop-opacity="0"/>
</linearGradient>
<linearGradient id="paint15_linear_533_11" x1="2168.26" y1="569.115" x2="729.105" y2="-193.264" gradientUnits="userSpaceOnUse">
<stop stop-color="#BDDBFF" stop-opacity="0.2"/>
<stop offset="1" stop-color="#0072DB" stop-opacity="0"/>
</linearGradient>
<linearGradient id="paint16_linear_533_11" x1="2168.26" y1="569.115" x2="729.105" y2="-193.264" gradientUnits="userSpaceOnUse">
<stop stop-color="#BDDBFF" stop-opacity="0.2"/>
<stop offset="1" stop-color="#0072DB" stop-opacity="0"/>
</linearGradient>
<linearGradient id="paint17_linear_533_11" x1="2168.26" y1="569.115" x2="729.105" y2="-193.264" gradientUnits="userSpaceOnUse">
<stop stop-color="#BDDBFF" stop-opacity="0.2"/>
<stop offset="1" stop-color="#0072DB" stop-opacity="0"/>
</linearGradient>
<linearGradient id="paint18_linear_533_11" x1="2168.26" y1="569.115" x2="729.105" y2="-193.264" gradientUnits="userSpaceOnUse">
<stop stop-color="#BDDBFF" stop-opacity="0.2"/>
<stop offset="1" stop-color="#0072DB" stop-opacity="0"/>
</linearGradient>
<linearGradient id="paint19_linear_533_11" x1="2168.26" y1="569.115" x2="729.105" y2="-193.264" gradientUnits="userSpaceOnUse">
<stop stop-color="#BDDBFF" stop-opacity="0.2"/>
<stop offset="1" stop-color="#0072DB" stop-opacity="0"/>
</linearGradient>
<linearGradient id="paint20_linear_533_11" x1="2168.26" y1="569.115" x2="729.105" y2="-193.264" gradientUnits="userSpaceOnUse">
<stop stop-color="#BDDBFF" stop-opacity="0.2"/>
<stop offset="1" stop-color="#0072DB" stop-opacity="0"/>
</linearGradient>
<linearGradient id="paint21_linear_533_11" x1="2168.26" y1="569.115" x2="729.105" y2="-193.264" gradientUnits="userSpaceOnUse">
<stop stop-color="#BDDBFF" stop-opacity="0.2"/>
<stop offset="1" stop-color="#0072DB" stop-opacity="0"/>
</linearGradient>
<linearGradient id="paint22_linear_533_11" x1="2168.26" y1="569.115" x2="729.105" y2="-193.264" gradientUnits="userSpaceOnUse">
<stop stop-color="#BDDBFF" stop-opacity="0.2"/>
<stop offset="1" stop-color="#0072DB" stop-opacity="0"/>
</linearGradient>
<linearGradient id="paint23_linear_533_11" x1="2168.26" y1="569.115" x2="729.105" y2="-193.264" gradientUnits="userSpaceOnUse">
<stop stop-color="#BDDBFF" stop-opacity="0.2"/>
<stop offset="1" stop-color="#0072DB" stop-opacity="0"/>
</linearGradient>
<linearGradient id="paint24_linear_533_11" x1="2168.26" y1="569.115" x2="729.105" y2="-193.264" gradientUnits="userSpaceOnUse">
<stop stop-color="#BDDBFF" stop-opacity="0.2"/>
<stop offset="1" stop-color="#0072DB" stop-opacity="0"/>
</linearGradient>
<linearGradient id="paint25_linear_533_11" x1="2168.26" y1="569.115" x2="729.105" y2="-193.264" gradientUnits="userSpaceOnUse">
<stop stop-color="#BDDBFF" stop-opacity="0.2"/>
<stop offset="1" stop-color="#0072DB" stop-opacity="0"/>
</linearGradient>
<linearGradient id="paint26_linear_533_11" x1="2168.26" y1="569.115" x2="729.105" y2="-193.264" gradientUnits="userSpaceOnUse">
<stop stop-color="#BDDBFF" stop-opacity="0.2"/>
<stop offset="1" stop-color="#0072DB" stop-opacity="0"/>
</linearGradient>
<linearGradient id="paint27_linear_533_11" x1="2168.26" y1="569.115" x2="729.105" y2="-193.264" gradientUnits="userSpaceOnUse">
<stop stop-color="#BDDBFF" stop-opacity="0.2"/>
<stop offset="1" stop-color="#0072DB" stop-opacity="0"/>
</linearGradient>
<linearGradient id="paint28_linear_533_11" x1="2168.26" y1="569.115" x2="729.105" y2="-193.264" gradientUnits="userSpaceOnUse">
<stop stop-color="#BDDBFF" stop-opacity="0.2"/>
<stop offset="1" stop-color="#0072DB" stop-opacity="0"/>
</linearGradient>
<linearGradient id="paint29_linear_533_11" x1="2168.26" y1="569.115" x2="729.105" y2="-193.264" gradientUnits="userSpaceOnUse">
<stop stop-color="#BDDBFF" stop-opacity="0.2"/>
<stop offset="1" stop-color="#0072DB" stop-opacity="0"/>
</linearGradient>
<linearGradient id="paint30_linear_533_11" x1="2168.26" y1="569.115" x2="729.105" y2="-193.264" gradientUnits="userSpaceOnUse">
<stop stop-color="#BDDBFF" stop-opacity="0.2"/>
<stop offset="1" stop-color="#0072DB" stop-opacity="0"/>
</linearGradient>
<linearGradient id="paint31_linear_533_11" x1="2168.26" y1="569.115" x2="729.105" y2="-193.264" gradientUnits="userSpaceOnUse">
<stop stop-color="#BDDBFF" stop-opacity="0.2"/>
<stop offset="1" stop-color="#0072DB" stop-opacity="0"/>
</linearGradient>
<linearGradient id="paint32_linear_533_11" x1="2168.26" y1="569.115" x2="729.105" y2="-193.264" gradientUnits="userSpaceOnUse">
<stop stop-color="#BDDBFF" stop-opacity="0.2"/>
<stop offset="1" stop-color="#0072DB" stop-opacity="0"/>
</linearGradient>
<linearGradient id="paint33_linear_533_11" x1="2168.26" y1="569.115" x2="729.105" y2="-193.264" gradientUnits="userSpaceOnUse">
<stop stop-color="#BDDBFF" stop-opacity="0.2"/>
<stop offset="1" stop-color="#0072DB" stop-opacity="0"/>
</linearGradient>
<linearGradient id="paint34_linear_533_11" x1="2168.26" y1="569.115" x2="729.105" y2="-193.264" gradientUnits="userSpaceOnUse">
<stop stop-color="#BDDBFF" stop-opacity="0.2"/>
<stop offset="1" stop-color="#0072DB" stop-opacity="0"/>
</linearGradient>
<linearGradient id="paint35_linear_533_11" x1="2168.26" y1="569.115" x2="729.105" y2="-193.264" gradientUnits="userSpaceOnUse">
<stop stop-color="#BDDBFF" stop-opacity="0.2"/>
<stop offset="1" stop-color="#0072DB" stop-opacity="0"/>
</linearGradient>
<linearGradient id="paint36_linear_533_11" x1="2168.26" y1="569.115" x2="729.105" y2="-193.264" gradientUnits="userSpaceOnUse">
<stop stop-color="#BDDBFF" stop-opacity="0.2"/>
<stop offset="1" stop-color="#0072DB" stop-opacity="0"/>
</linearGradient>
<linearGradient id="paint37_linear_533_11" x1="2168.26" y1="569.115" x2="729.105" y2="-193.264" gradientUnits="userSpaceOnUse">
<stop stop-color="#BDDBFF" stop-opacity="0.2"/>
<stop offset="1" stop-color="#0072DB" stop-opacity="0"/>
</linearGradient>
<linearGradient id="paint38_linear_533_11" x1="2168.26" y1="569.115" x2="729.105" y2="-193.264" gradientUnits="userSpaceOnUse">
<stop stop-color="#BDDBFF" stop-opacity="0.2"/>
<stop offset="1" stop-color="#0072DB" stop-opacity="0"/>
</linearGradient>
<linearGradient id="paint39_linear_533_11" x1="2168.26" y1="569.115" x2="729.105" y2="-193.264" gradientUnits="userSpaceOnUse">
<stop stop-color="#BDDBFF" stop-opacity="0.2"/>
<stop offset="1" stop-color="#0072DB" stop-opacity="0"/>
</linearGradient>
<linearGradient id="paint40_linear_533_11" x1="2168.26" y1="569.115" x2="729.105" y2="-193.264" gradientUnits="userSpaceOnUse">
<stop stop-color="#BDDBFF" stop-opacity="0.2"/>
<stop offset="1" stop-color="#0072DB" stop-opacity="0"/>
</linearGradient>
<linearGradient id="paint41_linear_533_11" x1="2168.26" y1="569.115" x2="729.105" y2="-193.264" gradientUnits="userSpaceOnUse">
<stop stop-color="#BDDBFF" stop-opacity="0.2"/>
<stop offset="1" stop-color="#0072DB" stop-opacity="0"/>
</linearGradient>
<linearGradient id="paint42_linear_533_11" x1="2168.26" y1="569.115" x2="729.105" y2="-193.264" gradientUnits="userSpaceOnUse">
<stop stop-color="#BDDBFF" stop-opacity="0.2"/>
<stop offset="1" stop-color="#0072DB" stop-opacity="0"/>
</linearGradient>
<linearGradient id="paint43_linear_533_11" x1="2168.26" y1="569.115" x2="729.105" y2="-193.264" gradientUnits="userSpaceOnUse">
<stop stop-color="#BDDBFF" stop-opacity="0.2"/>
<stop offset="1" stop-color="#0072DB" stop-opacity="0"/>
</linearGradient>
<linearGradient id="paint44_linear_533_11" x1="2168.26" y1="569.115" x2="729.105" y2="-193.264" gradientUnits="userSpaceOnUse">
<stop stop-color="#BDDBFF" stop-opacity="0.2"/>
<stop offset="1" stop-color="#0072DB" stop-opacity="0"/>
</linearGradient>
<linearGradient id="paint45_linear_533_11" x1="2168.26" y1="569.115" x2="729.105" y2="-193.264" gradientUnits="userSpaceOnUse">
<stop stop-color="#BDDBFF" stop-opacity="0.2"/>
<stop offset="1" stop-color="#0072DB" stop-opacity="0"/>
</linearGradient>
<linearGradient id="paint46_linear_533_11" x1="2168.26" y1="569.115" x2="729.105" y2="-193.264" gradientUnits="userSpaceOnUse">
<stop stop-color="#BDDBFF" stop-opacity="0.2"/>
<stop offset="1" stop-color="#0072DB" stop-opacity="0"/>
</linearGradient>
<linearGradient id="paint47_linear_533_11" x1="2168.26" y1="569.115" x2="729.105" y2="-193.264" gradientUnits="userSpaceOnUse">
<stop stop-color="#BDDBFF" stop-opacity="0.2"/>
<stop offset="1" stop-color="#0072DB" stop-opacity="0"/>
</linearGradient>
<linearGradient id="paint48_linear_533_11" x1="2168.26" y1="569.115" x2="729.105" y2="-193.264" gradientUnits="userSpaceOnUse">
<stop stop-color="#BDDBFF" stop-opacity="0.2"/>
<stop offset="1" stop-color="#0072DB" stop-opacity="0"/>
</linearGradient>
<linearGradient id="paint49_linear_533_11" x1="2168.26" y1="569.115" x2="729.105" y2="-193.264" gradientUnits="userSpaceOnUse">
<stop stop-color="#BDDBFF" stop-opacity="0.2"/>
<stop offset="1" stop-color="#0072DB" stop-opacity="0"/>
</linearGradient>
<linearGradient id="paint50_linear_533_11" x1="2168.26" y1="569.115" x2="729.105" y2="-193.264" gradientUnits="userSpaceOnUse">
<stop stop-color="#BDDBFF" stop-opacity="0.2"/>
<stop offset="1" stop-color="#0072DB" stop-opacity="0"/>
</linearGradient>
<linearGradient id="paint51_linear_533_11" x1="2168.26" y1="569.115" x2="729.105" y2="-193.264" gradientUnits="userSpaceOnUse">
<stop stop-color="#BDDBFF" stop-opacity="0.2"/>
<stop offset="1" stop-color="#0072DB" stop-opacity="0"/>
</linearGradient>
<linearGradient id="paint52_linear_533_11" x1="2168.26" y1="569.115" x2="729.105" y2="-193.264" gradientUnits="userSpaceOnUse">
<stop stop-color="#BDDBFF" stop-opacity="0.2"/>
<stop offset="1" stop-color="#0072DB" stop-opacity="0"/>
</linearGradient>
<linearGradient id="paint53_linear_533_11" x1="2168.26" y1="569.115" x2="729.105" y2="-193.264" gradientUnits="userSpaceOnUse">
<stop stop-color="#BDDBFF" stop-opacity="0.2"/>
<stop offset="1" stop-color="#0072DB" stop-opacity="0"/>
</linearGradient>
<linearGradient id="paint54_linear_533_11" x1="2168.26" y1="569.115" x2="729.105" y2="-193.264" gradientUnits="userSpaceOnUse">
<stop stop-color="#BDDBFF" stop-opacity="0.2"/>
<stop offset="1" stop-color="#0072DB" stop-opacity="0"/>
</linearGradient>
<linearGradient id="paint55_linear_533_11" x1="2168.26" y1="569.115" x2="729.105" y2="-193.264" gradientUnits="userSpaceOnUse">
<stop stop-color="#BDDBFF" stop-opacity="0.2"/>
<stop offset="1" stop-color="#0072DB" stop-opacity="0"/>
</linearGradient>
<linearGradient id="paint56_linear_533_11" x1="2168.26" y1="569.115" x2="729.105" y2="-193.264" gradientUnits="userSpaceOnUse">
<stop stop-color="#BDDBFF" stop-opacity="0.2"/>
<stop offset="1" stop-color="#0072DB" stop-opacity="0"/>
</linearGradient>
<linearGradient id="paint57_linear_533_11" x1="2168.26" y1="569.115" x2="729.105" y2="-193.264" gradientUnits="userSpaceOnUse">
<stop stop-color="#BDDBFF" stop-opacity="0.2"/>
<stop offset="1" stop-color="#0072DB" stop-opacity="0"/>
</linearGradient>
<linearGradient id="paint58_linear_533_11" x1="2168.26" y1="569.115" x2="729.105" y2="-193.264" gradientUnits="userSpaceOnUse">
<stop stop-color="#BDDBFF" stop-opacity="0.2"/>
<stop offset="1" stop-color="#0072DB" stop-opacity="0"/>
</linearGradient>
<linearGradient id="paint59_linear_533_11" x1="2168.26" y1="569.115" x2="729.105" y2="-193.264" gradientUnits="userSpaceOnUse">
<stop stop-color="#BDDBFF" stop-opacity="0.2"/>
<stop offset="1" stop-color="#0072DB" stop-opacity="0"/>
</linearGradient>
<linearGradient id="paint60_linear_533_11" x1="2168.26" y1="569.115" x2="729.105" y2="-193.264" gradientUnits="userSpaceOnUse">
<stop stop-color="#BDDBFF" stop-opacity="0.2"/>
<stop offset="1" stop-color="#0072DB" stop-opacity="0"/>
</linearGradient>
<linearGradient id="paint61_linear_533_11" x1="2168.26" y1="569.115" x2="729.105" y2="-193.264" gradientUnits="userSpaceOnUse">
<stop stop-color="#BDDBFF" stop-opacity="0.2"/>
<stop offset="1" stop-color="#0072DB" stop-opacity="0"/>
</linearGradient>
<linearGradient id="paint62_linear_533_11" x1="2168.26" y1="569.115" x2="729.105" y2="-193.264" gradientUnits="userSpaceOnUse">
<stop stop-color="#BDDBFF" stop-opacity="0.2"/>
<stop offset="1" stop-color="#0072DB" stop-opacity="0"/>
</linearGradient>
<linearGradient id="paint63_linear_533_11" x1="2168.26" y1="569.115" x2="729.105" y2="-193.264" gradientUnits="userSpaceOnUse">
<stop stop-color="#BDDBFF" stop-opacity="0.2"/>
<stop offset="1" stop-color="#0072DB" stop-opacity="0"/>
</linearGradient>
<linearGradient id="paint64_linear_533_11" x1="2168.26" y1="569.115" x2="729.105" y2="-193.264" gradientUnits="userSpaceOnUse">
<stop stop-color="#BDDBFF" stop-opacity="0.2"/>
<stop offset="1" stop-color="#0072DB" stop-opacity="0"/>
</linearGradient>
<linearGradient id="paint65_linear_533_11" x1="2168.26" y1="569.115" x2="729.105" y2="-193.264" gradientUnits="userSpaceOnUse">
<stop stop-color="#BDDBFF" stop-opacity="0.2"/>
<stop offset="1" stop-color="#0072DB" stop-opacity="0"/>
</linearGradient>
<linearGradient id="paint66_linear_533_11" x1="2168.26" y1="569.115" x2="729.105" y2="-193.264" gradientUnits="userSpaceOnUse">
<stop stop-color="#BDDBFF" stop-opacity="0.2"/>
<stop offset="1" stop-color="#0072DB" stop-opacity="0"/>
</linearGradient>
<linearGradient id="paint67_linear_533_11" x1="2168.26" y1="569.115" x2="729.105" y2="-193.264" gradientUnits="userSpaceOnUse">
<stop stop-color="#BDDBFF" stop-opacity="0.2"/>
<stop offset="1" stop-color="#0072DB" stop-opacity="0"/>
</linearGradient>
<linearGradient id="paint68_linear_533_11" x1="2168.26" y1="569.115" x2="729.105" y2="-193.264" gradientUnits="userSpaceOnUse">
<stop stop-color="#BDDBFF" stop-opacity="0.2"/>
<stop offset="1" stop-color="#0072DB" stop-opacity="0"/>
</linearGradient>
<linearGradient id="paint69_linear_533_11" x1="2168.26" y1="569.115" x2="729.105" y2="-193.264" gradientUnits="userSpaceOnUse">
<stop stop-color="#BDDBFF" stop-opacity="0.2"/>
<stop offset="1" stop-color="#0072DB" stop-opacity="0"/>
</linearGradient>
<linearGradient id="paint70_linear_533_11" x1="2168.26" y1="569.115" x2="729.105" y2="-193.264" gradientUnits="userSpaceOnUse">
<stop stop-color="#BDDBFF" stop-opacity="0.2"/>
<stop offset="1" stop-color="#0072DB" stop-opacity="0"/>
</linearGradient>
<linearGradient id="paint71_linear_533_11" x1="2168.26" y1="569.115" x2="729.105" y2="-193.264" gradientUnits="userSpaceOnUse">
<stop stop-color="#BDDBFF" stop-opacity="0.2"/>
<stop offset="1" stop-color="#0072DB" stop-opacity="0"/>
</linearGradient>
<linearGradient id="paint72_linear_533_11" x1="2168.26" y1="569.115" x2="729.105" y2="-193.264" gradientUnits="userSpaceOnUse">
<stop stop-color="#BDDBFF" stop-opacity="0.2"/>
<stop offset="1" stop-color="#0072DB" stop-opacity="0"/>
</linearGradient>
<linearGradient id="paint73_linear_533_11" x1="2168.26" y1="569.115" x2="729.105" y2="-193.264" gradientUnits="userSpaceOnUse">
<stop stop-color="#BDDBFF" stop-opacity="0.2"/>
<stop offset="1" stop-color="#0072DB" stop-opacity="0"/>
</linearGradient>
<linearGradient id="paint74_linear_533_11" x1="2168.26" y1="569.115" x2="729.105" y2="-193.264" gradientUnits="userSpaceOnUse">
<stop stop-color="#BDDBFF" stop-opacity="0.2"/>
<stop offset="1" stop-color="#0072DB" stop-opacity="0"/>
</linearGradient>
<linearGradient id="paint75_linear_533_11" x1="2168.26" y1="569.115" x2="729.105" y2="-193.264" gradientUnits="userSpaceOnUse">
<stop stop-color="#BDDBFF" stop-opacity="0.2"/>
<stop offset="1" stop-color="#0072DB" stop-opacity="0"/>
</linearGradient>
<linearGradient id="paint76_linear_533_11" x1="2168.26" y1="569.115" x2="729.105" y2="-193.264" gradientUnits="userSpaceOnUse">
<stop stop-color="#BDDBFF" stop-opacity="0.2"/>
<stop offset="1" stop-color="#0072DB" stop-opacity="0"/>
</linearGradient>
<linearGradient id="paint77_linear_533_11" x1="2168.26" y1="569.115" x2="729.105" y2="-193.264" gradientUnits="userSpaceOnUse">
<stop stop-color="#BDDBFF" stop-opacity="0.2"/>
<stop offset="1" stop-color="#0072DB" stop-opacity="0"/>
</linearGradient>
<linearGradient id="paint78_linear_533_11" x1="2168.26" y1="569.115" x2="729.105" y2="-193.264" gradientUnits="userSpaceOnUse">
<stop stop-color="#BDDBFF" stop-opacity="0.2"/>
<stop offset="1" stop-color="#0072DB" stop-opacity="0"/>
</linearGradient>
<linearGradient id="paint79_linear_533_11" x1="2168.26" y1="569.115" x2="729.105" y2="-193.264" gradientUnits="userSpaceOnUse">
<stop stop-color="#BDDBFF" stop-opacity="0.2"/>
<stop offset="1" stop-color="#0072DB" stop-opacity="0"/>
</linearGradient>
<linearGradient id="paint80_linear_533_11" x1="2168.26" y1="569.115" x2="729.105" y2="-193.264" gradientUnits="userSpaceOnUse">
<stop stop-color="#BDDBFF" stop-opacity="0.2"/>
<stop offset="1" stop-color="#0072DB" stop-opacity="0"/>
</linearGradient>
<linearGradient id="paint81_linear_533_11" x1="2168.26" y1="569.115" x2="729.105" y2="-193.264" gradientUnits="userSpaceOnUse">
<stop stop-color="#BDDBFF" stop-opacity="0.2"/>
<stop offset="1" stop-color="#0072DB" stop-opacity="0"/>
</linearGradient>
<linearGradient id="paint82_linear_533_11" x1="2168.26" y1="569.115" x2="729.105" y2="-193.264" gradientUnits="userSpaceOnUse">
<stop stop-color="#BDDBFF" stop-opacity="0.2"/>
<stop offset="1" stop-color="#0072DB" stop-opacity="0"/>
</linearGradient>
<linearGradient id="paint83_linear_533_11" x1="2168.26" y1="569.115" x2="729.105" y2="-193.264" gradientUnits="userSpaceOnUse">
<stop stop-color="#BDDBFF" stop-opacity="0.2"/>
<stop offset="1" stop-color="#0072DB" stop-opacity="0"/>
</linearGradient>
<linearGradient id="paint84_linear_533_11" x1="2168.26" y1="569.115" x2="729.105" y2="-193.264" gradientUnits="userSpaceOnUse">
<stop stop-color="#BDDBFF" stop-opacity="0.2"/>
<stop offset="1" stop-color="#0072DB" stop-opacity="0"/>
</linearGradient>
<linearGradient id="paint85_linear_533_11" x1="2168.26" y1="569.115" x2="729.105" y2="-193.264" gradientUnits="userSpaceOnUse">
<stop stop-color="#BDDBFF" stop-opacity="0.2"/>
<stop offset="1" stop-color="#0072DB" stop-opacity="0"/>
</linearGradient>
<linearGradient id="paint86_linear_533_11" x1="2168.26" y1="569.115" x2="729.105" y2="-193.264" gradientUnits="userSpaceOnUse">
<stop stop-color="#BDDBFF" stop-opacity="0.2"/>
<stop offset="1" stop-color="#0072DB" stop-opacity="0"/>
</linearGradient>
<linearGradient id="paint87_linear_533_11" x1="2168.26" y1="569.115" x2="729.105" y2="-193.264" gradientUnits="userSpaceOnUse">
<stop stop-color="#BDDBFF" stop-opacity="0.2"/>
<stop offset="1" stop-color="#0072DB" stop-opacity="0"/>
</linearGradient>
<linearGradient id="paint88_linear_533_11" x1="2168.26" y1="569.115" x2="729.105" y2="-193.264" gradientUnits="userSpaceOnUse">
<stop stop-color="#BDDBFF" stop-opacity="0.2"/>
<stop offset="1" stop-color="#0072DB" stop-opacity="0"/>
</linearGradient>
<linearGradient id="paint89_linear_533_11" x1="2168.26" y1="569.115" x2="729.105" y2="-193.264" gradientUnits="userSpaceOnUse">
<stop stop-color="#BDDBFF" stop-opacity="0.2"/>
<stop offset="1" stop-color="#0072DB" stop-opacity="0"/>
</linearGradient>
<linearGradient id="paint90_linear_533_11" x1="2168.26" y1="569.115" x2="729.105" y2="-193.264" gradientUnits="userSpaceOnUse">
<stop stop-color="#BDDBFF" stop-opacity="0.2"/>
<stop offset="1" stop-color="#0072DB" stop-opacity="0"/>
</linearGradient>
<linearGradient id="paint91_linear_533_11" x1="2168.26" y1="569.115" x2="729.105" y2="-193.264" gradientUnits="userSpaceOnUse">
<stop stop-color="#BDDBFF" stop-opacity="0.2"/>
<stop offset="1" stop-color="#0072DB" stop-opacity="0"/>
</linearGradient>
<linearGradient id="paint92_linear_533_11" x1="2168.26" y1="569.115" x2="729.105" y2="-193.264" gradientUnits="userSpaceOnUse">
<stop stop-color="#BDDBFF" stop-opacity="0.2"/>
<stop offset="1" stop-color="#0072DB" stop-opacity="0"/>
</linearGradient>
<linearGradient id="paint93_linear_533_11" x1="2168.26" y1="569.115" x2="729.105" y2="-193.264" gradientUnits="userSpaceOnUse">
<stop stop-color="#BDDBFF" stop-opacity="0.2"/>
<stop offset="1" stop-color="#0072DB" stop-opacity="0"/>
</linearGradient>
</defs>
</svg>
