<svg width="54" height="54" viewBox="0 0 54 54" fill="none" xmlns="http://www.w3.org/2000/svg">
<path fill-rule="evenodd" clip-rule="evenodd" d="M54 0H0V54H54V0ZM12 14L19.6655 40H24.3968L32.0623 14H27.4777L22.2695 32.6093H22.1228L16.8414 14H12ZM32.4273 20.0641V40H36.8286V28.895C36.8286 27.7075 36.9875 26.7852 37.3054 26.1283C37.6477 25.4713 38.0878 25.0039 38.6257 24.7259C39.1881 24.448 39.7872 24.309 40.4229 24.309H42V19.9125L41.4865 19.7609C41.1687 19.6599 40.7285 19.6093 40.1662 19.6093C39.1881 19.6093 38.4546 19.9631 37.9655 20.6706C37.4765 21.378 37.0975 22.1487 36.8286 22.9825H36.6085L36.095 20.0641H32.4273Z" fill="#21BCFD"/>
</svg>
