<svg width="956" height="367" viewBox="0 0 956 367" fill="none" xmlns="http://www.w3.org/2000/svg">
<g clip-path="url(#clip0_460_26074)">
<path d="M249.824 112.729L238.749 116.726L258.137 170.529L311.931 151.117L307.94 140.04L265.221 155.455L249.824 112.729Z" fill="url(#paint0_linear_460_26074)"/>
<path d="M517.694 238.612L506.619 242.609L526.007 296.412L579.801 277L575.81 265.923L533.091 281.338L517.694 238.612Z" fill="url(#paint1_linear_460_26074)"/>
<path d="M785.564 364.495L774.489 368.491L793.877 422.294L847.671 402.883L843.68 391.806L800.961 407.221L785.564 364.495Z" fill="url(#paint2_linear_460_26074)"/>
<path d="M115.889 49.788L104.814 53.7845L124.202 107.588L177.996 88.1757L174.005 77.0987L131.286 92.514L115.889 49.788Z" fill="url(#paint3_linear_460_26074)"/>
<path d="M651.629 301.554L640.554 305.55L659.942 359.353L713.736 339.941L709.745 328.864L667.026 344.279L651.629 301.554Z" fill="url(#paint4_linear_460_26074)"/>
<path d="M184.708 251.292L173.633 255.288L193.021 309.091L246.815 289.68L242.824 278.602L200.105 294.018L184.708 251.292Z" fill="url(#paint5_linear_460_26074)"/>
<path d="M318.643 314.233L307.568 318.23L326.956 372.033L380.75 352.621L376.759 341.544L334.04 356.959L318.643 314.233Z" fill="url(#paint6_linear_460_26074)"/>
<path d="M208.185 375.639L204.193 364.562L257.988 345.15L277.375 398.953L266.3 402.949L250.904 360.224L208.185 375.639Z" fill="url(#paint7_linear_460_26074)"/>
<path d="M74.2499 312.697L70.2583 301.62L124.053 282.209L143.44 336.011L132.365 340.008L116.969 297.282L74.2499 312.697Z" fill="url(#paint8_linear_460_26074)"/>
<path d="M5.42464 111.207L1.43307 100.13L55.2276 80.7181L74.6152 134.521L63.54 138.517L48.1439 95.7916L5.42464 111.207Z" fill="url(#paint9_linear_460_26074)"/>
<path d="M273.295 237.089L269.303 226.012L323.098 206.601L342.485 260.404L331.41 264.4L316.014 221.674L273.295 237.089Z" fill="url(#paint10_linear_460_26074)"/>
<path d="M139.36 174.148L135.368 163.071L189.163 143.659L208.55 197.462L197.475 201.459L182.079 158.733L139.36 174.148Z" fill="url(#paint11_linear_460_26074)"/>
<path d="M407.23 300.031L403.238 288.954L457.033 269.542L476.42 323.345L465.345 327.342L449.949 284.616L407.23 300.031Z" fill="url(#paint12_linear_460_26074)"/>
<path d="M874.144 350.306L870.153 339.229L923.947 319.817L943.335 373.62L932.26 377.617L916.864 334.891L874.144 350.306Z" fill="url(#paint13_linear_460_26074)"/>
<path d="M204.469 35.5989L200.478 24.5219L254.272 5.11022L273.66 58.9131L262.585 62.9096L247.189 20.1838L204.469 35.5989Z" fill="url(#paint14_linear_460_26074)"/>
<path d="M472.339 161.482L468.348 150.405L522.142 130.993L541.53 184.796L530.455 188.792L515.059 146.067L472.339 161.482Z" fill="url(#paint15_linear_460_26074)"/>
<path d="M740.209 287.364L736.218 276.287L790.012 256.876L809.4 310.679L798.325 314.675L782.929 271.949L740.209 287.364Z" fill="url(#paint16_linear_460_26074)"/>
</g>
<defs>
<linearGradient id="paint0_linear_460_26074" x1="210.576" y1="1180" x2="325.045" y2="-44.0279" gradientUnits="userSpaceOnUse">
<stop stop-color="#BDDBFF" stop-opacity="0.56"/>
<stop offset="1" stop-color="#0072DB" stop-opacity="0"/>
</linearGradient>
<linearGradient id="paint1_linear_460_26074" x1="210.576" y1="1180" x2="325.045" y2="-44.0279" gradientUnits="userSpaceOnUse">
<stop stop-color="#BDDBFF" stop-opacity="0.56"/>
<stop offset="1" stop-color="#0072DB" stop-opacity="0"/>
</linearGradient>
<linearGradient id="paint2_linear_460_26074" x1="210.576" y1="1180" x2="325.045" y2="-44.0279" gradientUnits="userSpaceOnUse">
<stop stop-color="#BDDBFF" stop-opacity="0.56"/>
<stop offset="1" stop-color="#0072DB" stop-opacity="0"/>
</linearGradient>
<linearGradient id="paint3_linear_460_26074" x1="210.576" y1="1180" x2="325.045" y2="-44.0279" gradientUnits="userSpaceOnUse">
<stop stop-color="#BDDBFF" stop-opacity="0.56"/>
<stop offset="1" stop-color="#0072DB" stop-opacity="0"/>
</linearGradient>
<linearGradient id="paint4_linear_460_26074" x1="210.576" y1="1180" x2="325.045" y2="-44.0279" gradientUnits="userSpaceOnUse">
<stop stop-color="#BDDBFF" stop-opacity="0.56"/>
<stop offset="1" stop-color="#0072DB" stop-opacity="0"/>
</linearGradient>
<linearGradient id="paint5_linear_460_26074" x1="210.576" y1="1180" x2="325.045" y2="-44.0279" gradientUnits="userSpaceOnUse">
<stop stop-color="#BDDBFF" stop-opacity="0.56"/>
<stop offset="1" stop-color="#0072DB" stop-opacity="0"/>
</linearGradient>
<linearGradient id="paint6_linear_460_26074" x1="210.576" y1="1180" x2="325.045" y2="-44.0279" gradientUnits="userSpaceOnUse">
<stop stop-color="#BDDBFF" stop-opacity="0.56"/>
<stop offset="1" stop-color="#0072DB" stop-opacity="0"/>
</linearGradient>
<linearGradient id="paint7_linear_460_26074" x1="210.576" y1="1180" x2="325.045" y2="-44.0279" gradientUnits="userSpaceOnUse">
<stop stop-color="#BDDBFF" stop-opacity="0.56"/>
<stop offset="1" stop-color="#0072DB" stop-opacity="0"/>
</linearGradient>
<linearGradient id="paint8_linear_460_26074" x1="210.576" y1="1180" x2="325.045" y2="-44.0279" gradientUnits="userSpaceOnUse">
<stop stop-color="#BDDBFF" stop-opacity="0.56"/>
<stop offset="1" stop-color="#0072DB" stop-opacity="0"/>
</linearGradient>
<linearGradient id="paint9_linear_460_26074" x1="210.576" y1="1180" x2="325.045" y2="-44.0279" gradientUnits="userSpaceOnUse">
<stop stop-color="#BDDBFF" stop-opacity="0.56"/>
<stop offset="1" stop-color="#0072DB" stop-opacity="0"/>
</linearGradient>
<linearGradient id="paint10_linear_460_26074" x1="210.576" y1="1180" x2="325.045" y2="-44.0279" gradientUnits="userSpaceOnUse">
<stop stop-color="#BDDBFF" stop-opacity="0.56"/>
<stop offset="1" stop-color="#0072DB" stop-opacity="0"/>
</linearGradient>
<linearGradient id="paint11_linear_460_26074" x1="210.576" y1="1180" x2="325.045" y2="-44.0279" gradientUnits="userSpaceOnUse">
<stop stop-color="#BDDBFF" stop-opacity="0.56"/>
<stop offset="1" stop-color="#0072DB" stop-opacity="0"/>
</linearGradient>
<linearGradient id="paint12_linear_460_26074" x1="210.576" y1="1180" x2="325.045" y2="-44.0279" gradientUnits="userSpaceOnUse">
<stop stop-color="#BDDBFF" stop-opacity="0.56"/>
<stop offset="1" stop-color="#0072DB" stop-opacity="0"/>
</linearGradient>
<linearGradient id="paint13_linear_460_26074" x1="210.576" y1="1180" x2="325.045" y2="-44.0279" gradientUnits="userSpaceOnUse">
<stop stop-color="#BDDBFF" stop-opacity="0.56"/>
<stop offset="1" stop-color="#0072DB" stop-opacity="0"/>
</linearGradient>
<linearGradient id="paint14_linear_460_26074" x1="210.576" y1="1180" x2="325.045" y2="-44.0279" gradientUnits="userSpaceOnUse">
<stop stop-color="#BDDBFF" stop-opacity="0.56"/>
<stop offset="1" stop-color="#0072DB" stop-opacity="0"/>
</linearGradient>
<linearGradient id="paint15_linear_460_26074" x1="210.576" y1="1180" x2="325.045" y2="-44.0279" gradientUnits="userSpaceOnUse">
<stop stop-color="#BDDBFF" stop-opacity="0.56"/>
<stop offset="1" stop-color="#0072DB" stop-opacity="0"/>
</linearGradient>
<linearGradient id="paint16_linear_460_26074" x1="210.576" y1="1180" x2="325.045" y2="-44.0279" gradientUnits="userSpaceOnUse">
<stop stop-color="#BDDBFF" stop-opacity="0.56"/>
<stop offset="1" stop-color="#0072DB" stop-opacity="0"/>
</linearGradient>
<clipPath id="clip0_460_26074">
<rect width="956" height="367" fill="white"/>
</clipPath>
</defs>
</svg>
