<svg width="1113" height="908" viewBox="0 0 1113 908" fill="none" xmlns="http://www.w3.org/2000/svg">
<g clip-path="url(#clip0_460_26070)">
<path d="M78.0628 272.847L66.9875 276.843L86.3756 330.646L140.17 311.234L136.178 300.157L93.4592 315.573L78.0628 272.847Z" fill="url(#paint0_linear_460_26070)"/>
<path d="M345.933 398.729L334.858 402.726L354.246 456.529L408.04 437.117L404.048 426.04L361.329 441.455L345.933 398.729Z" fill="url(#paint1_linear_460_26070)"/>
<path d="M613.803 524.612L602.728 528.609L622.116 582.412L675.91 563L671.918 551.923L629.199 567.338L613.803 524.612Z" fill="url(#paint2_linear_460_26070)"/>
<path d="M881.673 650.495L870.598 654.491L889.986 708.294L943.78 688.883L939.788 677.806L897.069 693.221L881.673 650.495Z" fill="url(#paint3_linear_460_26070)"/>
<path d="M211.998 335.788L200.923 339.785L220.311 393.588L274.105 374.176L270.113 363.099L227.394 378.514L211.998 335.788Z" fill="url(#paint4_linear_460_26070)"/>
<path d="M747.738 587.554L736.663 591.55L756.051 645.353L809.845 625.941L805.853 614.864L763.134 630.279L747.738 587.554Z" fill="url(#paint5_linear_460_26070)"/>
<path d="M280.817 537.292L269.742 541.288L289.13 595.091L342.924 575.68L338.932 564.602L296.213 580.018L280.817 537.292Z" fill="url(#paint6_linear_460_26070)"/>
<path d="M548.687 663.175L537.612 667.171L557 720.974L610.794 701.562L606.802 690.485L564.083 705.901L548.687 663.175Z" fill="url(#paint7_linear_460_26070)"/>
<path d="M414.752 600.233L403.677 604.23L423.065 658.033L476.859 638.621L472.867 627.544L430.148 642.959L414.752 600.233Z" fill="url(#paint8_linear_460_26070)"/>
<path d="M682.622 726.116L671.547 730.112L690.935 783.915L744.729 764.504L740.737 753.427L698.018 768.842L682.622 726.116Z" fill="url(#paint9_linear_460_26070)"/>
<path d="M105.248 737.246L101.257 726.169L155.051 706.758L174.439 760.561L163.364 764.557L147.968 721.831L105.248 737.246Z" fill="url(#paint10_linear_460_26070)"/>
<path d="M81.7658 612.913L70.6906 616.909L90.0786 670.712L143.873 651.3L139.881 640.223L97.1623 655.639L81.7658 612.913Z" fill="url(#paint11_linear_460_26070)"/>
<path d="M304.293 661.639L300.302 650.562L354.096 631.15L373.484 684.953L362.409 688.949L347.012 646.224L304.293 661.639Z" fill="url(#paint12_linear_460_26070)"/>
<path d="M572.163 787.521L568.172 776.444L621.966 757.033L641.354 810.836L630.279 814.832L614.882 772.106L572.163 787.521Z" fill="url(#paint13_linear_460_26070)"/>
<path d="M170.358 598.697L166.367 587.62L220.161 568.209L239.549 622.011L228.474 626.008L213.077 583.282L170.358 598.697Z" fill="url(#paint14_linear_460_26070)"/>
<path d="M438.228 724.58L434.237 713.503L488.031 694.091L507.419 747.894L496.344 751.891L480.947 709.165L438.228 724.58Z" fill="url(#paint15_linear_460_26070)"/>
<path d="M16.6498 751.475L5.57456 755.472L24.9626 809.275L78.7567 789.863L74.7652 778.786L32.0463 794.201L16.6498 751.475Z" fill="url(#paint16_linear_460_26070)"/>
<path d="M101.533 397.207L97.5414 386.13L151.336 366.718L170.724 420.521L159.648 424.517L144.252 381.792L101.533 397.207Z" fill="url(#paint17_linear_460_26070)"/>
<path d="M369.403 523.089L365.411 512.012L419.206 492.601L438.594 546.404L427.518 550.4L412.122 507.674L369.403 523.089Z" fill="url(#paint18_linear_460_26070)"/>
<path d="M235.468 460.148L231.476 449.071L285.271 429.659L304.659 483.462L293.583 487.459L278.187 444.733L235.468 460.148Z" fill="url(#paint19_linear_460_26070)"/>
<path d="M503.338 586.031L499.346 574.954L553.141 555.542L572.529 609.345L561.453 613.342L546.057 570.616L503.338 586.031Z" fill="url(#paint20_linear_460_26070)"/>
<path d="M771.208 711.914L767.216 700.837L821.011 681.425L840.399 735.228L829.323 739.224L813.927 696.499L771.208 711.914Z" fill="url(#paint21_linear_460_26070)"/>
<path d="M1039.08 837.796L1035.09 826.719L1088.88 807.308L1108.27 861.111L1097.19 865.107L1081.8 822.381L1039.08 837.796Z" fill="url(#paint22_linear_460_26070)"/>
<path d="M970.253 636.306L966.261 625.229L1020.06 605.817L1039.44 659.62L1028.37 663.617L1012.97 620.891L970.253 636.306Z" fill="url(#paint23_linear_460_26070)"/>
<path d="M32.7078 195.716L28.7162 184.639L82.5107 165.227L101.898 219.03L90.8231 223.027L75.427 180.301L32.7078 195.716Z" fill="url(#paint24_linear_460_26070)"/>
<path d="M300.578 321.599L296.586 310.522L350.381 291.11L369.768 344.913L358.693 348.91L343.297 306.184L300.578 321.599Z" fill="url(#paint25_linear_460_26070)"/>
<path d="M568.448 447.482L564.456 436.405L618.251 416.993L637.638 470.796L626.563 474.792L611.167 432.067L568.448 447.482Z" fill="url(#paint26_linear_460_26070)"/>
<path d="M836.318 573.364L832.326 562.287L886.121 542.876L905.508 596.679L894.433 600.675L879.037 557.949L836.318 573.364Z" fill="url(#paint27_linear_460_26070)"/>
<path d="M714.771 97.7974L707.423 93.5552L728.028 57.8666L763.716 78.4714L759.474 85.8191L731.133 69.4564L714.771 97.7974Z" fill="url(#paint28_linear_460_26070)"/>
<path d="M727.117 12.9269L723.769 18.7513L751.996 35.1209L768.257 6.83067L762.446 3.46046L749.533 25.9263L727.117 12.9269Z" fill="url(#paint29_linear_460_26070)"/>
<path d="M771.206 40.0121L769.251 43.321L785.511 52.4916L795.008 36.4196L791.66 34.5315L784.119 47.2946L771.206 40.0121Z" fill="url(#paint30_linear_460_26070)"/>
<path d="M869.678 56.29L866.331 54.4019L875.827 38.3299L892.087 47.5005L890.132 50.8094L877.22 43.5269L869.678 56.29Z" fill="url(#paint31_linear_460_26070)"/>
<path d="M816.71 158.319L814.754 161.628L831.015 170.799L840.511 154.727L837.163 152.839L829.622 165.602L816.71 158.319Z" fill="url(#paint32_linear_460_26070)"/>
<path d="M685.305 66.7936L680.726 64.1645L693.604 41.9834L715.848 54.7534L713.197 59.3201L695.532 49.1792L685.305 66.7936Z" fill="url(#paint33_linear_460_26070)"/>
</g>
<defs>
<linearGradient id="paint0_linear_460_26070" x1="-128.815" y1="1341.5" x2="331.421" y2="333.336" gradientUnits="userSpaceOnUse">
<stop stop-color="#BDDBFF" stop-opacity="0.56"/>
<stop offset="1" stop-color="#0072DB" stop-opacity="0"/>
</linearGradient>
<linearGradient id="paint1_linear_460_26070" x1="-128.815" y1="1341.5" x2="331.421" y2="333.336" gradientUnits="userSpaceOnUse">
<stop stop-color="#BDDBFF" stop-opacity="0.56"/>
<stop offset="1" stop-color="#0072DB" stop-opacity="0"/>
</linearGradient>
<linearGradient id="paint2_linear_460_26070" x1="-128.815" y1="1341.5" x2="331.421" y2="333.336" gradientUnits="userSpaceOnUse">
<stop stop-color="#BDDBFF" stop-opacity="0.56"/>
<stop offset="1" stop-color="#0072DB" stop-opacity="0"/>
</linearGradient>
<linearGradient id="paint3_linear_460_26070" x1="-128.815" y1="1341.5" x2="331.421" y2="333.336" gradientUnits="userSpaceOnUse">
<stop stop-color="#BDDBFF" stop-opacity="0.56"/>
<stop offset="1" stop-color="#0072DB" stop-opacity="0"/>
</linearGradient>
<linearGradient id="paint4_linear_460_26070" x1="-128.815" y1="1341.5" x2="331.421" y2="333.336" gradientUnits="userSpaceOnUse">
<stop stop-color="#BDDBFF" stop-opacity="0.56"/>
<stop offset="1" stop-color="#0072DB" stop-opacity="0"/>
</linearGradient>
<linearGradient id="paint5_linear_460_26070" x1="-128.815" y1="1341.5" x2="331.421" y2="333.336" gradientUnits="userSpaceOnUse">
<stop stop-color="#BDDBFF" stop-opacity="0.56"/>
<stop offset="1" stop-color="#0072DB" stop-opacity="0"/>
</linearGradient>
<linearGradient id="paint6_linear_460_26070" x1="-128.815" y1="1341.5" x2="331.421" y2="333.336" gradientUnits="userSpaceOnUse">
<stop stop-color="#BDDBFF" stop-opacity="0.56"/>
<stop offset="1" stop-color="#0072DB" stop-opacity="0"/>
</linearGradient>
<linearGradient id="paint7_linear_460_26070" x1="-128.815" y1="1341.5" x2="331.421" y2="333.336" gradientUnits="userSpaceOnUse">
<stop stop-color="#BDDBFF" stop-opacity="0.56"/>
<stop offset="1" stop-color="#0072DB" stop-opacity="0"/>
</linearGradient>
<linearGradient id="paint8_linear_460_26070" x1="-128.815" y1="1341.5" x2="331.421" y2="333.336" gradientUnits="userSpaceOnUse">
<stop stop-color="#BDDBFF" stop-opacity="0.56"/>
<stop offset="1" stop-color="#0072DB" stop-opacity="0"/>
</linearGradient>
<linearGradient id="paint9_linear_460_26070" x1="-128.815" y1="1341.5" x2="331.421" y2="333.336" gradientUnits="userSpaceOnUse">
<stop stop-color="#BDDBFF" stop-opacity="0.56"/>
<stop offset="1" stop-color="#0072DB" stop-opacity="0"/>
</linearGradient>
<linearGradient id="paint10_linear_460_26070" x1="-128.815" y1="1341.5" x2="331.421" y2="333.336" gradientUnits="userSpaceOnUse">
<stop stop-color="#BDDBFF" stop-opacity="0.56"/>
<stop offset="1" stop-color="#0072DB" stop-opacity="0"/>
</linearGradient>
<linearGradient id="paint11_linear_460_26070" x1="-128.815" y1="1341.5" x2="331.421" y2="333.336" gradientUnits="userSpaceOnUse">
<stop stop-color="#BDDBFF" stop-opacity="0.56"/>
<stop offset="1" stop-color="#0072DB" stop-opacity="0"/>
</linearGradient>
<linearGradient id="paint12_linear_460_26070" x1="-128.815" y1="1341.5" x2="331.421" y2="333.336" gradientUnits="userSpaceOnUse">
<stop stop-color="#BDDBFF" stop-opacity="0.56"/>
<stop offset="1" stop-color="#0072DB" stop-opacity="0"/>
</linearGradient>
<linearGradient id="paint13_linear_460_26070" x1="-128.815" y1="1341.5" x2="331.421" y2="333.336" gradientUnits="userSpaceOnUse">
<stop stop-color="#BDDBFF" stop-opacity="0.56"/>
<stop offset="1" stop-color="#0072DB" stop-opacity="0"/>
</linearGradient>
<linearGradient id="paint14_linear_460_26070" x1="-128.815" y1="1341.5" x2="331.421" y2="333.336" gradientUnits="userSpaceOnUse">
<stop stop-color="#BDDBFF" stop-opacity="0.56"/>
<stop offset="1" stop-color="#0072DB" stop-opacity="0"/>
</linearGradient>
<linearGradient id="paint15_linear_460_26070" x1="-128.815" y1="1341.5" x2="331.421" y2="333.336" gradientUnits="userSpaceOnUse">
<stop stop-color="#BDDBFF" stop-opacity="0.56"/>
<stop offset="1" stop-color="#0072DB" stop-opacity="0"/>
</linearGradient>
<linearGradient id="paint16_linear_460_26070" x1="-128.815" y1="1341.5" x2="331.421" y2="333.336" gradientUnits="userSpaceOnUse">
<stop stop-color="#BDDBFF" stop-opacity="0.56"/>
<stop offset="1" stop-color="#0072DB" stop-opacity="0"/>
</linearGradient>
<linearGradient id="paint17_linear_460_26070" x1="-128.815" y1="1341.5" x2="331.421" y2="333.336" gradientUnits="userSpaceOnUse">
<stop stop-color="#BDDBFF" stop-opacity="0.56"/>
<stop offset="1" stop-color="#0072DB" stop-opacity="0"/>
</linearGradient>
<linearGradient id="paint18_linear_460_26070" x1="-128.815" y1="1341.5" x2="331.421" y2="333.336" gradientUnits="userSpaceOnUse">
<stop stop-color="#BDDBFF" stop-opacity="0.56"/>
<stop offset="1" stop-color="#0072DB" stop-opacity="0"/>
</linearGradient>
<linearGradient id="paint19_linear_460_26070" x1="-128.815" y1="1341.5" x2="331.421" y2="333.336" gradientUnits="userSpaceOnUse">
<stop stop-color="#BDDBFF" stop-opacity="0.56"/>
<stop offset="1" stop-color="#0072DB" stop-opacity="0"/>
</linearGradient>
<linearGradient id="paint20_linear_460_26070" x1="-128.815" y1="1341.5" x2="331.421" y2="333.336" gradientUnits="userSpaceOnUse">
<stop stop-color="#BDDBFF" stop-opacity="0.56"/>
<stop offset="1" stop-color="#0072DB" stop-opacity="0"/>
</linearGradient>
<linearGradient id="paint21_linear_460_26070" x1="-128.815" y1="1341.5" x2="331.421" y2="333.336" gradientUnits="userSpaceOnUse">
<stop stop-color="#BDDBFF" stop-opacity="0.56"/>
<stop offset="1" stop-color="#0072DB" stop-opacity="0"/>
</linearGradient>
<linearGradient id="paint22_linear_460_26070" x1="-128.815" y1="1341.5" x2="331.421" y2="333.336" gradientUnits="userSpaceOnUse">
<stop stop-color="#BDDBFF" stop-opacity="0.56"/>
<stop offset="1" stop-color="#0072DB" stop-opacity="0"/>
</linearGradient>
<linearGradient id="paint23_linear_460_26070" x1="-128.815" y1="1341.5" x2="331.421" y2="333.336" gradientUnits="userSpaceOnUse">
<stop stop-color="#BDDBFF" stop-opacity="0.56"/>
<stop offset="1" stop-color="#0072DB" stop-opacity="0"/>
</linearGradient>
<linearGradient id="paint24_linear_460_26070" x1="-128.815" y1="1341.5" x2="331.421" y2="333.336" gradientUnits="userSpaceOnUse">
<stop stop-color="#BDDBFF" stop-opacity="0.56"/>
<stop offset="1" stop-color="#0072DB" stop-opacity="0"/>
</linearGradient>
<linearGradient id="paint25_linear_460_26070" x1="-128.815" y1="1341.5" x2="331.421" y2="333.336" gradientUnits="userSpaceOnUse">
<stop stop-color="#BDDBFF" stop-opacity="0.56"/>
<stop offset="1" stop-color="#0072DB" stop-opacity="0"/>
</linearGradient>
<linearGradient id="paint26_linear_460_26070" x1="-128.815" y1="1341.5" x2="331.421" y2="333.336" gradientUnits="userSpaceOnUse">
<stop stop-color="#BDDBFF" stop-opacity="0.56"/>
<stop offset="1" stop-color="#0072DB" stop-opacity="0"/>
</linearGradient>
<linearGradient id="paint27_linear_460_26070" x1="-128.815" y1="1341.5" x2="331.421" y2="333.336" gradientUnits="userSpaceOnUse">
<stop stop-color="#BDDBFF" stop-opacity="0.56"/>
<stop offset="1" stop-color="#0072DB" stop-opacity="0"/>
</linearGradient>
<linearGradient id="paint28_linear_460_26070" x1="954.914" y1="120.569" x2="727.055" y2="192.07" gradientUnits="userSpaceOnUse">
<stop stop-color="#84BCFF" stop-opacity="0.56"/>
<stop offset="1" stop-color="#79BFFF" stop-opacity="0"/>
</linearGradient>
<linearGradient id="paint29_linear_460_26070" x1="954.914" y1="120.569" x2="727.055" y2="192.07" gradientUnits="userSpaceOnUse">
<stop stop-color="#84BCFF" stop-opacity="0.56"/>
<stop offset="1" stop-color="#79BFFF" stop-opacity="0"/>
</linearGradient>
<linearGradient id="paint30_linear_460_26070" x1="954.914" y1="120.569" x2="727.055" y2="192.07" gradientUnits="userSpaceOnUse">
<stop stop-color="#84BCFF" stop-opacity="0.56"/>
<stop offset="1" stop-color="#79BFFF" stop-opacity="0"/>
</linearGradient>
<linearGradient id="paint31_linear_460_26070" x1="954.914" y1="120.569" x2="727.055" y2="192.07" gradientUnits="userSpaceOnUse">
<stop stop-color="#84BCFF" stop-opacity="0.56"/>
<stop offset="1" stop-color="#79BFFF" stop-opacity="0"/>
</linearGradient>
<linearGradient id="paint32_linear_460_26070" x1="954.914" y1="120.569" x2="727.055" y2="192.07" gradientUnits="userSpaceOnUse">
<stop stop-color="#84BCFF" stop-opacity="0.56"/>
<stop offset="1" stop-color="#79BFFF" stop-opacity="0"/>
</linearGradient>
<linearGradient id="paint33_linear_460_26070" x1="954.914" y1="120.569" x2="727.055" y2="192.07" gradientUnits="userSpaceOnUse">
<stop stop-color="#84BCFF" stop-opacity="0.56"/>
<stop offset="1" stop-color="#79BFFF" stop-opacity="0"/>
</linearGradient>
<clipPath id="clip0_460_26070">
<rect width="1112" height="908" fill="white" transform="translate(0.947754)"/>
</clipPath>
</defs>
</svg>
