<svg width="49" height="52" viewBox="0 0 49 52" fill="none" xmlns="http://www.w3.org/2000/svg">
<path d="M39.2684 6.70312C34.9237 2.38062 29.1468 0 23.0024 0C16.8591 0 11.0822 2.38062 6.7375 6.70312C2.39283 11.0256 0 16.773 0 22.8851C0 28.9981 2.39283 34.7455 6.7375 39.068C11.0822 43.3905 16.8591 45.7712 23.0024 45.7712C26.0313 45.7712 28.9713 45.1923 31.6938 44.0873L30.281 38.8385C28.0617 39.845 25.5964 40.4056 23.0024 40.4056C13.2933 40.4056 5.39306 32.5457 5.39306 22.8851C5.39306 13.2255 13.2933 5.36555 23.0024 5.36555C32.7126 5.36555 40.6128 13.2255 40.6128 22.8851C40.6128 26.9486 39.2143 30.6942 36.8725 33.67L42.432 35.1518C44.7595 31.5189 46.0059 27.297 46.0059 22.8851C46.0059 16.773 43.6131 11.0256 39.2684 6.70312Z" fill="#21BCFD"/>
<path d="M23.0024 8.41242C14.9818 8.41242 8.45556 14.9053 8.45556 22.8851C8.45556 30.8659 14.9818 37.3588 23.0024 37.3588C25.3259 37.3588 27.5247 36.8144 29.4745 35.8465L28.271 31.3767L33.3945 32.7427L33.5946 32.7955C36.0466 30.2047 37.5503 26.716 37.5503 22.8851C37.5503 14.9053 31.0241 8.41242 23.0024 8.41242ZM28.371 27.8129C28.0494 28.403 27.6248 28.8783 27.097 29.2409C26.5682 29.6034 25.9618 29.8665 25.2758 30.029C24.9829 30.0991 24.6858 30.1539 24.3846 30.1925V33.9087H21.3221V30.1285C20.778 30.0442 20.2482 29.9254 19.7286 29.773C19.1723 29.6105 18.6333 29.4145 18.1116 29.187C17.591 28.9605 17.1092 28.6975 16.6661 28.3989L18.2086 25.352C18.2658 25.4231 18.4516 25.5582 18.765 25.7573C19.0794 25.9563 19.4683 26.1544 19.9328 26.3534C20.3962 26.5525 20.9138 26.7302 21.4855 26.8866C22.0561 27.043 22.6349 27.1202 23.2199 27.1202C24.4622 27.1202 25.0839 26.7445 25.0839 25.9909C25.0839 25.7075 24.99 25.4729 24.8052 25.288C24.6194 25.1032 24.3622 24.9366 24.0345 24.7873C23.7058 24.638 23.3169 24.4999 22.8667 24.372C22.4165 24.244 21.9275 24.1018 21.3997 23.9454C20.6994 23.7321 20.0931 23.5016 19.5796 23.2527C19.0651 23.0049 18.6404 22.7175 18.3046 22.3905C17.9687 22.0634 17.7196 21.6866 17.5553 21.2611C17.3909 20.8345 17.3092 20.3379 17.3092 19.7691C17.3092 18.9739 17.4593 18.2701 17.7584 17.6597C18.0585 17.0493 18.4659 16.5344 18.9793 16.1149C19.4938 15.6955 20.089 15.3796 20.7678 15.1663C20.9495 15.1095 21.1343 15.0597 21.3221 15.018V11.5913H24.3846V14.9784C24.4173 14.9835 24.451 14.9896 24.4837 14.9957C24.9982 15.0952 25.4902 15.2232 25.9618 15.3796C26.4324 15.536 26.8724 15.7137 27.2787 15.9118C27.686 16.1119 28.0607 16.3099 28.4037 16.509L26.8612 19.4066C26.8183 19.3507 26.6683 19.2441 26.411 19.0877C26.1548 18.9312 25.8332 18.7677 25.4473 18.5971C25.0625 18.4265 24.6409 18.2772 24.1835 18.1502C23.7272 18.0223 23.2699 17.9583 22.8136 17.9583C21.5569 17.9583 20.9281 18.3767 20.9281 19.2156C20.9281 19.4705 20.9965 19.6838 21.1323 19.8545C21.267 20.0251 21.4671 20.1774 21.7315 20.3125C21.9959 20.4476 22.3277 20.5715 22.7278 20.6852C23.127 20.799 23.5915 20.927 24.1192 21.0691C24.8481 21.2682 25.5045 21.4845 26.0905 21.7191C26.6754 21.9538 27.1715 22.2442 27.5788 22.5926C27.9851 22.9409 28.2995 23.3634 28.5211 23.8601C28.7426 24.3577 28.8528 24.9549 28.8528 25.6506C28.8528 26.5027 28.6926 27.2238 28.371 27.8129Z" fill="#21BCFD"/>
<path d="M43.8254 42.443L46.8103 39.4733L32.6024 35.686L36.409 49.8215L39.394 46.8518L44.5686 52L49 47.5912L43.8254 42.443Z" fill="#21BCFD"/>
</svg>
