<svg width="1252" height="964" viewBox="0 0 1252 964" fill="none" xmlns="http://www.w3.org/2000/svg">
<g clip-path="url(#clip0_460_26035)">
<path d="M10.0053 801.655L6.01378 790.578L59.8083 771.167L79.1959 824.969L68.1207 828.966L52.7246 786.24L10.0053 801.655Z" fill="url(#paint0_linear_460_26035)"/>
<path d="M277.875 927.538L273.884 916.461L327.678 897.049L347.066 950.852L335.991 954.849L320.595 912.123L277.875 927.538Z" fill="url(#paint1_linear_460_26035)"/>
<path d="M342.985 788.989L338.994 777.912L392.788 758.5L412.176 812.303L401.101 816.299L385.704 773.574L342.985 788.989Z" fill="url(#paint2_linear_460_26035)"/>
<path d="M610.855 914.872L606.864 903.795L660.658 884.383L680.046 938.186L668.971 942.182L653.574 899.457L610.855 914.872Z" fill="url(#paint3_linear_460_26035)"/>
<path d="M209.05 726.047L205.059 714.97L258.853 695.559L278.241 749.362L267.166 753.358L251.769 710.632L209.05 726.047Z" fill="url(#paint4_linear_460_26035)"/>
<path d="M476.92 851.93L472.929 840.853L526.723 821.441L546.111 875.244L535.036 879.241L519.639 836.515L476.92 851.93Z" fill="url(#paint5_linear_460_26035)"/>
<path d="M312.084 -15.4511L301.009 -11.4546L320.397 42.3483L374.191 22.9366L370.2 11.8596L327.48 27.2748L312.084 -15.4511Z" fill="url(#paint6_linear_460_26035)"/>
<path d="M579.954 110.432L568.879 114.428L588.267 168.231L642.061 148.819L638.07 137.742L595.351 153.158L579.954 110.432Z" fill="url(#paint7_linear_460_26035)"/>
<path d="M847.824 236.314L836.749 240.311L856.137 294.114L909.931 274.702L905.94 263.625L863.221 279.04L847.824 236.314Z" fill="url(#paint8_linear_460_26035)"/>
<path d="M1115.69 362.197L1104.62 366.194L1124.01 419.997L1177.8 400.585L1173.81 389.508L1131.09 404.923L1115.69 362.197Z" fill="url(#paint9_linear_460_26035)"/>
<path d="M446.019 47.4903L434.944 51.4868L454.332 105.29L508.126 85.878L504.135 74.801L461.416 90.2163L446.019 47.4903Z" fill="url(#paint10_linear_460_26035)"/>
<path d="M713.889 173.373L702.814 177.37L722.202 231.173L775.996 211.761L772.005 200.684L729.286 216.099L713.889 173.373Z" fill="url(#paint11_linear_460_26035)"/>
<path d="M408.095 650.439L404.103 639.362L457.898 619.951L477.286 673.754L466.21 677.75L450.814 635.024L408.095 650.439Z" fill="url(#paint12_linear_460_26035)"/>
<path d="M675.965 776.322L671.973 765.245L725.768 745.834L745.156 799.636L734.08 803.633L718.684 760.907L675.965 776.322Z" fill="url(#paint13_linear_460_26035)"/>
<path d="M542.03 713.381L538.038 702.304L591.833 682.892L611.221 736.695L600.145 740.692L584.749 697.966L542.03 713.381Z" fill="url(#paint14_linear_460_26035)"/>
<path d="M809.9 839.264L805.908 828.187L859.703 808.775L879.091 862.578L868.015 866.574L852.619 823.849L809.9 839.264Z" fill="url(#paint15_linear_460_26035)"/>
<path d="M782.708 374.877L771.633 378.873L791.021 432.676L844.815 413.265L840.824 402.188L798.105 417.603L782.708 374.877Z" fill="url(#paint16_linear_460_26035)"/>
<path d="M1050.58 500.76L1039.5 504.756L1058.89 558.559L1112.69 539.147L1108.69 528.07L1065.97 543.486L1050.58 500.76Z" fill="url(#paint17_linear_460_26035)"/>
<path d="M380.903 186.053L369.828 190.049L389.216 243.852L443.01 224.44L439.019 213.363L396.3 228.779L380.903 186.053Z" fill="url(#paint18_linear_460_26035)"/>
<path d="M916.643 437.818L905.568 441.815L924.956 495.618L978.75 476.206L974.759 465.129L932.04 480.544L916.643 437.818Z" fill="url(#paint19_linear_460_26035)"/>
<path d="M1184.51 563.701L1173.44 567.698L1192.83 621.501L1246.62 602.089L1242.63 591.012L1199.91 606.427L1184.51 563.701Z" fill="url(#paint20_linear_460_26035)"/>
<path d="M205.335 386.007L201.343 374.93L255.138 355.519L274.525 409.322L263.45 413.318L248.054 370.592L205.335 386.007Z" fill="url(#paint21_linear_460_26035)"/>
<path d="M473.205 511.89L469.213 500.813L523.008 481.402L542.395 535.204L531.32 539.201L515.924 496.475L473.205 511.89Z" fill="url(#paint22_linear_460_26035)"/>
<path d="M741.075 637.773L737.083 626.696L790.878 607.284L810.265 661.087L799.19 665.084L783.794 622.358L741.075 637.773Z" fill="url(#paint23_linear_460_26035)"/>
<path d="M1008.94 763.656L1004.95 752.579L1058.75 733.167L1078.14 786.97L1067.06 790.966L1051.66 748.241L1008.94 763.656Z" fill="url(#paint24_linear_460_26035)"/>
<path d="M339.27 448.949L335.278 437.872L389.073 418.46L408.46 472.263L397.385 476.26L381.989 433.534L339.27 448.949Z" fill="url(#paint25_linear_460_26035)"/>
<path d="M607.14 574.832L603.148 563.755L656.943 544.343L676.33 598.146L665.255 602.142L649.859 559.416L607.14 574.832Z" fill="url(#paint26_linear_460_26035)"/>
<path d="M1142.88 826.597L1138.89 815.52L1192.68 796.108L1212.07 849.911L1201 853.908L1185.6 811.182L1142.88 826.597Z" fill="url(#paint27_linear_460_26035)"/>
<path d="M181.852 261.674L170.777 265.67L190.165 319.473L243.959 300.061L239.968 288.984L197.248 304.4L181.852 261.674Z" fill="url(#paint28_linear_460_26035)"/>
<path d="M449.722 387.556L438.647 391.553L458.035 445.356L511.829 425.944L507.838 414.867L465.119 430.282L449.722 387.556Z" fill="url(#paint29_linear_460_26035)"/>
<path d="M985.462 639.322L974.387 643.319L993.775 697.122L1047.57 677.71L1043.58 666.633L1000.86 682.048L985.462 639.322Z" fill="url(#paint30_linear_460_26035)"/>
<path d="M315.787 324.615L304.712 328.612L324.1 382.415L377.894 363.003L373.903 351.926L331.184 367.341L315.787 324.615Z" fill="url(#paint31_linear_460_26035)"/>
<path d="M583.657 450.498L572.582 454.494L591.97 508.297L645.764 488.886L641.773 477.809L599.054 493.224L583.657 450.498Z" fill="url(#paint32_linear_460_26035)"/>
<path d="M806.185 499.224L802.193 488.147L855.988 468.735L875.375 522.538L864.3 526.534L848.904 483.809L806.185 499.224Z" fill="url(#paint33_linear_460_26035)"/>
<path d="M1074.05 625.107L1070.06 614.03L1123.86 594.618L1143.25 648.421L1132.17 652.417L1116.77 609.691L1074.05 625.107Z" fill="url(#paint34_linear_460_26035)"/>
<path d="M404.38 310.4L400.388 299.323L454.183 279.911L473.57 333.714L462.495 337.71L447.099 294.985L404.38 310.4Z" fill="url(#paint35_linear_460_26035)"/>
<path d="M672.25 436.282L668.258 425.205L722.053 405.794L741.44 459.597L730.365 463.593L714.969 420.867L672.25 436.282Z" fill="url(#paint36_linear_460_26035)"/>
<path d="M940.12 562.165L936.128 551.088L989.923 531.677L1009.31 585.479L998.235 589.476L982.839 546.75L940.12 562.165Z" fill="url(#paint37_linear_460_26035)"/>
<path d="M384.606 526.119L373.531 530.115L392.919 583.918L446.713 564.507L442.722 553.43L400.003 568.845L384.606 526.119Z" fill="url(#paint38_linear_460_26035)"/>
<path d="M920.346 777.884L909.271 781.881L928.659 835.684L982.453 816.272L978.462 805.195L935.743 820.61L920.346 777.884Z" fill="url(#paint39_linear_460_26035)"/>
<path d="M1188.22 903.767L1177.14 907.764L1196.53 961.567L1250.32 942.155L1246.33 931.078L1203.61 946.493L1188.22 903.767Z" fill="url(#paint40_linear_460_26035)"/>
<path d="M518.541 589.06L507.466 593.057L526.854 646.86L580.648 627.448L576.657 616.371L533.938 631.786L518.541 589.06Z" fill="url(#paint41_linear_460_26035)"/>
<path d="M786.411 714.943L775.336 718.94L794.724 772.743L848.518 753.331L844.527 742.254L801.808 757.669L786.411 714.943Z" fill="url(#paint42_linear_460_26035)"/>
<path d="M1054.28 840.826L1043.21 844.822L1062.59 898.625L1116.39 879.214L1112.4 868.137L1069.68 883.552L1054.28 840.826Z" fill="url(#paint43_linear_460_26035)"/>
<path d="M335.554 108.909L331.563 97.832L385.357 78.4204L404.745 132.223L393.67 136.22L378.274 93.4939L335.554 108.909Z" fill="url(#paint44_linear_460_26035)"/>
<path d="M603.424 234.792L599.433 223.715L653.227 204.303L672.615 258.106L661.54 262.102L646.144 219.377L603.424 234.792Z" fill="url(#paint45_linear_460_26035)"/>
<path d="M871.294 360.675L867.303 349.598L921.097 330.186L940.485 383.989L929.41 387.985L914.014 345.259L871.294 360.675Z" fill="url(#paint46_linear_460_26035)"/>
<path d="M737.359 297.733L733.368 286.656L787.162 267.245L806.55 321.047L795.475 325.044L780.079 282.318L737.359 297.733Z" fill="url(#paint47_linear_460_26035)"/>
<path d="M1005.23 423.616L1001.24 412.539L1055.03 393.127L1074.42 446.93L1063.34 450.927L1047.95 408.201L1005.23 423.616Z" fill="url(#paint48_linear_460_26035)"/>
<path d="M51.6202 538.798L40.545 542.795L59.9328 596.598L113.727 577.186L109.736 566.109L67.0165 581.524L51.6202 538.798Z" fill="url(#paint49_linear_460_26035)"/>
<path d="M319.49 664.681L308.415 668.678L327.803 722.481L381.597 703.069L377.606 691.992L334.887 707.407L319.49 664.681Z" fill="url(#paint50_linear_460_26035)"/>
<path d="M587.36 790.564L576.285 794.561L595.673 848.364L649.467 828.952L645.476 817.875L602.757 833.29L587.36 790.564Z" fill="url(#paint51_linear_460_26035)"/>
<path d="M185.555 601.74L174.48 605.736L193.868 659.539L247.662 640.128L243.671 629.051L200.952 644.466L185.555 601.74Z" fill="url(#paint52_linear_460_26035)"/>
<path d="M400.664 -29.6402L396.673 -40.7173L450.467 -60.1289L469.855 -6.32604L458.78 -2.32948L443.383 -45.0553L400.664 -29.6402Z" fill="url(#paint53_linear_460_26035)"/>
<path d="M534.599 33.3012L530.608 22.2241L584.402 2.81251L603.79 56.6153L592.715 60.6119L577.318 17.8861L534.599 33.3012Z" fill="url(#paint54_linear_460_26035)"/>
<path d="M802.469 159.184L798.478 148.107L852.272 128.695L871.66 182.498L860.585 186.495L845.188 143.769L802.469 159.184Z" fill="url(#paint55_linear_460_26035)"/>
<path d="M1070.34 285.067L1066.35 273.99L1120.14 254.578L1139.53 308.381L1128.45 312.377L1113.06 269.652L1070.34 285.067Z" fill="url(#paint56_linear_460_26035)"/>
<path d="M120.439 740.302L109.364 744.299L128.752 798.102L182.546 778.69L178.555 767.613L135.836 783.028L120.439 740.302Z" fill="url(#paint57_linear_460_26035)"/>
<path d="M388.309 866.185L377.234 870.182L396.622 923.985L450.416 904.573L446.425 893.496L403.706 908.911L388.309 866.185Z" fill="url(#paint58_linear_460_26035)"/>
</g>
<defs>
<linearGradient id="paint0_linear_460_26035" x1="2037.33" y1="459.7" x2="598.179" y2="-302.679" gradientUnits="userSpaceOnUse">
<stop stop-color="#BDDBFF" stop-opacity="0.56"/>
<stop offset="1" stop-color="#0072DB" stop-opacity="0"/>
</linearGradient>
<linearGradient id="paint1_linear_460_26035" x1="2037.33" y1="459.7" x2="598.179" y2="-302.679" gradientUnits="userSpaceOnUse">
<stop stop-color="#BDDBFF" stop-opacity="0.56"/>
<stop offset="1" stop-color="#0072DB" stop-opacity="0"/>
</linearGradient>
<linearGradient id="paint2_linear_460_26035" x1="2037.33" y1="459.7" x2="598.179" y2="-302.679" gradientUnits="userSpaceOnUse">
<stop stop-color="#BDDBFF" stop-opacity="0.56"/>
<stop offset="1" stop-color="#0072DB" stop-opacity="0"/>
</linearGradient>
<linearGradient id="paint3_linear_460_26035" x1="2037.33" y1="459.7" x2="598.179" y2="-302.679" gradientUnits="userSpaceOnUse">
<stop stop-color="#BDDBFF" stop-opacity="0.56"/>
<stop offset="1" stop-color="#0072DB" stop-opacity="0"/>
</linearGradient>
<linearGradient id="paint4_linear_460_26035" x1="2037.33" y1="459.7" x2="598.179" y2="-302.679" gradientUnits="userSpaceOnUse">
<stop stop-color="#BDDBFF" stop-opacity="0.56"/>
<stop offset="1" stop-color="#0072DB" stop-opacity="0"/>
</linearGradient>
<linearGradient id="paint5_linear_460_26035" x1="2037.33" y1="459.7" x2="598.179" y2="-302.679" gradientUnits="userSpaceOnUse">
<stop stop-color="#BDDBFF" stop-opacity="0.56"/>
<stop offset="1" stop-color="#0072DB" stop-opacity="0"/>
</linearGradient>
<linearGradient id="paint6_linear_460_26035" x1="2037.33" y1="459.7" x2="598.179" y2="-302.679" gradientUnits="userSpaceOnUse">
<stop stop-color="#BDDBFF" stop-opacity="0.56"/>
<stop offset="1" stop-color="#0072DB" stop-opacity="0"/>
</linearGradient>
<linearGradient id="paint7_linear_460_26035" x1="2037.33" y1="459.7" x2="598.179" y2="-302.679" gradientUnits="userSpaceOnUse">
<stop stop-color="#BDDBFF" stop-opacity="0.56"/>
<stop offset="1" stop-color="#0072DB" stop-opacity="0"/>
</linearGradient>
<linearGradient id="paint8_linear_460_26035" x1="2037.33" y1="459.7" x2="598.179" y2="-302.679" gradientUnits="userSpaceOnUse">
<stop stop-color="#BDDBFF" stop-opacity="0.56"/>
<stop offset="1" stop-color="#0072DB" stop-opacity="0"/>
</linearGradient>
<linearGradient id="paint9_linear_460_26035" x1="2037.33" y1="459.7" x2="598.179" y2="-302.679" gradientUnits="userSpaceOnUse">
<stop stop-color="#BDDBFF" stop-opacity="0.56"/>
<stop offset="1" stop-color="#0072DB" stop-opacity="0"/>
</linearGradient>
<linearGradient id="paint10_linear_460_26035" x1="2037.33" y1="459.7" x2="598.179" y2="-302.679" gradientUnits="userSpaceOnUse">
<stop stop-color="#BDDBFF" stop-opacity="0.56"/>
<stop offset="1" stop-color="#0072DB" stop-opacity="0"/>
</linearGradient>
<linearGradient id="paint11_linear_460_26035" x1="2037.33" y1="459.7" x2="598.179" y2="-302.679" gradientUnits="userSpaceOnUse">
<stop stop-color="#BDDBFF" stop-opacity="0.56"/>
<stop offset="1" stop-color="#0072DB" stop-opacity="0"/>
</linearGradient>
<linearGradient id="paint12_linear_460_26035" x1="2037.33" y1="459.7" x2="598.179" y2="-302.679" gradientUnits="userSpaceOnUse">
<stop stop-color="#BDDBFF" stop-opacity="0.56"/>
<stop offset="1" stop-color="#0072DB" stop-opacity="0"/>
</linearGradient>
<linearGradient id="paint13_linear_460_26035" x1="2037.33" y1="459.7" x2="598.179" y2="-302.679" gradientUnits="userSpaceOnUse">
<stop stop-color="#BDDBFF" stop-opacity="0.56"/>
<stop offset="1" stop-color="#0072DB" stop-opacity="0"/>
</linearGradient>
<linearGradient id="paint14_linear_460_26035" x1="2037.33" y1="459.7" x2="598.179" y2="-302.679" gradientUnits="userSpaceOnUse">
<stop stop-color="#BDDBFF" stop-opacity="0.56"/>
<stop offset="1" stop-color="#0072DB" stop-opacity="0"/>
</linearGradient>
<linearGradient id="paint15_linear_460_26035" x1="2037.33" y1="459.7" x2="598.179" y2="-302.679" gradientUnits="userSpaceOnUse">
<stop stop-color="#BDDBFF" stop-opacity="0.56"/>
<stop offset="1" stop-color="#0072DB" stop-opacity="0"/>
</linearGradient>
<linearGradient id="paint16_linear_460_26035" x1="2037.33" y1="459.7" x2="598.179" y2="-302.679" gradientUnits="userSpaceOnUse">
<stop stop-color="#BDDBFF" stop-opacity="0.56"/>
<stop offset="1" stop-color="#0072DB" stop-opacity="0"/>
</linearGradient>
<linearGradient id="paint17_linear_460_26035" x1="2037.33" y1="459.7" x2="598.179" y2="-302.679" gradientUnits="userSpaceOnUse">
<stop stop-color="#BDDBFF" stop-opacity="0.56"/>
<stop offset="1" stop-color="#0072DB" stop-opacity="0"/>
</linearGradient>
<linearGradient id="paint18_linear_460_26035" x1="2037.33" y1="459.7" x2="598.179" y2="-302.679" gradientUnits="userSpaceOnUse">
<stop stop-color="#BDDBFF" stop-opacity="0.56"/>
<stop offset="1" stop-color="#0072DB" stop-opacity="0"/>
</linearGradient>
<linearGradient id="paint19_linear_460_26035" x1="2037.33" y1="459.7" x2="598.179" y2="-302.679" gradientUnits="userSpaceOnUse">
<stop stop-color="#BDDBFF" stop-opacity="0.56"/>
<stop offset="1" stop-color="#0072DB" stop-opacity="0"/>
</linearGradient>
<linearGradient id="paint20_linear_460_26035" x1="2037.33" y1="459.7" x2="598.179" y2="-302.679" gradientUnits="userSpaceOnUse">
<stop stop-color="#BDDBFF" stop-opacity="0.56"/>
<stop offset="1" stop-color="#0072DB" stop-opacity="0"/>
</linearGradient>
<linearGradient id="paint21_linear_460_26035" x1="2037.33" y1="459.7" x2="598.179" y2="-302.679" gradientUnits="userSpaceOnUse">
<stop stop-color="#BDDBFF" stop-opacity="0.56"/>
<stop offset="1" stop-color="#0072DB" stop-opacity="0"/>
</linearGradient>
<linearGradient id="paint22_linear_460_26035" x1="2037.33" y1="459.7" x2="598.179" y2="-302.679" gradientUnits="userSpaceOnUse">
<stop stop-color="#BDDBFF" stop-opacity="0.56"/>
<stop offset="1" stop-color="#0072DB" stop-opacity="0"/>
</linearGradient>
<linearGradient id="paint23_linear_460_26035" x1="2037.33" y1="459.7" x2="598.179" y2="-302.679" gradientUnits="userSpaceOnUse">
<stop stop-color="#BDDBFF" stop-opacity="0.56"/>
<stop offset="1" stop-color="#0072DB" stop-opacity="0"/>
</linearGradient>
<linearGradient id="paint24_linear_460_26035" x1="2037.33" y1="459.7" x2="598.179" y2="-302.679" gradientUnits="userSpaceOnUse">
<stop stop-color="#BDDBFF" stop-opacity="0.56"/>
<stop offset="1" stop-color="#0072DB" stop-opacity="0"/>
</linearGradient>
<linearGradient id="paint25_linear_460_26035" x1="2037.33" y1="459.7" x2="598.179" y2="-302.679" gradientUnits="userSpaceOnUse">
<stop stop-color="#BDDBFF" stop-opacity="0.56"/>
<stop offset="1" stop-color="#0072DB" stop-opacity="0"/>
</linearGradient>
<linearGradient id="paint26_linear_460_26035" x1="2037.33" y1="459.7" x2="598.179" y2="-302.679" gradientUnits="userSpaceOnUse">
<stop stop-color="#BDDBFF" stop-opacity="0.56"/>
<stop offset="1" stop-color="#0072DB" stop-opacity="0"/>
</linearGradient>
<linearGradient id="paint27_linear_460_26035" x1="2037.33" y1="459.7" x2="598.179" y2="-302.679" gradientUnits="userSpaceOnUse">
<stop stop-color="#BDDBFF" stop-opacity="0.56"/>
<stop offset="1" stop-color="#0072DB" stop-opacity="0"/>
</linearGradient>
<linearGradient id="paint28_linear_460_26035" x1="2037.33" y1="459.7" x2="598.179" y2="-302.679" gradientUnits="userSpaceOnUse">
<stop stop-color="#BDDBFF" stop-opacity="0.56"/>
<stop offset="1" stop-color="#0072DB" stop-opacity="0"/>
</linearGradient>
<linearGradient id="paint29_linear_460_26035" x1="2037.33" y1="459.7" x2="598.179" y2="-302.679" gradientUnits="userSpaceOnUse">
<stop stop-color="#BDDBFF" stop-opacity="0.56"/>
<stop offset="1" stop-color="#0072DB" stop-opacity="0"/>
</linearGradient>
<linearGradient id="paint30_linear_460_26035" x1="2037.33" y1="459.7" x2="598.179" y2="-302.679" gradientUnits="userSpaceOnUse">
<stop stop-color="#BDDBFF" stop-opacity="0.56"/>
<stop offset="1" stop-color="#0072DB" stop-opacity="0"/>
</linearGradient>
<linearGradient id="paint31_linear_460_26035" x1="2037.33" y1="459.7" x2="598.179" y2="-302.679" gradientUnits="userSpaceOnUse">
<stop stop-color="#BDDBFF" stop-opacity="0.56"/>
<stop offset="1" stop-color="#0072DB" stop-opacity="0"/>
</linearGradient>
<linearGradient id="paint32_linear_460_26035" x1="2037.33" y1="459.7" x2="598.179" y2="-302.679" gradientUnits="userSpaceOnUse">
<stop stop-color="#BDDBFF" stop-opacity="0.56"/>
<stop offset="1" stop-color="#0072DB" stop-opacity="0"/>
</linearGradient>
<linearGradient id="paint33_linear_460_26035" x1="2037.33" y1="459.7" x2="598.179" y2="-302.679" gradientUnits="userSpaceOnUse">
<stop stop-color="#BDDBFF" stop-opacity="0.56"/>
<stop offset="1" stop-color="#0072DB" stop-opacity="0"/>
</linearGradient>
<linearGradient id="paint34_linear_460_26035" x1="2037.33" y1="459.7" x2="598.179" y2="-302.679" gradientUnits="userSpaceOnUse">
<stop stop-color="#BDDBFF" stop-opacity="0.56"/>
<stop offset="1" stop-color="#0072DB" stop-opacity="0"/>
</linearGradient>
<linearGradient id="paint35_linear_460_26035" x1="2037.33" y1="459.7" x2="598.179" y2="-302.679" gradientUnits="userSpaceOnUse">
<stop stop-color="#BDDBFF" stop-opacity="0.56"/>
<stop offset="1" stop-color="#0072DB" stop-opacity="0"/>
</linearGradient>
<linearGradient id="paint36_linear_460_26035" x1="2037.33" y1="459.7" x2="598.179" y2="-302.679" gradientUnits="userSpaceOnUse">
<stop stop-color="#BDDBFF" stop-opacity="0.56"/>
<stop offset="1" stop-color="#0072DB" stop-opacity="0"/>
</linearGradient>
<linearGradient id="paint37_linear_460_26035" x1="2037.33" y1="459.7" x2="598.179" y2="-302.679" gradientUnits="userSpaceOnUse">
<stop stop-color="#BDDBFF" stop-opacity="0.56"/>
<stop offset="1" stop-color="#0072DB" stop-opacity="0"/>
</linearGradient>
<linearGradient id="paint38_linear_460_26035" x1="2037.33" y1="459.7" x2="598.179" y2="-302.679" gradientUnits="userSpaceOnUse">
<stop stop-color="#BDDBFF" stop-opacity="0.56"/>
<stop offset="1" stop-color="#0072DB" stop-opacity="0"/>
</linearGradient>
<linearGradient id="paint39_linear_460_26035" x1="2037.33" y1="459.7" x2="598.179" y2="-302.679" gradientUnits="userSpaceOnUse">
<stop stop-color="#BDDBFF" stop-opacity="0.56"/>
<stop offset="1" stop-color="#0072DB" stop-opacity="0"/>
</linearGradient>
<linearGradient id="paint40_linear_460_26035" x1="2037.33" y1="459.7" x2="598.179" y2="-302.679" gradientUnits="userSpaceOnUse">
<stop stop-color="#BDDBFF" stop-opacity="0.56"/>
<stop offset="1" stop-color="#0072DB" stop-opacity="0"/>
</linearGradient>
<linearGradient id="paint41_linear_460_26035" x1="2037.33" y1="459.7" x2="598.179" y2="-302.679" gradientUnits="userSpaceOnUse">
<stop stop-color="#BDDBFF" stop-opacity="0.56"/>
<stop offset="1" stop-color="#0072DB" stop-opacity="0"/>
</linearGradient>
<linearGradient id="paint42_linear_460_26035" x1="2037.33" y1="459.7" x2="598.179" y2="-302.679" gradientUnits="userSpaceOnUse">
<stop stop-color="#BDDBFF" stop-opacity="0.56"/>
<stop offset="1" stop-color="#0072DB" stop-opacity="0"/>
</linearGradient>
<linearGradient id="paint43_linear_460_26035" x1="2037.33" y1="459.7" x2="598.179" y2="-302.679" gradientUnits="userSpaceOnUse">
<stop stop-color="#BDDBFF" stop-opacity="0.56"/>
<stop offset="1" stop-color="#0072DB" stop-opacity="0"/>
</linearGradient>
<linearGradient id="paint44_linear_460_26035" x1="2037.33" y1="459.7" x2="598.179" y2="-302.679" gradientUnits="userSpaceOnUse">
<stop stop-color="#BDDBFF" stop-opacity="0.56"/>
<stop offset="1" stop-color="#0072DB" stop-opacity="0"/>
</linearGradient>
<linearGradient id="paint45_linear_460_26035" x1="2037.33" y1="459.7" x2="598.179" y2="-302.679" gradientUnits="userSpaceOnUse">
<stop stop-color="#BDDBFF" stop-opacity="0.56"/>
<stop offset="1" stop-color="#0072DB" stop-opacity="0"/>
</linearGradient>
<linearGradient id="paint46_linear_460_26035" x1="2037.33" y1="459.7" x2="598.179" y2="-302.679" gradientUnits="userSpaceOnUse">
<stop stop-color="#BDDBFF" stop-opacity="0.56"/>
<stop offset="1" stop-color="#0072DB" stop-opacity="0"/>
</linearGradient>
<linearGradient id="paint47_linear_460_26035" x1="2037.33" y1="459.7" x2="598.179" y2="-302.679" gradientUnits="userSpaceOnUse">
<stop stop-color="#BDDBFF" stop-opacity="0.56"/>
<stop offset="1" stop-color="#0072DB" stop-opacity="0"/>
</linearGradient>
<linearGradient id="paint48_linear_460_26035" x1="2037.33" y1="459.7" x2="598.179" y2="-302.679" gradientUnits="userSpaceOnUse">
<stop stop-color="#BDDBFF" stop-opacity="0.56"/>
<stop offset="1" stop-color="#0072DB" stop-opacity="0"/>
</linearGradient>
<linearGradient id="paint49_linear_460_26035" x1="2037.33" y1="459.7" x2="598.179" y2="-302.679" gradientUnits="userSpaceOnUse">
<stop stop-color="#BDDBFF" stop-opacity="0.56"/>
<stop offset="1" stop-color="#0072DB" stop-opacity="0"/>
</linearGradient>
<linearGradient id="paint50_linear_460_26035" x1="2037.33" y1="459.7" x2="598.179" y2="-302.679" gradientUnits="userSpaceOnUse">
<stop stop-color="#BDDBFF" stop-opacity="0.56"/>
<stop offset="1" stop-color="#0072DB" stop-opacity="0"/>
</linearGradient>
<linearGradient id="paint51_linear_460_26035" x1="2037.33" y1="459.7" x2="598.179" y2="-302.679" gradientUnits="userSpaceOnUse">
<stop stop-color="#BDDBFF" stop-opacity="0.56"/>
<stop offset="1" stop-color="#0072DB" stop-opacity="0"/>
</linearGradient>
<linearGradient id="paint52_linear_460_26035" x1="2037.33" y1="459.7" x2="598.179" y2="-302.679" gradientUnits="userSpaceOnUse">
<stop stop-color="#BDDBFF" stop-opacity="0.56"/>
<stop offset="1" stop-color="#0072DB" stop-opacity="0"/>
</linearGradient>
<linearGradient id="paint53_linear_460_26035" x1="2037.33" y1="459.7" x2="598.179" y2="-302.679" gradientUnits="userSpaceOnUse">
<stop stop-color="#BDDBFF" stop-opacity="0.56"/>
<stop offset="1" stop-color="#0072DB" stop-opacity="0"/>
</linearGradient>
<linearGradient id="paint54_linear_460_26035" x1="2037.33" y1="459.7" x2="598.179" y2="-302.679" gradientUnits="userSpaceOnUse">
<stop stop-color="#BDDBFF" stop-opacity="0.56"/>
<stop offset="1" stop-color="#0072DB" stop-opacity="0"/>
</linearGradient>
<linearGradient id="paint55_linear_460_26035" x1="2037.33" y1="459.7" x2="598.179" y2="-302.679" gradientUnits="userSpaceOnUse">
<stop stop-color="#BDDBFF" stop-opacity="0.56"/>
<stop offset="1" stop-color="#0072DB" stop-opacity="0"/>
</linearGradient>
<linearGradient id="paint56_linear_460_26035" x1="2037.33" y1="459.7" x2="598.179" y2="-302.679" gradientUnits="userSpaceOnUse">
<stop stop-color="#BDDBFF" stop-opacity="0.56"/>
<stop offset="1" stop-color="#0072DB" stop-opacity="0"/>
</linearGradient>
<linearGradient id="paint57_linear_460_26035" x1="2037.33" y1="459.7" x2="598.179" y2="-302.679" gradientUnits="userSpaceOnUse">
<stop stop-color="#BDDBFF" stop-opacity="0.56"/>
<stop offset="1" stop-color="#0072DB" stop-opacity="0"/>
</linearGradient>
<linearGradient id="paint58_linear_460_26035" x1="2037.33" y1="459.7" x2="598.179" y2="-302.679" gradientUnits="userSpaceOnUse">
<stop stop-color="#BDDBFF" stop-opacity="0.56"/>
<stop offset="1" stop-color="#0072DB" stop-opacity="0"/>
</linearGradient>
<clipPath id="clip0_460_26035">
<rect width="1252" height="964" fill="white"/>
</clipPath>
</defs>
</svg>
