<svg width="54" height="54" viewBox="0 0 54 54" fill="none" xmlns="http://www.w3.org/2000/svg">
<path d="M53 45.2993C53.5523 45.2993 54 44.8515 54 44.2993V38.4699C54 37.9176 53.5523 37.4699 53 37.4699H0.999999C0.447715 37.4699 0 37.9176 0 38.4699V44.2992C0 44.8515 0.447715 45.2993 1 45.2993H20.8713C21.4235 45.2993 21.8713 45.747 21.8713 46.2993V49.8359C21.8713 50.3882 21.4235 50.8359 20.8713 50.8359H16.6996C16.1473 50.8359 15.6996 51.2837 15.6996 51.8359V53C15.6996 53.5523 16.1473 54 16.6996 54H37.3006C37.8528 54 38.3006 53.5523 38.3006 53V51.8359C38.3006 51.2837 37.8528 50.8359 37.3006 50.8359H33.1287C32.5765 50.8359 32.1287 50.3882 32.1287 49.8359V46.2993C32.1287 45.747 32.5765 45.2993 33.1287 45.2993H53Z" fill="#21BCFD"/>
<path d="M10.8306 8.88695C10.8306 8.33467 10.3829 7.88695 9.83059 7.88695H1C0.447715 7.88695 0 8.33467 0 8.88695V33.3058C0 33.8581 0.447714 34.3058 0.999999 34.3058H9.83059C10.3829 34.3058 10.8306 33.8581 10.8306 33.3058V8.88695Z" fill="#21BCFD"/>
<path d="M54 8.88695C54 8.33467 53.5523 7.88695 53 7.88695H44.1694C43.6171 7.88695 43.1694 8.33467 43.1694 8.88695V33.3058C43.1694 33.8581 43.6171 34.3058 44.1694 34.3058H53C53.5523 34.3058 54 33.8581 54 33.3058V8.88695Z" fill="#21BCFD"/>
<path d="M16.1446 8.60794C14.9574 8.60794 13.9948 9.57023 13.9944 10.7575V33.3058C13.9944 33.8581 14.4422 34.3058 14.9944 34.3058H17.2948C17.8471 34.3058 18.2948 33.8581 18.2948 33.3058V10.7581C18.2948 9.57055 17.3321 8.60794 16.1446 8.60794Z" fill="#21BCFD"/>
<path d="M23.6091 8.60794C22.4216 8.60794 21.4589 9.57055 21.4589 10.7581V33.3058C21.4589 33.8581 21.9066 34.3058 22.4589 34.3058H24.7593C25.3116 34.3058 25.7593 33.8581 25.7593 33.3058V10.7575C25.7589 9.57023 24.7964 8.60794 23.6091 8.60794Z" fill="#21BCFD"/>
<path d="M20.6443 0.918764C20.2446 0.440212 19.5091 0.440209 19.1094 0.918757L15.8326 4.84145C15.6385 5.07385 15.8418 5.44377 16.1446 5.44377C17.2437 5.44385 18.2659 5.7792 19.1143 6.353C19.5678 6.6597 20.1859 6.6597 20.6394 6.353C21.4878 5.77921 22.51 5.44388 23.6092 5.44388C23.912 5.44388 24.1153 5.07401 23.9212 4.84163L20.6443 0.918764Z" fill="#21BCFD"/>
<path d="M29.9233 0C29.371 0 28.9233 0.447715 28.9233 1V2.30307C28.9233 2.85536 29.371 3.30307 29.9233 3.30307H30.5881C31.1404 3.30307 31.5881 3.75079 31.5881 4.30307V5.49846C31.5881 6.05074 31.1404 6.49846 30.5881 6.49846H29.7761C29.3051 6.49846 28.9233 6.88025 28.9233 7.35122C28.9233 7.8222 29.3051 8.20399 29.7761 8.20399H32.3932C32.9455 8.20399 33.3932 8.65171 33.3932 9.20399V10.3994C33.3932 10.9517 32.9455 11.3994 32.3932 11.3994H29.776C29.3051 11.3994 28.9233 11.7812 28.9233 12.2521C28.9233 12.723 29.3051 13.1048 29.776 13.1048H30.5881C31.1404 13.1048 31.5881 13.5525 31.5881 14.1048V15.3002C31.5881 15.8525 31.1404 16.3002 30.5881 16.3002H29.776C29.3051 16.3002 28.9233 16.682 28.9233 17.1529C28.9233 17.6239 29.3051 18.0056 29.776 18.0056H32.3932C32.9455 18.0056 33.3932 18.4533 33.3932 19.0056V20.201C33.3932 20.7533 32.9455 21.201 32.3932 21.201H29.776C29.3051 21.201 28.9233 21.5828 28.9233 22.0537C28.9233 22.5247 29.3051 22.9064 29.776 22.9064H30.5881C31.1404 22.9064 31.5881 23.3542 31.5881 23.9064V25.1018C31.5881 25.6541 31.1404 26.1018 30.5881 26.1018H29.7761C29.3051 26.1018 28.9233 26.4836 28.9233 26.9546C28.9233 27.4256 29.3051 27.8074 29.7761 27.8074H32.3932C32.9455 27.8074 33.3932 28.2551 33.3932 28.8074V30.0028C33.3932 30.555 32.9455 31.0028 32.3932 31.0028H29.9233C29.371 31.0028 28.9233 31.4505 28.9233 32.0028V33.3058C28.9233 33.8581 29.371 34.3058 29.9233 34.3058H39.0057C39.558 34.3058 40.0057 33.8581 40.0057 33.3058V1C40.0057 0.447716 39.558 0 39.0057 0H29.9233Z" fill="#21BCFD"/>
</svg>
