<svg width="849" height="439" viewBox="0 0 849 439" fill="none" xmlns="http://www.w3.org/2000/svg">
<g clip-path="url(#clip0_460_26029)">
<path d="M248.824 115.314L237.749 119.311L257.137 173.114L310.931 153.702L306.94 142.625L264.221 158.04L248.824 115.314Z" fill="url(#paint0_linear_460_26029)"/>
<path d="M516.694 241.197L505.619 245.194L525.007 298.997L578.801 279.585L574.81 268.508L532.091 283.923L516.694 241.197Z" fill="url(#paint1_linear_460_26029)"/>
<path d="M784.564 367.08L773.489 371.076L792.877 424.879L846.671 405.468L842.68 394.391L799.961 409.806L784.564 367.08Z" fill="url(#paint2_linear_460_26029)"/>
<path d="M114.889 52.373L103.814 56.3695L123.202 110.173L176.996 90.7608L173.005 79.6837L130.286 95.099L114.889 52.373Z" fill="url(#paint3_linear_460_26029)"/>
<path d="M650.629 304.139L639.554 308.135L658.942 361.938L712.736 342.526L708.745 331.449L666.026 346.865L650.629 304.139Z" fill="url(#paint4_linear_460_26029)"/>
<path d="M183.708 253.877L172.633 257.873L192.021 311.676L245.815 292.265L241.824 281.188L199.105 296.603L183.708 253.877Z" fill="url(#paint5_linear_460_26029)"/>
<path d="M451.579 379.76L440.503 383.756L459.891 437.559L513.685 418.147L509.694 407.07L466.975 422.486L451.579 379.76Z" fill="url(#paint6_linear_460_26029)"/>
<path d="M317.643 316.818L306.568 320.815L325.956 374.618L379.75 355.206L375.759 344.129L333.04 359.544L317.643 316.818Z" fill="url(#paint7_linear_460_26029)"/>
<path d="M207.185 378.224L203.193 367.147L256.988 347.735L276.375 401.538L265.3 405.534L249.904 362.809L207.185 378.224Z" fill="url(#paint8_linear_460_26029)"/>
<path d="M73.2499 315.282L69.2583 304.205L123.053 284.794L142.44 338.596L131.365 342.593L115.969 299.867L73.2499 315.282Z" fill="url(#paint9_linear_460_26029)"/>
<path d="M4.42464 113.792L0.433071 102.715L54.2276 83.3031L73.6152 137.106L62.54 141.102L47.1439 98.3767L4.42464 113.792Z" fill="url(#paint10_linear_460_26029)"/>
<path d="M272.295 239.674L268.303 228.597L322.098 209.186L341.485 262.989L330.41 266.985L315.014 224.259L272.295 239.674Z" fill="url(#paint11_linear_460_26029)"/>
<path d="M138.36 176.733L134.368 165.656L188.163 146.244L207.55 200.047L196.475 204.044L181.079 161.318L138.36 176.733Z" fill="url(#paint12_linear_460_26029)"/>
<path d="M406.23 302.616L402.238 291.539L456.033 272.127L475.42 325.93L464.345 329.927L448.949 287.201L406.23 302.616Z" fill="url(#paint13_linear_460_26029)"/>
<path d="M203.469 38.1839L199.478 27.1069L253.272 7.69525L272.66 61.4981L261.585 65.4947L246.189 22.7688L203.469 38.1839Z" fill="url(#paint14_linear_460_26029)"/>
<path d="M471.339 164.067L467.348 152.99L521.142 133.578L540.53 187.381L529.455 191.377L514.059 148.652L471.339 164.067Z" fill="url(#paint15_linear_460_26029)"/>
<path d="M739.209 289.949L735.218 278.872L789.012 259.461L808.4 313.264L797.325 317.26L781.929 274.534L739.209 289.949Z" fill="url(#paint16_linear_460_26029)"/>
</g>
<defs>
<linearGradient id="paint0_linear_460_26029" x1="-225.924" y1="1058.09" x2="234.312" y2="49.9214" gradientUnits="userSpaceOnUse">
<stop stop-color="#BDDBFF" stop-opacity="0.56"/>
<stop offset="1" stop-color="#0072DB" stop-opacity="0"/>
</linearGradient>
<linearGradient id="paint1_linear_460_26029" x1="-225.924" y1="1058.09" x2="234.312" y2="49.9214" gradientUnits="userSpaceOnUse">
<stop stop-color="#BDDBFF" stop-opacity="0.56"/>
<stop offset="1" stop-color="#0072DB" stop-opacity="0"/>
</linearGradient>
<linearGradient id="paint2_linear_460_26029" x1="-225.924" y1="1058.09" x2="234.312" y2="49.9214" gradientUnits="userSpaceOnUse">
<stop stop-color="#BDDBFF" stop-opacity="0.56"/>
<stop offset="1" stop-color="#0072DB" stop-opacity="0"/>
</linearGradient>
<linearGradient id="paint3_linear_460_26029" x1="-225.924" y1="1058.09" x2="234.312" y2="49.9214" gradientUnits="userSpaceOnUse">
<stop stop-color="#BDDBFF" stop-opacity="0.56"/>
<stop offset="1" stop-color="#0072DB" stop-opacity="0"/>
</linearGradient>
<linearGradient id="paint4_linear_460_26029" x1="-225.924" y1="1058.09" x2="234.312" y2="49.9214" gradientUnits="userSpaceOnUse">
<stop stop-color="#BDDBFF" stop-opacity="0.56"/>
<stop offset="1" stop-color="#0072DB" stop-opacity="0"/>
</linearGradient>
<linearGradient id="paint5_linear_460_26029" x1="-225.924" y1="1058.09" x2="234.312" y2="49.9214" gradientUnits="userSpaceOnUse">
<stop stop-color="#BDDBFF" stop-opacity="0.56"/>
<stop offset="1" stop-color="#0072DB" stop-opacity="0"/>
</linearGradient>
<linearGradient id="paint6_linear_460_26029" x1="-225.924" y1="1058.09" x2="234.312" y2="49.9214" gradientUnits="userSpaceOnUse">
<stop stop-color="#BDDBFF" stop-opacity="0.56"/>
<stop offset="1" stop-color="#0072DB" stop-opacity="0"/>
</linearGradient>
<linearGradient id="paint7_linear_460_26029" x1="-225.924" y1="1058.09" x2="234.312" y2="49.9214" gradientUnits="userSpaceOnUse">
<stop stop-color="#BDDBFF" stop-opacity="0.56"/>
<stop offset="1" stop-color="#0072DB" stop-opacity="0"/>
</linearGradient>
<linearGradient id="paint8_linear_460_26029" x1="-225.924" y1="1058.09" x2="234.312" y2="49.9214" gradientUnits="userSpaceOnUse">
<stop stop-color="#BDDBFF" stop-opacity="0.56"/>
<stop offset="1" stop-color="#0072DB" stop-opacity="0"/>
</linearGradient>
<linearGradient id="paint9_linear_460_26029" x1="-225.924" y1="1058.09" x2="234.312" y2="49.9214" gradientUnits="userSpaceOnUse">
<stop stop-color="#BDDBFF" stop-opacity="0.56"/>
<stop offset="1" stop-color="#0072DB" stop-opacity="0"/>
</linearGradient>
<linearGradient id="paint10_linear_460_26029" x1="-225.924" y1="1058.09" x2="234.312" y2="49.9214" gradientUnits="userSpaceOnUse">
<stop stop-color="#BDDBFF" stop-opacity="0.56"/>
<stop offset="1" stop-color="#0072DB" stop-opacity="0"/>
</linearGradient>
<linearGradient id="paint11_linear_460_26029" x1="-225.924" y1="1058.09" x2="234.312" y2="49.9214" gradientUnits="userSpaceOnUse">
<stop stop-color="#BDDBFF" stop-opacity="0.56"/>
<stop offset="1" stop-color="#0072DB" stop-opacity="0"/>
</linearGradient>
<linearGradient id="paint12_linear_460_26029" x1="-225.924" y1="1058.09" x2="234.312" y2="49.9214" gradientUnits="userSpaceOnUse">
<stop stop-color="#BDDBFF" stop-opacity="0.56"/>
<stop offset="1" stop-color="#0072DB" stop-opacity="0"/>
</linearGradient>
<linearGradient id="paint13_linear_460_26029" x1="-225.924" y1="1058.09" x2="234.312" y2="49.9214" gradientUnits="userSpaceOnUse">
<stop stop-color="#BDDBFF" stop-opacity="0.56"/>
<stop offset="1" stop-color="#0072DB" stop-opacity="0"/>
</linearGradient>
<linearGradient id="paint14_linear_460_26029" x1="-225.924" y1="1058.09" x2="234.312" y2="49.9214" gradientUnits="userSpaceOnUse">
<stop stop-color="#BDDBFF" stop-opacity="0.56"/>
<stop offset="1" stop-color="#0072DB" stop-opacity="0"/>
</linearGradient>
<linearGradient id="paint15_linear_460_26029" x1="-225.924" y1="1058.09" x2="234.312" y2="49.9214" gradientUnits="userSpaceOnUse">
<stop stop-color="#BDDBFF" stop-opacity="0.56"/>
<stop offset="1" stop-color="#0072DB" stop-opacity="0"/>
</linearGradient>
<linearGradient id="paint16_linear_460_26029" x1="-225.924" y1="1058.09" x2="234.312" y2="49.9214" gradientUnits="userSpaceOnUse">
<stop stop-color="#BDDBFF" stop-opacity="0.56"/>
<stop offset="1" stop-color="#0072DB" stop-opacity="0"/>
</linearGradient>
<clipPath id="clip0_460_26029">
<rect width="849" height="439" fill="white"/>
</clipPath>
</defs>
</svg>
