<svg width="32" height="32" viewBox="0 0 32 32" fill="none" xmlns="http://www.w3.org/2000/svg">
<path d="M17.1365 17.893C17.0378 18.0919 16.9055 18.2785 16.7397 18.444C15.8838 19.3002 14.4734 19.2641 13.6643 18.3356C12.7358 17.5265 12.6997 16.1161 13.5557 15.2599C13.7214 15.0944 13.908 14.962 14.1069 14.8632C14.2268 14.8036 14.3447 14.7404 14.4603 14.6735C14.9604 14.384 14.9819 13.709 14.5733 13.3004L12.2225 10.9496C11.832 10.5591 11.832 9.92593 12.2225 9.53541L14.5733 7.18456C14.9819 6.77598 15.6569 6.79742 15.9464 7.29751C16.0134 7.41326 16.0766 7.53136 16.1362 7.65143C16.2349 7.85016 16.3672 8.03668 16.533 8.20246C17.3892 9.05866 18.7998 9.02229 19.6089 8.09332C20.5378 7.28424 20.5742 5.87334 19.718 5.01713C19.5525 4.8516 19.366 4.71927 19.167 4.6204C19.0472 4.56085 18.9293 4.49772 18.8138 4.43085C18.3135 4.14133 18.292 3.46611 18.7006 3.05743L21.0512 0.706871C21.4417 0.316343 22.0749 0.316343 22.4654 0.706871L24.8159 3.05742C25.2246 3.4661 25.8998 3.44453 26.1894 2.9443C26.2562 2.82877 26.3194 2.7109 26.3789 2.59108C26.4778 2.39211 26.6099 2.20583 26.7756 2.04005C27.6318 1.18385 29.0422 1.22022 29.8513 2.14845C30.7798 2.95754 30.8159 4.36795 29.9597 5.22416C29.7939 5.38969 29.6077 5.52201 29.4087 5.62089C29.2889 5.68043 29.171 5.74357 29.0555 5.81044C28.5552 6.09996 28.5337 6.77518 28.9423 7.18386L31.2929 9.53443C31.6834 9.92495 31.6834 10.5581 31.2929 10.9486L28.9424 13.2992C28.5337 13.7079 27.8585 13.6863 27.5689 13.1861C27.5021 13.0705 27.4389 12.9527 27.3794 12.8329C27.2805 12.6339 27.1484 12.4476 26.9827 12.2818C26.1265 11.4256 24.7156 11.462 23.9065 12.391C22.9775 13.2001 22.9412 14.6107 23.7974 15.4669C23.9631 15.6327 24.1497 15.765 24.3484 15.8636C24.4684 15.9232 24.5864 15.9864 24.7021 16.0534C25.2021 16.3429 25.2236 17.018 24.815 17.4266L22.4642 19.7774C22.0737 20.1679 21.4405 20.1679 21.05 19.7774L18.6992 17.4266C18.2906 17.018 17.6156 17.0395 17.3261 17.5396C17.2592 17.6552 17.196 17.7731 17.1365 17.893Z" fill="#1267E4"/>
<path d="M3.05765 18.6993C3.46633 18.2906 3.44475 17.6154 2.94454 17.3259C2.829 17.259 2.71112 17.1959 2.59131 17.1364C2.39233 17.0375 2.20605 16.9054 2.04028 16.7396C1.18408 15.8837 1.22046 14.4733 2.14868 13.6639C2.95776 12.7357 4.36816 12.6996 5.22437 13.5555C5.38989 13.7213 5.52222 13.9078 5.62109 14.1066C5.68067 14.2265 5.74384 14.3445 5.81075 14.4601C6.10017 14.9603 6.77522 14.9817 7.18381 14.5731L9.53459 12.2223C9.92511 11.8318 10.5583 11.8318 10.9488 12.2223L12.2906 13.5641C12.4068 13.6804 12.3987 13.8704 12.2825 13.9867C11.5205 14.7489 11.1045 15.8038 11.1414 16.8812C11.1768 17.9171 11.6299 18.9049 12.3894 19.6105C13.095 20.3698 14.0828 20.8229 15.1187 20.8586C16.196 20.8954 17.251 20.4794 18.0132 19.7174C18.1291 19.6011 18.3194 19.593 18.4355 19.7091L19.7775 21.0511C20.168 21.4416 20.168 22.0748 19.7775 22.4653L17.4267 24.8161C17.0181 25.2247 17.0396 25.8998 17.5397 26.1892C17.6553 26.2561 17.7732 26.3193 17.8931 26.3789C18.092 26.4775 18.2786 26.6098 18.4443 26.7756C19.3003 27.6316 19.2642 29.042 18.3357 29.8511C17.5266 30.7795 16.1162 30.8157 15.2603 29.9597C15.0945 29.7939 14.9622 29.6074 14.8635 29.4084C14.804 29.2886 14.7409 29.1707 14.674 29.0552C14.3845 28.555 13.7092 28.5334 13.3006 28.9421L10.95 31.2926C10.5595 31.6832 9.92634 31.6832 9.53581 31.2926L7.18502 28.9418C6.77643 28.5332 6.7979 27.8582 7.29803 27.5688C7.41366 27.5019 7.53166 27.4387 7.65161 27.3791C7.85034 27.2805 8.03687 27.1482 8.20264 26.9824C9.05884 26.1262 9.02246 24.7155 8.09351 23.9064C7.28442 22.9775 5.87354 22.9411 5.01733 23.7973C4.85181 23.9628 4.71948 24.1494 4.62061 24.3483C4.56107 24.4681 4.49794 24.586 4.43107 24.7015C4.14155 25.2018 3.46632 25.2233 3.05764 24.8147L0.707099 22.4641C0.316578 22.0736 0.316578 21.4404 0.707099 21.0499L3.05765 18.6993Z" fill="#1267E4"/>
</svg>
